<svg width="352" height="280" viewBox="0 0 352 280" fill="none" xmlns="http://www.w3.org/2000/svg">
<path d="M309.63 263.047C309.63 272.41 257.34 280 192.839 280C128.338 280 76.0493 272.41 76.0493 263.047C76.0493 253.684 128.338 246.094 192.839 246.094C257.34 246.094 309.63 253.684 309.63 263.047Z" fill="black" fill-opacity="0.12"/>
<rect x="149" y="216" width="57" height="13" fill="#D15906"/>
<path d="M165 135H193V138H165V135Z" fill="#222222"/>
<path d="M165 139H193V142H165V139Z" fill="#222222"/>
<path d="M193 143H165V146H193V143Z" fill="#222222"/>
<path d="M211.433 161.899H178.788V164.606H211.433V161.899Z" fill="#23434C"/>
<path d="M225.565 232.221H163.499V234.929H225.565V232.221Z" fill="#23434C"/>
<path d="M136.267 125.428C136.298 125.062 122.683 120.447 122.683 120.447L123.487 73.1069L141.54 69.1866L136.267 125.428Z" fill="url(#paint0_radial_1011_87723)"/>
<path d="M134.919 124.791C131.485 123.431 122.683 120.447 122.683 120.447L123.487 73.1071L139.573 69.6147C137.714 88.1444 136.016 109.845 134.919 124.791Z" fill="#FFAD38"/>
<path d="M260.969 144.01C261.064 143.655 275.418 144.064 275.418 144.064L290.76 99.3358L275.143 89.3677L260.969 144.01Z" fill="url(#paint1_radial_1011_87723)"/>
<path d="M275.418 144.064C275.418 144.064 268.441 143.865 264.183 143.865C263.319 143.865 262.566 143.873 262.008 143.892C266.276 128.93 272.468 107.181 277.169 90.6598L290.76 99.3358L275.418 144.064Z" fill="#FFAD38"/>
<path d="M133.646 142.859C133.646 142.859 138.694 66.2973 143.121 41.1113C143.121 41.1113 234.51 48.1062 283.847 67.1894C283.847 67.1894 258.411 156.617 257.095 161.055C257.095 161.055 192.74 148.225 133.646 142.859Z" fill="url(#paint2_radial_1011_87723)"/>
<path d="M266.903 121.135L264.581 120.609C264.584 120.591 264.589 120.574 264.593 120.556L266.903 121.135ZM211.357 108.23L205.555 106.858L205.245 106.785L205.301 106.468L210.178 78.8869C211.818 69.6965 213.509 60.5145 215.22 51.3352C213.734 60.5545 212.232 69.77 210.674 78.9753L206.018 106.269L211.517 107.591C211.461 107.802 211.408 108.016 211.357 108.23Z" fill="#D15500"/>
<path d="M210.096 58.3953C209.679 58.3953 209.246 58.2446 208.912 57.9506C208.535 57.6176 208.309 57.1068 208.307 56.5896C208.308 56.0733 208.533 55.5616 208.911 55.2286C209.243 54.9327 209.678 54.783 210.095 54.783C210.149 54.783 210.202 54.7858 210.255 54.7904C211.212 54.876 211.877 55.7458 211.86 56.5896C211.878 57.4343 211.211 58.3032 210.255 58.3879C210.203 58.3925 210.149 58.3953 210.096 58.3953ZM210.417 55.1318C210.363 55.1318 210.309 55.1356 210.255 55.1411C209.484 55.2314 208.984 55.9319 208.995 56.5896C208.984 57.2473 209.483 57.9516 210.255 58.0399C210.309 58.0465 210.362 58.0492 210.415 58.0492C210.745 58.0492 211.087 57.9357 211.357 57.7041C211.67 57.4343 211.857 57.0157 211.86 56.5896C211.857 56.1635 211.67 55.7458 211.357 55.476C211.086 55.2453 210.745 55.1318 210.417 55.1318Z" fill="#D15500"/>
<path d="M208.49 69.7877C208.074 69.7877 207.641 69.637 207.306 69.3421C206.929 69.01 206.704 68.4992 206.701 67.982C206.704 67.4657 206.928 66.9531 207.305 66.621C207.638 66.3251 208.073 66.1754 208.489 66.1754C208.544 66.1754 208.597 66.1772 208.65 66.1828C209.607 66.2674 210.273 67.1373 210.255 67.982C210.273 68.8267 209.606 69.6956 208.65 69.7803C208.598 69.7849 208.544 69.7877 208.49 69.7877ZM208.812 66.5242C208.758 66.5242 208.704 66.527 208.65 66.5335C207.879 66.6238 207.379 67.3233 207.39 67.982C207.378 68.6397 207.877 69.3439 208.65 69.4323C208.704 69.4388 208.757 69.4416 208.81 69.4416C209.139 69.4416 209.482 69.3281 209.752 69.0965C210.065 68.8267 210.251 68.4081 210.255 67.982C210.252 67.5559 210.065 67.1373 209.751 66.8684C209.481 66.6377 209.14 66.5242 208.812 66.5242Z" fill="#D15500"/>
<path d="M206.514 81.824C206.097 81.824 205.664 81.6742 205.331 81.3793C204.954 81.0462 204.729 80.5355 204.726 80.0192C204.728 79.5029 204.952 78.9903 205.33 78.6581C205.663 78.3623 206.096 78.2125 206.513 78.2125C206.567 78.2125 206.621 78.2144 206.675 78.22C207.632 78.3046 208.295 79.1745 208.279 80.0192C208.295 80.8639 207.631 81.7319 206.675 81.8165C206.621 81.8212 206.568 81.824 206.514 81.824ZM206.836 78.5605C206.781 78.5605 206.727 78.5642 206.675 78.5698C205.903 78.66 205.402 79.3605 205.414 80.0192C205.401 80.6769 205.902 81.3802 206.675 81.4695C206.727 81.4751 206.78 81.4788 206.834 81.4788C207.163 81.4788 207.506 81.3644 207.775 81.1327C208.089 80.8639 208.275 80.4452 208.279 80.0192C208.275 79.5931 208.088 79.1745 207.775 78.9056C207.506 78.6749 207.163 78.5605 206.836 78.5605Z" fill="#D15500"/>
<path d="M204.539 93.861C204.122 93.861 203.688 93.7112 203.354 93.4153C202.977 93.0842 202.752 92.5725 202.749 92.0552C202.752 91.5399 202.976 91.0273 203.354 90.6942C203.685 90.3993 204.119 90.2486 204.536 90.2486C204.59 90.2486 204.644 90.2514 204.698 90.257C205.655 90.3416 206.32 91.2115 206.303 92.0552C206.32 92.9009 205.654 93.7688 204.698 93.8535C204.645 93.8582 204.592 93.861 204.539 93.861ZM204.858 90.5975C204.803 90.5975 204.751 90.6003 204.698 90.6068C203.927 90.697 203.427 91.3975 203.437 92.0552C203.426 92.713 203.925 93.4172 204.698 93.5065C204.75 93.5121 204.803 93.5158 204.857 93.5158C205.186 93.5158 205.529 93.4014 205.8 93.1697C206.112 92.9009 206.299 92.4813 206.303 92.0552C206.3 91.6292 206.112 91.2105 205.799 90.9417C205.529 90.711 205.186 90.5975 204.858 90.5975Z" fill="#D15500"/>
<path d="M211.27 113.058C210.854 113.058 210.422 112.907 210.088 112.612C209.711 112.281 209.485 111.769 209.483 111.252C209.485 110.736 209.71 110.224 210.087 109.891C210.419 109.596 210.853 109.445 211.27 109.445C211.325 109.445 211.379 109.448 211.433 109.454C211.795 109.485 212.117 109.63 212.374 109.844C212.363 109.896 212.351 109.949 212.34 110.001C212.11 109.862 211.848 109.794 211.594 109.794C211.54 109.794 211.486 109.798 211.433 109.804C210.661 109.894 210.161 110.594 210.173 111.252C210.16 111.91 210.66 112.614 211.433 112.703C211.485 112.709 211.538 112.712 211.591 112.712C211.697 112.712 211.805 112.7 211.912 112.676C211.902 112.766 211.893 112.857 211.884 112.946C211.743 113 211.591 113.036 211.433 113.05C211.379 113.055 211.326 113.058 211.27 113.058Z" fill="#D15500"/>
<path d="M202.56 105.898C202.145 105.898 201.712 105.747 201.378 105.453C201 105.12 200.775 104.61 200.772 104.092C200.775 103.576 200.999 103.063 201.376 102.731C201.71 102.435 202.143 102.286 202.559 102.286C202.613 102.286 202.669 102.288 202.722 102.293C203.679 102.379 204.344 103.249 204.326 104.092C204.344 104.937 203.677 105.806 202.722 105.891C202.669 105.895 202.614 105.898 202.56 105.898ZM202.884 102.635C202.83 102.635 202.775 102.638 202.722 102.644C201.951 102.734 201.45 103.435 201.462 104.092C201.449 104.75 201.949 105.454 202.722 105.543C202.774 105.549 202.828 105.552 202.881 105.552C203.21 105.552 203.552 105.438 203.822 105.207C204.137 104.937 204.322 104.518 204.326 104.092C204.322 103.666 204.136 103.249 203.822 102.98C203.552 102.748 203.211 102.635 202.884 102.635Z" fill="#D15500"/>
<path d="M168.105 130.773C166.725 130.773 165.329 130.662 163.923 130.431C149.775 128.112 140.163 114.624 142.456 100.306C144.52 87.4103 155.537 78.2385 168.042 78.2385C169.421 78.2385 170.818 78.3502 172.224 78.5799C186.372 80.9001 195.983 94.3876 193.692 108.707C191.627 121.602 180.61 130.773 168.105 130.773Z" fill="#FFAD38"/>
<path d="M188.619 107.874C186.78 119.358 176.091 127.158 164.745 125.299C153.398 123.438 145.69 112.621 147.528 101.138C149.367 89.6543 160.055 81.8537 171.402 83.7143C182.749 85.5749 190.456 96.3915 188.619 107.874Z" fill="#222222"/>
<path d="M161.949 95.9782L157.083 95.1809L157.871 90.2568L162.737 91.0541L161.949 95.9782Z" fill="#FFE1B7"/>
<path d="M166.026 101.701L161.161 100.902L161.949 95.9782L166.814 96.7766L166.036 101.645L170.901 102.442L170.112 107.366L165.246 106.569L164.467 111.437L159.602 110.64L160.39 105.716L165.255 106.513L166.026 101.701Z" fill="#FFE1B7"/>
<path d="M181.411 99.1703L176.545 98.3721L175.757 103.296L170.892 102.499L171.68 97.5737L176.545 98.3721L177.333 93.448L182.199 94.2462L181.411 99.1703Z" fill="#FFE1B7"/>
<path d="M158.813 115.564L153.948 114.766L154.736 109.842L159.602 110.64L158.813 115.564Z" fill="#FFE1B7"/>
<path d="M173.41 117.958L178.275 118.756L179.064 113.832L174.198 113.034L173.41 117.958Z" fill="#FFE1B7"/>
<path d="M169.333 112.235L174.198 113.034L174.986 108.109L170.121 107.311L169.333 112.235Z" fill="#FFE1B7"/>
<path d="M262.963 121.585C259.649 135.697 245.658 144.418 231.714 141.064C217.769 137.711 209.151 123.552 212.466 109.44C215.779 95.3282 229.77 86.6067 243.715 89.9604C257.66 93.3141 266.277 107.473 262.963 121.585Z" fill="url(#paint3_radial_1011_87723)"/>
<path d="M237.736 141.782C235.749 141.782 233.731 141.549 231.714 141.064C219.786 138.195 211.754 127.419 211.757 115.529C211.757 113.647 211.959 111.735 212.379 109.824C212.208 110.615 212.074 111.401 211.971 112.186L217.017 113.275C215.906 123.671 222.588 133.523 232.902 136.005C234.52 136.394 236.138 136.58 237.731 136.58C246.611 136.58 254.708 130.788 257.511 122.017L262.557 123.105C262.587 123.005 262.617 122.903 262.647 122.802C259.404 134.199 249.083 141.782 237.736 141.782Z" fill="#FFAD38"/>
<path d="M262.647 122.802C262.762 122.401 262.866 121.994 262.963 121.585C263.026 121.315 263.085 121.045 263.14 120.775L263.142 120.776C263.088 121.046 263.028 121.319 262.965 121.589C262.87 122.002 262.763 122.403 262.647 122.802Z" fill="#FFAD38"/>
<path d="M212.379 109.824C212.407 109.695 212.435 109.566 212.466 109.437C212.528 109.168 212.595 108.9 212.666 108.636H212.668C212.597 108.901 212.529 109.17 212.466 109.44C212.436 109.568 212.407 109.696 212.379 109.824Z" fill="#FFAD38"/>
<path d="M262.557 123.105L257.511 122.017C257.682 121.483 257.832 120.938 257.963 120.383C258.026 120.112 258.084 119.843 258.137 119.572L263.14 120.776C263.085 121.045 263.026 121.315 262.963 121.585C262.866 121.994 262.762 122.401 262.647 122.802C262.617 122.903 262.587 123.005 262.557 123.105ZM217.017 113.276L211.971 112.186C212.074 111.401 212.208 110.615 212.379 109.824C212.406 109.696 212.436 109.568 212.466 109.44C212.529 109.17 212.597 108.901 212.667 108.636L217.67 109.839C217.597 110.104 217.529 110.373 217.465 110.643C217.259 111.521 217.11 112.4 217.017 113.276Z" fill="#D15906"/>
<path d="M257.963 120.383C255.305 131.7 244.085 138.694 232.902 136.005C221.719 133.315 214.807 121.96 217.465 110.642C220.124 99.3245 231.343 92.3296 242.527 95.02C253.71 97.7095 260.621 109.065 257.963 120.383Z" fill="#222222"/>
<path d="M237.276 128.168L232.48 127.013L238.153 102.858L242.949 104.011L237.276 128.168Z" fill="#FFE1B7"/>
<path d="M264.472 121.096L211.337 108.316C214.823 93.4704 229.547 84.2977 244.217 87.8263C258.886 91.354 267.957 106.25 264.472 121.096Z" fill="url(#paint4_radial_1011_87723)"/>
<path d="M264.472 121.096L240.301 115.282L235.507 114.129L211.337 108.316C214.319 95.6184 225.522 87.0708 237.879 87.0708C239.971 87.0708 242.093 87.3155 244.217 87.8262C256.765 90.8441 265.218 102.182 265.217 114.69C265.217 116.626 265.014 118.59 264.593 120.556C264.589 120.574 264.585 120.591 264.581 120.609C264.546 120.771 264.509 120.934 264.472 121.096Z" fill="#FFAD38"/>
<path d="M207.06 133.31C206.713 131.247 206.186 129.245 205.229 127.6C204.28 125.944 202.779 124.914 200.988 124.753C200.699 124.717 200.411 124.699 200.126 124.699C198.608 124.699 197.155 125.214 195.947 126.247C194.511 127.471 193.416 129.223 192.56 131.124C192.694 129.025 193.457 126.896 194.961 125.211C195.703 124.363 196.692 123.697 197.783 123.291C198.599 122.988 199.463 122.87 200.315 122.87C200.607 122.87 200.898 122.884 201.185 122.909C202.327 123.044 203.495 123.451 204.446 124.18C205.381 124.925 206.096 125.894 206.517 126.939C207.383 129.022 207.479 131.246 207.06 133.31Z" fill="#D15500"/>
<path d="M140.755 77.5558C140.971 74.75 141.282 71.9573 141.545 69.1589C141.84 66.3643 142.143 63.5706 142.48 60.7816C142.799 57.9907 143.158 55.2054 143.51 52.4183C143.856 49.6311 144.255 46.8514 144.625 44.0679L144.724 43.3246L145.468 43.3711C151.456 43.7535 157.431 44.2428 163.398 44.8633C166.381 45.1731 169.361 45.5238 172.335 45.9117C175.305 46.3434 178.28 46.7406 181.233 47.2877L163.291 46.1639L145.369 44.9907L146.212 44.2949C145.805 47.0737 145.426 49.8562 144.995 52.6313C144.571 55.4073 144.153 58.1842 143.695 60.9556C143.254 63.7297 142.779 66.4983 142.298 69.2659C141.783 72.0299 141.317 74.7993 140.755 77.5558Z" fill="white"/>
<path d="M145.072 98.7822C145.674 95.409 147.189 92.1939 149.223 89.3955C149.73 88.6913 150.306 88.0401 150.861 87.3712C151.461 86.7442 152.086 86.1386 152.702 85.5227C153.373 84.9701 154.052 84.4222 154.742 83.891C155.474 83.4202 156.197 82.93 156.942 82.4788C157.727 82.0983 158.506 81.7048 159.298 81.3429L161.763 80.4796L164.315 79.9465C165.172 79.8191 166.042 79.793 166.902 79.7269C170.363 79.6367 173.768 80.3837 176.893 81.6648C173.566 81.035 170.251 80.6842 166.983 81.0005C163.724 81.3075 160.556 82.2936 157.724 83.9086C154.869 85.4855 152.342 87.6605 150.206 90.1872C148.079 92.7269 146.319 95.6034 145.072 98.7822Z" fill="white"/>
<path d="M216.658 105.877C217.716 102.62 219.655 99.6486 222.051 97.1609C222.649 96.5339 223.309 95.9692 223.949 95.385C224.629 94.8473 225.33 94.3347 226.025 93.8109C226.765 93.3579 227.513 92.9095 228.267 92.4788C229.057 92.1159 229.84 91.7317 230.64 91.3894C231.468 91.1205 232.295 90.8405 233.127 90.5921L235.687 90.0814L238.287 89.9111C239.153 89.9046 240.019 89.9995 240.879 90.0553C244.319 90.4498 247.59 91.6648 250.51 93.37C247.301 92.2815 244.067 91.4712 240.787 91.327C237.517 91.1763 234.244 91.7103 231.219 92.9141C228.176 94.077 225.377 95.8781 222.917 98.0819C220.464 100.301 218.328 102.903 216.658 105.877Z" fill="white"/>
<path d="M136.55 190.041C129.902 190.041 115.349 188.528 105.983 176.342C94.0018 160.752 98.3315 130.837 98.5217 129.571L103.724 130.37C103.681 130.658 99.5467 159.294 110.137 173.073C120.49 186.546 139.27 184.611 139.458 184.587L140.05 189.879C139.844 189.902 138.556 190.041 136.55 190.041Z" fill="url(#paint5_radial_1011_87723)"/>
<path d="M136.134 190.038C129.311 189.975 115.157 188.279 105.983 176.342C99.1145 167.406 97.6069 153.761 97.606 143.504C97.606 135.869 98.4406 130.111 98.5215 129.571L103.724 130.37C103.705 130.497 102.894 136.11 102.894 143.531C102.893 152.979 104.205 165.356 110.136 173.073C117.521 182.681 129.191 184.453 135.345 184.671L136.134 190.038Z" fill="#FFC169"/>
<path d="M105.255 133.992C104.306 133.992 103.338 133.913 102.35 133.751C93.5751 132.313 89.6903 126.998 87.9759 122.793C86.2578 118.579 85.8607 113.482 86.7956 107.642L97.925 109.468C97.3459 113.086 97.5141 116.273 98.3984 118.443C99.029 119.99 100.253 121.849 104.154 122.488C105.935 122.78 107.861 122.627 109.878 119.547C111.434 117.172 112.37 113.938 112.697 111.89L123.826 113.715C123.569 115.326 122.478 120.963 119.274 125.852C115.789 131.171 110.885 133.992 105.255 133.992Z" fill="url(#paint6_radial_1011_87723)"/>
<path d="M147.543 205.279C147.523 205.037 138.115 203.515 138.115 203.515L133.548 172.439L144.943 167.883L147.543 205.279Z" fill="url(#paint7_radial_1011_87723)"/>
<path d="M146.28 204.945C143.71 204.42 138.115 203.515 138.115 203.515L133.548 172.439L143.736 168.366C144.072 179.588 145.13 192.946 146.28 204.945Z" fill="#FFAD38"/>
<path d="M240.568 205.337C240.592 205.095 250.032 203.785 250.032 203.785L255.277 172.817L243.984 168.009L240.568 205.337Z" fill="url(#paint8_radial_1011_87723)"/>
<path d="M252.128 191.411L254.867 172.642L255.277 172.817L252.128 191.411ZM244.173 174.39C244.404 172.126 244.611 170.091 244.788 168.351L254.183 172.351L251.557 171.864L244.173 174.39Z" fill="#FFAD38"/>
<path d="M143.628 160.925C143.628 160.925 219.729 157.632 245.436 161.968C245.436 161.968 237.887 236.49 237.48 237.935C237.48 237.935 161.777 237.729 149.944 237.935C149.944 237.935 143.53 188.381 143.628 160.925Z" fill="url(#paint9_radial_1011_87723)"/>
<path d="M217.977 220.179C217.977 220.179 199.61 220.132 185.451 220.132C180.099 220.132 175.352 220.139 172.422 220.157L169.336 181.251C174.289 181.081 185.612 180.742 196.918 180.742C206.84 180.742 216.749 181.003 222.321 181.871L217.977 220.179Z" fill="#E97709"/>
<path d="M170.189 220.182C170.189 220.182 167.354 194.458 166.74 181.344C166.74 181.344 167.685 181.306 169.336 181.25C167.686 181.307 166.743 181.345 166.743 181.345C167.352 194.46 170.19 220.179 170.19 220.179C170.716 220.17 171.474 220.163 172.421 220.157V220.162C171.47 220.162 170.716 220.175 170.189 220.182Z" fill="#FFAD38"/>
<path d="M170.19 220.179C170.19 220.179 167.352 194.46 166.743 181.345C166.743 181.345 167.686 181.307 169.335 181.252L172.421 220.158C171.474 220.163 170.716 220.171 170.19 220.179Z" fill="#D15906"/>
<path fill-rule="evenodd" clip-rule="evenodd" d="M187.945 184.391L187.479 186.434C188.675 187.031 189.701 187.868 190.517 188.866L192.435 188.04L193.906 190.899L192.205 191.973C192.606 193.219 192.753 194.557 192.606 195.906L194.532 196.692L193.575 199.766L191.576 199.298C190.959 200.478 190.115 201.485 189.117 202.281L189.969 204.309L187.145 205.797L185.987 203.922C184.809 204.276 183.554 204.397 182.29 204.249L181.421 206.431L178.383 205.462L178.906 203.171C177.821 202.577 176.887 201.783 176.135 200.85L173.894 201.814L172.422 198.956L174.45 197.674C174.1 196.533 173.961 195.317 174.065 194.088L171.796 193.163L172.754 190.088L175.039 190.623C175.601 189.497 176.368 188.523 177.279 187.733L176.359 185.546L179.184 184.056L180.356 185.958C181.536 185.552 182.803 185.382 184.085 185.486L184.908 183.423L187.945 184.391ZM187.047 196.063C186.403 198.133 184.225 199.281 182.181 198.63C180.138 197.978 179.003 195.775 179.647 193.703C180.291 191.635 182.469 190.487 184.515 191.139C186.557 191.791 187.691 193.995 187.047 196.063ZM184.676 190.618C182.347 189.876 179.867 191.184 179.132 193.539C178.399 195.897 179.692 198.406 182.021 199.149C184.347 199.891 186.826 198.584 187.559 196.227C188.293 193.874 187.002 191.36 184.676 190.618ZM188.216 196.436C187.37 199.154 184.498 200.668 181.813 199.813C179.129 198.957 177.632 196.05 178.479 193.332C179.325 190.613 182.199 189.1 184.883 189.957C187.566 190.813 189.062 193.719 188.216 196.436Z" fill="#FFAD38"/>
<path fill-rule="evenodd" clip-rule="evenodd" d="M199.697 203.772C198.32 202.864 196.477 203.259 195.58 204.652C194.683 206.047 195.074 207.911 196.451 208.818C197.827 209.726 199.668 209.331 200.564 207.937C201.461 206.545 201.073 204.679 199.697 203.772ZM200.261 207.737C199.474 208.961 197.856 209.307 196.648 208.511C195.439 207.714 195.097 206.078 195.885 204.852C196.671 203.629 198.289 203.283 199.499 204.08C200.707 204.877 201.049 206.513 200.261 207.737Z" fill="#FFAD38"/>
<path fill-rule="evenodd" clip-rule="evenodd" d="M197.729 199.959L197.308 198.511L195.21 198.959L195.416 200.547C194.684 200.892 194.012 201.384 193.446 202.011L192.061 201.246L190.89 203.066L192.196 204.081C191.909 204.859 191.782 205.672 191.805 206.476L190.261 206.937L190.705 209.06L192.33 208.844C192.651 209.587 193.115 210.273 193.713 210.856L192.964 212.247L194.761 213.43L195.714 212.175C196.508 212.502 197.344 212.653 198.17 212.639L198.585 214.068L200.683 213.619L200.493 212.148C201.282 211.814 202.01 211.315 202.62 210.663L203.834 211.332L205.003 209.513L203.895 208.651C204.231 207.803 204.374 206.909 204.337 206.028L205.633 205.642L205.19 203.52L203.798 203.704C203.447 202.908 202.931 202.178 202.263 201.572L202.93 200.333L201.133 199.148L200.232 200.335C199.418 200.033 198.567 199.911 197.729 199.959ZM200.953 208.192C199.918 209.8 197.786 210.257 196.197 209.21C194.61 208.164 194.159 206.005 195.193 204.397C196.228 202.789 198.362 202.334 199.95 203.38C201.536 204.426 201.988 206.585 200.953 208.192Z" fill="#FFAD38"/>
<path d="M243.601 229.264L246.524 229.814L254.89 172.483L251.557 171.864L243.601 229.264Z" fill="url(#paint10_radial_1011_87723)"/>
<path d="M217.977 220.179L222.321 181.871L251.557 171.864C251.557 171.864 243.601 229.884 243.601 229.264L217.977 220.179Z" fill="url(#paint11_radial_1011_87723)"/>
<path fill-rule="evenodd" clip-rule="evenodd" d="M243.603 229.264C243.765 228.68 251.53 172.059 251.557 171.864C251.53 172.059 243.765 228.68 243.603 229.264Z" fill="#FFC169"/>
<path d="M243.601 229.269V229.264L238.675 227.517L217.977 220.179L222.321 181.871L251.557 171.864C251.53 172.059 243.765 228.68 243.602 229.264C243.602 229.267 243.602 229.269 243.601 229.269Z" fill="#FFAD38"/>
<path d="M147.12 183.423C146.644 180.25 146.387 177.051 146.191 173.849C146.102 172.248 146.061 170.643 146.026 169.039C145.994 167.436 145.967 165.83 146.015 164.225L146.026 163.804L146.432 163.781C152.24 163.466 158.044 163.08 163.855 162.823C169.664 162.533 175.475 162.27 181.289 162.085C175.492 162.617 169.694 163.069 163.893 163.494C158.095 163.953 152.289 164.282 146.488 164.683L146.906 164.239L146.882 169.03L146.937 173.822C146.946 175.421 146.974 177.02 147.02 178.619L147.12 183.423Z" fill="white"/>
<path d="M226.4 182.434C228.211 181.563 230.05 180.754 231.912 180.006C233.767 179.241 235.641 178.518 237.535 177.853C239.432 177.197 241.335 176.555 243.271 176.011C245.204 175.46 247.155 174.951 249.148 174.621L249.638 174.54L249.549 175.014C249.091 177.494 248.611 179.97 248.044 182.434C248.256 179.915 248.556 177.408 248.876 174.906L249.278 175.298C247.348 175.764 245.432 176.31 243.522 176.881C241.612 177.458 239.711 178.066 237.813 178.692L226.4 182.434Z" fill="white"/>
<path d="M162.37 237.778L161.877 228.197L161.456 218.612L160.727 199.442L160.158 180.264L159.929 170.673L159.816 163.798C159.848 163.795 159.879 163.793 159.91 163.792L160.263 170.662L160.685 180.246L161.415 199.417L161.986 218.594L162.214 228.185L162.37 237.778ZM159.803 163.02L159.771 161.081L159.871 163.017C159.849 163.019 159.826 163.019 159.803 163.02Z" fill="#D15500"/>
<path d="M159.816 163.798L159.803 163.02C159.826 163.019 159.849 163.018 159.871 163.016L159.911 163.791C159.879 163.793 159.848 163.795 159.816 163.798Z" fill="#DEDFDE"/>
<path d="M155.325 169.014C155.021 169.014 154.71 168.938 154.435 168.779C154.001 168.529 153.68 168.073 153.577 167.567C153.478 167.06 153.598 166.514 153.903 166.112C154.206 165.708 154.673 165.463 155.135 165.413C155.199 165.406 155.264 165.402 155.326 165.402C156.198 165.402 156.921 166.08 157.06 166.856C156.973 166.438 156.709 166.066 156.348 165.865C156.13 165.743 155.887 165.686 155.65 165.686C155.496 165.686 155.345 165.711 155.204 165.756C154.466 166 154.112 166.785 154.252 167.429C154.362 168.042 154.931 168.604 155.65 168.604C155.689 168.604 155.73 168.602 155.77 168.599C156.146 168.567 156.529 168.376 156.783 168.048C157.039 167.722 157.14 167.274 157.06 166.856C157.242 167.68 156.758 168.665 155.838 168.939C155.675 168.989 155.501 169.014 155.325 169.014Z" fill="#D15500"/>
<path d="M155.977 180.502C155.673 180.502 155.363 180.426 155.087 180.268C154.652 180.017 154.331 179.561 154.228 179.055C154.13 178.549 154.249 178.001 154.555 177.6C154.858 177.197 155.324 176.951 155.787 176.902C155.852 176.895 155.915 176.891 155.978 176.891C156.849 176.891 157.574 177.569 157.711 178.344C157.625 177.927 157.36 177.554 157 177.353C156.781 177.231 156.539 177.175 156.303 177.175C156.149 177.175 155.997 177.199 155.855 177.245C155.117 177.487 154.763 178.274 154.903 178.917C155.013 179.53 155.582 180.092 156.3 180.092C156.34 180.092 156.381 180.09 156.422 180.087C156.797 180.054 157.18 179.864 157.436 179.537C157.69 179.21 157.79 178.762 157.711 178.344C157.893 179.169 157.41 180.154 156.49 180.428C156.326 180.477 156.152 180.502 155.977 180.502Z" fill="#D15500"/>
<path d="M156.391 192.698C156.087 192.698 155.776 192.622 155.501 192.463C155.066 192.211 154.745 191.755 154.641 191.249C154.543 190.743 154.664 190.196 154.969 189.795C155.272 189.392 155.738 189.146 156.201 189.097C156.265 189.089 156.329 189.086 156.392 189.086C157.263 189.086 157.988 189.764 158.125 190.54C158.039 190.122 157.773 189.749 157.414 189.548C157.196 189.427 156.953 189.369 156.717 189.369C156.563 189.369 156.411 189.393 156.269 189.44C155.531 189.683 155.177 190.469 155.317 191.113C155.427 191.725 155.996 192.287 156.713 192.287C156.754 192.287 156.794 192.286 156.836 192.282C157.211 192.249 157.594 192.059 157.85 191.732C158.104 191.405 158.205 190.957 158.125 190.54C158.307 191.364 157.824 192.348 156.904 192.623C156.74 192.672 156.566 192.698 156.391 192.698Z" fill="#D15500"/>
<path d="M156.804 204.892C156.5 204.892 156.189 204.816 155.914 204.657C155.48 204.406 155.159 203.951 155.056 203.444C154.957 202.938 155.076 202.39 155.381 201.989C155.686 201.587 156.152 201.34 156.615 201.291C156.679 201.283 156.743 201.281 156.805 201.281C157.677 201.281 158.401 201.959 158.539 202.734C158.452 202.317 158.188 201.943 157.827 201.743C157.609 201.621 157.367 201.564 157.13 201.564C156.976 201.564 156.825 201.589 156.683 201.634C155.945 201.877 155.591 202.664 155.731 203.307C155.841 203.92 156.409 204.482 157.127 204.482C157.167 204.482 157.208 204.48 157.249 204.476C157.624 204.444 158.008 204.254 158.263 203.926C158.518 203.6 158.618 203.151 158.539 202.734C158.721 203.559 158.237 204.542 157.317 204.817C157.154 204.867 156.98 204.892 156.804 204.892Z" fill="#D15500"/>
<path d="M157.218 217.087C156.914 217.087 156.603 217.011 156.328 216.852C155.893 216.601 155.573 216.145 155.469 215.639C155.37 215.133 155.491 214.585 155.795 214.185C156.098 213.781 156.565 213.535 157.028 213.486C157.092 213.479 157.156 213.475 157.219 213.475C158.09 213.475 158.814 214.153 158.953 214.928C158.865 214.511 158.601 214.138 158.241 213.937C158.022 213.816 157.781 213.759 157.543 213.759C157.39 213.759 157.238 213.783 157.097 213.83C156.358 214.072 156.005 214.858 156.144 215.502C156.255 216.114 156.823 216.676 157.541 216.676C157.581 216.676 157.622 216.674 157.663 216.672C158.038 216.638 158.421 216.448 158.676 216.122C158.932 215.794 159.032 215.347 158.953 214.928C159.134 215.753 158.651 216.738 157.731 217.012C157.567 217.061 157.394 217.087 157.218 217.087Z" fill="#D15500"/>
<path d="M157.632 229.282C157.327 229.282 157.017 229.206 156.741 229.047C156.307 228.796 155.986 228.339 155.882 227.834C155.784 227.328 155.903 226.78 156.209 226.379C156.512 225.976 156.979 225.73 157.441 225.681C157.506 225.673 157.569 225.67 157.633 225.67C158.504 225.67 159.227 226.348 159.366 227.124C159.279 226.707 159.015 226.333 158.654 226.132C158.436 226.011 158.194 225.954 157.957 225.954C157.804 225.954 157.652 225.977 157.51 226.024C156.772 226.267 156.418 227.054 156.558 227.697C156.668 228.31 157.236 228.872 157.954 228.872C157.995 228.872 158.035 228.87 158.077 228.866C158.452 228.833 158.835 228.644 159.09 228.316C159.345 227.99 159.445 227.542 159.366 227.124C159.548 227.949 159.065 228.932 158.145 229.207C157.981 229.257 157.807 229.282 157.632 229.282Z" fill="#D15500"/>
<path d="M121.539 264.079L120.014 258.983L163.105 245.769L164.631 250.864L121.539 264.079Z" fill="url(#paint12_radial_1011_87723)"/>
<path d="M127.411 262.278L126.462 257.006L163.105 245.769L164.631 250.864L127.411 262.278Z" fill="#FFC169"/>
<path d="M139.816 259.499L137.448 251.962L142.461 250.349L144.829 257.885L139.816 259.499Z" fill="url(#paint13_radial_1011_87723)"/>
<path d="M121.184 271.545L110.065 222.817L76.5034 230.869L93.0289 278.359L121.184 271.545Z" fill="url(#paint14_radial_1011_87723)"/>
<path d="M128.632 269.067L121.184 271.545L110.066 222.817L120.776 225.397L128.632 269.067Z" fill="url(#paint15_radial_1011_87723)"/>
<path d="M121.184 271.545L110.066 222.817L120.776 225.397L128.632 269.067L121.184 271.545Z" fill="#FFAD38"/>
<path d="M169.581 248.317C169.581 251.509 167.024 254.098 163.868 254.098C160.713 254.098 158.156 251.509 158.156 248.317C158.156 245.124 160.713 242.535 163.868 242.535C167.024 242.535 169.581 245.124 169.581 248.317Z" fill="url(#paint16_radial_1011_87723)"/>
<path d="M264.186 264.036L221.123 250.729L222.658 245.636L265.723 258.943L264.186 264.036Z" fill="url(#paint17_radial_1011_87723)"/>
<path d="M258.319 262.223L221.123 250.729L222.658 245.636L259.278 256.952L258.319 262.223Z" fill="#FFC169"/>
<path d="M245.919 259.417L240.909 257.792L243.294 250.261L248.304 251.885L245.919 259.417Z" fill="url(#paint18_radial_1011_87723)"/>
<path d="M264.525 271.502L275.746 222.798L309.292 230.923L292.666 278.377L264.525 271.502Z" fill="url(#paint19_radial_1011_87723)"/>
<path d="M257.083 269.008L264.525 271.503L275.746 222.798L265.03 225.356L257.083 269.008Z" fill="url(#paint20_radial_1011_87723)"/>
<path d="M264.525 271.503L257.083 269.008L265.03 225.356L275.746 222.798L264.525 271.503Z" fill="#FFAD38"/>
<path d="M216.178 248.17C216.172 251.363 218.724 253.957 221.879 253.963C225.034 253.97 227.597 251.387 227.603 248.195C227.61 245.002 225.059 242.408 221.903 242.401C218.749 242.394 216.185 244.977 216.178 248.17Z" fill="url(#paint21_radial_1011_87723)"/>
<path d="M259.29 188.068C259.426 187.94 273.266 174.949 289.547 179.392C306.196 183.938 319.944 209.317 320.08 209.573L324.707 207.041C324.106 205.915 309.769 179.389 290.917 174.252C271.744 169.019 256.314 183.586 255.667 184.209L259.29 188.068Z" fill="url(#paint22_radial_1011_87723)"/>
<path d="M320.08 209.573C319.944 209.317 306.196 183.938 289.547 179.392C287.171 178.743 284.847 178.466 282.61 178.466C269.518 178.466 259.405 187.959 259.29 188.068L255.667 184.209C256.216 183.681 267.399 173.12 282.484 173.12C285.182 173.12 288.008 173.457 290.917 174.252C309.769 179.389 324.106 205.915 324.707 207.041L320.08 209.573Z" fill="#FFC169"/>
<path d="M313.944 235.123L323.915 229.795C322.957 227.961 321.78 224.81 321.608 221.964C321.386 218.276 322.832 216.979 324.427 216.127C327.921 214.26 330.005 215.001 331.43 215.849C333.428 217.043 335.458 219.485 337.149 222.725L347.119 217.399C344.39 212.169 341.04 208.341 337.16 206.023C333.289 203.715 327.026 201.838 319.163 206.038C313.036 209.312 309.907 215.214 310.355 222.657C310.707 228.513 313.192 233.678 313.944 235.123Z" fill="url(#paint23_radial_1011_87723)"/>
<path fill-rule="evenodd" clip-rule="evenodd" d="M119.451 213.714C120.1 211.631 122.294 210.472 124.355 211.13C126.413 211.786 127.554 214.009 126.905 216.092C126.256 218.177 124.064 219.333 122.006 218.676C119.947 218.019 118.802 215.801 119.451 213.714ZM122.148 218.218C123.955 218.794 125.882 217.778 126.452 215.946C127.022 214.116 126.018 212.167 124.213 211.591C122.402 211.013 120.476 212.029 119.906 213.859C119.336 215.691 120.339 217.641 122.148 218.218Z" fill="#222222"/>
<path fill-rule="evenodd" clip-rule="evenodd" d="M131.015 212.329C131.369 213.43 131.5 214.614 131.37 215.807L133.073 216.502L132.227 219.221L130.458 218.808C129.913 219.852 129.166 220.743 128.283 221.447L129.038 223.241L126.538 224.558L125.515 222.898C124.473 223.211 123.363 223.318 122.244 223.188L121.475 225.119L118.788 224.261L119.251 222.234C118.291 221.709 117.464 221.006 116.799 220.18L114.817 221.034L113.516 218.504L115.309 217.371C114.999 216.362 114.876 215.286 114.968 214.199L112.961 213.38L113.809 210.662L115.829 211.134C116.327 210.138 117.006 209.276 117.812 208.578L116.998 206.642L119.496 205.325L120.534 207.007C121.578 206.648 122.698 206.498 123.833 206.59L124.559 204.766L127.247 205.622L126.834 207.428C127.577 207.799 128.245 208.274 128.827 208.829C129.508 208.004 130.291 207.26 131.143 206.613C132.664 205.456 134.411 204.558 136.291 204.117C138.161 203.664 140.169 203.657 142.039 204.231C143.911 204.799 145.596 205.91 146.946 207.324C147.719 208.128 148.381 209.031 148.936 209.996C150.048 208.637 151.329 207.419 152.747 206.39C155.862 204.1 159.828 202.829 163.699 203.341C165.61 203.604 167.505 204.161 169.177 205.147C170.864 206.1 172.327 207.424 173.519 208.937C174.71 210.456 175.639 212.163 176.354 213.942C177.069 215.722 177.597 217.579 177.856 219.475C177.084 215.748 175.569 212.127 173.156 209.237C171.962 207.795 170.521 206.555 168.886 205.682C167.265 204.776 165.447 204.29 163.617 204.083C159.94 203.678 156.209 204.865 153.243 207.086C151.809 208.154 150.5 209.427 149.393 210.851C149.624 211.318 149.832 211.796 150.018 212.282C150.704 214.112 151.114 216.072 150.969 218.077C150.87 219.063 150.673 220.128 149.902 220.981C149.52 221.401 148.929 221.677 148.353 221.687C147.8 221.681 147.277 221.598 146.768 221.324C146.265 221.062 145.86 220.603 145.629 220.097C145.395 219.59 145.307 219.053 145.284 218.534C145.247 217.492 145.469 216.503 145.772 215.562C146.358 213.77 147.302 212.147 148.41 210.668C147.858 209.647 147.187 208.694 146.405 207.845C145.159 206.487 143.587 205.429 141.847 204.853C140.11 204.268 138.207 204.219 136.398 204.608C133.574 205.215 130.912 206.743 128.929 208.929C129.139 209.135 129.336 209.352 129.521 209.579L131.218 208.849L132.52 211.378L131.015 212.329ZM148.859 211.571C147.925 212.895 147.164 214.335 146.631 215.852C146.342 216.719 146.141 217.628 146.167 218.501C146.188 219.37 146.489 220.204 147.178 220.555C147.501 220.744 147.941 220.819 148.327 220.824C148.699 220.815 149.03 220.664 149.295 220.386C149.831 219.819 150.062 218.892 150.143 218.004C150.287 216.186 149.916 214.307 149.273 212.569C149.147 212.231 149.009 211.898 148.859 211.571ZM121.823 219.264C124.197 220.021 126.737 218.681 127.486 216.276C128.235 213.873 126.911 211.302 124.538 210.545C122.164 209.787 119.621 211.125 118.873 213.531C118.124 215.936 119.447 218.506 121.823 219.264Z" fill="#222222"/>
<path fill-rule="evenodd" clip-rule="evenodd" d="M264.819 180.98L262.144 177.565L263.726 173.514L267.987 172.878L270.659 176.29L269.079 180.34L264.819 180.98ZM267.498 177.751C267.947 177.137 267.821 176.275 267.214 175.818C266.61 175.365 265.756 175.491 265.305 176.105C264.857 176.716 264.983 177.584 265.588 178.037C266.195 178.493 267.049 178.364 267.498 177.751Z" fill="#0C2B34"/>
<path fill-rule="evenodd" clip-rule="evenodd" d="M275.624 168.009C276.27 168.671 276.832 169.392 277.309 170.157C278.665 169.894 280.024 169.645 281.383 169.397C283.707 168.995 286.03 168.594 288.366 168.262L291.87 167.771C292.282 167.726 292.693 167.676 293.105 167.626C293.866 167.535 294.626 167.443 295.392 167.376C294.634 167.582 293.871 167.762 293.109 167.943C292.722 168.034 292.335 168.126 291.948 168.221L288.489 168.968C286.181 169.464 283.862 169.889 281.542 170.312C280.284 170.53 279.026 170.747 277.765 170.953C278.025 171.447 278.251 171.955 278.444 172.475L281.259 172.278L281.888 176.59L279.245 177.202C279.213 178.972 278.817 180.746 278.04 182.404L280.157 184.27L277.59 187.771L275.241 186.279C273.938 187.511 272.418 188.421 270.795 188.991L270.998 191.963L269.101 192.247C270.982 192.935 272.85 193.66 274.718 194.384L274.83 194.428C277.146 195.352 279.46 196.277 281.749 197.267L285.182 198.759C285.573 198.941 285.965 199.12 286.357 199.299C287.1 199.638 287.844 199.977 288.579 200.341C287.8 200.108 287.031 199.851 286.261 199.594C285.847 199.456 285.433 199.318 285.018 199.184L281.493 197.934C279.144 197.1 276.819 196.198 274.497 195.295L274.388 195.251C272.122 194.346 269.855 193.441 267.615 192.47L266.738 192.601L266.611 192.038C264.643 191.189 262.682 190.321 260.748 189.383C262.665 189.972 264.557 190.622 266.443 191.292L266.08 189.687C264.42 189.612 262.763 189.205 261.211 188.45L259.147 190.848L255.689 188.251L257.359 185.557C256.233 184.313 255.386 182.879 254.833 181.35L251.546 181.58L250.916 177.268L254.067 176.538C254.118 174.923 254.472 173.308 255.142 171.783L252.648 169.585L255.214 166.086L257.899 167.792C258.016 167.678 258.134 167.566 258.255 167.457C256.239 164.873 253.777 162.645 250.945 161.079C249.285 160.205 247.529 159.489 245.681 159.198C245.38 159.113 245.069 159.095 244.758 159.076C244.603 159.067 244.449 159.058 244.295 159.04C244.13 159.036 243.964 159.019 243.799 159.002C243.501 158.972 243.203 158.942 242.904 158.983C242.694 158.998 242.484 159.01 242.274 159.022C241.555 159.062 240.837 159.103 240.137 159.293C238.284 159.558 236.565 160.311 235.051 161.362C233.532 162.416 232.305 163.861 231.319 165.443C229.849 167.854 228.944 170.594 228.485 173.404C229.958 174.239 231.117 175.616 231.79 177.162C232.202 178.075 232.462 179.055 232.568 180.057C232.66 181.057 232.621 182.098 232.227 183.096C232.027 183.587 231.714 184.083 231.212 184.413C230.969 184.585 230.672 184.682 230.381 184.728C230.093 184.77 229.8 184.757 229.465 184.639C228.85 184.375 228.542 183.874 228.278 183.423C228.042 182.954 227.859 182.475 227.735 181.989C227.218 180.047 227.166 178.072 227.257 176.12C227.313 175.32 227.401 174.521 227.522 173.726C227.474 173.704 227.426 173.683 227.377 173.662C225.715 172.948 223.768 172.89 222.045 173.497C220.31 174.127 218.813 175.337 217.563 176.739C215.063 179.576 213.374 183.125 212.371 186.817C212.759 184.934 213.383 183.101 214.19 181.352C214.998 179.606 215.987 177.929 217.228 176.44C218.473 174.966 220.004 173.667 221.847 172.947C223.688 172.252 225.795 172.257 227.642 173.002C228.149 170.183 229.096 167.442 230.611 164.992C231.658 163.338 232.967 161.816 234.597 160.703C236.206 159.583 238.09 158.813 240.011 158.589C240.754 158.407 241.516 158.381 242.277 158.356C242.485 158.349 242.694 158.342 242.902 158.332C243.216 158.298 243.529 158.336 243.842 158.374C244.011 158.394 244.18 158.415 244.349 158.424C244.508 158.445 244.668 158.459 244.828 158.472C245.151 158.499 245.473 158.526 245.786 158.62C247.695 158.966 249.491 159.743 251.167 160.681C252.834 161.654 254.318 162.902 255.673 164.257C256.633 165.234 257.531 166.278 258.323 167.395C259.433 166.402 260.689 165.635 262.025 165.102L261.805 161.894L266.066 161.255L266.734 164.211C267.833 164.217 268.935 164.369 270.011 164.669C271.566 163.704 273.134 162.759 274.702 161.815C276.965 160.478 279.229 159.143 281.528 157.869L284.978 155.962C285.381 155.753 285.783 155.54 286.184 155.327C286.945 154.924 287.706 154.521 288.479 154.141C287.778 154.638 287.065 155.113 286.351 155.589C285.969 155.843 285.587 156.098 285.207 156.356L281.886 158.486C279.672 159.905 277.421 161.261 275.169 162.616C274.79 162.84 274.41 163.064 274.03 163.288L277.116 165.606L275.624 168.009ZM271.704 165.279C271.494 165.185 271.282 165.098 271.068 165.017C271.643 164.685 272.217 164.352 272.79 164.016L271.704 165.279ZM267.533 172.333C268.225 172.151 268.918 171.978 269.613 171.812C267.057 170.302 263.736 170.948 261.932 173.408C259.996 176.049 260.54 179.775 263.15 181.735C265.757 183.693 269.439 183.143 271.377 180.501C273.312 177.862 272.767 174.136 270.159 172.177C270.107 172.138 270.055 172.101 270.003 172.064C269.181 172.163 268.358 172.254 267.533 172.333ZM228.368 174.194C228.28 174.853 228.216 175.515 228.174 176.176C228.07 178.052 228.117 179.97 228.58 181.753C228.801 182.605 229.199 183.566 229.779 183.834C229.813 183.837 229.842 183.847 229.871 183.857C229.906 183.87 229.943 183.883 229.993 183.884C230.028 183.882 230.064 183.883 230.1 183.884C230.157 183.887 230.213 183.889 230.265 183.876C230.439 183.846 230.61 183.798 230.756 183.692C231.057 183.501 231.296 183.16 231.457 182.77C231.779 181.98 231.839 181.042 231.757 180.138C231.667 179.229 231.437 178.327 231.066 177.489C230.489 176.164 229.56 174.981 228.368 174.194Z" fill="#0C2B34"/>
<path d="M255.667 192.061C258.761 193.845 261.693 195.858 264.587 197.929C267.464 200.021 270.301 202.172 272.975 204.554C269.879 202.771 266.946 200.757 264.054 198.686C261.178 196.592 258.341 194.44 255.667 192.061Z" fill="#0C2B34"/>
<path fill-rule="evenodd" clip-rule="evenodd" d="M246.786 71.5605C247.354 69.738 249.275 68.7249 251.077 69.2998C252.878 69.8748 253.877 71.8191 253.309 73.6415C252.741 75.4659 250.823 76.478 249.022 75.904C247.219 75.3282 246.217 73.3866 246.786 71.5605ZM249.146 75.5012C250.728 76.0064 252.414 75.117 252.913 73.515C253.411 71.913 252.533 70.2078 250.952 69.7036C249.368 69.1984 247.683 70.0878 247.184 71.6888C246.685 73.2908 247.564 74.997 249.146 75.5012Z" fill="#222222"/>
<path fill-rule="evenodd" clip-rule="evenodd" d="M276.654 34.8391C280.293 33.8902 284.183 34 287.886 34.7917C286.055 34.2763 284.158 33.9972 282.253 33.9209C280.348 33.8465 278.424 33.9665 276.547 34.4C274.681 34.8429 272.837 35.6243 271.36 36.9518C269.907 38.2889 268.944 40.1856 268.75 42.1886C266.043 41.3511 263.203 40.9457 260.356 41.1847C258.424 41.367 256.486 41.8471 254.761 42.8015C253.04 43.7346 251.5 45.0752 250.421 46.7013C249.92 47.2861 249.548 47.9604 249.176 48.6331C249.075 48.8166 248.974 49.0001 248.87 49.1815C248.696 49.4485 248.586 49.7467 248.476 50.0447C248.417 50.2068 248.357 50.3688 248.287 50.5258C248.233 50.6781 248.172 50.8279 248.11 50.9777C247.986 51.2806 247.862 51.5836 247.801 51.9073C247.229 53.7837 247.087 55.755 247.142 57.6928C247.232 59.6381 247.647 61.5452 248.214 63.3844C248.431 64.0621 248.67 64.733 248.936 65.3922C248.525 65.4575 248.123 65.5584 247.733 65.6926L246.826 64.2205L244.64 65.3732L245.352 67.0666C244.647 67.678 244.052 68.4324 243.617 69.304L241.848 68.8896L241.108 71.2693L242.863 71.9864C242.783 72.9377 242.89 73.8786 243.161 74.7616L241.592 75.7535L242.73 77.9667L244.466 77.2198C245.048 77.9422 245.771 78.5573 246.611 79.0167L246.206 80.7902L248.558 81.54L249.23 79.8514C250.209 79.9655 251.181 79.8718 252.093 79.5979L252.989 81.0506L255.175 79.898L254.515 78.3275C255.287 77.7117 255.941 76.9319 256.418 76.0187L257.965 76.3805L258.706 74.0008L257.215 73.3931C257.329 72.3487 257.215 71.3134 256.906 70.3494L258.222 69.5167L257.084 67.3045L255.598 67.9437C254.967 67.1708 254.172 66.523 253.247 66.0608L253.607 64.48L251.257 63.7302L250.621 65.3272C250.109 65.2858 249.602 65.3005 249.105 65.3673C248.198 62.8941 247.654 60.2939 247.593 57.6761C247.588 55.782 247.763 53.8739 248.356 52.0794C248.42 51.7683 248.547 51.4789 248.674 51.1899C248.737 51.0478 248.799 50.9057 248.854 50.7612C248.925 50.6112 248.985 50.4562 249.046 50.3013C249.157 50.018 249.267 49.7349 249.441 49.4829C249.553 49.2982 249.661 49.1114 249.77 48.9247C250.134 48.3001 250.496 47.6768 250.983 47.1367C252.065 45.5915 253.516 44.3914 255.133 43.5132C256.754 42.6285 258.585 42.1885 260.426 42.0285C263.217 41.8112 266.039 42.2541 268.717 43.1306C268.774 44.8382 269.451 46.5119 270.501 47.8261C271.114 48.6168 271.855 49.2978 272.686 49.8532C273.522 50.3965 274.454 50.8375 275.512 50.9416C276.034 50.9863 276.614 50.9323 277.133 50.6328C277.394 50.4923 277.617 50.27 277.79 50.03C277.959 49.7899 278.083 49.5202 278.132 49.1657C278.182 48.4912 277.884 47.9842 277.609 47.5395C277.306 47.1125 276.969 46.7283 276.599 46.3934C275.132 45.0389 273.421 44.0853 271.665 43.2723C270.937 42.9562 270.195 42.6681 269.441 42.4126C269.444 42.3593 269.448 42.306 269.452 42.2527C269.587 40.4311 270.428 38.6543 271.754 37.3816C273.101 36.1108 274.851 35.3201 276.654 34.8391ZM269.465 43.3877C269.609 44.8209 270.222 46.1994 271.121 47.3256C271.686 48.0438 272.372 48.6643 273.129 49.162C273.885 49.6495 274.736 50.0272 275.578 50.0988C275.994 50.1342 276.402 50.0746 276.709 49.8923C276.869 49.8086 276.99 49.6774 277.095 49.5341L277.228 49.2941L277.281 49.0783C277.312 48.4336 276.651 47.6354 276.004 47.0456C274.652 45.811 272.988 44.8891 271.294 44.1216C270.695 43.8564 270.084 43.6108 269.465 43.3877ZM250.546 68.6343C250.776 68.664 251.008 68.715 251.237 68.7882C253.314 69.4505 254.472 71.7 253.818 73.8025C253.162 75.9077 250.939 77.0799 248.861 76.4176C246.784 75.7542 245.624 73.5048 246.28 71.4004C246.863 69.5286 248.687 68.3951 250.546 68.6343Z" fill="#222222"/>
<path d="M21.8961 89.3161C17.8842 91.4832 12.8909 89.9659 10.7399 85.9258C8.58885 81.8857 10.0911 76.8509 14.1039 74.6838C18.1158 72.5177 23.119 74.0386 25.27 78.0787C27.422 82.1189 25.908 87.15 21.8961 89.3161ZM30.4129 95.7121L35.7188 87.1001L33.0992 85.4657C32.3287 84.9856 31.9106 84.1081 31.9881 83.1988C32.0313 82.6969 32.0467 82.1915 32.0358 81.6842C32.016 80.774 32.4882 79.9273 33.2848 79.4971L36 78.0316L31.241 69.0964L28.5268 70.562C27.7302 70.9931 26.7686 70.9205 26.027 70.4005C25.6143 70.1101 25.1871 69.8442 24.7473 69.6028C23.9525 69.1636 23.4578 68.3287 23.4866 67.4167L23.584 64.3149L13.5244 64L13.4316 67.1127C13.4046 68.0256 12.8486 68.8206 12.0294 69.2099C11.806 69.3151 11.5861 69.4268 11.3671 69.5456C11.1481 69.6636 10.9336 69.787 10.7237 69.915C9.95048 70.3842 8.99166 70.4123 8.22479 69.9331L5.58622 68.2879L0.281159 76.9008L2.9053 78.5407C3.67488 79.0216 4.09212 79.9001 4.01372 80.8094C3.97046 81.3094 3.95424 81.813 3.96415 82.3185C3.98308 83.2278 3.51088 84.0727 2.71606 84.5028L0 85.9693L4.75807 94.9036L7.47413 93.437C8.26894 93.0078 9.22957 93.0795 9.97121 93.5977C10.383 93.8863 10.8093 94.1512 11.2472 94.3917C12.043 94.8291 12.5377 95.6649 12.5107 96.577L12.4151 99.6851L22.4747 100L22.5702 96.89C22.5981 95.9798 23.1523 95.1894 23.9697 94.8001C24.1931 94.6939 24.4157 94.5814 24.6365 94.4616C24.8546 94.3445 25.07 94.2211 25.2808 94.0923C26.0567 93.6204 27.0209 93.5931 27.7914 94.075L30.4129 95.7121Z" fill="#222222"/>
<path d="M336.328 28.1301C331.871 30.5379 326.323 28.851 323.934 24.362C321.543 19.8729 323.212 14.2788 327.671 11.8709C332.129 9.46407 337.688 11.154 340.079 15.6431C342.469 20.1321 340.788 25.7222 336.328 28.1301ZM345.793 35.2367L351.687 25.6678L348.777 23.8518C347.921 23.3174 347.457 22.3433 347.543 21.333C347.59 20.7754 347.608 20.2128 347.595 19.6491C347.573 18.6388 348.098 17.698 348.983 17.2201L352 15.5906L346.713 5.66372L343.696 7.29216C342.811 7.7701 341.743 7.68943 340.919 7.11167C340.459 6.79001 339.986 6.49357 339.497 6.22536C338.614 5.73834 338.064 4.80968 338.096 3.79632L338.204 0.350894L327.027 0L326.924 3.45954C326.894 4.47391 326.276 5.35619 325.365 5.78875C325.118 5.90572 324.873 6.03075 324.63 6.16184C324.388 6.29292 324.149 6.43005 323.915 6.57222C323.057 7.09453 321.991 7.12477 321.139 6.59339L318.207 4.7643L312.312 14.3343L315.228 16.1563C316.084 16.6917 316.547 17.6667 316.46 18.6771C316.412 19.2337 316.393 19.7923 316.405 20.3539C316.426 21.3632 315.901 22.304 315.017 22.7809L312 24.4104L317.287 34.3383L320.305 32.7078C321.188 32.2309 322.256 32.3106 323.079 32.8873C323.537 33.207 324.01 33.5014 324.497 33.7686C325.381 34.2546 325.932 35.1833 325.9 36.1966L325.795 39.6511L336.972 40L337.078 36.5455C337.11 35.5342 337.725 34.6549 338.633 34.2233C338.881 34.1054 339.128 33.9793 339.373 33.8472C339.617 33.7162 339.856 33.579 340.089 33.4369C340.952 32.9125 342.023 32.8823 342.879 33.4177L345.793 35.2367Z" fill="#222222"/>
<defs>
<radialGradient id="paint0_radial_1011_87723" cx="0" cy="0" r="1" gradientUnits="userSpaceOnUse" gradientTransform="translate(132.627 125.428) rotate(-90.7452) scale(67.9639 63.0025)">
<stop stop-color="#FF7A00"/>
<stop offset="1" stop-color="#FFB834"/>
</radialGradient>
<radialGradient id="paint1_radial_1011_87723" cx="0" cy="0" r="1" gradientUnits="userSpaceOnUse" gradientTransform="translate(276.679 144.064) rotate(-91.2104) scale(66.1057 99.5174)">
<stop stop-color="#FF7A00"/>
<stop offset="1" stop-color="#FFB834"/>
</radialGradient>
<radialGradient id="paint2_radial_1011_87723" cx="0" cy="0" r="1" gradientUnits="userSpaceOnUse" gradientTransform="translate(212.854 161.055) rotate(-92.7812) scale(145.102 501.263)">
<stop stop-color="#FF7A00"/>
<stop offset="1" stop-color="#FFB834"/>
</radialGradient>
<radialGradient id="paint3_radial_1011_87723" cx="0" cy="0" r="1" gradientUnits="userSpaceOnUse" gradientTransform="translate(239.134 141.782) rotate(-92.1952) scale(63.5315 173.334)">
<stop stop-color="#FF7A00"/>
<stop offset="1" stop-color="#FFB834"/>
</radialGradient>
<radialGradient id="paint4_radial_1011_87723" cx="0" cy="0" r="1" gradientUnits="userSpaceOnUse" gradientTransform="translate(239.75 121.096) rotate(-93.5154) scale(41.1906 179.689)">
<stop stop-color="#FF7A00"/>
<stop offset="1" stop-color="#FFB834"/>
</radialGradient>
<radialGradient id="paint5_radial_1011_87723" cx="0" cy="0" r="1" gradientUnits="userSpaceOnUse" gradientTransform="translate(119.989 190.041) rotate(-91.5597) scale(73.0942 141.763)">
<stop stop-color="#FF7A00"/>
<stop offset="1" stop-color="#FFB834"/>
</radialGradient>
<radialGradient id="paint6_radial_1011_87723" cx="0" cy="0" r="1" gradientUnits="userSpaceOnUse" gradientTransform="translate(106.09 133.992) rotate(-93.162) scale(31.8879 125.182)">
<stop stop-color="#FF7A00"/>
<stop offset="1" stop-color="#FFB834"/>
</radialGradient>
<radialGradient id="paint7_radial_1011_87723" cx="0" cy="0" r="1" gradientUnits="userSpaceOnUse" gradientTransform="translate(140.928 205.279) rotate(-90.8317) scale(45.1917 46.7549)">
<stop stop-color="#FF7A00"/>
<stop offset="1" stop-color="#FFB834"/>
</radialGradient>
<radialGradient id="paint8_radial_1011_87723" cx="0" cy="0" r="1" gradientUnits="userSpaceOnUse" gradientTransform="translate(248.324 205.337) rotate(-90.8758) scale(45.1102 49.1407)">
<stop stop-color="#FF7A00"/>
<stop offset="1" stop-color="#FFB834"/>
</radialGradient>
<radialGradient id="paint9_radial_1011_87723" cx="0" cy="0" r="1" gradientUnits="userSpaceOnUse" gradientTransform="translate(197.315 237.935) rotate(-92.891) scale(94.6212 339.738)">
<stop stop-color="#FF7A00"/>
<stop offset="1" stop-color="#FFB834"/>
</radialGradient>
<radialGradient id="paint10_radial_1011_87723" cx="0" cy="0" r="1" gradientUnits="userSpaceOnUse" gradientTransform="translate(249.554 229.814) rotate(-90.433) scale(70.0251 37.7195)">
<stop stop-color="#FF7A00"/>
<stop offset="1" stop-color="#FFB834"/>
</radialGradient>
<radialGradient id="paint11_radial_1011_87723" cx="0" cy="0" r="1" gradientUnits="userSpaceOnUse" gradientTransform="translate(235.685 229.269) rotate(-91.2999) scale(69.3825 112.168)">
<stop stop-color="#FF7A00"/>
<stop offset="1" stop-color="#FFB834"/>
</radialGradient>
<radialGradient id="paint12_radial_1011_87723" cx="0" cy="0" r="1" gradientUnits="userSpaceOnUse" gradientTransform="translate(143.542 264.079) rotate(-95.4) scale(22.2234 148.415)">
<stop stop-color="#FF7A00"/>
<stop offset="1" stop-color="#FFB834"/>
</radialGradient>
<radialGradient id="paint13_radial_1011_87723" cx="0" cy="0" r="1" gradientUnits="userSpaceOnUse" gradientTransform="translate(141.34 259.499) rotate(-91.7926) scale(11.0611 24.6518)">
<stop stop-color="#FF7A00"/>
<stop offset="1" stop-color="#FFB834"/>
</radialGradient>
<radialGradient id="paint14_radial_1011_87723" cx="0" cy="0" r="1" gradientUnits="userSpaceOnUse" gradientTransform="translate(100.065 278.359) rotate(-91.7875) scale(67.1454 149.216)">
<stop stop-color="#FF7A00"/>
<stop offset="1" stop-color="#FFB834"/>
</radialGradient>
<radialGradient id="paint15_radial_1011_87723" cx="0" cy="0" r="1" gradientUnits="userSpaceOnUse" gradientTransform="translate(119.856 271.545) rotate(-90.8468) scale(58.8862 62.0274)">
<stop stop-color="#FF7A00"/>
<stop offset="1" stop-color="#FFB834"/>
</radialGradient>
<radialGradient id="paint16_radial_1011_87723" cx="0" cy="0" r="1" gradientUnits="userSpaceOnUse" gradientTransform="translate(164.181 254.098) rotate(-92.1952) scale(13.9819 38.1473)">
<stop stop-color="#FF7A00"/>
<stop offset="1" stop-color="#FFB834"/>
</radialGradient>
<radialGradient id="paint17_radial_1011_87723" cx="0" cy="0" r="1" gradientUnits="userSpaceOnUse" gradientTransform="translate(244.642 264.036) rotate(-95.3719) scale(22.3307 148.363)">
<stop stop-color="#FF7A00"/>
<stop offset="1" stop-color="#FFB834"/>
</radialGradient>
<radialGradient id="paint18_radial_1011_87723" cx="0" cy="0" r="1" gradientUnits="userSpaceOnUse" gradientTransform="translate(244.809 259.417) rotate(-91.7947) scale(11.0689 24.6978)">
<stop stop-color="#FF7A00"/>
<stop offset="1" stop-color="#FFB834"/>
</radialGradient>
<radialGradient id="paint19_radial_1011_87723" cx="0" cy="0" r="1" gradientUnits="userSpaceOnUse" gradientTransform="translate(288.133 278.377) rotate(-91.7897) scale(67.1916 149.507)">
<stop stop-color="#FF7A00"/>
<stop offset="1" stop-color="#FFB834"/>
</radialGradient>
<radialGradient id="paint20_radial_1011_87723" cx="0" cy="0" r="1" gradientUnits="userSpaceOnUse" gradientTransform="translate(266.925 271.503) rotate(-90.8516) scale(58.8582 62.3497)">
<stop stop-color="#FF7A00"/>
<stop offset="1" stop-color="#FFB834"/>
</radialGradient>
<radialGradient id="paint21_radial_1011_87723" cx="0" cy="0" r="1" gradientUnits="userSpaceOnUse" gradientTransform="translate(222.203 253.963) rotate(-92.195) scale(13.9818 38.1441)">
<stop stop-color="#FF7A00"/>
<stop offset="1" stop-color="#FFB834"/>
</radialGradient>
<radialGradient id="paint22_radial_1011_87723" cx="0" cy="0" r="1" gradientUnits="userSpaceOnUse" gradientTransform="translate(292.075 209.573) rotate(-94.202) scale(44.1672 230.062)">
<stop stop-color="#FF7A00"/>
<stop offset="1" stop-color="#FFB834"/>
</radialGradient>
<radialGradient id="paint23_radial_1011_87723" cx="0" cy="0" r="1" gradientUnits="userSpaceOnUse" gradientTransform="translate(329.722 235.123) rotate(-92.5887) scale(38.1994 122.852)">
<stop stop-color="#FF7A00"/>
<stop offset="1" stop-color="#FFB834"/>
</radialGradient>
</defs>
</svg>
