<svg width="68" height="104" viewBox="0 0 68 104" fill="none" xmlns="http://www.w3.org/2000/svg">
<path d="M14.3648 13.2355C14.3648 12.9983 14.3171 12.6899 14.4363 12.5476C15.0799 11.8122 14.8177 11.1005 14.5316 10.3651C14.2455 10.0804 13.9833 10.3651 13.7211 10.3651C13.0774 10.3414 12.696 10.1279 12.7675 9.34503C12.8867 8.27752 12.839 8.25379 11.7424 8.1589C11.1941 8.11146 10.7173 8.08773 10.6458 7.37606C10.6458 7.18627 10.5027 7.09138 10.2882 6.99649C9.21537 6.45087 8.64322 5.59686 8.90546 4.36328H59.2073C58.9689 4.83773 58.4682 5.14613 58.3729 5.73919C58.3252 6.07131 57.9438 6.1662 57.6338 6.23737C57.3239 6.30854 56.9902 6.26109 56.7518 6.56949C56.7518 6.97277 57.467 6.64065 57.4193 7.16255C57.3954 7.49467 57.4908 7.85051 57.5385 8.20635C57.8484 8.6808 57.5385 9.03664 57.2524 9.34503C54.8923 11.741 52.5083 14.1133 50.1005 16.4618C49.5522 16.9837 48.9085 17.1498 48.2648 16.7939C47.6212 16.4618 47.7165 15.8213 47.788 15.2045C47.8119 14.9198 47.9072 14.6589 47.9311 14.3742C48.0026 13.5202 48.384 13.0458 49.2899 13.1169C49.4091 13.1169 49.5283 13.1169 49.6475 13.1169C50.8157 12.9509 51.507 12.0731 51.2686 11.0768C51.0302 10.0567 49.9336 9.4162 48.9323 9.96182C47.7404 10.6023 47.0013 10.2465 46.0954 9.46365C45.1895 8.6808 44.0452 8.25379 42.8771 8.01657C39.7541 7.39978 36.6549 6.59321 33.3888 6.83043C31.3148 6.97277 29.3361 7.51839 27.2859 7.70817C26.5468 7.77934 25.8317 7.9454 25.0688 7.68445C24.3536 7.44722 23.6384 7.58956 23.2331 8.37241C23.0186 8.79941 22.6133 8.98919 22.2319 9.17897C21.2306 9.70087 20.3724 10.4126 19.8479 11.4326C19.5618 12.0257 19.0135 12.2155 18.4175 12.5001C18.9181 12.9983 19.8002 12.7611 20.0386 13.4728C20.2532 14.0896 20.134 14.7301 20.2532 15.3469C20.4677 16.3669 20.42 17.387 20.4677 18.4071C20.4677 18.8104 20.3485 19.1188 19.9671 19.2611C19.6333 19.3797 19.3473 19.2611 19.1089 19.0239C17.5593 17.4819 15.9859 15.9874 14.5078 14.398C14.1979 14.0658 14.0072 13.6863 14.3409 13.2355H14.3648Z" fill="#FEFEFE"/>
<path d="M39.2057 94.2729C38.8481 93.917 38.3475 93.9408 37.9184 93.7747C36.345 93.1342 35.5583 91.8769 35.7013 90.0503C36.7502 90.1689 37.7753 90.3112 38.8243 90.4535C39.1104 90.501 39.2773 90.6196 39.468 90.8805C40.0878 91.7346 41.3513 91.9481 42.6863 91.4973C43.5922 91.1889 43.926 90.667 43.9498 89.4572C43.9498 88.8641 43.9498 88.2948 43.9498 87.7017C43.5922 87.6306 43.4969 87.9152 43.33 88.0576C41.0652 90.074 37.7038 89.647 36.1781 86.99C34.7239 84.4754 34.7239 81.8422 36.035 79.2802C37.5131 76.386 41.542 75.8404 43.5922 78.1178C43.7114 78.2601 43.8068 78.4499 44.0929 78.4024C44.3074 77.9754 44.0452 77.4773 44.3074 77.0028C45.2133 76.9079 46.1669 76.9316 47.0728 77.0028C47.3589 77.3587 47.2636 77.7145 47.2636 78.0703C47.2636 81.4152 47.2636 84.7838 47.2636 88.1287C47.2636 88.9116 47.192 89.7181 47.0728 90.4773C46.7868 92.2327 45.857 93.4189 44.0929 93.9408C43.8306 94.0119 43.4254 93.8459 43.2823 94.2729H39.2296H39.2057Z" fill="black"/>
<path d="M14.3648 13.2355C16.0574 15.2757 18.0123 17.0312 19.9195 19.1662C19.9672 17.1261 19.6334 15.3469 19.5619 13.5202C18.7513 13.2593 17.9408 13.5202 17.1302 13.3067C17.0587 12.8323 17.011 12.3815 17.1302 11.9308C17.7501 11.6224 18.4176 11.9308 19.1089 11.6936C19.6334 10.2228 20.7539 9.15525 22.2081 8.53846C22.9471 8.23007 22.6372 7.61328 22.8994 7.06766C23.9245 7.13883 24.9258 6.99649 25.9986 7.23372C26.8568 7.4235 27.9058 7.16255 28.7879 6.9016C31.9347 6.00014 35.1292 6.23737 38.3237 6.23737C38.7529 6.23737 39.2296 6.11876 39.3727 6.73554C39.4442 7.02022 39.7303 6.99649 39.9687 6.99649C42.8533 7.16255 45.5233 7.87423 47.6212 9.96182C49.0993 8.96547 50.1959 8.84686 51.1495 9.60598C51.9839 10.2702 52.27 11.3852 51.817 12.3815C51.3164 13.5439 50.4105 13.8998 48.551 13.6863C48.4556 14.3742 48.3603 15.0859 48.2887 15.7739C48.2887 15.9636 48.2887 16.1534 48.2887 16.3669C48.8847 16.5804 49.3615 16.5567 49.8145 16.0823C52.3892 13.449 54.9639 10.8158 57.5385 8.20635C58.7067 6.92532 59.8987 5.6443 61.0668 4.36328C61.7582 4.79029 62.0681 5.14613 62.3542 5.52569C62.1635 6.02387 61.7582 6.28481 61.4483 6.61693C58.4921 9.60598 55.536 12.595 52.5799 15.5604C52.0793 16.0585 51.817 16.5567 51.8647 17.3158C51.9362 18.9764 51.8647 20.6133 51.8647 22.3213C50.5058 22.5823 49.1946 22.3213 47.8119 22.5111C47.4305 23.9107 47.4782 25.3815 47.3113 26.8286C46.8822 30.9563 46.5484 35.0841 46.167 39.2118C46.0001 41.1808 45.8332 43.1498 45.6187 45.1188C45.5472 45.783 45.8094 46.21 46.2624 46.6607C51.2687 51.856 56.2512 57.075 61.2337 62.2702C61.4483 62.4837 61.7343 62.6735 61.8297 63.0531C61.5913 63.4326 61.2337 63.741 60.7569 64.0494C57.0617 60.2063 53.3904 56.387 49.5999 52.4491C49.3615 53.3031 49.4807 54.0147 49.2185 54.7027C48.4794 56.6005 47.1444 57.7392 45.1419 58.095C43.2109 58.4271 41.5898 57.7866 40.3739 56.3396C39.921 55.7939 39.4919 55.5804 38.7767 55.5804C35.2484 55.6042 31.6963 55.5804 28.168 55.5804C27.8104 55.5804 27.4528 55.5093 27.0475 55.699C26.833 56.387 27.0714 57.1461 26.8807 57.929C25.8794 58.1188 24.8543 58.0476 23.8769 57.9764C23.5908 57.5731 23.71 57.1699 23.71 56.7903C23.6861 56.2209 23.7815 55.6516 23.2332 55.1772C22.8994 54.8925 22.9948 54.3706 22.971 53.9199C22.8041 51.6425 22.6134 49.3651 22.4226 47.064C22.4226 46.8268 22.3273 46.6133 22.2319 46.1388C16.1528 52.2593 10.2167 58.2374 4.28061 64.2155C3.7323 64.0494 3.47007 63.6461 3.16016 63.2903C3.27935 62.8158 3.68462 62.5786 3.9707 62.2939C9.78759 56.4107 15.6283 50.5275 21.4691 44.668C21.922 44.2173 22.1127 43.7666 22.0412 43.1023C21.6359 38.5713 21.2545 34.064 20.8731 29.533C20.6823 27.3742 20.4678 25.2155 20.3486 23.033C20.3009 22.179 20.0625 21.5622 19.4665 20.9454C14.7224 16.0348 10.026 11.1242 5.30573 6.18992C5.13885 6.02387 4.99581 5.83408 4.82894 5.66803C5.04349 5.19357 5.47261 4.95635 5.85404 4.52934C8.16649 6.87788 10.4074 9.2027 12.6722 11.5038C12.9106 11.575 13.0536 11.7173 13.1252 11.9545C13.4589 12.4527 13.8403 12.856 14.3171 13.2118L14.3648 13.2355Z" fill="black"/>
<path d="M18.6084 89.2214V72.2835C19.6812 72.1649 20.7301 72.236 21.946 72.236V78.7835H28.7164V72.2835H32.0778V89.2214C30.9812 89.3638 29.9323 89.2689 28.788 89.2689V81.7725H22.0175V89.1502C20.8493 89.34 19.7527 89.2689 18.6084 89.1977V89.2214Z" fill="black"/>
<path d="M13.1727 11.9804C12.9581 11.8855 12.8151 11.7432 12.7197 11.5297C13.1488 11.4111 13.2919 11.5771 13.1727 11.9804Z" fill="#FEFEFE"/>
<path d="M43.9735 83.1952C43.9735 83.812 43.8782 84.4999 43.5444 85.1642C43.0438 86.1842 41.9948 86.801 40.9459 86.7061C39.9208 86.6112 39.0387 85.8996 38.7526 84.8083C38.4427 83.6934 38.3712 82.5547 38.7049 81.416C39.0625 80.1587 39.9684 79.3758 41.1366 79.3521C42.3763 79.3284 43.3298 80.0638 43.759 81.3448C43.9497 81.9142 43.9735 82.5072 43.9735 83.2189V83.1952Z" fill="#FEFEFE"/>
<path d="M30.6231 26.0967H39.5392C39.5869 26.1679 39.6346 26.2391 39.6822 26.3102C37.5367 28.469 35.3911 30.6515 33.2932 32.7865C32.3396 31.885 31.386 31.0547 30.5278 30.1533C27.8339 27.354 25.1639 24.5547 22.47 21.7555C22.0647 21.3522 21.8263 20.9252 21.7786 20.3321C21.6117 18.1022 21.3972 15.8485 21.1826 13.5H46.9533C46.9057 14.3066 46.8818 15.0894 46.8103 15.8723C46.8103 16.062 46.8103 16.3467 46.5957 16.3942C45.6898 16.5839 45.9282 17.2956 45.9998 17.7938C46.2143 19.3832 45.6898 20.5931 44.4502 21.6131C43.4966 22.3723 42.7099 23.3212 41.7801 24.2226C41.4464 23.7245 41.7324 23.2263 41.4702 22.7281H30.6708C30.5516 23.8193 30.5755 24.8631 30.6708 26.073L30.6231 26.0967Z" fill="#FEFEFE"/>
<path d="M33.2934 35.3945C36.6548 38.9055 40.1116 42.5113 43.5445 46.1172C44.3074 46.9 44.0451 47.754 43.0439 48.0387C40.6599 48.7029 39.2057 50.577 39.158 53.0679C39.158 53.3051 39.158 53.5423 39.158 53.8745H24.6396C24.2582 52.6409 24.4012 51.3599 24.2343 50.1263C24.0198 48.4894 23.9721 46.8288 23.829 45.1683C23.7814 44.765 23.8529 44.4803 24.139 44.2193C27.1666 41.3015 30.1704 38.3836 33.2696 35.3945H33.2934Z" fill="#FEFEFE"/>
<path d="M44.1644 44.4094C40.7553 40.851 37.537 37.5061 34.2471 34.0663C38.1329 30.1284 41.995 26.2616 45.8332 22.3711C45.9285 22.4185 46.0477 22.466 46.1431 22.5134C45.4994 29.7251 44.8558 36.9131 44.1644 44.4331V44.4094Z" fill="#FEFEFE"/>
<path d="M22.2555 23.887C25.4738 27.2319 28.6922 30.6005 31.9821 34.0166C29.1213 36.7447 26.3321 39.4016 23.5667 42.0111C23.066 36.1516 22.5416 30.0786 22.0171 23.9819C22.0886 23.9344 22.1601 23.9107 22.2555 23.8633V23.887Z" fill="#FEFEFE"/>
<path d="M30.9573 9.79864H39.1581C39.4919 9.41908 39.2296 8.96835 39.5395 8.51762C42.2811 8.65996 44.9035 9.18185 47.0014 11.6965H25.8794V9.06324C27.429 8.58879 29.0262 8.39901 30.6235 8.35156C30.9811 8.80229 30.695 9.30047 30.9334 9.82237L30.9573 9.79864Z" fill="#FDFDFD"/>
<path d="M22.685 10.0352C22.8041 10.6757 22.8042 11.1264 22.7088 11.6483C22.1605 11.933 21.5645 11.7195 20.897 11.7906C21.2307 10.8654 21.8982 10.4859 22.685 10.0352Z" fill="#F8F8F8"/>
</svg>
