<svg width="68" height="104" viewBox="0 0 68 104" fill="none" xmlns="http://www.w3.org/2000/svg">
<path d="M4.4581 62.0105C4.00514 61.7733 3.86211 61.1091 3.26611 61.0616V6.76055C4.29122 5.93026 4.48194 6.04887 5.34017 6.97406C6.29376 8.01785 7.29503 9.08537 8.51085 9.84449C9.48828 10.4613 9.96507 11.4814 10.6326 12.3116C11.2763 13.0945 11.8961 13.4029 12.8258 13.2131C14.3754 14.2569 15.6151 15.6803 16.8547 17.0325C17.9514 18.2186 19.048 19.4047 20.2162 20.5434C20.8598 21.1839 21.1697 21.9193 21.2651 22.8445C21.8134 29.0598 22.2664 35.2751 22.8862 41.4668C23.0769 43.246 22.7193 44.6693 21.2889 45.9978C16.0442 50.8846 11.3001 56.2697 6.12688 61.2277C5.67392 61.6547 5.31633 62.4138 4.4581 61.9868V62.0105Z" fill="#FEFEFE"/>
<path d="M12.6352 13.6187C12.373 13.6899 12.0869 13.7136 11.8247 13.8322C11.1333 14.1643 10.7042 13.9508 10.4658 13.2392C10.3228 12.8122 10.0844 12.48 9.70292 12.2191C9.46453 12.0768 9.27381 11.8633 9.22613 11.5786C9.01157 10.3687 8.15334 10.1078 7.00903 10.1315C6.77064 9.08771 6.22232 8.28114 5.17338 7.90157C4.72042 7.73552 4.74426 7.18989 4.62506 6.83406C4.14827 6.64427 3.69531 6.81033 3.29004 6.76289V4.39062H59.5518C59.075 4.72274 58.5982 5.07858 58.5982 5.76654C58.5982 6.05121 58.4075 6.24099 58.1691 6.43077C57.3824 7.07128 57.4062 7.095 58.1214 7.99646C58.5028 8.61325 58.0022 8.96909 57.6684 9.30121C55.2845 11.7921 52.7336 14.1169 50.3973 16.6552C49.8967 17.2008 49.2292 17.106 48.6332 16.8687C48.061 16.6552 48.0372 16.0859 48.061 15.564C48.0849 15.137 48.2041 14.71 48.2517 14.283C48.3471 13.5476 48.7524 13.1443 49.5391 13.1917C49.706 13.1917 49.849 13.1917 50.0159 13.1917C51.1602 13.0257 51.8515 12.1242 51.6131 11.1279C51.3509 10.1078 50.2781 9.46727 49.2769 10.0129C48.1087 10.6534 47.3458 10.345 46.4399 9.56216C45.2956 8.58953 43.8891 8.16252 42.411 7.87785C39.4787 7.33223 36.5703 6.62055 33.5188 6.90522C31.5163 7.095 29.5376 7.56946 27.535 7.80668C26.8198 7.87785 26.1762 8.02019 25.4371 7.75924C24.6743 7.49829 23.9352 7.6169 23.53 8.47092C23.3631 8.82676 23.0532 8.99281 22.7432 9.15887C21.6228 9.72822 20.6692 10.4873 20.097 11.6497C19.7871 12.2665 19.1196 12.2191 18.6905 12.5987C18.9051 12.9308 19.215 12.907 19.4772 12.9545C20.1209 13.0494 20.4546 13.4289 20.5023 14.0695C20.5738 15.4928 20.8599 16.8924 20.8361 18.3158C20.8361 18.7428 20.8361 19.1224 20.407 19.3359C19.9778 19.5257 19.6679 19.3359 19.358 19.0275C15.9251 15.6351 12.6114 12.1242 9.29765 8.61325C8.51094 7.78296 7.74807 6.92895 6.77064 6.28844C7.12823 7.00011 7.62887 7.6169 8.17718 8.18625C9.36917 9.3961 10.6327 10.5585 11.777 11.8158C12.2538 12.3377 12.969 12.8122 12.659 13.7136L12.6352 13.6187Z" fill="#FEFEFE"/>
<path d="M12.6352 13.617C10.5373 11.1499 8.15337 8.94366 5.96012 6.52395C5.69788 6.23928 5.36412 6.00205 5.19724 5.62249C5.4118 5.17176 5.84092 4.93453 6.22235 4.53125C10.8711 9.37067 15.4722 14.1864 20.2163 19.1207C20.2639 17.1042 19.9063 15.3488 19.8825 13.5221C19.0481 13.2375 18.2376 13.5221 17.427 13.3086C17.3555 12.8104 17.3317 12.3834 17.4509 11.8853C18.0945 11.6718 18.7382 11.8853 19.4296 11.6955C19.9302 10.1772 21.0745 9.13344 22.5287 8.51665C23.2677 8.20826 22.934 7.56775 23.2201 7.04585C24.2452 7.09329 25.2464 6.83234 26.3192 7.23563C26.796 7.42541 27.392 7.14074 27.9403 7.02213C29.1323 6.76118 30.4435 7.06957 31.5163 6.23928C31.6355 6.14439 31.8977 6.21556 32.1123 6.21556C34.3055 6.21556 36.475 6.21556 38.6682 6.21556C39.0973 6.21556 39.5503 6.12067 39.7172 6.71373C39.8125 7.04585 40.1701 6.97468 40.4323 6.9984C43.2693 7.18818 45.8916 7.89986 47.9419 9.96373C49.4199 8.94366 50.5165 8.84877 51.4701 9.60789C52.3045 10.2958 52.5906 11.3871 52.1376 12.3834C51.637 13.5458 50.7073 13.9254 48.8954 13.6882C48.8001 14.5659 48.5855 15.4437 48.6094 16.3688C49.2054 16.5823 49.6822 16.5823 50.1351 16.1079C52.7813 13.3798 55.4514 10.6754 58.0976 7.97103C58.4075 7.80497 58.6459 7.54402 58.8128 7.23563C58.8604 7.11702 58.932 7.04585 59.0273 6.9984C59.8856 6.19183 60.7438 5.38526 61.6259 4.55497C62.055 4.86337 62.3887 5.14804 62.6986 5.64621C61.5543 6.80862 60.4339 7.94731 59.2896 9.10972C57.144 11.2685 54.9984 13.451 52.829 15.6097C52.3045 16.1316 52.09 16.6298 52.1138 17.3652C52.1615 19.0258 52.1138 20.6626 52.1138 22.4418H48.0849C47.7035 24.0075 47.7273 25.5021 47.5843 26.9966C47.179 31.0769 46.8214 35.1809 46.4638 39.2612C46.2731 41.2302 46.13 43.1991 45.9155 45.1681C45.844 45.8323 46.13 46.2593 46.5592 46.7101C51.5417 51.8816 56.5003 57.0531 61.4351 62.2484C61.6735 62.5093 61.9834 62.6991 62.1026 63.0787C61.8404 63.482 61.5067 63.7904 61.006 64.075C57.3347 60.2557 53.6872 56.4364 50.0159 52.617C49.5868 52.8305 49.7775 53.1864 49.7537 53.471C49.5868 55.5586 48.2041 57.3141 46.2254 57.9546C44.2467 58.5951 41.9819 58.0258 40.7184 56.4364C40.2178 55.7958 39.6933 55.5823 38.9304 55.6061C35.4737 55.6298 32.0169 55.6061 28.5602 55.6061C28.1787 55.6061 27.7735 55.5349 27.3205 55.7247C27.1298 56.4126 27.3205 57.1718 27.1775 57.9546C26.1524 58.1207 25.1272 58.0732 24.1498 58.0021C23.8637 57.5988 24.0068 57.1955 23.9829 56.8159C23.9591 56.2466 24.0545 55.6772 23.5061 55.2028C23.1724 54.9181 23.2677 54.3962 23.2439 53.9692C23.077 51.7156 22.8863 49.4856 22.7194 47.232C22.6956 46.9236 22.7194 46.5915 22.3857 46.3305C16.4496 52.3086 10.5135 58.2867 4.57741 64.2648C4.0291 64.1225 3.7907 63.6955 3.43311 63.3634C3.57614 62.7703 4.19598 62.5805 4.43437 62.0586C7.24746 59.4491 9.86983 56.6499 12.5876 53.9218C15.6152 50.909 18.5952 47.825 21.6466 44.8123C22.195 44.2666 22.4095 43.721 22.338 42.9382C21.9327 38.5021 21.5513 34.0422 21.1937 29.6061C21.003 27.3287 20.8123 25.0513 20.6454 22.7502C20.5977 22.2758 20.5977 21.825 20.2401 21.4455C17.6654 18.8597 15.2576 16.1316 12.6352 13.617Z" fill="black"/>
<path d="M47.2028 13.4727C47.1551 14.2792 47.1551 14.9435 47.0836 15.6077C47.0597 15.9873 47.1313 16.3905 46.5353 16.5092C46.1061 16.5803 46.1777 17.0311 46.2492 17.292C46.6545 19.4033 45.7247 20.8978 44.1275 22.1551C43.3884 22.7482 42.7686 23.4599 42.0057 24.1953C41.7673 23.7208 41.9819 23.2227 41.7673 22.7482H30.9441C30.8011 23.8394 30.8249 24.907 30.9441 26.1168H40.0747C37.6669 28.3705 35.4736 30.4343 33.2565 32.5219C33.3281 32.6168 33.3996 32.688 33.4711 32.7829C33.1135 32.7591 32.9705 32.427 32.7797 32.2373C29.3945 28.7263 26.0331 25.2154 22.6479 21.7044C22.2664 21.3248 22.0757 20.9216 22.028 20.3759C21.8612 18.0986 21.6228 15.8449 21.4082 13.4964H47.1789L47.2028 13.4727Z" fill="#FEFEFE"/>
<path d="M39.4071 53.8985H25.0079C24.6027 52.8547 24.7696 51.7871 24.6504 50.7434C24.4358 48.8693 24.3404 46.9715 24.1497 45.0736C24.102 44.6704 24.2689 44.3857 24.5312 44.1485C27.5111 41.2543 30.5149 38.3601 33.6141 35.3711C33.7333 35.3948 33.924 35.7269 34.1386 35.9642C37.3331 39.2853 40.5038 42.6065 43.6744 45.9039C44.0559 46.2835 44.3181 46.6631 44.2466 47.2561C44.1751 47.6594 44.032 47.8729 43.6268 48.0153C40.5514 49.059 39.574 50.3638 39.4787 53.5189C39.4787 53.6375 39.431 53.7324 39.4071 53.8985Z" fill="#FEFEFE"/>
<path d="M44.4613 44.4094C41.0522 40.8747 37.8577 37.5299 34.5439 34.0664C38.4298 30.1521 42.268 26.2616 46.1062 22.3711C46.2254 22.4185 46.3208 22.4423 46.44 22.4897C45.7963 29.6777 45.1526 36.8893 44.4613 44.4094Z" fill="#FEFEFE"/>
<path d="M23.8636 41.9198C23.363 36.1552 22.8624 30.0822 22.3379 23.9855C22.4094 23.9618 22.4809 23.9143 22.5524 23.8906C25.7708 27.2355 28.9892 30.6041 32.2791 34.0202C29.4183 36.7246 26.6052 39.3578 23.8636 41.9198Z" fill="#FEFEFE"/>
<path d="M47.1073 11.7207H26.2476C26.033 10.8667 26.1522 9.98899 26.1761 9.06381C26.9866 8.7317 27.7972 8.66053 28.6077 8.54191C29.3706 8.4233 30.1811 8.37586 30.9202 8.30469C31.3016 8.77914 31.0155 9.30104 31.2301 9.79921H39.4548C39.7647 9.44337 39.5263 8.99264 39.7409 8.66053C42.3632 8.25724 46.0107 9.75177 47.1073 11.7445V11.7207Z" fill="#FDFDFD"/>
<path d="M50.8739 17.9587V21.1376H48.1323C48.2992 19.477 49.8726 18.9551 50.5878 17.8164L50.8501 17.935L50.8739 17.9587Z" fill="#F9F9F9"/>
<path d="M22.9813 10.0586C23.1244 10.6754 23.0529 11.1498 23.0529 11.648C22.4569 11.9564 21.8847 11.7429 21.1934 11.8141C21.5271 10.8889 22.1946 10.5093 22.9813 10.0586Z" fill="#F9F9F9"/>
<path d="M44.7708 83.2194C44.7708 84.1446 44.7231 84.88 44.3894 85.5679C43.8887 86.6355 42.9352 87.2285 41.8624 87.1574C40.7896 87.0862 39.8598 86.3508 39.5499 85.2596C39.2162 84.0971 39.1446 82.9347 39.4546 81.7723C39.8122 80.3964 40.7896 79.5898 42.0292 79.5898C43.3166 79.5898 44.2225 80.3727 44.6039 81.7486C44.747 82.2942 44.747 82.8398 44.7708 83.2194Z" fill="#FEFEFE"/>
</svg>
