<svg width="69" height="104" viewBox="0 0 69 104" fill="none" xmlns="http://www.w3.org/2000/svg">
<path d="M5.7413 62.0105C5.28835 61.7733 5.14531 61.1091 4.54932 61.0616V6.76055C5.57442 5.93026 5.76514 6.04887 6.62337 6.97406C7.57696 8.01785 8.57823 9.08537 9.79405 9.84449C10.7715 10.4613 11.2483 11.4814 11.9158 12.3116C12.5595 13.0945 13.1793 13.4029 14.109 13.2131C15.6586 14.2569 16.8983 15.6803 18.138 17.0325C19.2346 18.2186 20.3312 19.4047 21.4994 20.5434C22.143 21.1839 22.4529 21.9193 22.5483 22.8445C23.0966 29.0598 23.5496 35.2751 24.1694 41.4668C24.3601 43.246 24.0025 44.6693 22.5721 45.9978C17.3274 50.8846 12.5833 56.2697 7.41008 61.2277C6.95713 61.6547 6.59953 62.4138 5.7413 61.9868V62.0105Z" fill="#FEFEFE"/>
<path d="M13.8945 13.6187C13.6322 13.6899 13.3462 13.7136 13.0839 13.8322C12.3926 14.1643 11.9635 13.9508 11.7251 13.2392C11.582 12.8122 11.3436 12.48 10.9622 12.2191C10.7238 12.0768 10.5331 11.8633 10.4854 11.5786C10.2708 10.3687 9.41262 10.1078 8.26831 10.1315C8.02992 9.08771 7.4816 8.28114 6.43265 7.90157C5.9797 7.73552 6.00354 7.18989 5.88434 6.83406C5.40755 6.64427 4.95459 6.81033 4.54932 6.76289V4.39062H60.811C60.3342 4.72274 59.8575 5.07858 59.8575 5.76654C59.8575 6.05121 59.6667 6.24099 59.4283 6.43077C58.6416 7.07128 58.6655 7.095 59.3807 7.99646C59.7621 8.61325 59.2615 8.96909 58.9277 9.30121C56.5437 11.7921 53.9929 14.1169 51.6566 16.6552C51.156 17.2008 50.4884 17.106 49.8925 16.8687C49.3203 16.6552 49.2965 16.0859 49.3203 15.564C49.3441 15.137 49.4633 14.71 49.511 14.283C49.6064 13.5476 50.0116 13.1443 50.7984 13.1917C50.9652 13.1917 51.1083 13.1917 51.2752 13.1917C52.4195 13.0257 53.1108 12.1242 52.8724 11.1279C52.6102 10.1078 51.5374 9.46727 50.5361 10.0129C49.368 10.6534 48.6051 10.345 47.6992 9.56216C46.5549 8.58953 45.1484 8.16252 43.6703 7.87785C40.738 7.33223 37.8296 6.62055 34.7781 6.90522C32.7755 7.095 30.7968 7.56946 28.7943 7.80668C28.0791 7.87785 27.4354 8.02019 26.6964 7.75924C25.9335 7.49829 25.1945 7.6169 24.7892 8.47092C24.6224 8.82676 24.3124 8.99281 24.0025 9.15887C22.8821 9.72822 21.9285 10.4873 21.3563 11.6497C21.0464 12.2665 20.3789 12.2191 19.9498 12.5987C20.1643 12.9308 20.4742 12.907 20.7365 12.9545C21.3802 13.0494 21.7139 13.4289 21.7616 14.0695C21.8331 15.4928 22.1192 16.8924 22.0953 18.3158C22.0953 18.7428 22.0953 19.1224 21.6662 19.3359C21.2371 19.5257 20.9272 19.3359 20.6173 19.0275C17.1844 15.6351 13.8706 12.1242 10.5569 8.61325C9.77021 7.78296 9.00734 6.92895 8.02992 6.28844C8.38751 7.00011 8.88814 7.6169 9.43646 8.18625C10.6284 9.3961 11.892 10.5585 13.0363 11.8158C13.5131 12.3377 14.2282 12.8122 13.9183 13.7136L13.8945 13.6187Z" fill="#FEFEFE"/>
<path d="M13.8945 13.617C11.7966 11.1499 9.41264 8.94366 7.21939 6.52395C6.95715 6.23928 6.6234 6.00205 6.45652 5.62249C6.67108 5.17176 7.10019 4.93453 7.48163 4.53125C12.1304 9.37067 16.7314 14.1864 21.4755 19.1207C21.5232 17.1042 21.1656 15.3488 21.1418 13.5221C20.3074 13.2375 19.4968 13.5221 18.6863 13.3086C18.6148 12.8104 18.5909 12.3834 18.7101 11.8853C19.3538 11.6718 19.9975 11.8853 20.6888 11.6955C21.1895 10.1772 22.3338 9.13344 23.788 8.51665C24.527 8.20826 24.1933 7.56775 24.4793 7.04585C25.5045 7.09329 26.5057 6.83234 27.5785 7.23563C28.0553 7.42541 28.6513 7.14074 29.1996 7.02213C30.3916 6.76118 31.7028 7.06957 32.7756 6.23928C32.8948 6.14439 33.157 6.21556 33.3716 6.21556C35.5648 6.21556 37.7342 6.21556 39.9275 6.21556C40.3566 6.21556 40.8095 6.12067 40.9764 6.71373C41.0718 7.04585 41.4294 6.97468 41.6916 6.9984C44.5285 7.18818 47.1509 7.89986 49.2011 9.96373C50.6792 8.94366 51.7758 8.84877 52.7294 9.60789C53.5638 10.2958 53.8499 11.3871 53.3969 12.3834C52.8963 13.5458 51.9665 13.9254 50.1547 13.6882C50.0594 14.5659 49.8448 15.4437 49.8686 16.3688C50.4646 16.5823 50.9414 16.5823 51.3944 16.1079C54.0406 13.3798 56.7106 10.6754 59.3568 7.97103C59.6668 7.80497 59.9052 7.54402 60.072 7.23563C60.1197 7.11702 60.1912 7.04585 60.2866 6.9984C61.1448 6.19183 62.0031 5.38526 62.8851 4.55497C63.3142 4.86337 63.648 5.14804 63.9579 5.64621C62.8136 6.80862 61.6931 7.94731 60.5488 9.10972C58.4033 11.2685 56.2577 13.451 54.0883 15.6097C53.5638 16.1316 53.3492 16.6298 53.3731 17.3652C53.4208 19.0258 53.3731 20.6626 53.3731 22.4418H49.3442C48.9627 24.0075 48.9866 25.5021 48.8435 26.9966C48.4383 31.0769 48.0807 35.1809 47.7231 39.2612C47.5324 41.2302 47.3893 43.1991 47.1748 45.1681C47.1032 45.8323 47.3893 46.2593 47.8184 46.7101C52.8009 51.8816 57.7596 57.0531 62.6944 62.2484C62.9328 62.5093 63.2427 62.6991 63.3619 63.0787C63.0997 63.482 62.7659 63.7904 62.2653 64.075C58.594 60.2557 54.9465 56.4364 51.2752 52.617C50.8461 52.8305 51.0368 53.1864 51.0129 53.471C50.8461 55.5586 49.4634 57.3141 47.4847 57.9546C45.506 58.5951 43.2412 58.0258 41.9777 56.4364C41.4771 55.7958 40.9526 55.5823 40.1897 55.6061C36.733 55.6298 33.2762 55.6061 29.8194 55.6061C29.438 55.6061 29.0327 55.5349 28.5798 55.7247C28.3891 56.4126 28.5798 57.1718 28.4367 57.9546C27.4116 58.1207 26.3865 58.0732 25.4091 58.0021C25.123 57.5988 25.2661 57.1955 25.2422 56.8159C25.2184 56.2466 25.3137 55.6772 24.7654 55.2028C24.4317 54.9181 24.527 54.3962 24.5032 53.9692C24.3363 51.7156 24.1456 49.4856 23.9787 47.232C23.9549 46.9236 23.9787 46.5915 23.645 46.3305C17.7089 52.3086 11.7728 58.2867 5.83669 64.2648C5.28837 64.1225 5.04998 63.6955 4.69238 63.3634C4.83542 62.7703 5.45525 62.5805 5.69365 62.0586C8.50673 59.4491 11.1291 56.6499 13.8468 53.9218C16.8745 50.909 19.8544 47.825 22.9059 44.8123C23.4542 44.2666 23.6688 43.721 23.5973 42.9382C23.192 38.5021 22.8106 34.0422 22.453 29.6061C22.2623 27.3287 22.0715 25.0513 21.9047 22.7502C21.857 22.2758 21.857 21.825 21.4994 21.4455C18.9247 18.8597 16.5169 16.1316 13.8945 13.617Z" fill="black"/>
<path d="M49.2249 89.5054H46.3165C46.2688 89.031 46.245 88.5803 46.1973 88.0109C45.4344 88.5565 44.8146 89.2208 43.9325 89.5054C41.5009 90.312 38.9262 89.1496 37.8772 86.6824C36.9475 84.4762 36.9475 82.1989 37.8295 79.9927C39.1407 76.6952 43.2412 76.0547 45.4106 78.0949C45.5298 78.1898 45.649 78.2846 45.9827 78.5456V72.4963C47.0793 72.3777 48.1045 72.4252 49.2011 72.4726V89.4817L49.2249 89.5054Z" fill="black"/>
<path d="M31.5835 83.1726C32.7039 83.5047 33.7291 83.7182 34.7303 84.1215C33.7529 88.6051 30.1293 89.9098 26.744 89.4828C23.2157 89.0558 20.951 86.8496 20.2358 83.3624C19.7828 81.1562 19.902 78.95 20.7364 76.8387C22.8581 71.4773 29.6525 71.2638 32.6324 73.6835C33.7052 74.5613 34.3966 75.7 34.7542 77.0759C33.729 77.5503 32.6086 77.5741 31.6312 77.8587C31.3212 77.7401 31.3212 77.5266 31.2497 77.3606C30.606 75.866 29.4617 75.0832 27.8406 75.0595C26.1242 75.0595 24.7892 75.7711 24.1693 77.3606C23.2634 79.6854 23.2873 82.1051 24.1932 84.4062C24.7892 85.9007 26.0527 86.6361 27.6738 86.6598C29.3187 86.6598 30.463 85.9007 31.1305 84.4062C31.2974 84.0029 31.4404 83.5996 31.6312 83.1251L31.5835 83.1726Z" fill="black"/>
<path d="M48.462 13.4727C48.4144 14.2792 48.4144 14.9435 48.3428 15.6077C48.319 15.9873 48.3905 16.3905 47.7945 16.5092C47.3654 16.5803 47.4369 17.0311 47.5085 17.292C47.9137 19.4033 46.984 20.8978 45.3867 22.1551C44.6477 22.7482 44.0279 23.4599 43.265 24.1953C43.0266 23.7208 43.2412 23.2227 43.0266 22.7482H32.2034C32.0603 23.8394 32.0842 24.907 32.2034 26.1168H41.334C38.9262 28.3705 36.7329 30.4343 34.5158 32.5219C34.5873 32.6168 34.6589 32.688 34.7304 32.7829C34.3728 32.7591 34.2297 32.427 34.039 32.2373C30.6538 28.7263 27.2924 25.2154 23.9071 21.7044C23.5257 21.3248 23.335 20.9216 23.2873 20.3759C23.1204 18.0986 22.882 15.8449 22.6675 13.4964H48.4382L48.462 13.4727Z" fill="#FEFEFE"/>
<path d="M40.6903 53.8985H26.2911C25.8859 52.8547 26.0527 51.7871 25.9336 50.7434C25.719 48.8693 25.6236 46.9715 25.4329 45.0736C25.3852 44.6704 25.5521 44.3857 25.8144 44.1485C28.7943 41.2543 31.7981 38.3601 34.8973 35.3711C35.0165 35.3948 35.2072 35.7269 35.4218 35.9642C38.6163 39.2853 41.787 42.6065 44.9576 45.9039C45.3391 46.2835 45.6013 46.6631 45.5298 47.2561C45.4583 47.6594 45.3152 47.8729 44.91 48.0153C41.8346 49.059 40.8572 50.3638 40.7619 53.5189C40.7619 53.6375 40.7142 53.7324 40.6903 53.8985Z" fill="#FEFEFE"/>
<path d="M45.7445 44.4094C42.3354 40.8747 39.1409 37.5299 35.8271 34.0664C39.713 30.1521 43.5512 26.2616 47.3894 22.3711C47.5086 22.4185 47.604 22.4423 47.7232 22.4897C47.0795 29.6777 46.4358 36.8893 45.7445 44.4094Z" fill="#FEFEFE"/>
<path d="M25.1468 41.9198C24.6462 36.1552 24.1456 30.0822 23.6211 23.9855C23.6926 23.9618 23.7641 23.9143 23.8356 23.8906C27.054 27.2355 30.2724 30.6041 33.5623 34.0202C30.7015 36.7246 27.8884 39.3578 25.1468 41.9198Z" fill="#FEFEFE"/>
<path d="M48.3905 11.7207H27.5308C27.3162 10.8667 27.4354 9.98899 27.4593 9.06381C28.2698 8.7317 29.0804 8.66053 29.8909 8.54191C30.6538 8.4233 31.4643 8.37586 32.2034 8.30469C32.5848 8.77914 32.2987 9.30104 32.5133 9.79921H40.738C41.0479 9.44337 40.8095 8.99264 41.0241 8.66053C43.6464 8.25724 47.2939 9.75177 48.3905 11.7445V11.7207Z" fill="#FDFDFD"/>
<path d="M52.1571 17.9587V21.1376H49.4155C49.5824 19.477 51.1558 18.9551 51.871 17.8164L52.1333 17.935L52.1571 17.9587Z" fill="#F9F9F9"/>
<path d="M24.2645 10.0586C24.4076 10.6754 24.3361 11.1498 24.3361 11.648C23.7401 11.9564 23.1679 11.7429 22.4766 11.8141C22.8103 10.8889 23.4778 10.5093 24.2645 10.0586Z" fill="#F9F9F9"/>
<path d="M46.0306 83.2194C46.0306 84.1446 45.9829 84.88 45.6491 85.5679C45.1485 86.6355 44.1949 87.2285 43.1221 87.1574C42.0493 87.0862 41.1196 86.3508 40.8097 85.2596C40.4759 84.0971 40.4044 82.9347 40.7143 81.7723C41.0719 80.3964 42.0493 79.5898 43.289 79.5898C44.5764 79.5898 45.4823 80.3727 45.8637 81.7486C46.0067 82.2942 46.0067 82.8398 46.0306 83.2194Z" fill="#FEFEFE"/>
</svg>
