<svg width="69" height="104" viewBox="0 0 69 104" fill="none" xmlns="http://www.w3.org/2000/svg">
<path d="M62.5644 4.62785C62.5644 4.55668 62.5644 4.46179 62.5644 4.39062H63.9947V5.81398H63.8755H63.7563C63.1604 5.60048 62.7312 5.24464 62.5405 4.62785H62.5644Z" fill="#F4F4F4"/>
<path d="M21.3457 18.125C21.4649 18.3385 21.5365 18.552 21.5126 18.7892C21.4411 19.1451 21.2742 19.1214 21.0835 18.8604C21.3696 18.6943 21.2504 18.3622 21.3457 18.125Z" fill="#8E8E8E"/>
<path d="M27.3296 11.6727V9.0158C28.9269 8.61251 30.5241 8.35156 32.1214 8.35156C32.4075 8.80229 32.1929 9.25302 32.3598 9.7512H40.6321C40.9659 9.49025 40.6321 8.94463 41.0136 8.4939C43.7313 8.65996 46.3775 9.13441 48.4516 11.6727H27.3534H27.3296Z" fill="#FDFDFD"/>
<path d="M22.2993 11.6955C22.7046 10.8652 23.3483 10.4856 24.0873 10.0586C24.2303 10.6754 24.2065 11.1498 24.135 11.6955C23.539 11.8378 22.9668 11.8378 22.2993 11.6955Z" fill="#FAFAFA"/>
<path d="M8.20996 5.31219C8.47219 4.83773 9.23507 4.95635 9.40194 4.36328H62.5645C62.6599 4.45817 62.7076 4.55306 62.7791 4.67168C62.9221 5.24102 62.5168 5.54941 62.2069 5.88153C58.7502 9.36876 55.2696 12.8323 51.7651 16.272C51.3599 16.6753 50.9546 17.0312 50.3109 16.96C50.0248 16.9363 49.7387 16.9126 49.548 16.699C48.809 15.8213 49.3573 14.8961 49.4527 13.9947C49.5242 13.3304 50.0725 13.1169 50.6923 13.1644C50.8592 13.1644 51.0023 13.1644 51.1691 13.1407C52.2658 12.9509 52.9333 12.0969 52.7187 11.148C52.5042 10.1279 51.4075 9.4162 50.4301 9.96182C49.1904 10.6261 48.4037 10.2465 47.474 9.46365C46.5919 8.70452 45.5191 8.25379 44.3748 8.04029C41.2518 7.44722 38.1526 6.61693 34.9104 6.85416C32.8125 6.99649 30.7862 7.58956 28.6883 7.75562C27.9969 7.80306 27.3294 7.99284 26.5904 7.73189C25.8275 7.47095 25.0885 7.61328 24.6594 8.44357C24.4448 8.87058 24.0157 9.01292 23.6581 9.22642C22.8476 9.67715 22.1085 10.199 21.6079 10.9819C21.2026 11.6461 20.7496 12.2866 19.7722 12.4764C20.3444 12.9983 21.2026 12.7374 21.4648 13.449C21.7032 14.0658 21.584 14.7063 21.6794 15.3231C21.8463 16.2958 21.894 17.2921 21.9178 18.2647C21.8224 18.5969 21.6079 18.8341 21.3456 19.0001C20.7973 19.2374 20.4397 18.8815 20.106 18.5494C16.8876 15.4655 13.8838 12.168 10.8323 8.91803C10.0695 8.11146 9.25892 7.37606 8.51989 6.54576C8.20997 6.18992 7.80469 5.85781 8.18612 5.31219H8.20996Z" fill="#FEFEFE"/>
<path d="M62.5643 4.62586C63.2556 4.72075 63.6609 5.12403 63.7801 5.81199C61.0862 8.32659 58.5831 11.031 55.9845 13.6167C55.0786 14.5182 53.8628 15.301 53.4337 16.3686C52.9807 17.4598 53.3145 18.8594 53.3145 20.1167C53.3145 20.8284 53.3145 21.5401 53.3145 22.3704H49.3094C48.8565 23.8886 48.928 25.3594 48.785 26.7828C48.3558 30.9342 47.9982 35.1094 47.6168 39.2846C47.4499 41.2061 47.283 43.1514 47.0923 45.0729C47.0208 45.7372 47.2592 46.1642 47.7122 46.6386C52.7185 51.8339 57.701 57.0291 62.6835 62.2481C62.8981 62.4616 63.1841 62.6514 63.2795 62.9835C63.1126 63.458 62.6597 63.6478 62.2782 64.0985C58.5354 60.208 54.8641 56.3649 51.0974 52.4744C50.8113 53.1624 50.9782 53.7791 50.8113 54.3248C50.2153 56.2463 48.9995 57.5273 46.997 58.0018C44.9468 58.4999 43.2065 57.9069 41.8714 56.3412C41.3708 55.7481 40.894 55.5583 40.1788 55.5583C36.6744 55.5821 33.1938 55.5583 29.6893 55.5583C29.3317 55.5583 28.9741 55.5583 28.6166 55.5583C28.2828 56.3175 28.5927 57.1003 28.3543 57.8832C27.3769 58.1678 26.3518 57.9543 25.3982 58.0018C25.0406 57.5748 25.2075 57.124 25.1836 56.697C25.1598 56.1514 25.2552 55.6295 24.7307 55.1788C24.4446 54.9416 24.4684 54.4434 24.4446 54.0638C24.2777 51.8102 24.1108 49.5802 23.9201 47.3266C23.8963 46.9707 23.9201 46.6149 23.5864 46.2353C17.6503 52.2134 11.6904 58.1915 5.77811 64.1697C5.20595 64.0748 4.99138 63.624 4.63379 63.3156C4.63379 62.8886 4.99138 62.6988 5.22978 62.4616C11.0944 56.5547 16.9351 50.6478 22.8235 44.7408C23.3241 44.2189 23.5864 43.7445 23.5148 42.9853C23.0857 38.5018 22.7281 34.0182 22.3467 29.5346C22.156 27.281 21.9414 25.051 21.8222 22.7974C21.7746 22.0857 21.56 21.5401 21.0594 21.0182C16.3868 16.1788 11.738 11.2919 7.06544 6.42878C6.82705 6.16783 6.58865 5.90688 6.32642 5.64593C6.51714 5.14775 6.92241 4.91053 7.28001 4.60213C7.73296 4.64958 7.85215 5.14775 8.20975 5.26637C11.3566 8.58753 14.5034 11.885 17.6503 15.2061C18.7946 16.416 19.9389 17.6021 21.0832 18.7883C21.703 18.7408 21.3931 18.3375 21.3454 18.0529C21.2262 16.5346 21.107 14.9926 20.9878 13.4744C20.1773 13.1897 19.4144 13.4744 18.6277 13.2609C18.3416 12.8576 18.5562 12.3832 18.4608 11.9324C19.1283 11.5054 19.8674 11.9087 20.5587 11.6003C21.0594 10.1532 22.156 9.10943 23.5625 8.49264C24.2777 8.18425 24.1108 7.63863 24.23 7.09301C24.9929 6.83206 25.8511 6.80834 26.5425 6.99812C27.6391 7.33023 28.6642 7.06929 29.6655 6.85578C30.6191 6.666 31.7157 6.99812 32.5501 6.16783C32.6931 6.02549 33.0746 6.12038 33.3606 6.12038C35.3155 6.12038 37.2465 6.12038 39.2014 6.12038C39.8212 6.12038 40.5841 5.81199 40.894 6.76089C40.9655 6.95067 41.3231 6.8795 41.5615 6.90323C44.3508 7.09301 46.9493 7.80469 48.9995 9.84483C50.5968 8.84848 51.6696 8.77731 52.5993 9.56016C53.4099 10.2481 53.6483 11.3868 53.1953 12.3594C52.6708 13.4507 51.6934 13.854 49.9531 13.593C49.8339 14.4707 49.7385 15.3485 49.6193 16.2737C50.2153 16.5346 50.6921 16.5346 51.1689 16.0602C54.9356 12.2171 58.7261 8.39775 62.5166 4.55469L62.5643 4.62586Z" fill="black"/>
<path d="M23.8968 82.8888V89.1753C22.7286 89.3888 21.632 89.2939 20.4639 89.2465V72.4034C20.6307 72.2136 20.7976 72.2136 20.9407 72.2374C23.7061 72.2848 26.4953 72.095 29.2607 72.3797C31.2156 72.5695 32.7175 73.8505 33.2419 75.7483C34.0048 78.5476 33.0035 81.1571 30.7626 82.272C29.6421 82.8176 28.4025 82.8651 27.1628 82.9125C26.1139 82.96 25.0411 82.9125 23.8968 82.9125V82.8888Z" fill="black"/>
<path d="M39.3207 87.8667C39.13 88.2463 39.3207 88.697 39.1538 89.1952C38.2718 89.4561 37.342 89.2189 36.3169 89.3138V72.3047C37.3658 72.1623 38.3671 72.2098 39.5353 72.3047V78.0456C39.9644 78.1404 40.0836 77.8795 40.2504 77.7609C42.9205 75.8156 46.5441 76.7883 47.7361 79.8485C48.5944 82.031 48.5467 84.2846 47.6646 86.4434C46.2819 89.7408 42.4914 90.5237 39.8213 88.1514C39.6783 88.0328 39.5829 87.8193 39.3207 87.8667Z" fill="black"/>
<path d="M22.5615 13.4727H48.3323C48.2846 14.2792 48.2607 15.0621 48.2131 15.8212C48.2131 15.9398 48.2131 16.1296 48.1415 16.1533C46.8304 16.8887 47.4979 18.146 47.4025 19.1661C47.3548 19.7592 47.2356 20.2099 46.7827 20.6132C45.5669 21.7756 44.3749 22.9617 43.159 24.1953C42.8968 23.6971 43.1113 23.2464 42.9206 22.7482H32.1213C31.9067 23.792 32.0259 24.8832 32.0497 26.0694H41.1327C38.7964 28.2756 36.5793 30.3632 34.3622 32.4745C34.4576 32.5694 34.5529 32.688 34.6483 32.7829C34.2907 32.7591 34.1476 32.4508 33.9331 32.2373C30.5478 28.7263 27.1864 25.2154 23.825 21.7044C23.4436 21.3248 23.2529 20.9216 23.2052 20.3759C23.0383 18.0986 22.7999 15.8449 22.5854 13.4964L22.5615 13.4727Z" fill="#FEFEFE"/>
<path d="M40.489 53.9219H26.1375C25.7084 52.7595 25.8752 51.5496 25.7322 50.411C25.4938 48.6555 25.4461 46.8763 25.2792 45.0971C25.2554 44.7412 25.3269 44.4803 25.5653 44.2431C28.6168 41.3015 31.6444 38.3599 34.7436 35.3945C37.2468 38.004 39.893 40.7558 42.5154 43.5077C43.3259 44.3617 44.1603 45.2157 44.9709 46.0934C45.7814 46.9712 45.543 47.754 44.4464 48.0624C42.1816 48.7029 40.7035 50.6007 40.632 52.9256C40.632 53.2339 40.7035 53.5423 40.5128 53.9456L40.489 53.9219Z" fill="#FEFEFE"/>
<path d="M47.5693 22.5366C46.9257 29.7483 46.2582 36.9362 45.5907 44.4326C42.1816 40.8979 38.9632 37.5293 35.6733 34.0895C39.5592 30.1515 43.3974 26.2848 47.2356 22.418C47.3548 22.4654 47.474 22.5129 47.5693 22.5366Z" fill="#FEFEFE"/>
<path d="M33.4561 34.064C30.5954 36.7921 27.8061 39.4491 25.0169 42.1297C24.5162 36.1753 23.9918 30.0786 23.4673 23.9819C23.5388 23.9344 23.6103 23.9107 23.6818 23.8633C26.9002 27.2082 30.1186 30.5768 33.48 34.064H33.4561Z" fill="#FEFEFE"/>
<path d="M52.0038 21.1842C51.074 21.2316 50.2396 21.2553 49.2622 21.1842C49.4529 19.4999 50.9786 18.978 51.8607 17.8867C52.1229 19.0017 52.0753 20.0455 52.0038 21.1842Z" fill="#F9F9F9"/>
<path d="M23.9917 75.1051C25.3267 75.1051 26.5902 74.9627 27.8299 75.1762C29.2126 75.4135 29.9516 76.2675 29.9278 77.5959C29.9278 78.8532 29.1888 79.6835 27.8537 79.9208C26.6141 80.1343 25.3506 80.0394 23.9917 80.0157V75.0813V75.1051Z" fill="#FEFEFE"/>
<path d="M44.9233 83.0533C44.9471 83.8598 44.8994 84.5715 44.6134 85.2357C44.2319 86.1609 43.5644 86.8251 42.5155 86.8963C41.4665 86.9675 40.6083 86.5405 40.1315 85.6627C39.2494 84.0496 39.2017 82.3179 39.9884 80.6573C40.4414 79.6846 41.3473 79.2339 42.4439 79.3288C43.5405 79.4237 44.2796 80.0405 44.6372 81.0368C44.8756 81.7011 44.9948 82.4127 44.9233 83.0295V83.0533Z" fill="#FDFDFD"/>
<path d="M5.4581 62.0105C5.00514 61.7733 4.86211 61.1091 4.26611 61.0616V6.76055C5.29122 5.93026 5.48194 6.04887 6.34017 6.97406C7.29376 8.01785 8.29503 9.08537 9.51085 9.84449C10.4883 10.4613 10.9651 11.4814 11.6326 12.3116C12.2763 13.0945 12.8961 13.4029 13.8258 13.2131C15.3754 14.2569 16.6151 15.6803 17.8547 17.0325C18.9514 18.2186 20.048 19.4047 21.2162 20.5434C21.8598 21.1839 22.1697 21.9193 22.2651 22.8445C22.8134 29.0598 23.2664 35.2751 23.8862 41.4668C24.0769 43.246 23.7193 44.6693 22.2889 45.9978C17.0442 50.8846 12.3001 56.2697 7.12688 61.2277C6.67392 61.6547 6.31633 62.4138 5.4581 61.9868V62.0105Z" fill="#FEFEFE"/>
<path d="M13.6352 13.6187C13.373 13.6899 13.0869 13.7136 12.8247 13.8322C12.1333 14.1643 11.7042 13.9508 11.4658 13.2392C11.3228 12.8122 11.0844 12.48 10.7029 12.2191C10.4645 12.0768 10.2738 11.8633 10.2261 11.5786C10.0116 10.3687 9.15334 10.1078 8.00903 10.1315C7.77064 9.08771 7.22232 8.28114 6.17338 7.90157C5.72042 7.73552 5.74426 7.18989 5.62506 6.83406C5.14827 6.64427 4.69531 6.81033 4.29004 6.76289V4.39062H60.5518C60.075 4.72274 59.5982 5.07858 59.5982 5.76654C59.5982 6.05121 59.4075 6.24099 59.1691 6.43077C58.3824 7.07128 58.4062 7.095 59.1214 7.99646C59.5028 8.61325 59.0022 8.96909 58.6684 9.30121C56.2845 11.7921 53.7336 14.1169 51.3973 16.6552C50.8967 17.2008 50.2292 17.106 49.6332 16.8687C49.061 16.6552 49.0372 16.0859 49.061 15.564C49.0849 15.137 49.2041 14.71 49.2517 14.283C49.3471 13.5476 49.7524 13.1443 50.5391 13.1917C50.706 13.1917 50.849 13.1917 51.0159 13.1917C52.1602 13.0257 52.8515 12.1242 52.6131 11.1279C52.3509 10.1078 51.2781 9.46727 50.2769 10.0129C49.1087 10.6534 48.3458 10.345 47.4399 9.56216C46.2956 8.58953 44.8891 8.16252 43.411 7.87785C40.4787 7.33223 37.5703 6.62055 34.5188 6.90522C32.5163 7.095 30.5376 7.56946 28.535 7.80668C27.8198 7.87785 27.1762 8.02019 26.4371 7.75924C25.6743 7.49829 24.9352 7.6169 24.53 8.47092C24.3631 8.82676 24.0532 8.99281 23.7432 9.15887C22.6228 9.72822 21.6692 10.4873 21.097 11.6497C20.7871 12.2665 20.1196 12.2191 19.6905 12.5987C19.9051 12.9308 20.215 12.907 20.4772 12.9545C21.1209 13.0494 21.4546 13.4289 21.5023 14.0695C21.5738 15.4928 21.8599 16.8924 21.8361 18.3158C21.8361 18.7428 21.8361 19.1224 21.407 19.3359C20.9778 19.5257 20.6679 19.3359 20.358 19.0275C16.9251 15.6351 13.6114 12.1242 10.2976 8.61325C9.51094 7.78296 8.74807 6.92895 7.77064 6.28844C8.12823 7.00011 8.62887 7.6169 9.17718 8.18625C10.3692 9.3961 11.6327 10.5585 12.777 11.8158C13.2538 12.3377 13.969 12.8122 13.659 13.7136L13.6352 13.6187Z" fill="#FEFEFE"/>
<path d="M13.6352 13.617C11.5373 11.1499 9.15337 8.94366 6.96012 6.52395C6.69788 6.23928 6.36412 6.00205 6.19724 5.62249C6.4118 5.17176 6.84092 4.93453 7.22235 4.53125C11.8711 9.37067 16.4722 14.1864 21.2163 19.1207C21.2639 17.1042 20.9063 15.3488 20.8825 13.5221C20.0481 13.2375 19.2376 13.5221 18.427 13.3086C18.3555 12.8104 18.3317 12.3834 18.4509 11.8853C19.0945 11.6718 19.7382 11.8853 20.4296 11.6955C20.9302 10.1772 22.0745 9.13344 23.5287 8.51665C24.2677 8.20826 23.934 7.56775 24.2201 7.04585C25.2452 7.09329 26.2464 6.83234 27.3192 7.23563C27.796 7.42541 28.392 7.14074 28.9403 7.02213C30.1323 6.76118 31.4435 7.06957 32.5163 6.23928C32.6355 6.14439 32.8977 6.21556 33.1123 6.21556C35.3055 6.21556 37.475 6.21556 39.6682 6.21556C40.0973 6.21556 40.5503 6.12067 40.7172 6.71373C40.8125 7.04585 41.1701 6.97468 41.4323 6.9984C44.2693 7.18818 46.8916 7.89986 48.9419 9.96373C50.4199 8.94366 51.5165 8.84877 52.4701 9.60789C53.3045 10.2958 53.5906 11.3871 53.1376 12.3834C52.637 13.5458 51.7073 13.9254 49.8954 13.6882C49.8001 14.5659 49.5855 15.4437 49.6094 16.3688C50.2054 16.5823 50.6822 16.5823 51.1351 16.1079C53.7813 13.3798 56.4514 10.6754 59.0976 7.97103C59.4075 7.80497 59.6459 7.54402 59.8128 7.23563C59.8604 7.11702 59.932 7.04585 60.0273 6.9984C60.8856 6.19183 61.7438 5.38526 62.6259 4.55497C63.055 4.86337 63.3887 5.14804 63.6986 5.64621C62.5543 6.80862 61.4339 7.94731 60.2896 9.10972C58.144 11.2685 55.9984 13.451 53.829 15.6097C53.3045 16.1316 53.09 16.6298 53.1138 17.3652C53.1615 19.0258 53.1138 20.6626 53.1138 22.4418H49.0849C48.7035 24.0075 48.7273 25.5021 48.5843 26.9966C48.179 31.0769 47.8214 35.1809 47.4638 39.2612C47.2731 41.2302 47.13 43.1991 46.9155 45.1681C46.844 45.8323 47.13 46.2593 47.5592 46.7101C52.5417 51.8816 57.5003 57.0531 62.4351 62.2484C62.6735 62.5093 62.9834 62.6991 63.1026 63.0787C62.8404 63.482 62.5067 63.7904 62.006 64.075C58.3347 60.2557 54.6872 56.4364 51.0159 52.617C50.5868 52.8305 50.7775 53.1864 50.7537 53.471C50.5868 55.5586 49.2041 57.3141 47.2254 57.9546C45.2467 58.5951 42.9819 58.0258 41.7184 56.4364C41.2178 55.7958 40.6933 55.5823 39.9304 55.6061C36.4737 55.6298 33.0169 55.6061 29.5602 55.6061C29.1787 55.6061 28.7735 55.5349 28.3205 55.7247C28.1298 56.4126 28.3205 57.1718 28.1775 57.9546C27.1524 58.1207 26.1272 58.0732 25.1498 58.0021C24.8637 57.5988 25.0068 57.1955 24.9829 56.8159C24.9591 56.2466 25.0545 55.6772 24.5061 55.2028C24.1724 54.9181 24.2677 54.3962 24.2439 53.9692C24.077 51.7156 23.8863 49.4856 23.7194 47.232C23.6956 46.9236 23.7194 46.5915 23.3857 46.3305C17.4496 52.3086 11.5135 58.2867 5.57741 64.2648C5.0291 64.1225 4.7907 63.6955 4.43311 63.3634C4.57614 62.7703 5.19598 62.5805 5.43437 62.0586C8.24746 59.4491 10.8698 56.6499 13.5876 53.9218C16.6152 50.909 19.5952 47.825 22.6466 44.8123C23.195 44.2666 23.4095 43.721 23.338 42.9382C22.9327 38.5021 22.5513 34.0422 22.1937 29.6061C22.003 27.3287 21.8123 25.0513 21.6454 22.7502C21.5977 22.2758 21.5977 21.825 21.2401 21.4455C18.6654 18.8597 16.2576 16.1316 13.6352 13.617Z" fill="black"/>
<path d="M48.2028 13.4727C48.1551 14.2792 48.1551 14.9435 48.0836 15.6077C48.0597 15.9873 48.1313 16.3905 47.5353 16.5092C47.1061 16.5803 47.1777 17.0311 47.2492 17.292C47.6545 19.4033 46.7247 20.8978 45.1275 22.1551C44.3884 22.7482 43.7686 23.4599 43.0057 24.1953C42.7673 23.7208 42.9819 23.2227 42.7673 22.7482H31.9441C31.8011 23.8394 31.8249 24.907 31.9441 26.1168H41.0747C38.6669 28.3705 36.4736 30.4343 34.2565 32.5219C34.3281 32.6168 34.3996 32.688 34.4711 32.7829C34.1135 32.7591 33.9705 32.427 33.7797 32.2373C30.3945 28.7263 27.0331 25.2154 23.6479 21.7044C23.2664 21.3248 23.0757 20.9216 23.028 20.3759C22.8612 18.0986 22.6228 15.8449 22.4082 13.4964H48.1789L48.2028 13.4727Z" fill="#FEFEFE"/>
<path d="M40.4071 53.8985H26.0079C25.6027 52.8547 25.7696 51.7871 25.6504 50.7434C25.4358 48.8693 25.3404 46.9715 25.1497 45.0736C25.102 44.6704 25.2689 44.3857 25.5312 44.1485C28.5111 41.2543 31.5149 38.3601 34.6141 35.3711C34.7333 35.3948 34.924 35.7269 35.1386 35.9642C38.3331 39.2853 41.5038 42.6065 44.6744 45.9039C45.0559 46.2835 45.3181 46.6631 45.2466 47.2561C45.1751 47.6594 45.032 47.8729 44.6268 48.0153C41.5514 49.059 40.574 50.3638 40.4787 53.5189C40.4787 53.6375 40.431 53.7324 40.4071 53.8985Z" fill="#FEFEFE"/>
<path d="M45.4613 44.4094C42.0522 40.8747 38.8577 37.5299 35.5439 34.0664C39.4298 30.1521 43.268 26.2616 47.1062 22.3711C47.2254 22.4185 47.3208 22.4423 47.44 22.4897C46.7963 29.6777 46.1526 36.8893 45.4613 44.4094Z" fill="#FEFEFE"/>
<path d="M24.8636 41.9198C24.363 36.1552 23.8624 30.0822 23.3379 23.9855C23.4094 23.9618 23.4809 23.9143 23.5524 23.8906C26.7708 27.2355 29.9892 30.6041 33.2791 34.0202C30.4183 36.7246 27.6052 39.3578 24.8636 41.9198Z" fill="#FEFEFE"/>
<path d="M48.1073 11.7207H27.2476C27.033 10.8667 27.1522 9.98899 27.1761 9.06381C27.9866 8.7317 28.7972 8.66053 29.6077 8.54191C30.3706 8.4233 31.1811 8.37586 31.9202 8.30469C32.3016 8.77914 32.0155 9.30104 32.2301 9.79921H40.4548C40.7647 9.44337 40.5263 8.99264 40.7409 8.66053C43.3632 8.25724 47.0107 9.75177 48.1073 11.7445V11.7207Z" fill="#FDFDFD"/>
<path d="M51.8739 17.9587V21.1376H49.1323C49.2992 19.477 50.8726 18.9551 51.5878 17.8164L51.8501 17.935L51.8739 17.9587Z" fill="#F9F9F9"/>
<path d="M23.9813 10.0586C24.1244 10.6754 24.0529 11.1498 24.0529 11.648C23.4569 11.9564 22.8847 11.7429 22.1934 11.8141C22.5271 10.8889 23.1946 10.5093 23.9813 10.0586Z" fill="#F9F9F9"/>
<path d="M45.7708 83.2194C45.7708 84.1446 45.7231 84.88 45.3894 85.5679C44.8887 86.6355 43.9352 87.2285 42.8624 87.1574C41.7896 87.0862 40.8598 86.3508 40.5499 85.2596C40.2162 84.0971 40.1446 82.9347 40.4546 81.7723C40.8122 80.3964 41.7896 79.5898 43.0292 79.5898C44.3166 79.5898 45.2225 80.3727 45.6039 81.7486C45.747 82.2942 45.747 82.8398 45.7708 83.2194Z" fill="#FEFEFE"/>
</svg>
