<svg width="305" height="126" viewBox="0 0 305 126" fill="none" xmlns="http://www.w3.org/2000/svg">
<path d="M3.36 96.256C3.59467 96.256 3.968 96.256 4.48 96.256C5.01333 96.256 5.57867 96.2667 6.176 96.288C6.79467 96.288 7.36 96.288 7.872 96.288C8.40533 96.288 8.8 96.288 9.056 96.288C11.9787 96.3307 14.3573 96.8213 16.192 97.76C18.0267 98.6773 19.3707 99.9893 20.224 101.696C21.0987 103.403 21.536 105.493 21.536 107.968C21.536 110.571 21.0667 112.768 20.128 114.56C19.2107 116.352 17.8027 117.707 15.904 118.624C14.0267 119.541 11.648 120 8.768 120H3.392C3.008 120 2.816 119.808 2.816 119.424V96.768C2.816 96.576 2.85867 96.448 2.944 96.384C3.02933 96.2987 3.168 96.256 3.36 96.256ZM7.008 99.104C6.79467 99.104 6.688 99.2533 6.688 99.552V116.8C6.688 117.056 6.816 117.184 7.072 117.184H8.128C10.2827 117.184 12.0533 116.885 13.44 116.288C14.8267 115.691 15.8507 114.731 16.512 113.408C17.1733 112.064 17.504 110.293 17.504 108.096C17.504 105.835 17.1733 104.053 16.512 102.752C15.8507 101.451 14.8373 100.523 13.472 99.968C12.128 99.392 10.4107 99.104 8.32 99.104H7.008ZM29.0383 119.392C29.0383 119.627 28.9849 119.787 28.8783 119.872C28.7929 119.957 28.6329 120 28.3983 120H26.2223C25.9876 120 25.8276 119.968 25.7423 119.904C25.6783 119.819 25.6463 119.68 25.6463 119.488V103.52C25.6463 103.2 25.7956 103.04 26.0943 103.04H28.6543C28.9103 103.04 29.0383 103.189 29.0383 103.488V119.392ZM29.1343 99.648C29.1343 100.096 28.9209 100.32 28.4943 100.32H26.1263C25.8916 100.32 25.7316 100.267 25.6463 100.16C25.5823 100.053 25.5503 99.904 25.5503 99.712V96.8C25.5503 96.4373 25.7103 96.256 26.0303 96.256H28.6863C28.9849 96.256 29.1343 96.4267 29.1343 96.768V99.648ZM49.4565 102.624C49.6698 102.624 49.8192 102.667 49.9045 102.752C50.0112 102.837 50.0645 102.987 50.0645 103.2V104.64C50.0645 104.875 50.0112 105.045 49.9045 105.152C49.8192 105.259 49.6592 105.301 49.4245 105.28C49.0832 105.259 48.7845 105.259 48.5285 105.28C48.2725 105.301 48.0272 105.355 47.7925 105.44C47.2592 105.611 47.0458 105.856 47.1525 106.176C47.2378 106.389 47.3338 106.656 47.4405 106.976C47.5472 107.275 47.6005 107.659 47.6005 108.128C47.6005 109.067 47.3445 109.931 46.8325 110.72C46.3205 111.509 45.5312 112.139 44.4645 112.608C43.3978 113.077 42.0538 113.312 40.4325 113.312C39.4298 113.312 38.6298 113.376 38.0325 113.504C37.4565 113.611 37.0405 113.771 36.7845 113.984C36.5285 114.176 36.4005 114.379 36.4005 114.592C36.4005 114.912 36.6032 115.147 37.0085 115.296C37.4352 115.424 38.1178 115.509 39.0565 115.552L43.3125 115.808C45.2965 115.915 46.7472 116.373 47.6645 117.184C48.5818 117.995 49.0405 119.04 49.0405 120.32C49.0405 121.92 48.3045 123.2 46.8325 124.16C45.3818 125.12 43.2805 125.6 40.5285 125.6C37.7125 125.6 35.5685 125.227 34.0965 124.48C32.6458 123.733 31.9205 122.645 31.9205 121.216C31.9205 120.469 32.1872 119.819 32.7205 119.264C33.2538 118.709 33.9898 118.219 34.9285 117.792C35.1845 117.685 35.1845 117.568 34.9285 117.44C34.4592 117.205 34.0752 116.928 33.7765 116.608C33.4778 116.267 33.3285 115.861 33.3285 115.392C33.3285 115.051 33.4352 114.731 33.6485 114.432C33.8832 114.112 34.2032 113.813 34.6085 113.536C35.0138 113.259 35.4938 113.024 36.0485 112.832C36.1552 112.789 36.2192 112.736 36.2405 112.672C36.2618 112.608 36.1978 112.533 36.0485 112.448C35.1098 111.979 34.3952 111.392 33.9045 110.688C33.4352 109.963 33.2005 109.109 33.2005 108.128C33.2005 106.507 33.8405 105.216 35.1205 104.256C36.4218 103.275 38.2885 102.784 40.7205 102.784C41.8512 102.784 42.8112 102.912 43.6005 103.168C44.4112 103.424 45.0832 103.776 45.6165 104.224C45.7445 104.331 45.8725 104.384 46.0005 104.384C46.1285 104.384 46.2458 104.32 46.3525 104.192C46.6085 103.936 46.9072 103.691 47.2485 103.456C47.5898 103.2 47.9525 102.997 48.3365 102.848C48.7205 102.699 49.0938 102.624 49.4565 102.624ZM40.4325 111.392C41.7978 111.392 42.8112 111.104 43.4725 110.528C44.1338 109.931 44.4645 109.131 44.4645 108.128C44.4645 107.083 44.1338 106.261 43.4725 105.664C42.8112 105.045 41.7978 104.736 40.4325 104.736C39.1098 104.736 38.0858 105.045 37.3605 105.664C36.6565 106.261 36.3045 107.083 36.3045 108.128C36.3045 109.131 36.6565 109.931 37.3605 110.528C38.0858 111.104 39.1098 111.392 40.4325 111.392ZM37.7445 118.272C37.3605 118.251 36.9445 118.347 36.4965 118.56C36.0485 118.773 35.6538 119.072 35.3125 119.456C34.9925 119.84 34.8325 120.288 34.8325 120.8C34.8325 121.397 35.0458 121.909 35.4725 122.336C35.8992 122.784 36.5498 123.125 37.4245 123.36C38.3205 123.595 39.4618 123.712 40.8485 123.712C42.5125 123.712 43.7818 123.467 44.6565 122.976C45.5312 122.507 45.9685 121.792 45.9685 120.832C45.9685 120.192 45.7338 119.669 45.2645 119.264C44.7952 118.859 44.0272 118.624 42.9605 118.56L37.7445 118.272ZM56.507 119.392C56.507 119.627 56.4537 119.787 56.347 119.872C56.2617 119.957 56.1017 120 55.867 120H53.691C53.4563 120 53.2963 119.968 53.211 119.904C53.147 119.819 53.115 119.68 53.115 119.488V103.52C53.115 103.2 53.2643 103.04 53.563 103.04H56.123C56.379 103.04 56.507 103.189 56.507 103.488V119.392ZM56.603 99.648C56.603 100.096 56.3897 100.32 55.963 100.32H53.595C53.3603 100.32 53.2003 100.267 53.115 100.16C53.051 100.053 53.019 99.904 53.019 99.712V96.8C53.019 96.4373 53.179 96.256 53.499 96.256H56.155C56.4537 96.256 56.603 96.4267 56.603 96.768V99.648ZM66.3333 105.472C66.1413 105.472 66.0453 105.579 66.0453 105.792V115.168C66.0453 116.085 66.2159 116.715 66.5573 117.056C66.8986 117.376 67.4213 117.536 68.1253 117.536H70.1733C70.3013 117.536 70.3973 117.579 70.4613 117.664C70.5253 117.728 70.5573 117.813 70.5573 117.92V119.296C70.5573 119.573 70.3973 119.755 70.0773 119.84C69.7999 119.883 69.4586 119.915 69.0533 119.936C68.6479 119.957 68.2426 119.979 67.8373 120C67.4533 120 67.1119 120 66.8133 120C65.4266 120 64.3813 119.68 63.6773 119.04C62.9946 118.379 62.6533 117.365 62.6533 116V105.856C62.6533 105.6 62.5466 105.472 62.3333 105.472H59.9333C59.6559 105.472 59.5173 105.344 59.5173 105.088V103.392C59.5173 103.157 59.6453 103.04 59.9013 103.04H62.4613C62.6319 103.04 62.7173 102.944 62.7173 102.752L63.1013 97.728C63.1226 97.4293 63.2506 97.28 63.4852 97.28H65.6933C65.9706 97.28 66.1093 97.4507 66.1093 97.792V102.752C66.1093 102.944 66.2053 103.04 66.3973 103.04H70.2373C70.4933 103.04 70.6213 103.157 70.6213 103.392V105.088C70.6213 105.344 70.4719 105.472 70.1733 105.472H66.3333ZM83.433 118.08C82.6863 118.805 81.865 119.36 80.969 119.744C80.073 120.128 79.0597 120.32 77.929 120.32C76.2863 120.32 74.9957 119.893 74.057 119.04C73.1183 118.187 72.649 117.067 72.649 115.68C72.649 114.507 72.9797 113.504 73.641 112.672C74.3237 111.84 75.305 111.179 76.585 110.688C77.8863 110.197 79.465 109.909 81.321 109.824L83.401 109.664C83.529 109.643 83.6463 109.6 83.753 109.536C83.8597 109.472 83.913 109.355 83.913 109.184V108.384C83.913 107.339 83.593 106.517 82.953 105.92C82.313 105.301 81.4383 104.992 80.329 104.992C79.497 104.992 78.729 105.184 78.025 105.568C77.321 105.952 76.6917 106.549 76.137 107.36C76.073 107.467 76.009 107.541 75.945 107.584C75.881 107.627 75.7637 107.627 75.593 107.584L73.417 106.944C73.3317 106.901 73.2677 106.848 73.225 106.784C73.2037 106.699 73.2357 106.549 73.321 106.336C73.9397 105.184 74.8463 104.299 76.041 103.68C77.257 103.04 78.7397 102.72 80.489 102.72C82.025 102.72 83.2837 102.944 84.265 103.392C85.2463 103.819 85.9717 104.448 86.441 105.28C86.9317 106.091 87.177 107.051 87.177 108.16V119.456C87.177 119.669 87.1343 119.819 87.049 119.904C86.985 119.968 86.8677 120 86.697 120H84.521C84.3717 120 84.2543 119.947 84.169 119.84C84.0837 119.712 84.0303 119.552 84.009 119.36L83.977 118.144C83.913 117.803 83.7317 117.781 83.433 118.08ZM83.913 112.032C83.913 111.669 83.7637 111.509 83.465 111.552L81.737 111.68C80.8837 111.723 80.105 111.84 79.401 112.032C78.697 112.203 78.089 112.437 77.577 112.736C77.0863 113.035 76.6917 113.397 76.393 113.824C76.1157 114.229 75.977 114.709 75.977 115.264C75.977 116.096 76.265 116.757 76.841 117.248C77.4383 117.717 78.2383 117.952 79.241 117.952C79.881 117.952 80.4783 117.845 81.033 117.632C81.609 117.397 82.1103 117.109 82.537 116.768C82.9637 116.405 83.2943 116.032 83.529 115.648C83.785 115.264 83.913 114.891 83.913 114.528V112.032ZM94.9453 119.392C94.9453 119.627 94.8919 119.787 94.7853 119.872C94.6999 119.957 94.5293 120 94.2733 120H92.0973C91.7133 120 91.5213 119.829 91.5213 119.488L91.5853 96.736C91.5853 96.416 91.7239 96.256 92.0013 96.256H94.5293C94.8066 96.256 94.9453 96.416 94.9453 96.736V119.392ZM124.768 103.328C124.768 104.907 124.405 106.219 123.68 107.264C122.955 108.288 121.952 109.056 120.672 109.568C119.392 110.08 117.92 110.336 116.256 110.336H111.008C110.795 110.336 110.688 110.443 110.688 110.656V119.456C110.688 119.819 110.496 120 110.112 120H107.328C107.136 120 106.997 119.968 106.912 119.904C106.848 119.819 106.816 119.691 106.816 119.52V96.736C106.816 96.416 106.965 96.256 107.264 96.256H115.808C117.493 96.256 119.008 96.5013 120.352 96.992C121.717 97.4827 122.795 98.2507 123.584 99.296C124.373 100.341 124.768 101.685 124.768 103.328ZM120.8 103.232C120.8 102.251 120.587 101.461 120.16 100.864C119.733 100.245 119.125 99.7973 118.336 99.52C117.568 99.2427 116.651 99.104 115.584 99.104H111.168C110.848 99.104 110.688 99.2533 110.688 99.552V107.008C110.688 107.328 110.805 107.488 111.04 107.488H115.808C117.323 107.488 118.528 107.136 119.424 106.432C120.341 105.728 120.8 104.661 120.8 103.232ZM129.096 120C128.925 120 128.797 119.957 128.712 119.872C128.626 119.787 128.584 119.659 128.584 119.488V103.52C128.584 103.2 128.722 103.04 129 103.04H131.464C131.72 103.04 131.848 103.179 131.848 103.456V105.472C131.848 105.6 131.88 105.675 131.944 105.696C132.029 105.717 132.114 105.675 132.2 105.568C132.733 104.928 133.266 104.405 133.8 104C134.354 103.573 134.909 103.253 135.464 103.04C136.018 102.827 136.573 102.72 137.128 102.72C137.874 102.72 138.248 102.869 138.248 103.168V105.664C138.248 105.92 138.13 106.027 137.896 105.984C137.64 105.92 137.362 105.877 137.064 105.856C136.786 105.835 136.498 105.824 136.2 105.824C135.752 105.824 135.282 105.92 134.792 106.112C134.301 106.304 133.842 106.571 133.416 106.912C133.01 107.232 132.669 107.595 132.392 108C132.114 108.405 131.976 108.821 131.976 109.248V119.456C131.976 119.819 131.773 120 131.368 120H129.096ZM148.162 120.32C146.519 120.32 145.079 119.957 143.842 119.232C142.604 118.485 141.644 117.461 140.962 116.16C140.279 114.837 139.938 113.323 139.938 111.616C139.938 109.845 140.29 108.299 140.994 106.976C141.698 105.632 142.668 104.587 143.906 103.84C145.164 103.093 146.594 102.72 148.194 102.72C149.858 102.72 151.298 103.104 152.514 103.872C153.751 104.619 154.711 105.664 155.394 107.008C156.076 108.331 156.418 109.856 156.418 111.584C156.418 113.291 156.066 114.805 155.362 116.128C154.679 117.429 153.719 118.453 152.482 119.2C151.244 119.947 149.804 120.32 148.162 120.32ZM148.226 117.92C149.228 117.92 150.082 117.664 150.786 117.152C151.49 116.64 152.023 115.915 152.386 114.976C152.77 114.016 152.962 112.864 152.962 111.52C152.962 110.176 152.77 109.024 152.386 108.064C152.023 107.104 151.479 106.368 150.754 105.856C150.05 105.323 149.196 105.056 148.194 105.056C147.191 105.056 146.327 105.323 145.602 105.856C144.898 106.368 144.354 107.104 143.97 108.064C143.586 109.024 143.394 110.176 143.394 111.52C143.394 112.864 143.586 114.016 143.97 114.976C144.354 115.915 144.898 116.64 145.602 117.152C146.327 117.664 147.202 117.92 148.226 117.92ZM171.958 120C171.809 120 171.681 119.957 171.574 119.872C171.489 119.787 171.446 119.659 171.446 119.488V118.272C171.446 118.123 171.403 118.037 171.318 118.016C171.233 117.995 171.137 118.037 171.03 118.144C170.753 118.4 170.401 118.699 169.974 119.04C169.547 119.381 169.014 119.68 168.374 119.936C167.734 120.192 166.977 120.32 166.102 120.32C164.779 120.32 163.585 120 162.518 119.36C161.473 118.72 160.641 117.771 160.022 116.512C159.425 115.232 159.126 113.643 159.126 111.744C159.126 109.931 159.446 108.352 160.086 107.008C160.726 105.664 161.601 104.619 162.71 103.872C163.819 103.104 165.067 102.72 166.454 102.72C167.457 102.72 168.299 102.88 168.982 103.2C169.686 103.52 170.315 103.925 170.87 104.416C171.041 104.565 171.169 104.629 171.254 104.608C171.339 104.565 171.382 104.427 171.382 104.192V96.736C171.382 96.416 171.521 96.256 171.798 96.256H174.358C174.635 96.256 174.774 96.416 174.774 96.736V119.456C174.774 119.648 174.731 119.787 174.646 119.872C174.561 119.957 174.401 120 174.166 120H171.958ZM171.382 107.008C170.763 106.389 170.145 105.909 169.526 105.568C168.907 105.227 168.214 105.056 167.446 105.056C166.507 105.056 165.665 105.301 164.918 105.792C164.193 106.283 163.617 107.019 163.19 108C162.785 108.96 162.582 110.176 162.582 111.648C162.582 113.141 162.795 114.357 163.222 115.296C163.649 116.235 164.214 116.928 164.918 117.376C165.643 117.803 166.433 118.016 167.286 118.016C168.054 118.016 168.747 117.835 169.366 117.472C169.985 117.109 170.475 116.661 170.838 116.128C171.201 115.573 171.382 115.029 171.382 114.496V107.008ZM185.384 117.76C186.237 117.76 187.037 117.536 187.784 117.088C188.552 116.619 189.299 116 190.024 115.232V103.584C190.024 103.221 190.227 103.04 190.632 103.04H192.936C193.277 103.04 193.448 103.211 193.448 103.552L193.384 119.552C193.384 119.851 193.256 120 193 120H190.504C190.248 120 190.12 119.861 190.12 119.584V117.792C190.12 117.685 190.088 117.621 190.024 117.6C189.981 117.557 189.907 117.589 189.8 117.696C188.712 118.677 187.72 119.36 186.824 119.744C185.928 120.128 185.011 120.32 184.072 120.32C183.112 120.32 182.248 120.117 181.48 119.712C180.733 119.307 180.136 118.731 179.688 117.984C179.261 117.237 179.048 116.363 179.048 115.36V103.616C179.048 103.232 179.24 103.04 179.624 103.04H181.96C182.28 103.04 182.44 103.211 182.44 103.552V114.656C182.44 115.573 182.696 116.32 183.208 116.896C183.741 117.472 184.467 117.76 185.384 117.76ZM205.16 102.72C206.355 102.72 207.39 102.923 208.264 103.328C209.16 103.712 209.907 104.235 210.504 104.896C211.123 105.536 211.614 106.229 211.976 106.976C212.104 107.275 212.03 107.456 211.752 107.52L209.48 107.904C209.288 107.947 209.15 107.861 209.064 107.648C208.702 107.093 208.339 106.635 207.976 106.272C207.614 105.909 207.219 105.621 206.792 105.408C206.366 105.195 205.875 105.088 205.32 105.088C204.339 105.088 203.475 105.344 202.728 105.856C202.003 106.347 201.438 107.072 201.032 108.032C200.648 108.992 200.456 110.155 200.456 111.52C200.456 112.885 200.659 114.059 201.064 115.04C201.47 116 202.046 116.736 202.792 117.248C203.539 117.739 204.424 117.984 205.448 117.984C206.451 117.984 207.294 117.728 207.976 117.216C208.659 116.704 209.288 115.979 209.864 115.04C209.928 114.955 209.982 114.901 210.024 114.88C210.088 114.859 210.184 114.869 210.312 114.912L212.008 115.424C212.179 115.488 212.222 115.648 212.136 115.904C211.88 116.437 211.539 116.971 211.112 117.504C210.707 118.037 210.216 118.517 209.64 118.944C209.086 119.349 208.435 119.68 207.688 119.936C206.942 120.192 206.099 120.32 205.16 120.32C203.56 120.32 202.142 119.957 200.904 119.232C199.688 118.485 198.728 117.461 198.024 116.16C197.342 114.837 197 113.312 197 111.584C197 109.835 197.352 108.299 198.056 106.976C198.76 105.653 199.72 104.619 200.936 103.872C202.174 103.104 203.582 102.72 205.16 102.72ZM220.208 105.472C220.016 105.472 219.92 105.579 219.92 105.792V115.168C219.92 116.085 220.091 116.715 220.432 117.056C220.774 117.376 221.296 117.536 222 117.536H224.048C224.176 117.536 224.272 117.579 224.336 117.664C224.4 117.728 224.432 117.813 224.432 117.92V119.296C224.432 119.573 224.272 119.755 223.952 119.84C223.675 119.883 223.334 119.915 222.928 119.936C222.523 119.957 222.118 119.979 221.712 120C221.328 120 220.987 120 220.688 120C219.302 120 218.256 119.68 217.552 119.04C216.87 118.379 216.528 117.365 216.528 116V105.856C216.528 105.6 216.422 105.472 216.208 105.472H213.808C213.531 105.472 213.392 105.344 213.392 105.088V103.392C213.392 103.157 213.52 103.04 213.776 103.04H216.336C216.507 103.04 216.592 102.944 216.592 102.752L216.976 97.728C216.998 97.4293 217.126 97.28 217.36 97.28H219.568C219.846 97.28 219.984 97.4507 219.984 97.792V102.752C219.984 102.944 220.08 103.04 220.272 103.04H224.112C224.368 103.04 224.496 103.157 224.496 103.392V105.088C224.496 105.344 224.347 105.472 224.048 105.472H220.208ZM253.049 103.328C253.049 104.907 252.687 106.219 251.961 107.264C251.236 108.288 250.233 109.056 248.953 109.568C247.673 110.08 246.201 110.336 244.537 110.336H239.289C239.076 110.336 238.969 110.443 238.969 110.656V119.456C238.969 119.819 238.777 120 238.393 120H235.609C235.417 120 235.279 119.968 235.193 119.904C235.129 119.819 235.097 119.691 235.097 119.52V96.736C235.097 96.416 235.247 96.256 235.545 96.256H244.089C245.775 96.256 247.289 96.5013 248.633 96.992C249.999 97.4827 251.076 98.2507 251.865 99.296C252.655 100.341 253.049 101.685 253.049 103.328ZM249.081 103.232C249.081 102.251 248.868 101.461 248.441 100.864C248.015 100.245 247.407 99.7973 246.617 99.52C245.849 99.2427 244.932 99.104 243.865 99.104H239.449C239.129 99.104 238.969 99.2533 238.969 99.552V107.008C238.969 107.328 239.087 107.488 239.321 107.488H244.089C245.604 107.488 246.809 107.136 247.705 106.432C248.623 105.728 249.081 104.661 249.081 103.232ZM265.808 118.08C265.061 118.805 264.24 119.36 263.344 119.744C262.448 120.128 261.435 120.32 260.304 120.32C258.661 120.32 257.371 119.893 256.432 119.04C255.493 118.187 255.024 117.067 255.024 115.68C255.024 114.507 255.355 113.504 256.016 112.672C256.699 111.84 257.68 111.179 258.96 110.688C260.261 110.197 261.84 109.909 263.696 109.824L265.776 109.664C265.904 109.643 266.021 109.6 266.128 109.536C266.235 109.472 266.288 109.355 266.288 109.184V108.384C266.288 107.339 265.968 106.517 265.328 105.92C264.688 105.301 263.813 104.992 262.704 104.992C261.872 104.992 261.104 105.184 260.4 105.568C259.696 105.952 259.067 106.549 258.512 107.36C258.448 107.467 258.384 107.541 258.32 107.584C258.256 107.627 258.139 107.627 257.968 107.584L255.792 106.944C255.707 106.901 255.643 106.848 255.6 106.784C255.579 106.699 255.611 106.549 255.696 106.336C256.315 105.184 257.221 104.299 258.416 103.68C259.632 103.04 261.115 102.72 262.864 102.72C264.4 102.72 265.659 102.944 266.64 103.392C267.621 103.819 268.347 104.448 268.816 105.28C269.307 106.091 269.552 107.051 269.552 108.16V119.456C269.552 119.669 269.509 119.819 269.424 119.904C269.36 119.968 269.243 120 269.072 120H266.896C266.747 120 266.629 119.947 266.544 119.84C266.459 119.712 266.405 119.552 266.384 119.36L266.352 118.144C266.288 117.803 266.107 117.781 265.808 118.08ZM266.288 112.032C266.288 111.669 266.139 111.509 265.84 111.552L264.112 111.68C263.259 111.723 262.48 111.84 261.776 112.032C261.072 112.203 260.464 112.437 259.952 112.736C259.461 113.035 259.067 113.397 258.768 113.824C258.491 114.229 258.352 114.709 258.352 115.264C258.352 116.096 258.64 116.757 259.216 117.248C259.813 117.717 260.613 117.952 261.616 117.952C262.256 117.952 262.853 117.845 263.408 117.632C263.984 117.397 264.485 117.109 264.912 116.768C265.339 116.405 265.669 116.032 265.904 115.648C266.16 115.264 266.288 114.891 266.288 114.528V112.032ZM284.168 107.008C283.763 106.411 283.198 105.92 282.472 105.536C281.747 105.152 280.883 104.96 279.88 104.96C278.835 104.96 277.96 105.173 277.256 105.6C276.574 106.027 276.232 106.624 276.232 107.392C276.232 107.755 276.382 108.117 276.68 108.48C276.979 108.843 277.619 109.163 278.6 109.44L282.536 110.56C284.094 110.965 285.214 111.573 285.896 112.384C286.579 113.195 286.92 114.123 286.92 115.168C286.92 116.235 286.611 117.152 285.992 117.92C285.395 118.667 284.552 119.253 283.464 119.68C282.398 120.107 281.171 120.32 279.784 120.32C278.035 120.32 276.51 119.989 275.208 119.328C273.928 118.645 273.022 117.803 272.488 116.8C272.446 116.672 272.424 116.565 272.424 116.48C272.424 116.373 272.467 116.288 272.552 116.224L274.12 115.392C274.27 115.307 274.387 115.275 274.472 115.296C274.579 115.296 274.654 115.339 274.696 115.424C275.038 115.915 275.432 116.352 275.88 116.736C276.328 117.12 276.872 117.429 277.512 117.664C278.152 117.877 278.92 117.984 279.816 117.984C280.563 117.984 281.235 117.888 281.832 117.696C282.451 117.483 282.931 117.195 283.272 116.832C283.614 116.469 283.784 116.043 283.784 115.552C283.784 115.04 283.571 114.603 283.144 114.24C282.739 113.856 282.014 113.525 280.968 113.248L277.704 112.416C276.083 111.989 274.92 111.403 274.216 110.656C273.512 109.909 273.16 109.013 273.16 107.968C273.16 106.923 273.438 106.016 273.992 105.248C274.547 104.459 275.326 103.84 276.328 103.392C277.352 102.944 278.547 102.72 279.912 102.72C281.406 102.72 282.718 103.008 283.848 103.584C284.979 104.139 285.832 104.853 286.408 105.728C286.472 105.813 286.515 105.909 286.536 106.016C286.558 106.101 286.504 106.187 286.376 106.272L284.712 107.136C284.627 107.179 284.531 107.189 284.424 107.168C284.339 107.147 284.254 107.093 284.168 107.008ZM300.7 107.008C300.294 106.411 299.729 105.92 299.004 105.536C298.278 105.152 297.414 104.96 296.411 104.96C295.366 104.96 294.492 105.173 293.788 105.6C293.105 106.027 292.764 106.624 292.764 107.392C292.764 107.755 292.913 108.117 293.212 108.48C293.51 108.843 294.15 109.163 295.132 109.44L299.068 110.56C300.625 110.965 301.745 111.573 302.428 112.384C303.11 113.195 303.452 114.123 303.452 115.168C303.452 116.235 303.142 117.152 302.524 117.92C301.926 118.667 301.084 119.253 299.996 119.68C298.929 120.107 297.702 120.32 296.316 120.32C294.566 120.32 293.041 119.989 291.74 119.328C290.46 118.645 289.553 117.803 289.02 116.8C288.977 116.672 288.956 116.565 288.956 116.48C288.956 116.373 288.998 116.288 289.084 116.224L290.652 115.392C290.801 115.307 290.918 115.275 291.004 115.296C291.11 115.296 291.185 115.339 291.228 115.424C291.569 115.915 291.964 116.352 292.411 116.736C292.86 117.12 293.404 117.429 294.044 117.664C294.684 117.877 295.452 117.984 296.348 117.984C297.094 117.984 297.766 117.888 298.364 117.696C298.982 117.483 299.462 117.195 299.804 116.832C300.145 116.469 300.316 116.043 300.316 115.552C300.316 115.04 300.102 114.603 299.676 114.24C299.27 113.856 298.545 113.525 297.5 113.248L294.236 112.416C292.614 111.989 291.452 111.403 290.748 110.656C290.044 109.909 289.692 109.013 289.692 107.968C289.692 106.923 289.969 106.016 290.524 105.248C291.078 104.459 291.857 103.84 292.86 103.392C293.884 102.944 295.078 102.72 296.444 102.72C297.937 102.72 299.249 103.008 300.38 103.584C301.51 104.139 302.364 104.853 302.94 105.728C303.004 105.813 303.046 105.909 303.068 106.016C303.089 106.101 303.036 106.187 302.908 106.272L301.244 107.136C301.158 107.179 301.062 107.189 300.956 107.168C300.87 107.147 300.785 107.093 300.7 107.008Z" fill="black"/>
<g clip-path="url(#clip0_407_15053)">
<mask id="mask0_407_15053" style="mask-type:luminance" maskUnits="userSpaceOnUse" x="108" y="0" width="88" height="77">
<path d="M195.993 0H108V77H195.993V0Z" fill="white"/>
</mask>
<g mask="url(#mask0_407_15053)">
<path d="M136.028 20.8825L142.554 16.7803V20.2917L133.015 26.2858C133.643 24.2944 134.667 22.4557 136.028 20.8825Z" fill="white"/>
<path d="M183.681 11.2907C182.591 11.1115 181.468 11.2774 180.477 11.7554L176.725 5.72814C175.027 2.99331 171.447 2.15693 168.725 3.86288L153.955 13.1361V9.6246L167.16 1.33383C167.338 1.22098 167.517 1.12141 167.702 1.02185C167.761 0.988656 167.821 0.955466 167.887 0.928914C168.052 0.842621 168.217 0.762966 168.389 0.689949C168.448 0.663397 168.501 0.643483 168.56 0.616932C168.666 0.570466 168.778 0.530638 168.891 0.490811C168.976 0.464259 169.062 0.431069 169.142 0.404518C169.241 0.371328 169.333 0.344776 169.439 0.318225C169.829 0.20538 170.218 0.125725 170.621 0.0659833C170.819 0.0394316 171.018 0.0128798 171.216 0.00624192C171.599 -0.0203098 171.975 -0.0203098 172.359 0.00624192L172.629 0.0261557C172.722 0.0327936 172.808 0.0460695 172.9 0.0593454C172.993 0.0726212 173.085 0.0858971 173.171 0.099173C173.376 0.132363 173.581 0.17219 173.785 0.218656C174.036 0.278397 174.287 0.344776 174.532 0.431069C174.604 0.457621 174.677 0.477535 174.75 0.504087C174.908 0.563828 175.073 0.623569 175.232 0.689949C175.245 0.689949 175.252 0.696587 175.265 0.703225C175.516 0.809431 175.767 0.928914 176.005 1.06167C176.084 1.10814 176.163 1.1546 176.243 1.19443C176.322 1.23426 176.401 1.28736 176.48 1.33383C176.639 1.42676 176.791 1.53297 176.943 1.64581C177.022 1.69891 177.095 1.75202 177.167 1.81176C177.24 1.8715 177.306 1.91797 177.379 1.97771C177.531 2.10383 177.683 2.23659 177.828 2.36935C177.874 2.42245 177.927 2.46891 177.98 2.52202C178.079 2.61495 178.172 2.71452 178.264 2.82072C178.343 2.90702 178.423 2.99331 178.495 3.0796C178.588 3.18581 178.68 3.29866 178.766 3.41814C178.944 3.65047 179.11 3.88943 179.261 4.13503L183.7 11.2774L183.681 11.2907Z" fill="white"/>
<path d="M135.281 73.1298L152.7 62.1905L152.687 65.7086L136.853 75.6522C136.761 75.7119 136.675 75.7584 136.583 75.8182C136.45 75.8978 136.312 75.9708 136.18 76.0372C136.061 76.0969 135.948 76.1567 135.83 76.2098C135.763 76.243 135.704 76.2695 135.638 76.2961C135.572 76.3226 135.526 76.3426 135.466 76.3691C135.361 76.4156 135.248 76.4554 135.136 76.4952C134.925 76.5749 134.707 76.6346 134.495 76.6944C134.284 76.7541 134.066 76.8006 133.848 76.847C133.702 76.8736 133.557 76.9001 133.412 76.92C133.333 76.9333 133.253 76.94 133.167 76.9466C133.082 76.9532 133.016 76.9599 132.936 76.9665C132.831 76.9732 132.725 76.9798 132.619 76.9864C132.553 76.9864 132.494 76.9864 132.428 76.9931C132.414 76.9931 132.401 76.9931 132.388 76.9931C132.144 76.9931 131.906 76.9931 131.668 76.9798L131.397 76.9599C131.305 76.9532 131.219 76.94 131.126 76.9267C131.034 76.9134 130.941 76.9001 130.855 76.8869C130.77 76.8736 130.664 76.8537 130.565 76.8404L130.386 76.8072C130.34 76.7939 130.287 76.7873 130.241 76.774C129.911 76.701 129.587 76.6014 129.27 76.4886C129.112 76.4288 128.946 76.3691 128.788 76.3027C128.775 76.3027 128.768 76.2961 128.755 76.2894C128.669 76.2563 128.59 76.2164 128.504 76.1766C128.339 76.0969 128.174 76.0173 128.015 75.931C127.936 75.8845 127.857 75.8447 127.777 75.7982C127.539 75.6588 127.308 75.5062 127.084 75.3469C127.011 75.2938 126.932 75.2407 126.859 75.1809C126.786 75.1212 126.72 75.0747 126.648 75.015C126.496 74.8888 126.344 74.7561 126.199 74.6233C126.146 74.5769 126.099 74.5238 126.047 74.4707C125.948 74.3777 125.855 74.2782 125.763 74.1719C125.683 74.0857 125.604 73.9994 125.531 73.9131C125.439 73.8069 125.346 73.694 125.261 73.5745C125.089 73.3422 124.917 73.1032 124.765 72.8576L109.334 48.0517C109.057 47.6069 108.819 47.1356 108.628 46.6444C108.555 46.4519 108.482 46.2594 108.423 46.0669C108.33 45.7749 108.251 45.4828 108.192 45.1841C108.159 45.0248 108.132 44.8588 108.106 44.6995C108.086 44.58 108.073 44.4539 108.06 44.3344C108.06 44.3013 108.053 44.2747 108.053 44.2415C107.96 43.3255 108.013 42.4094 108.205 41.5133H108.198C108.231 41.3806 108.258 41.2412 108.297 41.1084C108.33 40.9757 108.377 40.8429 108.416 40.7101C108.476 40.511 108.548 40.3119 108.628 40.1194C108.694 39.9468 108.773 39.7742 108.846 39.6082C108.918 39.4423 109.011 39.2763 109.097 39.1104C109.262 38.805 109.447 38.513 109.651 38.2342C110.319 37.3049 111.158 36.515 112.122 35.9043L122.182 29.585C121.594 30.9325 121.205 32.3663 121.026 33.8266L113.694 38.4267C110.973 40.1393 110.147 43.737 111.845 46.4719L127.275 71.2778C128.973 74.0126 132.553 74.849 135.275 73.1364" fill="white"/>
<path d="M173.66 49.0273C173.079 50.9523 172.127 52.7446 170.859 54.3045L162.569 59.5086V57.3447L162.576 55.9905L173.66 49.0273Z" fill="white"/>
<path d="M195.795 35.4792C195.769 35.6119 195.736 35.7513 195.696 35.8841C195.663 36.0169 195.624 36.1562 195.577 36.2824C195.518 36.4815 195.445 36.6806 195.366 36.8731C195.3 37.0457 195.227 37.2183 195.148 37.3843C195.069 37.5502 194.983 37.7162 194.897 37.8821C194.732 38.1875 194.547 38.4795 194.342 38.7583C193.675 39.6876 192.836 40.4775 191.872 41.0882L183.139 46.5844C183.654 45.2569 183.984 43.8695 184.123 42.4556L190.299 38.5725C193.021 36.8599 193.847 33.2621 192.149 30.5273L187.142 22.4755C188.007 21.7851 188.641 20.8492 188.965 19.7871L194.666 28.9541C194.725 29.047 194.778 29.1333 194.831 29.2262C194.937 29.4121 195.036 29.598 195.128 29.7838C195.174 29.8768 195.214 29.9697 195.26 30.0693C195.346 30.2618 195.419 30.4476 195.491 30.6401C195.524 30.7397 195.557 30.8326 195.591 30.9322C195.683 31.2243 195.762 31.5163 195.822 31.815C195.855 31.9744 195.881 32.1403 195.908 32.2996C195.927 32.4191 195.941 32.5452 195.954 32.6647C195.954 32.6979 195.96 32.7244 195.96 32.7576C196.053 33.667 196 34.5897 195.802 35.4858" fill="white"/>
<path d="M195.954 32.7514C195.954 32.7514 195.947 32.6916 195.947 32.6584C195.934 32.5389 195.921 32.4195 195.901 32.2933C195.874 32.134 195.848 31.9681 195.815 31.8088C195.749 31.5101 195.676 31.218 195.584 30.9259C195.551 30.8264 195.518 30.7334 195.485 30.6339C195.412 30.4414 195.339 30.2489 195.254 30.0564C195.207 29.9634 195.168 29.8639 195.121 29.7709C195.029 29.5851 194.93 29.3992 194.824 29.2133C194.771 29.1204 194.718 29.0275 194.659 28.9412L188.958 19.7742C188.641 20.8363 188.001 21.7789 187.135 22.4626C186.977 22.5953 186.805 22.7148 186.627 22.8276L184.843 23.9495L184.645 24.0756L189.632 32.0942C190.464 33.4284 190.062 35.1941 188.734 36.0305C188.734 36.0305 188.734 36.0305 188.727 36.0305L184.189 38.8782V40.9625C184.189 41.4603 184.163 41.9515 184.116 42.4361C183.984 43.85 183.654 45.2439 183.132 46.5649L191.865 41.082C192.836 40.4779 193.675 39.6814 194.335 38.752C194.534 38.4666 194.718 38.1745 194.89 37.8692C194.983 37.7032 195.062 37.5373 195.141 37.3714C195.221 37.2054 195.293 37.0328 195.359 36.8602C195.439 36.6677 195.505 36.4686 195.571 36.2695C195.61 36.1367 195.65 36.0039 195.69 35.8712C195.723 35.7384 195.756 35.6057 195.789 35.4663C195.98 34.5701 196.033 33.6475 195.947 32.7381M173.336 45.6887C172.88 46.1998 172.372 46.6512 171.817 47.0362L165.178 51.6429L164.419 52.1673C163.263 52.9705 162.576 54.2914 162.582 55.7053V59.4757L170.859 54.2715C172.979 51.6695 174.195 48.4368 174.314 45.0714L173.343 45.682L173.336 45.6887ZM131.556 70.9394C130.822 70.7734 130.182 70.3154 129.779 69.6715L114.355 44.8722C113.522 43.5314 113.925 41.7723 115.26 40.9293L120.914 37.378V35.6787C120.914 33.5745 121.343 31.4835 122.182 29.5585L112.122 35.8778C111.151 36.4819 110.312 37.2784 109.651 38.2077C109.453 38.4932 109.268 38.7852 109.097 39.0906C109.004 39.2565 108.925 39.4225 108.846 39.5884C108.766 39.7544 108.694 39.927 108.628 40.0995C108.548 40.292 108.482 40.4912 108.416 40.6903C108.377 40.8231 108.337 40.9558 108.297 41.0886C108.264 41.2214 108.231 41.3541 108.198 41.4935C108.007 42.3896 107.954 43.3123 108.04 44.2217C108.04 44.2483 108.046 44.2814 108.053 44.3146C108.066 44.4341 108.079 44.5536 108.099 44.6797C108.125 44.839 108.152 45.005 108.185 45.1643C108.244 45.463 108.324 45.7617 108.416 46.0604C108.476 46.2529 108.548 46.452 108.621 46.6379C108.812 47.1291 109.05 47.5938 109.328 48.0385L124.752 72.8378C124.91 73.0901 125.076 73.329 125.247 73.5547C125.333 73.6676 125.426 73.7804 125.518 73.8932C125.591 73.9795 125.67 74.0725 125.749 74.1521C125.842 74.2517 125.934 74.3513 126.033 74.4442C126.086 74.4973 126.132 74.5438 126.185 74.5969C126.331 74.7296 126.476 74.869 126.634 74.9885C126.7 75.0483 126.773 75.1014 126.846 75.1545C126.918 75.2076 126.991 75.2673 127.07 75.3204C127.295 75.4864 127.526 75.6324 127.764 75.7718C127.843 75.8183 127.923 75.8647 128.002 75.9045C128.167 75.9908 128.325 76.0705 128.491 76.1501C128.576 76.19 128.656 76.2232 128.742 76.263C128.748 76.263 128.761 76.2763 128.775 76.2763C128.933 76.3426 129.092 76.4024 129.257 76.4621C129.574 76.575 129.898 76.6679 130.228 76.7476C130.274 76.7608 130.327 76.7675 130.373 76.7807L130.552 76.8139C130.651 76.8339 130.743 76.8471 130.842 76.8604C130.935 76.8737 131.021 76.887 131.113 76.9002C131.206 76.9135 131.291 76.9201 131.384 76.9334L131.655 76.9533C131.84 76.9666 132.025 76.9732 132.21 76.9732C132.262 76.9732 132.322 76.9732 132.375 76.9732C132.388 76.9732 132.401 76.9732 132.414 76.9732C132.48 76.9732 132.54 76.9732 132.606 76.9666C132.712 76.9666 132.817 76.96 132.923 76.9467C133.002 76.9467 133.075 76.9334 133.148 76.9268C133.22 76.9201 133.313 76.9069 133.392 76.9002C133.537 76.8803 133.689 76.8538 133.835 76.8272C134.053 76.7874 134.264 76.7343 134.482 76.6745C134.7 76.6148 134.911 76.5484 135.123 76.4754C135.235 76.4356 135.341 76.3957 135.453 76.3493C135.512 76.3294 135.565 76.3028 135.625 76.2763C135.684 76.2497 135.757 76.2232 135.816 76.19C135.935 76.1369 136.054 76.0771 136.166 76.0174C136.305 75.951 136.437 75.878 136.569 75.7983C136.662 75.7452 136.748 75.6921 136.84 75.6324L152.674 65.6888L152.687 62.1707V60.8962V59.2898C152.687 59.0641 152.707 58.8384 152.74 58.6194L133.696 70.5743C133.055 70.9792 132.282 71.112 131.549 70.9394M136.014 20.8562C133.762 23.4649 132.454 26.7639 132.302 30.2157L133.134 29.6913C133.181 29.6581 133.227 29.6249 133.273 29.5917L140.698 24.434C141.854 23.6308 142.541 22.3165 142.541 20.9093V16.7539L136.014 20.8562ZM179.235 4.14851C179.076 3.89627 178.911 3.6573 178.74 3.43161C178.654 3.31877 178.561 3.20592 178.469 3.09308C178.396 3.00678 178.317 2.91385 178.237 2.8342C178.145 2.73463 178.053 2.63506 177.953 2.54213C177.907 2.48903 177.854 2.44256 177.802 2.38946C177.656 2.2567 177.511 2.1173 177.352 1.99782C177.286 1.93808 177.214 1.88497 177.141 1.83187C177.068 1.77877 176.996 1.71903 176.916 1.66592C176.764 1.55972 176.613 1.45351 176.454 1.35394C176.381 1.30747 176.295 1.26101 176.216 1.20791C176.137 1.1548 176.058 1.11497 175.978 1.07515C175.741 0.942388 175.49 0.822905 175.239 0.716699C175.232 0.716699 175.219 0.703423 175.206 0.703423C175.047 0.637043 174.888 0.577302 174.73 0.517561C174.657 0.491009 174.585 0.471095 174.512 0.444543C174.268 0.364888 174.017 0.291871 173.759 0.23213C173.554 0.185664 173.349 0.145836 173.145 0.112647C173.059 0.092733 172.966 0.0794572 172.874 0.0661813C172.781 0.0529054 172.695 0.0462675 172.603 0.0329916L172.332 0.0130779C171.949 -0.0134739 171.572 -0.0134739 171.189 0.0130779C170.991 0.0263537 170.793 0.0462675 170.595 0.0728192C170.192 0.125923 169.796 0.212216 169.412 0.325061C169.313 0.351612 169.214 0.384802 169.122 0.411354C169.036 0.437905 168.957 0.464457 168.871 0.497647C168.758 0.537474 168.653 0.577302 168.54 0.623767C168.481 0.643681 168.428 0.670233 168.369 0.696785C168.197 0.769802 168.032 0.849457 167.867 0.93575C167.807 0.962302 167.741 0.995492 167.682 1.02868C167.497 1.12825 167.318 1.22782 167.14 1.34066L153.942 9.63144V16.1698C153.942 16.3424 153.929 16.5083 153.909 16.6809L170.284 6.39877C171.612 5.56239 173.369 5.9673 174.201 7.30153C174.201 7.30153 174.201 7.30153 174.201 7.30816L177.927 13.3022L178.092 13.196L179.915 12.0543C180.094 11.9414 180.272 11.8419 180.464 11.7556C181.461 11.2776 182.577 11.1117 183.674 11.2909L179.235 4.14851Z" fill="#3D3D3D"/>
<g opacity="0.4">
<mask id="mask1_407_15053" style="mask-type:luminance" maskUnits="userSpaceOnUse" x="130" y="31" width="23" height="29">
<path d="M152.178 31.0059H130.135V59.4494H152.178V31.0059Z" fill="white"/>
</mask>
<g mask="url(#mask1_407_15053)">
<path d="M131.252 34.0195L135.473 31.3643C136.583 30.6674 138.049 31.0059 138.743 32.1211L151.815 53.1434C152.509 54.2586 152.172 55.7322 151.062 56.4292L146.841 59.0843C145.731 59.7813 144.265 59.4428 143.571 58.3276L130.499 37.3053C129.805 36.1901 130.142 34.7165 131.252 34.0195Z" fill="#141211"/>
</g>
</g>
<g opacity="0.5">
<mask id="mask2_407_15053" style="mask-type:luminance" maskUnits="userSpaceOnUse" x="118" y="38" width="23" height="29">
<path d="M140.665 38.2344H118.622V66.6779H140.665V38.2344Z" fill="white"/>
</mask>
<g mask="url(#mask2_407_15053)">
<path d="M119.738 41.248L123.959 38.5929C125.069 37.8959 126.535 38.2344 127.229 39.3496L140.301 60.3719C140.995 61.4871 140.658 62.9607 139.548 63.6577L135.327 66.3129C134.218 67.0098 132.751 66.6713 132.058 65.5561L118.985 44.5338C118.292 43.4186 118.628 41.945 119.738 41.248Z" fill="#141211"/>
</g>
</g>
<g opacity="0.3">
<mask id="mask3_407_15053" style="mask-type:luminance" maskUnits="userSpaceOnUse" x="141" y="23" width="23" height="30">
<path d="M163.698 23.7764H141.656V52.2199H163.698V23.7764Z" fill="white"/>
</mask>
<g mask="url(#mask3_407_15053)">
<path d="M142.772 26.79L146.993 24.1349C148.103 23.4379 149.569 23.7764 150.263 24.8916L163.335 45.9139C164.029 47.0291 163.692 48.5027 162.582 49.1997L158.361 51.8549C157.251 52.5518 155.785 52.2133 155.091 51.0981L142.019 30.0758C141.325 28.9606 141.662 27.487 142.772 26.79Z" fill="#141211"/>
</g>
</g>
<g opacity="0.19">
<mask id="mask4_407_15053" style="mask-type:luminance" maskUnits="userSpaceOnUse" x="153" y="16" width="23" height="29">
<path d="M175.212 16.541H153.169V44.9845H175.212V16.541Z" fill="white"/>
</mask>
<g mask="url(#mask4_407_15053)">
<path d="M154.286 19.5547L158.507 16.8995C159.616 16.2025 161.083 16.5411 161.776 17.6562L174.849 38.6786C175.542 39.7937 175.206 41.2673 174.096 41.9643L169.875 44.6195C168.765 45.3165 167.299 44.9779 166.605 43.8628L153.533 22.8404C152.839 21.7253 153.176 20.2517 154.286 19.5547Z" fill="#141211"/>
</g>
</g>
<g opacity="0.1">
<mask id="mask5_407_15053" style="mask-type:luminance" maskUnits="userSpaceOnUse" x="164" y="9" width="23" height="29">
<path d="M186.726 9.3125H164.683V37.756H186.726V9.3125Z" fill="white"/>
</mask>
<g mask="url(#mask5_407_15053)">
<path d="M165.799 12.3262L170.02 9.67098C171.13 8.974 172.596 9.31254 173.29 10.4277L186.362 31.45C187.056 32.5652 186.719 34.0388 185.609 34.7358L181.388 37.391C180.279 38.088 178.812 37.7494 178.119 36.6343L165.046 15.6186C164.353 14.5034 164.689 13.0298 165.799 12.3328" fill="#141211"/>
</g>
</g>
<path d="M167.199 38.9773V32.6513C167.199 32.0738 166.73 31.6092 166.156 31.6158C165.944 31.6158 165.746 31.6822 165.574 31.8017L140.599 49.1333C138.637 50.4941 135.955 49.9962 134.601 48.0314C134.105 47.3079 133.835 46.4516 133.835 45.5687V37.2315C133.835 34.3838 135.228 31.722 137.56 30.1023L144.985 24.9513C146.141 24.1481 146.828 22.8338 146.828 21.4199V15.4657L146.848 9.78363C146.848 9.20613 146.379 8.74148 145.804 8.74812C145.593 8.74812 145.394 8.8145 145.223 8.93398L140.011 12.545C138.855 13.3482 138.168 14.6625 138.168 16.0764L138.155 19.1232L131.787 23.5441C127.652 26.4117 125.181 31.1445 125.181 36.196V45.5687C125.181 52.7642 130.987 58.599 138.155 58.599C140.784 58.599 143.353 57.7958 145.52 56.2956L165.343 42.5485C166.506 41.7453 167.193 40.4177 167.193 38.9972" fill="#F89000"/>
<path d="M159.814 19.9334L139.991 33.6806C138.835 34.4838 138.141 35.8047 138.141 37.2186V43.5445C138.141 44.122 138.604 44.5867 139.178 44.5867C139.39 44.5867 139.595 44.5203 139.766 44.4008L164.742 27.0758C166.704 25.7151 169.386 26.2129 170.74 28.1777C171.235 28.9013 171.506 29.7576 171.506 30.6404V38.971C171.506 41.8187 170.113 44.4805 167.781 46.1002L161.142 50.7069L160.382 51.2313C159.226 52.0345 158.546 53.3554 158.546 54.7693V56.3757L158.513 66.3724C158.513 66.9499 158.982 67.4145 159.557 67.4079C159.768 67.4079 159.966 67.3415 160.138 67.222L165.35 63.6044C166.506 62.8012 167.193 61.4869 167.193 60.0796L167.206 57.0793L173.561 52.6651C177.696 49.7908 180.166 45.0646 180.166 40.0132V30.6404C180.166 23.4449 174.36 17.6102 167.199 17.6035C164.564 17.6035 161.988 18.4133 159.821 19.9135L159.814 19.9334Z" fill="#B1C017"/>
<path d="M192.803 24.6661C190.293 26.2392 187.049 25.9538 184.85 23.9624L186.64 22.8406C189.196 21.2342 189.969 17.8555 188.377 15.2867L187.452 13.7998C185.854 11.2309 182.492 10.4542 179.942 12.054L178.119 13.2024C177.022 9.69089 178.964 5.95373 182.452 4.85183C185.332 3.94244 188.463 5.10408 190.062 7.67296L194.923 15.4924C196.865 18.6123 195.921 22.7211 192.816 24.6661" fill="#3D3D3D"/>
</g>
</g>
<defs>
<clipPath id="clip0_407_15053">
<rect width="88" height="77" fill="white" transform="translate(108)"/>
</clipPath>
</defs>
</svg>
