<svg id="Alert" xmlns="http://www.w3.org/2000/svg" width="26" height="26" viewBox="0 0 26 26">
  <rect id="Rectangle_479" data-name="Rectangle 479" width="26" height="26" fill="none"/>
  <path id="Path_1" data-name="Path 1" d="M24.336,22.75H16.211a3.25,3.25,0,0,1-6.5,0H1.586A1.561,1.561,0,0,1,.123,21.613a1.735,1.735,0,0,1,.488-1.788,6.542,6.542,0,0,0,2.6-5.2V9.75a9.75,9.75,0,0,1,19.5,0v4.875a6.542,6.542,0,0,0,2.6,5.2,1.539,1.539,0,0,1,.488,1.788A1.561,1.561,0,0,1,24.336,22.75Z" transform="translate(-0.062)" fill="#b3cb2c"/>
</svg>
