<svg id="Search" xmlns="http://www.w3.org/2000/svg" width="39" height="39" viewBox="0 0 39 39">
  <rect id="Area_DISPLAY_ELEMENTS:Default_STATE:DEFAULT_" data-name="Area [DISPLAY_ELEMENTS:Default][STATE:DEFAULT]" width="39" height="39" rx="6" fill="none"/>
  <path id="Path_99" data-name="Path 99" d="M15.9,14.5l-3.3-3.3A6.847,6.847,0,0,0,14,7,6.957,6.957,0,0,0,7,0,6.957,6.957,0,0,0,0,7a6.957,6.957,0,0,0,7,7,6.847,6.847,0,0,0,4.2-1.4l3.3,3.3ZM2,7A4.951,4.951,0,0,1,7,2a4.951,4.951,0,0,1,5,5,4.951,4.951,0,0,1-5,5A4.951,4.951,0,0,1,2,7Z" transform="translate(11 12)" fill="#ffa602"/>
  <g id="Search-2" data-name="Search" transform="translate(11 12)">
    <rect id="Rectangle_176" data-name="Rectangle 176" width="16" height="16" fill="none"/>
  </g>
</svg>
