<svg width="88" height="63" viewBox="0 0 88 63" fill="none" xmlns="http://www.w3.org/2000/svg">
<mask id="mask0_79_39416" style="mask-type:alpha" maskUnits="userSpaceOnUse" x="14" y="2" width="60" height="61">
<rect x="14" y="2.53174" width="59.9363" height="59.9363" fill="#D9D9D9"/>
</mask>
<g mask="url(#mask0_79_39416)">
<path d="M43.9681 55.2246C40.9712 55.2246 38.4319 54.1847 36.3502 52.1049C34.2704 50.0231 33.2305 47.4838 33.2305 44.487C33.2305 42.6969 33.6051 41.0427 34.3543 39.5243C35.1035 38.0039 36.2273 36.7862 37.7257 35.8712V16.0173C37.7257 14.2691 38.329 12.7917 39.5358 11.585C40.7425 10.3783 42.2199 9.7749 43.9681 9.7749C45.7162 9.7749 47.1936 10.3783 48.4003 11.585C49.6071 12.7917 50.2104 14.2691 50.2104 16.0173V35.8712C51.6669 36.7862 52.7807 38.0139 53.5519 39.5542C54.321 41.0946 54.7056 42.7389 54.7056 44.487C54.7056 47.4838 53.6548 50.0231 51.553 52.1049C49.4512 54.1847 46.9229 55.2246 43.9681 55.2246ZM40.9712 30.0034H46.9649V26.3802H43.9681V23.6352H46.9649V20.3866H43.9681V17.6415H46.9649V16.0173C46.9649 15.1842 46.6732 14.4769 46.0898 13.8955C45.5084 13.3121 44.8012 13.0205 43.9681 13.0205C43.1349 13.0205 42.4277 13.3121 41.8463 13.8955C41.2629 14.4769 40.9712 15.1842 40.9712 16.0173V30.0034Z" fill="#333333"/>
</g>
<line x1="31" y1="19.0317" x2="47" y2="19.0317" stroke="#FFA600" stroke-width="3"/>
<line x1="44" y1="25.0317" x2="60" y2="25.0317" stroke="#0F71CB" stroke-width="3"/>
<circle cx="70" cy="24.5317" r="18" fill="#0F71CB"/>
<circle cx="18" cy="18.5317" r="18" fill="#FFA600"/>
<path d="M43.992 40.224C44.512 40.224 44.9973 40.2977 45.448 40.445C45.9073 40.5923 46.3103 40.8003 46.657 41.069C47.0123 41.329 47.3027 41.6367 47.528 41.992C47.7533 42.3473 47.905 42.733 47.983 43.149C48.0263 43.3137 48.0307 43.422 47.996 43.474C47.97 43.5173 47.9137 43.5433 47.827 43.552L45.799 43.695C45.7123 43.695 45.656 43.6777 45.63 43.643C45.6127 43.5997 45.5953 43.539 45.578 43.461C45.5 43.045 45.344 42.7027 45.11 42.434C44.876 42.1653 44.525 42.031 44.057 42.031C43.4937 42.031 43.0473 42.2693 42.718 42.746C42.3887 43.214 42.224 44.0027 42.224 45.112C42.224 46.23 42.3757 47.0273 42.679 47.504C42.991 47.9807 43.4503 48.219 44.057 48.219C44.525 48.219 44.9323 48.102 45.279 47.868C45.6343 47.6253 45.9247 47.2137 46.15 46.633C46.1933 46.5377 46.3017 46.5073 46.475 46.542L47.944 46.828C47.9787 46.8367 48.0177 46.867 48.061 46.919C48.113 46.9623 48.126 47.062 48.1 47.218C48.0653 47.374 47.9873 47.5733 47.866 47.816C47.7533 48.0587 47.593 48.3143 47.385 48.583C47.177 48.8517 46.9127 49.103 46.592 49.337C46.2713 49.571 45.8943 49.7617 45.461 49.909C45.0277 50.0563 44.5337 50.13 43.979 50.13C43.0603 50.13 42.263 49.9177 41.587 49.493C40.911 49.0597 40.391 48.4617 40.027 47.699C39.663 46.9363 39.481 46.061 39.481 45.073C39.481 44.085 39.663 43.2313 40.027 42.512C40.391 41.784 40.911 41.2207 41.587 40.822C42.2717 40.4233 43.0733 40.224 43.992 40.224Z" fill="white"/>
</svg>
