<svg xmlns="http://www.w3.org/2000/svg" width="51.827" height="55.067" viewBox="0 0 51.827 55.067">
  <g id="Gruppe_60" data-name="Gruppe 60" transform="translate(-186 -10395.466)">
    <path id="Pfad_43" data-name="Pfad 43" d="M39.606,1396.5v-5.938a.977.977,0,0,0-1.532-.8l-23.546,16.257a4.064,4.064,0,0,1-6.372-3.345v-7.82a8.128,8.128,0,0,1,3.51-6.688l7-4.835a4.023,4.023,0,0,0,1.737-3.311v-5.589l.019-5.328a.978.978,0,0,0-1.533-.8l-4.911,3.391a4.023,4.023,0,0,0-1.737,3.31l-.01,2.857-6,4.145A14.423,14.423,0,0,0,0,1393.872v8.794a12.228,12.228,0,0,0,19.174,10.063l18.689-12.9A4.033,4.033,0,0,0,39.606,1396.5Z" transform="translate(186 9027.342)" fill="#FFA600"/>
    <path id="Pfad_44" data-name="Pfad 44" d="M36.2,1381.055l-18.69,12.9a4.033,4.033,0,0,0-1.742,3.319v5.937a.978.978,0,0,0,1.534.805l23.545-16.255a4.064,4.064,0,0,1,6.372,3.344v7.82a8.127,8.127,0,0,1-3.51,6.688l-6.259,4.322-.716.494h0l-.005,0A4.022,4.022,0,0,0,35,1413.747v1.508l-.033,9.377a.977.977,0,0,0,1.532.8l4.912-3.391a4.021,4.021,0,0,0,1.737-3.31l.01-2.815,5.994-4.139a14.425,14.425,0,0,0,6.229-11.869v-8.795A12.227,12.227,0,0,0,36.2,1381.055Z" transform="translate(182.447 9024.922)" fill="#B3CB2D"/>
  </g>
</svg>
