<?xml version="1.0" standalone="yes"?>
<svg xmlns="http://www.w3.org/2000/svg" width="245" height="242">
<path style="fill:#fbfbfb; stroke:none;" d="M0 0L0 242L245 242L245 0L0 0z"/>
<path style="fill:#020202; stroke:none;" d="M6 7L6 50L49 50L49 7L6 7z"/>
<path style="fill:#636363; stroke:none;" d="M49 7L49 50L6 50L6 51L37 51L48.3966 49.9722L50 39L49 7z"/>
<path style="fill:#343434; stroke:none;" d="M62 7L62 13L56 13L56 14C60.7365 13.8445 64.0958 12.1763 62 7z"/>
<path style="fill:#020202; stroke:none;" d="M63 7C62.6268 11.8916 60.8916 13.6268 56 14L56 19C63.4157 19.5658 63.4157 25.4342 56 26L56 31L68 31L68 25L75 25L75 31L80 31L80 19L87 19L87 14L75 14L75 20L68 20L68 7L63 7z"/>
<path style="fill:#9d9d9d; stroke:none;" d="M68 7L68 19L69 19L68 7M99 7C99.2724 15.2956 105.263 14 112 14L112 13L100 13L99 7z"/>
<path style="fill:#020202; stroke:none;" d="M100 7L100 13L112 13C111.443 5.85144 105.821 7 100 7z"/>
<path style="fill:#343434; stroke:none;" d="M111 7L112 8L111 7z"/>
<path style="fill:#9d9d9d; stroke:none;" d="M124 7L125 8L124 7z"/>
<path style="fill:#020202; stroke:none;" d="M125 7L125 13L131 13L131 19L137 19L137 25C141.892 25.3732 143.627 27.1084 144 32C139.275 31.8461 136.785 30.923 136 26L131 26L131 32L124 32L124 25L130 25L130 20L119 20L119 26L112 26L112 20L106 20L106 31C110.892 31.3732 112.627 33.1084 113 38L131 38L131 56L143 56L143 51C137.498 50.5803 132.113 43.1682 138.318 39.0278C142.225 36.4207 150.463 38 155 38L155 32L149 32L149 14L143 14L143 7L125 7z"/>
<path style="fill:#9d9d9d; stroke:none;" d="M143 7L143 13L144 13L143 7z"/>
<path style="fill:#636363; stroke:none;" d="M149 7L149 13L150 13L149 7z"/>
<path style="fill:#020202; stroke:none;" d="M150 7L150 13L155 13L155 7L150 7z"/>
<path style="fill:#636363; stroke:none;" d="M155 7L155 13L156 13L155 7z"/>
<path style="fill:#343434; stroke:none;" d="M168 7L168 19L169 19L168 7z"/>
<path style="fill:#020202; stroke:none;" d="M169 7L169 19L175 19L175 26L156 26L156 31L180 31L180 19L186 19L186 7L181 7L181 14L174 14L174 7L169 7z"/>
<path style="fill:#9d9d9d; stroke:none;" d="M174 7L174 13L175 13L174 7M180 7L180 13L181 13L180 7z"/>
<path style="fill:#343434; stroke:none;" d="M186 7L186 19L187 19L186 7M193 7L193 50L194 50C194 37.7811 197.71 18.2256 193 7z"/>
<path style="fill:#020202; stroke:none;" d="M194 7L194 50L236 50L236 7L194 7z"/>
<path style="fill:#343434; stroke:none;" d="M236 7L236 50L237 50C237 37.7811 240.71 18.2256 236 7z"/>
<path style="fill:#636363; stroke:none;" d="M124 8L124 13L125 13L124 8z"/>
<path style="fill:#9d9d9d; stroke:none;" d="M12 13L12 44L13 44L13 14L43 14L12 13z"/>
<path style="fill:#636363; stroke:none;" d="M43 13L43 44L12 44L12 45L41.6821 44.3966L43.9992 37L43 13z"/>
<path style="fill:#9d9d9d; stroke:none;" d="M74 13L74 19L75 19L74 13z"/>
<path style="fill:#343434; stroke:none;" d="M75 13L75 14L87 14L75 13z"/>
<path style="fill:#9d9d9d; stroke:none;" d="M125 13L125 14L130 14C130.34 18.3647 131.635 19.6599 136 20L136 19L131 19L131 13L125 13z"/>
<path style="fill:#343434; stroke:none;" d="M143 13L143 14L149 14L143 13z"/>
<path style="fill:#9d9d9d; stroke:none;" d="M149 13L149 31L150 31L150 14L155 14C155.381 18.8896 157.276 19.8449 162 20L162 19L156 19L156 13L149 13z"/>
<path style="fill:#343434; stroke:none;" d="M156 13L156 14L161 14L161 19C162.621 14.7326 159.979 13.31 156 13z"/>
<path style="fill:#636363; stroke:none;" d="M161 13L162 14L161 13z"/>
<path style="fill:#343434; stroke:none;" d="M174 13L174 14L181 14L174 13z"/>
<path style="fill:#636363; stroke:none;" d="M199 13L200 14L199 13z"/>
<path style="fill:#9d9d9d; stroke:none;" d="M199 44L200 44L200 14L230 14L230 44C232.076 39.0525 233.442 18.9841 229.972 14.6034C227.318 11.2525 202.682 11.2525 200.028 14.6034C195.861 19.864 199 37.3639 199 44z"/>
<path style="fill:#636363; stroke:none;" d="M230 13L231 14L230 13z"/>
<path style="fill:#fbfbfb; stroke:none;" d="M13 14L13 44L43 44L43 14L13 14z"/>
<path style="fill:#9d9d9d; stroke:none;" d="M55 14L55 19L56 19L55 14z"/>
<path style="fill:#020202; stroke:none;" d="M156 14L156 19L161 19L161 14L156 14z"/>
<path style="fill:#fbfbfb; stroke:none;" d="M200 14L200 44L230 44L230 14L200 14z"/>
<path style="fill:#9d9d9d; stroke:none;" d="M18 19L19 20L18 19z"/>
<path style="fill:#636363; stroke:none;" d="M18 38L19 38L19 20L37 20C33.392 18.486 20.7081 17.0406 18.6034 21.3179C16.5074 25.5775 18 33.3153 18 38z"/>
<path style="fill:#9d9d9d; stroke:none;" d="M56 19L56 20L62 20L56 19z"/>
<path style="fill:#343434; stroke:none;" d="M68 19L69 20L68 19z"/>
<path style="fill:#636363; stroke:none;" d="M69 19L69 20L74 20L69 19z"/>
<path style="fill:#343434; stroke:none;" d="M74 19L75 20L74 19M80 19L80 31L75 31L75 32C81.8678 31.4649 82.3335 24.5611 80 19z"/>
<path style="fill:#9d9d9d; stroke:none;" d="M81 19L81 20L87 20L81 19M93 19L94 20L93 19z"/>
<path style="fill:#636363; stroke:none;" d="M94.6034 20.0463C91.4475 22.4373 95.2145 27.3646 98.3966 24.9537C101.553 22.5627 97.7855 17.6354 94.6034 20.0463z"/>
<path style="fill:#9d9d9d; stroke:none;" d="M99 19L100 20L99 19z"/>
<path style="fill:#636363; stroke:none;" d="M106 19L106 20L112 20L106 19z"/>
<path style="fill:#9d9d9d; stroke:none;" d="M118 19L119 20L118 19z"/>
<path style="fill:#636363; stroke:none;" d="M119 19L119 20L130 20L130 25L125 25L125 26L131 26L131 19L119 19M136 19L137 20L136 19z"/>
<path style="fill:#9d9d9d; stroke:none;" d="M168 19L168 20L174 20L168 19z"/>
<path style="fill:#343434; stroke:none;" d="M174 19L175 20L174 19M180 19L181 20L180 19z"/>
<path style="fill:#9d9d9d; stroke:none;" d="M181 19L181 20L187 20L181 19M205 19C205 30.4598 202.18 39.0275 216 39C218.42 38.9952 222.255 39.5644 223.972 37.3966C226.907 33.6917 225 23.5571 225 19L224 19L224 38L206 38L205 19z"/>
<path style="fill:#636363; stroke:none;" d="M206 19L206 20L224 20L206 19z"/>
<path style="fill:#020202; stroke:none;" d="M19 20L19 38L37 38L37 20L19 20z"/>
<path style="fill:#9d9d9d; stroke:none;" d="M37 20L37 38L38 38L37 20z"/>
<path style="fill:#343434; stroke:none;" d="M62 20L62 25L63 25L62 20z"/>
<path style="fill:#020202; stroke:none;" d="M94 20L94 25L99 25L99 20L94 20z"/>
<path style="fill:#9d9d9d; stroke:none;" d="M105 20L105 32L106 32L105 20z"/>
<path style="fill:#636363; stroke:none;" d="M118 20L118 25L119 25L118 20z"/>
<path style="fill:#fbfbfb; stroke:none;" d="M131 20L131 25L137 25L137 20L131 20z"/>
<path style="fill:#636363; stroke:none;" d="M174 20L174 25L175 25L174 20M180 20L180 32L181 32L180 20z"/>
<path style="fill:#020202; stroke:none;" d="M206 20L206 38L224 38L224 20L206 20z"/>
<path style="fill:#9d9d9d; stroke:none;" d="M56 25L56 26L62 26L56 25z"/>
<path style="fill:#343434; stroke:none;" d="M68 25L69 26L68 25z"/>
<path style="fill:#636363; stroke:none;" d="M69 25L69 26L74 26L69 25z"/>
<path style="fill:#343434; stroke:none;" d="M74 25L75 26L74 25z"/>
<path style="fill:#9d9d9d; stroke:none;" d="M93 25L94 26L93 25M99 25L100 26L99 25M112 25L112 26L118 26L112 25z"/>
<path style="fill:#343434; stroke:none;" d="M118 25L119 26L118 25M124 25L125 26L124 25z"/>
<path style="fill:#9d9d9d; stroke:none;" d="M131 25L131 26L137 26L131 25z"/>
<path style="fill:#636363; stroke:none;" d="M137 25L137 26L143 26L137 25z"/>
<path style="fill:#9d9d9d; stroke:none;" d="M156 25L156 26L174 26L156 25z"/>
<path style="fill:#343434; stroke:none;" d="M174 25L175 26L174 25z"/>
<path style="fill:#9d9d9d; stroke:none;" d="M55 26L55 31L56 31L55 26M68 26L68 32L69 32L68 26z"/>
<path style="fill:#fbfbfb; stroke:none;" d="M69 26L69 32L74 32L74 26L69 26z"/>
<path style="fill:#9d9d9d; stroke:none;" d="M74 26L74 32L75 32L74 26M124 26L124 31L125 31L124 26z"/>
<path style="fill:#fbfbfb; stroke:none;" d="M125 26L125 32L130 32L130 26L125 26z"/>
<path style="fill:#9d9d9d; stroke:none;" d="M130 26L130 32L131 32L130 26z"/>
<path style="fill:#343434; stroke:none;" d="M136 26L136 31L137 31L136 26z"/>
<path style="fill:#fbfbfb; stroke:none;" d="M137 26C137.34 30.3647 138.635 31.6599 143 32L143 26L137 26z"/>
<path style="fill:#343434; stroke:none;" d="M143 26L143 32L144 32L143 26z"/>
<path style="fill:#9d9d9d; stroke:none;" d="M155 26L155 32L156 32L155 26z"/>
<path style="fill:#343434; stroke:none;" d="M56 31L56 32L68 32L56 31z"/>
<path style="fill:#636363; stroke:none;" d="M80 31L81 32L80 31z"/>
<path style="fill:#343434; stroke:none;" d="M106.603 32.0324C102.798 34.9854 107.532 40.9662 111.397 37.9676C115.202 35.0145 110.468 29.0338 106.603 32.0324z"/>
<path style="fill:#636363; stroke:none;" d="M124 31L125 32L124 31z"/>
<path style="fill:#9d9d9d; stroke:none;" d="M137 31L138 32L137 31z"/>
<path style="fill:#636363; stroke:none;" d="M149 31L150 32L149 31z"/>
<path style="fill:#343434; stroke:none;" d="M156 31L156 32L180 32L156 31z"/>
<path style="fill:#636363; stroke:none;" d="M68 32C68 35.6294 65.797 51.3021 71.9105 50.534C77.1457 49.8762 75 35.7588 75 32L74 32L74 50L69 50L68 32z"/>
<path style="fill:#020202; stroke:none;" d="M69 32L69 50L74 50L74 32L69 32z"/>
<path style="fill:#9d9d9d; stroke:none;" d="M80 32C80.1744 37.3101 81.6899 38.8256 87 39L87 38L81 38L80 32z"/>
<path style="fill:#020202; stroke:none;" d="M81 32L81 38L88 38L88 44L94 44L94 50L99 50L99 44L106 44L106 50L112 50L112 39C107.108 38.6268 105.373 36.8916 105 32L81 32z"/>
<path style="fill:#fbfbfb; stroke:none;" d="M106 32L106 38L112 38L112 32L106 32z"/>
<path style="fill:#636363; stroke:none;" d="M155 32L155 38L156 38L155 32z"/>
<path style="fill:#fbfbfb; stroke:none;" d="M156 32C155.263 41.6654 144.275 39 137 39L137 50L143 50L143 44L150 44L150 51L144 51L144 57L130 57L130 39L112 39L112 51L106 51L106 63L112 63C112.566 55.5843 118.434 55.5843 119 63L137 63L137 69L143 69L143 63L149 63C149.335 58.6057 150.556 56.7088 155 56L155 44L162 44L162 56L168 56L168 38L180 38L180 32L156 32z"/>
<path style="fill:#9d9d9d; stroke:none;" d="M180 32L180 38L181 38L180 32z"/>
<path style="fill:#020202; stroke:none;" d="M181 32L181 39L169 39L169 57L161 57L161 45L156 45L156 57L150 57C149.665 61.3943 148.444 63.2912 144 64C143.291 68.4442 141.394 69.6648 137 70L137 76L131 76C131 86.2717 129.61 88.9988 119 89L119 100L124 100L124 94L131 94L131 107L125 107L125 119L130 119L130 113L150 113L150 119L155 119L155 113L162 113L162 119L168 119L168 107L155 107L155 101L150 101L150 107L143 107L143 101C135.584 100.434 135.584 94.5658 143 94L143 88L149 88L149 81L155 81L155 76L149 76L149 69L155 69L155 63L162 63L162 70L156 70L156 75L180 75L180 70L168 70L168 63L180 63L180 57L174 57L174 44L181 44L181 50L186 50L186 32L181 32z"/>
<path style="fill:#343434; stroke:none;" d="M186 32L186 50L187 50L186 32z"/>
<path style="fill:#9d9d9d; stroke:none;" d="M19 38L19 39L37 39L19 38z"/>
<path style="fill:#343434; stroke:none;" d="M56 38L56 39L62 39L56 38M87 38L87 44L88 44L87 38z"/>
<path style="fill:#9d9d9d; stroke:none;" d="M112 38L112 39L130 39L130 57L131 57L131 38L112 38M137 38L137 39L155 39L137 38z"/>
<path style="fill:#636363; stroke:none;" d="M168 38L169 39L168 38z"/>
<path style="fill:#343434; stroke:none;" d="M169 38L169 39L181 39L169 38z"/>
<path style="fill:#9d9d9d; stroke:none;" d="M55 39L55 50L56 50L55 39z"/>
<path style="fill:#020202; stroke:none;" d="M56 39L56 50L62 50L62 39L56 39z"/>
<path style="fill:#343434; stroke:none;" d="M136 39L136 50L137 50L136 39M168 39L168 57L169 57L168 39M43 44L44 45L43 44z"/>
<path style="fill:#636363; stroke:none;" d="M81 44L81 45L87 45L81 44z"/>
<path style="fill:#9d9d9d; stroke:none;" d="M87 44L87 45L93 45L87 44z"/>
<path style="fill:#343434; stroke:none;" d="M93 44L94 45L93 44M99 44L100 45L99 44z"/>
<path style="fill:#9d9d9d; stroke:none;" d="M100 44L100 45L105 45L105 50C100.635 50.3401 99.3401 51.6353 99 56L94 56C93.619 51.1104 91.724 50.1551 87 50L87 51L93 51L93 57C97.724 56.8449 99.619 55.8896 100 51L106 51C105.845 46.276 104.89 44.381 100 44z"/>
<path style="fill:#636363; stroke:none;" d="M105 44L106 45L105 44z"/>
<path style="fill:#9d9d9d; stroke:none;" d="M118 44L119 45L118 44z"/>
<path style="fill:#636363; stroke:none;" d="M124 51L124 50L119 50L119 45L124 45C117.73 42.6181 116.744 50.4347 124 51z"/>
<path style="fill:#9d9d9d; stroke:none;" d="M124 44L124 51L125 51L124 44M143 44L144 45L143 44z"/>
<path style="fill:#636363; stroke:none;" d="M144 44L144 45L149 45L144 44z"/>
<path style="fill:#9d9d9d; stroke:none;" d="M149 44L149 51L150 51L149 44M155 44L155 56L150 56L150 57L156 57L155 44z"/>
<path style="fill:#636363; stroke:none;" d="M156 44L156 45L162 45L156 44M174 44L175 45L174 44z"/>
<path style="fill:#9d9d9d; stroke:none;" d="M175 44L175 45L180 45L180 51C181.848 46.4364 179.5 44.3506 175 44z"/>
<path style="fill:#636363; stroke:none;" d="M180 44L181 45L180 44z"/>
<path style="fill:#343434; stroke:none;" d="M199 44L200 45L199 44z"/>
<path style="fill:#636363; stroke:none;" d="M200 44L200 45L230 45L200 44z"/>
<path style="fill:#343434; stroke:none;" d="M230 44L231 45L230 44z"/>
<path style="fill:#9d9d9d; stroke:none;" d="M80 45L80 63L81 63L80 45z"/>
<path style="fill:#020202; stroke:none;" d="M81 45L81 63L87 63L87 56L93 56L93 51L87 51L87 45L81 45z"/>
<path style="fill:#fbfbfb; stroke:none;" d="M87 45L87 50L93 50L93 45L87 45z"/>
<path style="fill:#636363; stroke:none;" d="M93 45L93 51L100 51L100 45L99 45L99 50L94 50L93 45z"/>
<path style="fill:#fbfbfb; stroke:none;" d="M100 45L100 50L105 50L105 45L100 45z"/>
<path style="fill:#020202; stroke:none;" d="M119 45L119 50L124 50L124 45L119 45z"/>
<path style="fill:#343434; stroke:none;" d="M143 45L143 50L144 50L143 45z"/>
<path style="fill:#020202; stroke:none;" d="M144 45L144 50L149 50L149 45L144 45z"/>
<path style="fill:#343434; stroke:none;" d="M161 45L161 57L162 57L161 45z"/>
<path style="fill:#9d9d9d; stroke:none;" d="M174 45C174 50.8208 172.851 56.443 180 57L180 56L175 56L174 45M49 50L50 51L49 50z"/>
<path style="fill:#636363; stroke:none;" d="M56 50L56 51L62 51L56 50z"/>
<path style="fill:#9d9d9d; stroke:none;" d="M68 50L69 51L68 50M74 50L75 51L74 50z"/>
<path style="fill:#636363; stroke:none;" d="M106 50L106 51L112 51L106 50z"/>
<path style="fill:#9d9d9d; stroke:none;" d="M118 50L119 51L118 50M137 50L137 51L143 51L143 57C145.096 51.8236 141.736 50.1555 137 50z"/>
<path style="fill:#636363; stroke:none;" d="M143 50L143 51L149 51L143 50M181 50L181 51L186 51L181 50z"/>
<path style="fill:#9d9d9d; stroke:none;" d="M186 50L187 51L186 50M193 50L194 51L193 50z"/>
<path style="fill:#636363; stroke:none;" d="M194 50L194 51L236 51C225.012 46.3894 205.957 50 194 50z"/>
<path style="fill:#9d9d9d; stroke:none;" d="M236 50L237 51L236 50z"/>
<path style="fill:#fbfbfb; stroke:none;" d="M94 51L94 56L99 56L99 51L94 51z"/>
<path style="fill:#020202; stroke:none;" d="M100 51L100 57L94 57L94 63L100 63L100 69L112 69L112 64C104.122 63.399 105 57.4316 105 51L100 51z"/>
<path style="fill:#343434; stroke:none;" d="M105 51L105 63L106 63L105 51z"/>
<path style="fill:#9d9d9d; stroke:none;" d="M6 56L6 57L37 57L37 63C41.387 52.1646 12.3902 56 6 56M44 56L44 57L74 57L44 56z"/>
<path style="fill:#343434; stroke:none;" d="M87 56L87 57L93 57L87 56z"/>
<path style="fill:#636363; stroke:none;" d="M99 56L100 57L99 56z"/>
<path style="fill:#9d9d9d; stroke:none;" d="M113 56L113 57L118 57L118 63C119.848 58.4364 117.5 56.3506 113 56z"/>
<path style="fill:#343434; stroke:none;" d="M131 56L131 57L143 57L131 56z"/>
<path style="fill:#9d9d9d; stroke:none;" d="M162 56L162 57L168 57L162 56z"/>
<path style="fill:#636363; stroke:none;" d="M174 56L175 57L174 56z"/>
<path style="fill:#9d9d9d; stroke:none;" d="M187 56L187 57L193 57L193 69L181 69L181 63C178.302 69.6633 186.521 71.9364 191.682 69.3966C198.559 66.0126 193.061 56.199 187 56M200 56L200 57L205 57L200 56M211 81C206.11 81.381 205.155 83.276 205 88L206 88L206 82L212 82L212 57L218 57C207.508 52.752 211 75.1372 211 81M225 56L225 57L230 57L225 56z"/>
<path style="fill:#020202; stroke:none;" d="M6 57L6 63L13 63C12.6268 67.8916 10.8916 69.6268 6 70L6 81L12 81L12 75L18 75L18 63L31 63L31 69L38 69L38 75L49 75L49 70L43 70L43 64L37 64L37 57L6 57z"/>
<path style="fill:#636363; stroke:none;" d="M43 57L43 63L44 63L43 57z"/>
<path style="fill:#020202; stroke:none;" d="M44 57L44 63L50 63L50 69L56 69L56 75L62 75L62 63L74 63L74 57L44 57z"/>
<path style="fill:#636363; stroke:none;" d="M74 57L74 63L75 63L74 57M93 57L93 63L94 63L93 57z"/>
<path style="fill:#343434; stroke:none;" d="M112 57L112 63L106 63L106 64C110.736 63.8445 114.096 62.1764 112 57z"/>
<path style="fill:#020202; stroke:none;" d="M113 57L113 63L118 63L118 57L113 57z"/>
<path style="fill:#636363; stroke:none;" d="M149 57L149 63L150 63L149 57M180 57L180 63L181 63L180 57z"/>
<path style="fill:#020202; stroke:none;" d="M187 57L187 64L181 64L181 69L193 69L193 57L187 57z"/>
<path style="fill:#636363; stroke:none;" d="M199 57L199 69L193 69L193 70C200.457 69.7552 201.661 63.3416 199 57z"/>
<path style="fill:#020202; stroke:none;" d="M200 57L200 70L194 70L194 75L205 75L205 57L200 57z"/>
<path style="fill:#636363; stroke:none;" d="M205 57L205 75L193 75L193 76C205.004 76 210.248 69.5062 205 57z"/>
<path style="fill:#020202; stroke:none;" d="M212 57L212 82L206 82L206 88L219 88L219 100L231 100L231 113L236 113L236 95L230 95L230 89C225.556 88.2912 224.335 86.3943 224 82L218 82L218 75L224 75L224 69L230 69L230 57L225 57C224.627 61.8916 222.892 63.6268 218 64L218 57L212 57z"/>
<path style="fill:#636363; stroke:none;" d="M224 57L224 63L225 63L224 57M230 57C230 62.9701 228.519 69.4172 236 70L236 69L231 69L230 57z"/>
<path style="fill:#9d9d9d; stroke:none;" d="M186 62L187 63L186 62z"/>
<path style="fill:#343434; stroke:none;" d="M12 63L12 69L13 69L12 63z"/>
<path style="fill:#636363; stroke:none;" d="M18 63L19 64L18 63z"/>
<path style="fill:#fbfbfb; stroke:none;" d="M19 63L19 75L24 75L24 69L31 69C30.443 61.8515 24.8208 63 19 63z"/>
<path style="fill:#9d9d9d; stroke:none;" d="M30 63L31 64L30 63z"/>
<path style="fill:#343434; stroke:none;" d="M37 63L37 64L43 64L37 63z"/>
<path style="fill:#9d9d9d; stroke:none;" d="M43 63L43 69L44 69L43 63z"/>
<path style="fill:#fbfbfb; stroke:none;" d="M44 63L44 69L49 69L49 63L44 63z"/>
<path style="fill:#636363; stroke:none;" d="M49 63L50 64L49 63z"/>
<path style="fill:#9d9d9d; stroke:none;" d="M62 63L63 64L62 63z"/>
<path style="fill:#636363; stroke:none;" d="M99 63L100 64L99 63z"/>
<path style="fill:#9d9d9d; stroke:none;" d="M112 63L113 64L112 63z"/>
<path style="fill:#fbfbfb; stroke:none;" d="M112 69L118 69L118 63C113.635 63.3401 112.34 64.6353 112 69z"/>
<path style="fill:#636363; stroke:none;" d="M118 63L118 69L112 69L112 70C116.737 69.8445 120.096 68.1764 118 63z"/>
<path style="fill:#343434; stroke:none;" d="M119 63L119 64L136 64L136 69L137 69L137 63L119 63z"/>
<path style="fill:#636363; stroke:none;" d="M143 63L144 64L143 63z"/>
<path style="fill:#343434; stroke:none;" d="M144 63L144 64L149 64L144 63M155 63L156 64L155 63z"/>
<path style="fill:#fbfbfb; stroke:none;" d="M156 63L156 69L162 69C161.66 64.6353 160.365 63.3401 156 63z"/>
<path style="fill:#9d9d9d; stroke:none;" d="M161 63L162 64L161 63M168 63L168 69L169 69L168 63z"/>
<path style="fill:#fbfbfb; stroke:none;" d="M169 63L169 69L180 69L180 63L169 63z"/>
<path style="fill:#343434; stroke:none;" d="M181 63L181 64L187 64L181 63M218 63L218 64L224 64L218 63z"/>
<path style="fill:#9d9d9d; stroke:none;" d="M18 64L18 76L25 76L25 69L24 69L24 75L19 75L18 64M49 64C49.3401 68.3647 50.6353 69.6599 55 70L55 75C50.6353 75.3401 49.3401 76.6353 49 81L44 81L44 82C48.3647 81.6599 49.6599 80.3647 50 76L56 76C55.8449 71.276 54.8896 69.381 50 69L49 64M99 64L99 69L100 69L99 64z"/>
<path style="fill:#020202; stroke:none;" d="M119 64L119 70L113 70L113 75L119 75L119 81L124 81L124 69L136 69L136 64L119 64z"/>
<path style="fill:#343434; stroke:none;" d="M143 64L143 69L144 69L143 64z"/>
<path style="fill:#636363; stroke:none;" d="M155 64C155.381 68.8896 157.276 69.8449 162 70L162 69L156 69L155 64M6 69L6 70L12 70L6 69M25 69L25 70L31 70L25 69z"/>
<path style="fill:#9d9d9d; stroke:none;" d="M31 69L31 70L37 70L31 69z"/>
<path style="fill:#343434; stroke:none;" d="M37 69L37 75L38 75L37 69M43 69L44 70L43 69z"/>
<path style="fill:#636363; stroke:none;" d="M44 69L44 70L49 70L49 75L38 75L38 76L50 76L50 69L44 69M55 69L56 70L55 69z"/>
<path style="fill:#9d9d9d; stroke:none;" d="M74 69L74 81L69 81L69 82C75.8678 81.4649 76.3335 74.5611 74 69z"/>
<path style="fill:#636363; stroke:none;" d="M75 69L75 70L87 70L75 69z"/>
<path style="fill:#9d9d9d; stroke:none;" d="M100 69L100 70L112 70L100 69z"/>
<path style="fill:#343434; stroke:none;" d="M118 69L119 70L118 69z"/>
<path style="fill:#636363; stroke:none;" d="M124 69L125 70L124 69z"/>
<path style="fill:#9d9d9d; stroke:none;" d="M124 82L125 82L125 70L137 70C125.804 65.302 124 72.8759 124 82z"/>
<path style="fill:#636363; stroke:none;" d="M137 69L137 70L143 70L137 69M149 69L150 70L149 69z"/>
<path style="fill:#9d9d9d; stroke:none;" d="M156 76L156 69C147.959 69.264 147.959 75.736 156 76z"/>
<path style="fill:#343434; stroke:none;" d="M168 69L169 70L168 69z"/>
<path style="fill:#636363; stroke:none;" d="M169 69L169 70L180 70L180 75C172.718 75 155.753 71.334 155 81L156 81L156 76L181 76L181 69L169 69z"/>
<path style="fill:#343434; stroke:none;" d="M199 69L200 70L199 69z"/>
<path style="fill:#636363; stroke:none;" d="M224 69L225 70L224 69z"/>
<path style="fill:#9d9d9d; stroke:none;" d="M224 76L231 76L231 69C225.69 69.1744 224.174 70.6899 224 76M236 69L237 70L236 69z"/>
<path style="fill:#020202; stroke:none;" d="M25 70L25 75L30 75L30 70L25 70z"/>
<path style="fill:#343434; stroke:none;" d="M30 70L30 75L31 75L30 70z"/>
<path style="fill:#fbfbfb; stroke:none;" d="M50 70L50 75L55 75L55 70L50 70z"/>
<path style="fill:#020202; stroke:none;" d="M75 70L75 82L69 82L69 88L80 88C80 81.5684 79.1217 75.601 87 75L87 70L75 70z"/>
<path style="fill:#343434; stroke:none;" d="M112 70L112 75L113 75L112 70z"/>
<path style="fill:#fbfbfb; stroke:none;" d="M125 70L125 82L119 82L119 88L130 88C130 81.5684 129.122 75.601 137 75L137 70L125 70M150 70L150 75L155 75L155 70L150 70M181 70L181 75L193 75L193 70L181 70z"/>
<path style="fill:#343434; stroke:none;" d="M193 70L193 75L194 75L193 70z"/>
<path style="fill:#fbfbfb; stroke:none;" d="M225 70L225 75L230 75L230 70L225 70z"/>
<path style="fill:#020202; stroke:none;" d="M231 70L231 75L236 75L236 70L231 70z"/>
<path style="fill:#343434; stroke:none;" d="M236 70L236 75L237 75L236 70z"/>
<path style="fill:#636363; stroke:none;" d="M12 75L12 76L18 76L12 75M25 75L25 76L30 76L25 75z"/>
<path style="fill:#9d9d9d; stroke:none;" d="M30 75L31 76L30 75M37 75L38 76L37 75z"/>
<path style="fill:#636363; stroke:none;" d="M56 75L56 76L62 76L56 75M81 75L81 76L87 76L81 75z"/>
<path style="fill:#9d9d9d; stroke:none;" d="M93 75L93 76L100 76L93 75M105 88L106 88L106 76L112 76C103.797 72.679 105 82.7888 105 88z"/>
<path style="fill:#636363; stroke:none;" d="M112 75L112 76L118 76L118 82C120.096 76.8236 116.736 75.1555 112 75z"/>
<path style="fill:#343434; stroke:none;" d="M118 75L119 76L118 75z"/>
<path style="fill:#9d9d9d; stroke:none;" d="M131 75L131 76L136 76L131 75z"/>
<path style="fill:#636363; stroke:none;" d="M136 75L137 76L136 75M149 75L150 76L149 75z"/>
<path style="fill:#9d9d9d; stroke:none;" d="M180 82L181 82L181 76L193 76L193 82L199 82L199 88L200 88C199.845 83.276 198.89 81.381 194 81C193.296 71.9651 180.297 72.95 180 82M205 75L206 76L205 75z"/>
<path style="fill:#636363; stroke:none;" d="M218 75L218 76L224 76L224 82C226.096 76.8236 222.736 75.1555 218 75M231 75L231 76L236 76L231 75z"/>
<path style="fill:#9d9d9d; stroke:none;" d="M236 75L237 76L236 75M12 76L12 81L13 81L12 76z"/>
<path style="fill:#636363; stroke:none;" d="M18 76L18 81L19 81L18 76z"/>
<path style="fill:#020202; stroke:none;" d="M19 76L19 81L24 81L24 76L19 76z"/>
<path style="fill:#636363; stroke:none;" d="M24 76L24 81L25 81L24 76z"/>
<path style="fill:#020202; stroke:none;" d="M50 76L50 82L44 82L44 88L55 88L55 76L50 76z"/>
<path style="fill:#343434; stroke:none;" d="M55 76L55 88L56 88L55 76M80 76C80 79.145 78.9529 84.7768 81.0278 87.3966C84.331 91.5672 99.9978 89 105 89L105 94L106 94C105.247 84.334 88.2818 88 81 88L80 76z"/>
<path style="fill:#636363; stroke:none;" d="M93 76L93 82L94 82L93 76z"/>
<path style="fill:#020202; stroke:none;" d="M94 76L94 81L99 81L99 76L94 76z"/>
<path style="fill:#636363; stroke:none;" d="M99 76L99 81L100 81L99 76z"/>
<path style="fill:#020202; stroke:none;" d="M106 76L106 88L118 88L118 82L112 82L112 76L106 76z"/>
<path style="fill:#fbfbfb; stroke:none;" d="M112 76L112 81L118 81L118 76L112 76z"/>
<path style="fill:#9d9d9d; stroke:none;" d="M130 76L130 88L131 88L130 76z"/>
<path style="fill:#fbfbfb; stroke:none;" d="M156 76L156 82L150 82L150 88L156 88L156 95C151.108 94.6268 149.373 92.8915 149 88L144 88C143.627 92.8916 141.892 94.6268 137 95L137 100C141.394 100.335 143.291 101.556 144 106L149 106L149 100L156 100L156 106L168 106L168 100L174 100L174 94L187 94L187 82L180 82L180 76L156 76z"/>
<path style="fill:#020202; stroke:none;" d="M181 76L181 81L187 81L187 94L193 94L193 88L199 88L199 82L193 82L193 76L181 76z"/>
<path style="fill:#fbfbfb; stroke:none;" d="M218 76L218 81L224 81L224 76L218 76z"/>
<path style="fill:#020202; stroke:none;" d="M225 76L225 81L230 81L230 76L225 76z"/>
<path style="fill:#636363; stroke:none;" d="M230 76L230 82L231 82L230 76z"/>
<path style="fill:#343434; stroke:none;" d="M6 81L6 82L12 82L6 81z"/>
<path style="fill:#9d9d9d; stroke:none;" d="M18 81L19 82L18 81z"/>
<path style="fill:#343434; stroke:none;" d="M19 81L19 82L24 82L19 81z"/>
<path style="fill:#9d9d9d; stroke:none;" d="M24 81L25 82L24 81z"/>
<path style="fill:#636363; stroke:none;" d="M49 81L50 82L49 81M74 81L75 82L74 81z"/>
<path style="fill:#343434; stroke:none;" d="M94 81L94 82L99 82L94 81z"/>
<path style="fill:#9d9d9d; stroke:none;" d="M99 81L100 82L99 81M112 81L112 82L118 82L112 81z"/>
<path style="fill:#343434; stroke:none;" d="M119 81L119 82L124 82L119 81M149 81L149 82L155 82L149 81z"/>
<path style="fill:#9d9d9d; stroke:none;" d="M155 81L156 82L155 81M162 81L162 82L174 82L174 88C177.321 79.7975 167.211 81 162 81z"/>
<path style="fill:#343434; stroke:none;" d="M181 81L181 82L187 82L181 81z"/>
<path style="fill:#9d9d9d; stroke:none;" d="M218 81L218 82L224 82L218 81z"/>
<path style="fill:#343434; stroke:none;" d="M225 81L225 82L230 82L225 81z"/>
<path style="fill:#9d9d9d; stroke:none;" d="M230 88L231 88L231 82L236 82C231.177 80.1678 230.137 83.8362 230 88z"/>
<path style="fill:#636363; stroke:none;" d="M43 82L43 88L44 88L43 82M68 82L68 88L69 88L68 82z"/>
<path style="fill:#9d9d9d; stroke:none;" d="M118 82L118 88L119 88L118 82M149 82L149 88L150 88L149 82z"/>
<path style="fill:#020202; stroke:none;" d="M162 82L162 88L174 88L174 82L162 82z"/>
<path style="fill:#9d9d9d; stroke:none;" d="M224 82L224 88L225 88L224 82z"/>
<path style="fill:#fbfbfb; stroke:none;" d="M225 82L225 88L230 88L230 82L225 82z"/>
<path style="fill:#020202; stroke:none;" d="M231 82L231 88L236 88L236 82L231 82z"/>
<path style="fill:#343434; stroke:none;" d="M236 82L236 88L237 88L236 82M6 88L6 89L12 89L6 88z"/>
<path style="fill:#9d9d9d; stroke:none;" d="M12 88L12 101L18 101L18 100L13 100L12 88M18 88L19 89L18 88z"/>
<path style="fill:#343434; stroke:none;" d="M19 88L19 89L37 89L19 88z"/>
<path style="fill:#9d9d9d; stroke:none;" d="M80 88C80.1744 93.3101 81.6899 94.8256 87 95L87 94L81 94L80 88z"/>
<path style="fill:#636363; stroke:none;" d="M105 88L106 89L105 88M118 88C118 93.97 116.519 100.417 124 101L124 100L119 100L118 88z"/>
<path style="fill:#343434; stroke:none;" d="M119 88L119 89L130 89L119 88z"/>
<path style="fill:#9d9d9d; stroke:none;" d="M143 88L143 94L144 94L143 88z"/>
<path style="fill:#636363; stroke:none;" d="M149 88L149 94L150 94L149 88z"/>
<path style="fill:#343434; stroke:none;" d="M150 88L150 89L155 89L150 88z"/>
<path style="fill:#636363; stroke:none;" d="M155 88L155 94L156 94L155 88z"/>
<path style="fill:#9d9d9d; stroke:none;" d="M193 88L193 94L187 94L187 95C191.736 94.8445 195.096 93.1764 193 88z"/>
<path style="fill:#fbfbfb; stroke:none;" d="M194 88L194 94L199 94L199 88L194 88z"/>
<path style="fill:#636363; stroke:none;" d="M199 88L199 94L193 94L193 95C197.736 94.8445 201.096 93.1764 199 88z"/>
<path style="fill:#343434; stroke:none;" d="M200 88L200 89L205 89L200 88z"/>
<path style="fill:#636363; stroke:none;" d="M205 88L205 94L206 94L205 88z"/>
<path style="fill:#fbfbfb; stroke:none;" d="M206 88C205.665 92.3943 204.444 94.2912 200 95L200 101L194 101L194 106L211 106C211.709 101.556 213.606 100.335 218 100L218 88L206 88z"/>
<path style="fill:#343434; stroke:none;" d="M218 88L218 100L219 100L218 88M225 88L225 89L230 89L225 88z"/>
<path style="fill:#636363; stroke:none;" d="M230 88C230.174 93.3101 231.69 94.8256 237 95L237 94L231 94L230 88z"/>
<path style="fill:#020202; stroke:none;" d="M6 89L6 100L12 100L12 89L6 89z"/>
<path style="fill:#636363; stroke:none;" d="M18 89L18 100L19 100L18 89z"/>
<path style="fill:#020202; stroke:none;" d="M19 89L19 101L13 101L13 119L19 119L19 125L25 125L25 131L37 131L37 125L49 125L49 120L43 120L43 113L49 113L49 107L43 107L43 100L56 100C56 106.003 57.3811 112.823 50 114L50 119L56 119L56 126L50 126L50 131L56 131L56 137C60.8916 137.373 62.6268 139.108 63 144L69 144L69 151C62.9966 151 56.1771 152.381 55 145L38 145L38 157L31 157L31 175L49 175L49 170L37 170L37 162C43.4316 162 49.399 161.122 50 169L62 169L62 156L69 156L69 175L75 175L75 182L69 182L69 188L62 188L62 182L56 182L56 200L62 200L62 194L74 194C74.3352 189.606 75.5558 187.709 80 187L80 175L87 175L87 170C83.6768 170 78.1882 170.981 75.6034 168.397C70.7586 163.552 74 144.622 74 138L68 138L68 132L62 132L62 119L68 119L68 114C59.414 112.631 62 101.684 62 95L37 95L37 89L19 89z"/>
<path style="fill:#9d9d9d; stroke:none;" d="M37 89L37 94L38 94L37 89z"/>
<path style="fill:#020202; stroke:none;" d="M81 89L81 94C88.4157 94.5658 88.4157 100.434 81 101L81 113C85.8896 112.619 86.8449 110.724 87 106L93 106L93 100L100 100L100 107L94 107L94 113L100 113L100 119L112 119L112 114C103.747 113.37 105 106.597 105 100L112 100L112 95C107.606 94.6648 105.709 93.4442 105 89L81 89M150 89L150 94L155 94L155 89L150 89M200 89L200 94L205 94L205 89L200 89z"/>
<path style="fill:#343434; stroke:none;" d="M24 94L25 95L24 94z"/>
<path style="fill:#9d9d9d; stroke:none;" d="M25 94L25 95L31 95L25 94z"/>
<path style="fill:#343434; stroke:none;" d="M37 94L38 95L37 94z"/>
<path style="fill:#636363; stroke:none;" d="M38 94L38 95L62 95L38 94z"/>
<path style="fill:#9d9d9d; stroke:none;" d="M68 94L69 95L68 94z"/>
<path style="fill:#636363; stroke:none;" d="M69.6034 95.0463C66.4475 97.4373 70.2145 102.365 73.3966 99.9537C76.5525 97.5627 72.7855 92.6354 69.6034 95.0463z"/>
<path style="fill:#9d9d9d; stroke:none;" d="M74 94L75 95L74 94z"/>
<path style="fill:#636363; stroke:none;" d="M106 94L106 95L112 95L106 94M124 94L125 95L124 94z"/>
<path style="fill:#9d9d9d; stroke:none;" d="M125 94L125 95L130 95L130 106L125 106C132.522 108.858 133.695 94.6775 125 94z"/>
<path style="fill:#636363; stroke:none;" d="M130 94L131 95L130 94z"/>
<path style="fill:#9d9d9d; stroke:none;" d="M137 94L137 95L143 95L137 94M150 94L150 95L156 95L150 94M174 94L175 95L174 94z"/>
<path style="fill:#636363; stroke:none;" d="M174 101L180 101L180 100L175 100L175 95L187 95C180.658 92.339 174.245 93.5433 174 101z"/>
<path style="fill:#9d9d9d; stroke:none;" d="M199 94L199 101L200 101L200 95L205 95L199 94z"/>
<path style="fill:#343434; stroke:none;" d="M230 94L231 95L230 94z"/>
<path style="fill:#636363; stroke:none;" d="M24 95L24 100L25 100L24 95z"/>
<path style="fill:#fbfbfb; stroke:none;" d="M25 95L25 100L31 100L31 95L25 95z"/>
<path style="fill:#020202; stroke:none;" d="M69 95L69 100L74 100L74 95L69 95z"/>
<path style="fill:#343434; stroke:none;" d="M87 95L87 100L88 100L87 95z"/>
<path style="fill:#9d9d9d; stroke:none;" d="M124 95L124 101L125 101L124 95z"/>
<path style="fill:#343434; stroke:none;" d="M136 95L136 100L137 100L136 95z"/>
<path style="fill:#020202; stroke:none;" d="M175 95L175 100L181 100L181 106L193 106L193 101C188.606 100.665 186.709 99.4442 186 95L175 95z"/>
<path style="fill:#343434; stroke:none;" d="M186 95L186 100L187 100L186 95z"/>
<path style="fill:#fbfbfb; stroke:none;" d="M187 95L187 100L193 100L193 95L187 95z"/>
<path style="fill:#343434; stroke:none;" d="M193 95L193 100L194 100L193 95z"/>
<path style="fill:#020202; stroke:none;" d="M194 95L194 100L199 100L199 95L194 95z"/>
<path style="fill:#343434; stroke:none;" d="M236 95L236 112L237 112L236 95z"/>
<path style="fill:#636363; stroke:none;" d="M6 100L6 101L12 101L6 100z"/>
<path style="fill:#343434; stroke:none;" d="M18 100L19 101L18 100M24 100L25 101L24 100z"/>
<path style="fill:#9d9d9d; stroke:none;" d="M25 100L25 101L31 101L25 100z"/>
<path style="fill:#636363; stroke:none;" d="M31 100L31 101L37 101L31 100z"/>
<path style="fill:#343434; stroke:none;" d="M43 100L44 101L43 100z"/>
<path style="fill:#636363; stroke:none;" d="M44 100L44 101L56 101L44 100z"/>
<path style="fill:#9d9d9d; stroke:none;" d="M68 100L69 101L68 100M74 100L75 101L74 100M81 100L81 101L86 101L81 100z"/>
<path style="fill:#636363; stroke:none;" d="M86 100L87 101L86 100M93 100L93 101L99 101L93 100z"/>
<path style="fill:#343434; stroke:none;" d="M99 100L100 101L99 100M105 100L105 113L106 113L105 100z"/>
<path style="fill:#636363; stroke:none;" d="M106 100L106 101L111 101L106 100z"/>
<path style="fill:#9d9d9d; stroke:none;" d="M111 100L112 101L111 100M118 100L119 101L118 100z"/>
<path style="fill:#636363; stroke:none;" d="M137 100L138 101L137 100z"/>
<path style="fill:#9d9d9d; stroke:none;" d="M138 100L138 101L143 101L138 100M149 100L149 101L156 101L149 100M168 100L168 101L174 101L174 107C176.096 101.824 172.736 100.156 168 100z"/>
<path style="fill:#343434; stroke:none;" d="M180 100L181 101L180 100z"/>
<path style="fill:#9d9d9d; stroke:none;" d="M187 100L187 101L193 101L193 107L212 107L212 101L218 101L218 100C213.276 100.155 211.381 101.11 211 106L194 106C193.619 101.11 191.724 100.155 187 100z"/>
<path style="fill:#636363; stroke:none;" d="M193 100L193 101L199 101L193 100M218 100L218 101L230 101L218 100z"/>
<path style="fill:#343434; stroke:none;" d="M230 100L231 101L230 100M12 101L12 119L13 119L12 101M30 101L30 107L31 107L30 101z"/>
<path style="fill:#fbfbfb; stroke:none;" d="M31 101L31 106L37 106L37 101L31 101z"/>
<path style="fill:#343434; stroke:none;" d="M37 101L37 107L38 107L37 101z"/>
<path style="fill:#9d9d9d; stroke:none;" d="M43 101C43.3401 105.365 44.6353 106.66 49 107L49 106L44 106L43 101z"/>
<path style="fill:#fbfbfb; stroke:none;" d="M44 101L44 106C48.4442 106.709 49.6648 108.606 50 113L55 113L55 101L44 101z"/>
<path style="fill:#9d9d9d; stroke:none;" d="M55 101L55 113L56 113L55 101M80 101L80 113L81 113L80 101M93 101L93 107C97.724 106.845 99.619 105.89 100 101L99 101L99 106L94 106L93 101z"/>
<path style="fill:#fbfbfb; stroke:none;" d="M94 101L94 106L99 106L99 101L94 101z"/>
<path style="fill:#9d9d9d; stroke:none;" d="M143 101L143 107L149 107L149 106L144 106L143 101z"/>
<path style="fill:#636363; stroke:none;" d="M149 101L149 107L150 107L149 101M155 101L155 106L156 106L155 101z"/>
<path style="fill:#343434; stroke:none;" d="M168 101C168.34 105.365 169.635 106.66 174 107L174 106L169 106L168 101z"/>
<path style="fill:#020202; stroke:none;" d="M169 101L169 106L174 106L174 101L169 101z"/>
<path style="fill:#fbfbfb; stroke:none;" d="M175 101L175 107L169 107L169 119L180 119L180 113L187 113L187 119C194.416 119.566 194.416 125.434 187 126L187 131L199 131L199 125L212 125L212 131L230 131L230 126L218 126L218 113L206 113C205.434 120.416 199.566 120.416 199 113L193 113L193 107L180 107L180 101L175 101z"/>
<path style="fill:#9d9d9d; stroke:none;" d="M180 101L180 107L181 107L180 101z"/>
<path style="fill:#020202; stroke:none;" d="M212 101L212 107L194 107L194 113L200 113L200 119L205 119L205 113L219 113L219 125L231 125L231 132L211 132L211 126L200 126L200 131L206 131L206 137C212.432 137 218.399 136.122 219 144L225 144L225 150L231 150L231 157L206 157L206 162L212 162L212 169L218 169L218 162C225.878 162.601 225 168.568 225 175L231 175L231 181L236 181L236 170C229.352 168.94 229.352 163.06 236 162L236 145L230 145C230.154 140.275 231.077 137.785 236 137L236 120L230 120L230 114C225.556 113.291 224.335 111.394 224 107L218 107L218 101L212 101z"/>
<path style="fill:#fbfbfb; stroke:none;" d="M218 101L218 106C222.892 106.373 224.627 108.108 225 113L230 113L230 101L218 101z"/>
<path style="fill:#9d9d9d; stroke:none;" d="M230 101L230 113L231 113L230 101M31 106L31 107L37 107L31 106z"/>
<path style="fill:#636363; stroke:none;" d="M43 106L44 107L43 106z"/>
<path style="fill:#9d9d9d; stroke:none;" d="M69 106L69 107L74 107L69 106z"/>
<path style="fill:#343434; stroke:none;" d="M87 106L87 107L93 107L87 106z"/>
<path style="fill:#636363; stroke:none;" d="M99 106L100 107L99 106z"/>
<path style="fill:#9d9d9d; stroke:none;" d="M112 106L112 107L118 107L118 113C120.096 107.824 116.736 106.156 112 106z"/>
<path style="fill:#636363; stroke:none;" d="M130 106L131 107L130 106z"/>
<path style="fill:#343434; stroke:none;" d="M155 106L156 107L155 106z"/>
<path style="fill:#9d9d9d; stroke:none;" d="M156 106L156 107L168 107L168 119L162 119C168.733 121.726 171.68 112.285 167.972 107.603C165.738 104.782 159.18 106 156 106z"/>
<path style="fill:#636363; stroke:none;" d="M168 106L169 107L168 106z"/>
<path style="fill:#343434; stroke:none;" d="M181 106L181 107L193 107L181 106z"/>
<path style="fill:#9d9d9d; stroke:none;" d="M218 106L218 107L224 107L218 106z"/>
<path style="fill:#636363; stroke:none;" d="M49 107L49 113L50 113L49 107M68 107L68 113L69 113L68 107z"/>
<path style="fill:#020202; stroke:none;" d="M69 107L69 113L74 113L74 107L69 107z"/>
<path style="fill:#636363; stroke:none;" d="M74 107L74 113L75 113L74 107M93 107L93 113L94 113L93 107z"/>
<path style="fill:#343434; stroke:none;" d="M112 107L112 113L106 113L106 114C110.737 113.844 114.096 112.176 112 107z"/>
<path style="fill:#020202; stroke:none;" d="M113 107L113 113L118 113L118 107L113 107z"/>
<path style="fill:#636363; stroke:none;" d="M124 107L124 119L125 119L124 107z"/>
<path style="fill:#343434; stroke:none;" d="M193 107L193 113L194 113L193 107z"/>
<path style="fill:#9d9d9d; stroke:none;" d="M224 107L224 113L225 113L224 107M62 112L63 113L62 112z"/>
<path style="fill:#343434; stroke:none;" d="M86 112L87 113L86 112z"/>
<path style="fill:#636363; stroke:none;" d="M236 112L237 113L236 112M24 113C24.1551 117.724 25.1104 119.619 30 120L30 119L25 119L24 113z"/>
<path style="fill:#fbfbfb; stroke:none;" d="M25 113L25 119L31 119C30.6599 114.635 29.3647 113.34 25 113z"/>
<path style="fill:#9d9d9d; stroke:none;" d="M30 113L31 114L30 113M43 113L43 119L44 119L43 113z"/>
<path style="fill:#fbfbfb; stroke:none;" d="M44 113L44 119L49 119L49 113L44 113z"/>
<path style="fill:#9d9d9d; stroke:none;" d="M49 113C49.1551 117.724 50.1104 119.619 55 120L55 125L56 125L56 119L50 119L49 113z"/>
<path style="fill:#343434; stroke:none;" d="M50 113L50 114L55 114L50 113M63 113L63 114L68 114L63 113z"/>
<path style="fill:#9d9d9d; stroke:none;" d="M68 113L68 119L69 119L68 113z"/>
<path style="fill:#636363; stroke:none;" d="M99 113L100 114L99 113z"/>
<path style="fill:#9d9d9d; stroke:none;" d="M112 113L113 114L112 113z"/>
<path style="fill:#343434; stroke:none;" d="M130 113L131 114L130 113z"/>
<path style="fill:#fbfbfb; stroke:none;" d="M131 113L131 119L149 119L149 113L131 113z"/>
<path style="fill:#636363; stroke:none;" d="M149 113L149 119L131 119L131 114L130 114C130.756 123.7 152.815 122.422 149 113M155 113C155.174 118.31 156.69 119.826 162 120L162 119L156 119L155 113z"/>
<path style="fill:#fbfbfb; stroke:none;" d="M156 113L156 119L162 119C161.66 114.635 160.365 113.34 156 113z"/>
<path style="fill:#9d9d9d; stroke:none;" d="M161 113L162 114L161 113M180 113L180 119L181 119L180 113z"/>
<path style="fill:#343434; stroke:none;" d="M181 113L181 114L186 114L186 119L187 119L187 113L181 113z"/>
<path style="fill:#636363; stroke:none;" d="M199 113L199 119L200 119L199 113M205 113L205 119L206 119L205 113z"/>
<path style="fill:#343434; stroke:none;" d="M218 113L218 125L219 125L218 113M225 113L225 114L230 114L225 113z"/>
<path style="fill:#636363; stroke:none;" d="M230 113C230.174 118.31 231.69 119.826 237 120L237 119L231 119L230 113z"/>
<path style="fill:#9d9d9d; stroke:none;" d="M99 114L99 119L100 119L99 114z"/>
<path style="fill:#020202; stroke:none;" d="M181 114L181 120L169 120L169 132L162 132L162 144L174 144L174 131L186 131C186.709 126.556 188.606 125.335 193 125L193 120C188.606 119.665 186.709 118.444 186 114L181 114z"/>
<path style="fill:#9d9d9d; stroke:none;" d="M12 119L12 120L18 120L12 119z"/>
<path style="fill:#636363; stroke:none;" d="M18 119L18 125L13 125L13 126L19 126L18 119z"/>
<path style="fill:#343434; stroke:none;" d="M24 119L25 120L24 119M30 119L31 120L30 119M43 119L44 120L43 119z"/>
<path style="fill:#636363; stroke:none;" d="M44 119L44 120L49 120L49 126L56 126L56 125L50 125L50 119L44 119z"/>
<path style="fill:#9d9d9d; stroke:none;" d="M62 119L62 120L68 120L62 119M74 119L74 138L75 138L74 119z"/>
<path style="fill:#636363; stroke:none;" d="M75 119L75 120L87 120L75 119z"/>
<path style="fill:#9d9d9d; stroke:none;" d="M100 119L100 120L112 120L100 119M125 119L125 120L130 120C130.34 124.365 131.635 125.66 136 126L136 125L131 125L131 119L125 119M149 119L149 125L150 125L150 120L155 120L155 125L156 125L156 119L149 119z"/>
<path style="fill:#636363; stroke:none;" d="M168 119L168 120L180 120L168 119z"/>
<path style="fill:#343434; stroke:none;" d="M180 119L181 120L180 119z"/>
<path style="fill:#636363; stroke:none;" d="M187 119L187 120L193 120L187 119z"/>
<path style="fill:#9d9d9d; stroke:none;" d="M200 119L200 120L205 120L200 119z"/>
<path style="fill:#343434; stroke:none;" d="M230 119L231 120L230 119z"/>
<path style="fill:#fbfbfb; stroke:none;" d="M50 120L50 125L55 125L55 120L50 120z"/>
<path style="fill:#020202; stroke:none;" d="M75 120L75 137L80 137L80 125L87 125L87 120L75 120M131 120L131 125L137 125L137 132L125 132L125 144L144 144L144 151L137 151L137 156L149 156L149 144L155 144L155 138L149 138L149 131L161 131L161 120L156 120L156 126L149 126L149 120L131 120z"/>
<path style="fill:#fbfbfb; stroke:none;" d="M150 120L150 125L155 125L155 120L150 120z"/>
<path style="fill:#343434; stroke:none;" d="M161 120L161 131L162 131L161 120z"/>
<path style="fill:#fbfbfb; stroke:none;" d="M162 120L162 131L168 131L168 120L162 120z"/>
<path style="fill:#343434; stroke:none;" d="M168 120L168 132L169 132L168 120z"/>
<path style="fill:#9d9d9d; stroke:none;" d="M193 120L193 125L194 125L193 120z"/>
<path style="fill:#343434; stroke:none;" d="M236 120L236 137L231 137L231 138C238.945 137.381 238.507 125.974 236 120z"/>
<path style="fill:#9d9d9d; stroke:none;" d="M12 125L13 126L12 125M25 132C24.5796 119.197 12.1973 131.58 25 132z"/>
<path style="fill:#636363; stroke:none;" d="M24 125L25 126L24 125M37 125L38 126L37 125z"/>
<path style="fill:#9d9d9d; stroke:none;" d="M37 131L38 131L38 126L49 126L49 131L44 131L44 132L50 132C49.7098 123.163 37.6959 122.068 37 131z"/>
<path style="fill:#343434; stroke:none;" d="M80 125L80 137L75 137L75 138C81.8678 137.465 82.3335 130.561 80 125z"/>
<path style="fill:#9d9d9d; stroke:none;" d="M81 125L81 126L87 126L81 125M93 125L94 126L93 125z"/>
<path style="fill:#636363; stroke:none;" d="M94.6034 126.046C91.4475 128.437 95.2145 133.365 98.3966 130.954C101.553 128.563 97.7855 123.635 94.6034 126.046z"/>
<path style="fill:#9d9d9d; stroke:none;" d="M99 125L100 126L99 125z"/>
<path style="fill:#636363; stroke:none;" d="M106 125L106 126L111 126L106 125z"/>
<path style="fill:#9d9d9d; stroke:none;" d="M111 125L112 126L111 125M118 125L119 126L118 125z"/>
<path style="fill:#636363; stroke:none;" d="M118 132L124 132L124 144L125 144L125 131L119 131L119 126L124 126C119.177 124.168 118.137 127.836 118 132z"/>
<path style="fill:#9d9d9d; stroke:none;" d="M124 125L124 131L125 131L124 125z"/>
<path style="fill:#636363; stroke:none;" d="M136 125L137 126L136 125z"/>
<path style="fill:#343434; stroke:none;" d="M149 125L150 126L149 125z"/>
<path style="fill:#636363; stroke:none;" d="M150 125L150 126L156 126L150 125M187 125L188 126L187 125z"/>
<path style="fill:#9d9d9d; stroke:none;" d="M188 125L188 126L193 126L188 125M199 125L200 126L199 125z"/>
<path style="fill:#636363; stroke:none;" d="M200 125L200 126L211 126L200 125z"/>
<path style="fill:#9d9d9d; stroke:none;" d="M211 125L212 126L211 125M218 125L218 126L230 126L230 131L212 131C215.817 132.602 224.837 133.295 228.681 131.397C234.684 128.432 227.014 125.063 224.004 125.005C222.004 124.966 220 125 218 125z"/>
<path style="fill:#343434; stroke:none;" d="M230 125L231 126L230 125M12 126C12 131.821 10.8514 137.443 18 138L18 137L13 137L12 126z"/>
<path style="fill:#020202; stroke:none;" d="M13 126L13 137C20.0591 138.126 19 144.16 19 150L30 150L30 144L37 144L37 138L24 138L24 132L18 132L18 126L13 126z"/>
<path style="fill:#fbfbfb; stroke:none;" d="M19 126L19 131L24 131L24 126L19 126M38 126C36.8742 133.059 30.8402 132 25 132L25 138C30.8402 138 36.8742 136.941 38 144L56 144L56 150L68 150L68 145L62 145L62 138C57.6057 137.665 55.7088 136.444 55 132L50 132L50 138L43 138C43.3352 133.606 44.5558 131.709 49 131L49 126L38 126z"/>
<path style="fill:#020202; stroke:none;" d="M94 126L94 131L99 131L99 126L94 126z"/>
<path style="fill:#9d9d9d; stroke:none;" d="M105 126L105 138L106 138L105 126z"/>
<path style="fill:#020202; stroke:none;" d="M106 126L106 137L118 137L118 132L112 132L112 126L106 126M119 126L119 131L124 131L124 126L119 126z"/>
<path style="fill:#343434; stroke:none;" d="M186 126L186 131L187 131L186 126z"/>
<path style="fill:#636363; stroke:none;" d="M199 126L199 132L205 132L205 131L200 131L199 126z"/>
<path style="fill:#343434; stroke:none;" d="M211 126L211 132L212 132L211 126z"/>
<path style="fill:#636363; stroke:none;" d="M18 131L19 132L18 131M25 131L25 132L37 132L25 131M50 131L50 132L55 132L50 131z"/>
<path style="fill:#343434; stroke:none;" d="M55 131L56 132L55 131z"/>
<path style="fill:#9d9d9d; stroke:none;" d="M62 131L62 132L68 132L62 131M93 131L94 132L93 131M99 131L100 132L99 131M112 131L112 132L118 132L112 131M125 131L125 132L137 132L125 131z"/>
<path style="fill:#343434; stroke:none;" d="M149 131L150 132L149 131z"/>
<path style="fill:#636363; stroke:none;" d="M150 131L150 132L162 132L150 131z"/>
<path style="fill:#9d9d9d; stroke:none;" d="M162 131L162 132L168 132L162 131z"/>
<path style="fill:#343434; stroke:none;" d="M174 131L175 132L174 131z"/>
<path style="fill:#636363; stroke:none;" d="M175 131L175 132L187 132L175 131z"/>
<path style="fill:#9d9d9d; stroke:none;" d="M187 131L187 132L199 132L199 138C202.321 129.797 192.211 131 187 131z"/>
<path style="fill:#343434; stroke:none;" d="M205 131L206 132L205 131z"/>
<path style="fill:#636363; stroke:none;" d="M230 131L231 132L230 131M24 132L24 138L25 138L24 132M43 132L43 138L44 138L43 132z"/>
<path style="fill:#020202; stroke:none;" d="M44 132L44 137L49 137L49 132L44 132z"/>
<path style="fill:#636363; stroke:none;" d="M49 132L49 138L50 138L49 132z"/>
<path style="fill:#9d9d9d; stroke:none;" d="M55 132L55 137L56 137L55 132M68 132L68 138L69 138L68 132M118 132L118 138L119 138L118 132z"/>
<path style="fill:#fbfbfb; stroke:none;" d="M119 132L119 138L106 138L106 144L112 144L112 151L106 151L106 163C110.89 162.619 111.845 160.724 112 156L118 156L118 150L131 150L131 156L137 156L137 150L143 150L143 145C130.413 145 124 146.373 124 132L119 132z"/>
<path style="fill:#9d9d9d; stroke:none;" d="M149 132L149 137L150 137L149 132z"/>
<path style="fill:#fbfbfb; stroke:none;" d="M150 132L150 138L156 138L156 144L162 144L162 132L150 132z"/>
<path style="fill:#9d9d9d; stroke:none;" d="M174 132L174 144L162 144L162 145C171.124 145 178.698 143.196 174 132z"/>
<path style="fill:#fbfbfb; stroke:none;" d="M175 132L175 144L180 144L180 138C184.724 137.845 186.619 136.89 187 132L175 132z"/>
<path style="fill:#020202; stroke:none;" d="M187 132L187 137L199 137L199 132L187 132z"/>
<path style="fill:#fbfbfb; stroke:none;" d="M200 132L200 138L205 138L205 132L200 132z"/>
<path style="fill:#9d9d9d; stroke:none;" d="M205 132L205 138L206 138L205 132z"/>
<path style="fill:#636363; stroke:none;" d="M12 137L13 138L12 137z"/>
<path style="fill:#343434; stroke:none;" d="M44 137L44 138L49 138L44 137M56 137L56 138L62 138L56 137z"/>
<path style="fill:#636363; stroke:none;" d="M80 137L81 138L80 137z"/>
<path style="fill:#343434; stroke:none;" d="M106 137L106 138L118 138L106 137z"/>
<path style="fill:#636363; stroke:none;" d="M149 137L150 138L149 137z"/>
<path style="fill:#9d9d9d; stroke:none;" d="M186 137L187 138L186 137z"/>
<path style="fill:#343434; stroke:none;" d="M186 150L187 150L187 138L199 138C187.804 133.302 186 140.876 186 150M206 137L206 138L218 138L218 144C221.321 135.797 211.211 137 206 137z"/>
<path style="fill:#636363; stroke:none;" d="M236 137L237 138L236 137z"/>
<path style="fill:#343434; stroke:none;" d="M6 138L7 139L6 138z"/>
<path style="fill:#020202; stroke:none;" d="M6 150L12 150L12 138C4.85145 138.557 6 144.179 6 150z"/>
<path style="fill:#9d9d9d; stroke:none;" d="M12 138L12 150L13 150L12 138z"/>
<path style="fill:#636363; stroke:none;" d="M18 138L18 150L19 150L18 138z"/>
<path style="fill:#343434; stroke:none;" d="M62 138L62 144L63 144L62 138z"/>
<path style="fill:#636363; stroke:none;" d="M74 138L74 169L75 169L74 138z"/>
<path style="fill:#fbfbfb; stroke:none;" d="M75 138L75 169L87 169L87 176L81 176L81 188L106 188L106 194L124 194L124 188L143 188L143 182C132.728 182 130.001 180.61 130 170C123.75 169.999 118.569 170.464 118 163L112 163L112 170C105.568 170 99.601 170.878 99 163L93 163L93 157L87 157L87 163L80 163C80 156.568 79.1217 150.601 87 150L87 145C82.1084 144.627 80.3732 142.892 80 138L75 138z"/>
<path style="fill:#9d9d9d; stroke:none;" d="M80 138C80.1744 143.31 81.6899 144.826 87 145L87 144L81 144L80 138z"/>
<path style="fill:#020202; stroke:none;" d="M81 138L81 144C88.4157 144.566 88.4157 150.434 81 151L81 162L87 162L87 156L93 156L93 150L100 150L100 157L94 157L94 162C98.4442 162.709 99.6648 164.606 100 169L112 169C111.619 164.11 109.724 163.155 105 163L105 150L112 150L112 145C107.108 144.627 105.373 142.892 105 138L81 138z"/>
<path style="fill:#636363; stroke:none;" d="M105 138L106 139L105 138M155 138L155 144L156 144L155 138z"/>
<path style="fill:#9d9d9d; stroke:none;" d="M180 138L180 144L181 144L180 138z"/>
<path style="fill:#020202; stroke:none;" d="M181 138L181 145L175 145L175 162L180 162L180 156L187 156L187 162L199 162L199 151C188.018 151 186 148.982 186 138L181 138z"/>
<path style="fill:#fbfbfb; stroke:none;" d="M187 138L187 150L199 150L199 138L187 138z"/>
<path style="fill:#636363; stroke:none;" d="M199 138L199 150L187 150L187 151C196.124 151 203.698 149.196 199 138z"/>
<path style="fill:#020202; stroke:none;" d="M200 138L200 150L205 150L205 138L200 138z"/>
<path style="fill:#636363; stroke:none;" d="M205 138L205 150L206 150L205 138z"/>
<path style="fill:#fbfbfb; stroke:none;" d="M206 138L206 151L200 151L200 163L205 163C205.817 152.296 222.077 156 230 156L230 151L224 151L224 145L218 145L218 138L206 138z"/>
<path style="fill:#636363; stroke:none;" d="M230 138L230 144L231 144L230 138z"/>
<path style="fill:#9d9d9d; stroke:none;" d="M37 139L37 144L31 144L31 145C35.1638 144.863 38.8323 143.823 37 139z"/>
<path style="fill:#343434; stroke:none;" d="M105 139L105 144L106 144L105 139M30 144L30 150L31 150L30 144z"/>
<path style="fill:#636363; stroke:none;" d="M37 144L38 145L37 144z"/>
<path style="fill:#343434; stroke:none;" d="M38 144L38 145L55 145L55 150C58.2321 141.493 42.8129 144 38 144z"/>
<path style="fill:#636363; stroke:none;" d="M55 144L56 145L55 144z"/>
<path style="fill:#9d9d9d; stroke:none;" d="M62 144L62 145L68 145L62 144z"/>
<path style="fill:#343434; stroke:none;" d="M68 144L69 145L68 144M106 144L106 145L111 145L106 144z"/>
<path style="fill:#636363; stroke:none;" d="M111 144L112 145L111 144z"/>
<path style="fill:#9d9d9d; stroke:none;" d="M125 144L125 145L143 145L125 144z"/>
<path style="fill:#343434; stroke:none;" d="M143 144L143 151L144 151L143 144z"/>
<path style="fill:#636363; stroke:none;" d="M149 144L150 145L149 144z"/>
<path style="fill:#9d9d9d; stroke:none;" d="M149 157L150 157L150 145L155 145L155 157L156 157L156 144C147.704 144.272 149 150.263 149 157z"/>
<path style="fill:#343434; stroke:none;" d="M156 144L156 145L161 145L161 156C163.288 150.547 162.571 144.512 156 144z"/>
<path style="fill:#636363; stroke:none;" d="M161 144L162 145L161 144M174 144L174 162L175 162L174 144z"/>
<path style="fill:#343434; stroke:none;" d="M175 144L175 145L181 145L175 144z"/>
<path style="fill:#9d9d9d; stroke:none;" d="M218 144L218 145L224 145L218 144z"/>
<path style="fill:#343434; stroke:none;" d="M224 144L225 145L224 144M230 144L230 145L236 145L236 162L231 162C238.632 164.9 241.105 144.365 230 144z"/>
<path style="fill:#636363; stroke:none;" d="M236 144L237 145L236 144z"/>
<path style="fill:#343434; stroke:none;" d="M37 145L37 157L38 157L37 145z"/>
<path style="fill:#636363; stroke:none;" d="M68 145L68 150L56 150L56 151C60.5567 151 70.8214 152.426 68 145z"/>
<path style="fill:#343434; stroke:none;" d="M87 145L87 150L88 150L87 145z"/>
<path style="fill:#fbfbfb; stroke:none;" d="M150 145L150 157L137 157C137.381 161.89 139.276 162.845 144 163L144 169L149 169L149 163L156 163C155.665 167.394 154.444 169.291 150 170L150 175L156 175L156 188C160.89 187.619 161.845 185.724 162 181L174 181L174 176L162 176L162 157L155 157L155 145L150 145z"/>
<path style="fill:#020202; stroke:none;" d="M156 145L156 156L161 156L161 145L156 145z"/>
<path style="fill:#fbfbfb; stroke:none;" d="M162 145L162 156C169.878 156.601 169 162.568 169 169L180 169L180 163L174 163L174 145L162 145z"/>
<path style="fill:#636363; stroke:none;" d="M224 145L224 150L225 150L224 145z"/>
<path style="fill:#9d9d9d; stroke:none;" d="M6 150L6 151L12 151L6 150M18 150L18 151L31 151L18 150z"/>
<path style="fill:#636363; stroke:none;" d="M43 150L44 151L43 150z"/>
<path style="fill:#9d9d9d; stroke:none;" d="M44.6034 151.046C41.4475 153.437 45.2145 158.365 48.3966 155.954C51.5525 153.563 47.7855 148.635 44.6034 151.046z"/>
<path style="fill:#636363; stroke:none;" d="M49 150L50 151L49 150z"/>
<path style="fill:#343434; stroke:none;" d="M68 150L69 151L68 150z"/>
<path style="fill:#636363; stroke:none;" d="M81 150L81 151L87 151L81 150M93 150L94 151L93 150z"/>
<path style="fill:#9d9d9d; stroke:none;" d="M93 157C105.803 156.58 93.4204 144.197 93 157z"/>
<path style="fill:#343434; stroke:none;" d="M99 150L100 151L99 150M105 150L105 163L106 163L105 150z"/>
<path style="fill:#9d9d9d; stroke:none;" d="M106 150L106 151L112 151L106 150M118 150L119 151L118 150z"/>
<path style="fill:#636363; stroke:none;" d="M118 157L131 157C130.687 147.478 118.313 147.478 118 157z"/>
<path style="fill:#9d9d9d; stroke:none;" d="M130 150L131 151L130 150M137 150L138 151L137 150z"/>
<path style="fill:#636363; stroke:none;" d="M138 150L138 151L143 151L138 150z"/>
<path style="fill:#9d9d9d; stroke:none;" d="M199 150L199 163L200 163L200 151L206 151L199 150M224 150L224 151L230 151L230 156L206 156C210.683 157.965 224.002 158.707 228.681 156.397C234.742 153.403 226.967 150.097 224 150z"/>
<path style="fill:#636363; stroke:none;" d="M230 150L231 151L230 150z"/>
<path style="fill:#fbfbfb; stroke:none;" d="M44 151L44 156L49 156L49 151L44 151z"/>
<path style="fill:#9d9d9d; stroke:none;" d="M80 151L80 163L81 163L80 151z"/>
<path style="fill:#fbfbfb; stroke:none;" d="M94 151L94 156L99 156L99 151L94 151z"/>
<path style="fill:#020202; stroke:none;" d="M119 151L119 156L130 156L130 151L119 151z"/>
<path style="fill:#9d9d9d; stroke:none;" d="M19 156L19 157L25 157L19 156M31 156L31 157L37 157L31 156z"/>
<path style="fill:#636363; stroke:none;" d="M43 156L44 157L43 156M49 156L50 157L49 156z"/>
<path style="fill:#343434; stroke:none;" d="M62 156L63 157L62 156z"/>
<path style="fill:#636363; stroke:none;" d="M63 156L63 157L68 157L68 175L63 175C70.9891 178.035 72.6672 156.753 63 156z"/>
<path style="fill:#343434; stroke:none;" d="M68 156L69 157L68 156M87 156L88 157L87 156z"/>
<path style="fill:#636363; stroke:none;" d="M88 156L88 157L93 157L88 156M99 156L100 157L99 156z"/>
<path style="fill:#9d9d9d; stroke:none;" d="M112 156L112 157L118 157L118 163C120.096 157.824 116.736 156.156 112 156M130 163L131 163L131 157L137 157C131.824 154.904 130.156 158.264 130 163z"/>
<path style="fill:#636363; stroke:none;" d="M137 156L137 157L149 157L137 156M156 156L156 157L162 157L156 156z"/>
<path style="fill:#9d9d9d; stroke:none;" d="M162 156L162 157L168 157L168 169C170.661 162.658 169.457 156.245 162 156z"/>
<path style="fill:#343434; stroke:none;" d="M180 156L181 157L180 156z"/>
<path style="fill:#636363; stroke:none;" d="M180 163L181 163L181 157L186 157C181.177 155.168 180.137 158.836 180 163z"/>
<path style="fill:#343434; stroke:none;" d="M186 156L187 157L186 156z"/>
<path style="fill:#636363; stroke:none;" d="M230 156L231 157L230 156M18 157L18 162L19 162L18 157z"/>
<path style="fill:#020202; stroke:none;" d="M19 157L19 162L24 162L24 157L19 157z"/>
<path style="fill:#636363; stroke:none;" d="M24 157L24 163L25 163L24 157M93 157L93 163L94 163L93 157z"/>
<path style="fill:#343434; stroke:none;" d="M112 157L111 164L118 163L118 162L113 162L112 157z"/>
<path style="fill:#020202; stroke:none;" d="M113 157L113 162L118 162L118 157L113 157z"/>
<path style="fill:#fbfbfb; stroke:none;" d="M119 157L119 163L130 163L130 157L119 157z"/>
<path style="fill:#020202; stroke:none;" d="M131 157L131 163L119 163L119 169L131 169L131 181L143 181L143 176C135.584 175.434 135.584 169.566 143 169L143 163C138.606 162.665 136.709 161.444 136 157L131 157z"/>
<path style="fill:#343434; stroke:none;" d="M136 157L136 162L137 162L136 157z"/>
<path style="fill:#020202; stroke:none;" d="M162 157L162 175L175 175L175 182L162 182L162 188L155 188L155 176L150 176L150 182L144 182L144 187C148.444 187.709 149.665 189.606 150 194L162 194L162 200L174 200L174 195L168 195L168 187C172.892 187.373 174.627 189.108 175 194L181 194L181 207L155 207L155 201L150 201L150 207L144 207L144 212C148.444 212.709 149.665 214.606 150 219L156 219L156 225L161 225C161 221.677 160.019 216.188 162.603 213.603C167.64 208.567 174.564 213.286 175 219L181 219L181 226L174 226L174 220L169 220L169 232L162 232L162 237L180 237L180 231C186.003 231 192.823 229.619 194 237L199 237L199 226L193 226L193 219L199 219L199 212L206 212L206 219L211 219C211.737 209.335 222.725 212 230 212L230 200L236 200L236 195L225 195L225 207L211 207L211 200L218 200L218 195C208.335 194.263 211 183.275 211 176L206 176L206 182L186 182L186 176L180 176L180 170L168 170L168 157L162 157z"/>
<path style="fill:#fbfbfb; stroke:none;" d="M181 157L181 163C185.365 162.66 186.66 161.365 187 157L181 157z"/>
<path style="fill:#9d9d9d; stroke:none;" d="M205 157L205 163L206 163L205 157M18 162L19 163L18 162z"/>
<path style="fill:#343434; stroke:none;" d="M19 162L19 163L24 163L19 162M37 162L37 163L49 163L37 162M81 162L81 163L87 163L81 162M94 162L94 163L99 163L94 162z"/>
<path style="fill:#9d9d9d; stroke:none;" d="M111 162L112 163L111 162M137 162L138 163L137 162M174 162L175 163L174 162z"/>
<path style="fill:#343434; stroke:none;" d="M175 162L175 163L180 163L175 162z"/>
<path style="fill:#9d9d9d; stroke:none;" d="M186 162L187 163L186 162z"/>
<path style="fill:#343434; stroke:none;" d="M193 170L193 169L187 169L187 163L199 163C189.183 158.881 180.769 169.598 193 170M206 162L206 163L212 163L206 162M218 162L218 163L224 163L218 162z"/>
<path style="fill:#636363; stroke:none;" d="M236 162L237 163L236 162z"/>
<path style="fill:#020202; stroke:none;" d="M6 163L6 187L12 187L12 163L6 163z"/>
<path style="fill:#9d9d9d; stroke:none;" d="M12 163L12 187L13 187L12 163M37 163L37 169L38 169L37 163z"/>
<path style="fill:#fbfbfb; stroke:none;" d="M38 163L38 169L49 169L49 163L38 163z"/>
<path style="fill:#9d9d9d; stroke:none;" d="M49 163C49.2724 171.296 55.263 170 62 170L62 169L50 169L49 163z"/>
<path style="fill:#636363; stroke:none;" d="M99 163L100 164L99 163M118 163L118 169L119 169L118 163z"/>
<path style="fill:#9d9d9d; stroke:none;" d="M143 163L143 169L137 169L137 170C141.736 169.844 145.096 168.176 143 163z"/>
<path style="fill:#636363; stroke:none;" d="M149 163L149 169L150 169L149 163z"/>
<path style="fill:#020202; stroke:none;" d="M150 163L150 169L155 169L155 163L150 163z"/>
<path style="fill:#636363; stroke:none;" d="M155 163L155 169L156 169L155 163z"/>
<path style="fill:#9d9d9d; stroke:none;" d="M180 163C180.174 168.31 181.69 169.826 187 170L187 169L181 169L180 163z"/>
<path style="fill:#020202; stroke:none;" d="M181 163L181 169L186 169L186 163L181 163z"/>
<path style="fill:#fbfbfb; stroke:none;" d="M187 163L187 169C194.416 169.566 194.416 175.434 187 176L187 181L205 181L205 176L199 176L199 163L187 163z"/>
<path style="fill:#636363; stroke:none;" d="M199 163L199 175L200 175L199 163z"/>
<path style="fill:#020202; stroke:none;" d="M200 163L200 175L205 175L205 163L200 163z"/>
<path style="fill:#636363; stroke:none;" d="M205 163C205 168.97 203.519 175.417 211 176L211 175L206 175L205 163z"/>
<path style="fill:#9d9d9d; stroke:none;" d="M211 163L211 169L212 169L211 163M218 163L219 164L218 163z"/>
<path style="fill:#636363; stroke:none;" d="M224 163L224 175L225 175L224 163M230 163L230 169L231 169L230 163z"/>
<path style="fill:#9d9d9d; stroke:none;" d="M99 164L99 169L100 169L99 164z"/>
<path style="fill:#343434; stroke:none;" d="M37 169L37 170L49 170L37 169z"/>
<path style="fill:#636363; stroke:none;" d="M49 169L49 175L50 175L49 169z"/>
<path style="fill:#343434; stroke:none;" d="M75 169L75 170L87 170L75 169z"/>
<path style="fill:#9d9d9d; stroke:none;" d="M100 169L100 170L112 170L100 169M119 169L119 170L130 170L130 181L131 181L131 169L119 169z"/>
<path style="fill:#636363; stroke:none;" d="M143 169L144 170L143 169z"/>
<path style="fill:#343434; stroke:none;" d="M143 175L144 175L144 170L149 170C144.733 168.379 143.31 171.021 143 175z"/>
<path style="fill:#9d9d9d; stroke:none;" d="M149 169L149 175L143 175L143 182L149 182L149 181L144 181L144 176C148.365 175.66 149.66 174.365 150 170L155 170L149 169z"/>
<path style="fill:#343434; stroke:none;" d="M168 169L168 170L180 170L168 169z"/>
<path style="fill:#636363; stroke:none;" d="M180 169C180.174 174.31 181.69 175.826 187 176L187 175L181 175L180 169z"/>
<path style="fill:#9d9d9d; stroke:none;" d="M212 169L212 170L218 170L212 169z"/>
<path style="fill:#343434; stroke:none;" d="M231 169L231 170L236 170L236 181C238.288 175.547 237.571 169.512 231 169z"/>
<path style="fill:#636363; stroke:none;" d="M236 169L237 170L236 169z"/>
<path style="fill:#343434; stroke:none;" d="M136 170L136 175L137 175L136 170z"/>
<path style="fill:#fbfbfb; stroke:none;" d="M137 170L137 175L143 175L143 170L137 170z"/>
<path style="fill:#020202; stroke:none;" d="M144 170L144 175L149 175L149 170L144 170z"/>
<path style="fill:#fbfbfb; stroke:none;" d="M181 170L181 175L187 175L187 170L181 170z"/>
<path style="fill:#020202; stroke:none;" d="M187 170L187 175L193 175L193 170L187 170z"/>
<path style="fill:#9d9d9d; stroke:none;" d="M193 170L193 175L194 175L193 170M18 175L19 176L18 175z"/>
<path style="fill:#636363; stroke:none;" d="M24 182L24 181L19 181L19 176L31 176C22.6461 172.495 12.8752 181.133 24 182z"/>
<path style="fill:#9d9d9d; stroke:none;" d="M31 175L31 176L50 176L31 175M62 175L63 176L62 175M68 175L68 182C76.0406 181.736 76.0406 175.264 68 175z"/>
<path style="fill:#636363; stroke:none;" d="M74 175L75 176L74 175z"/>
<path style="fill:#343434; stroke:none;" d="M80 175L80 187L75 187L75 188C81.8678 187.465 82.3335 180.561 80 175z"/>
<path style="fill:#9d9d9d; stroke:none;" d="M81 175L81 176L87 176L81 175M93 175L94 176L93 175z"/>
<path style="fill:#636363; stroke:none;" d="M94.6034 176.046C91.4475 178.437 95.2145 183.365 98.3966 180.954C101.553 178.563 97.7855 173.635 94.6034 176.046z"/>
<path style="fill:#9d9d9d; stroke:none;" d="M99 175L100 176L99 175z"/>
<path style="fill:#636363; stroke:none;" d="M106 175L106 176L112 176L106 175M137 175L137 176L143 176L137 175M149 175L149 181L150 181L150 176L155 176L155 187C157.611 180.779 156.105 175.233 149 175z"/>
<path style="fill:#9d9d9d; stroke:none;" d="M155 175L156 176L155 175M162 175L162 176L174 176L162 175z"/>
<path style="fill:#343434; stroke:none;" d="M174 175L175 176L174 175M180 175L181 176L180 175z"/>
<path style="fill:#9d9d9d; stroke:none;" d="M187 175L187 176L193 176L187 175M199 175L199 176L205 176L205 181L187 181L187 182C194.499 182 205.673 184.967 206 175L199 175M211 175L212 176L211 175M224 175L224 176L230 176L230 182C232.096 176.824 228.736 175.156 224 175z"/>
<path style="fill:#636363; stroke:none;" d="M230 175L231 176L230 175z"/>
<path style="fill:#020202; stroke:none;" d="M19 176L19 181L25 181L25 187L30 187L30 176L19 176z"/>
<path style="fill:#343434; stroke:none;" d="M30 176L30 187L25 187L25 188C31.5707 187.488 32.2884 181.453 30 176M62 176L62 181L63 181L62 176z"/>
<path style="fill:#020202; stroke:none;" d="M63 176L63 181L68 181L68 176L63 176z"/>
<path style="fill:#fbfbfb; stroke:none;" d="M69 176L69 181L74 181L74 176L69 176z"/>
<path style="fill:#020202; stroke:none;" d="M94 176L94 181L99 181L99 176L94 176z"/>
<path style="fill:#9d9d9d; stroke:none;" d="M105 176L105 181L106 181L105 176z"/>
<path style="fill:#020202; stroke:none;" d="M106 176L106 181L112 181L112 176L106 176z"/>
<path style="fill:#fbfbfb; stroke:none;" d="M144 176L144 181L149 181L149 176L144 176z"/>
<path style="fill:#636363; stroke:none;" d="M174 176L174 181L175 181L174 176z"/>
<path style="fill:#343434; stroke:none;" d="M186 176L186 182L187 182L186 176M211 176L211 194L212 194L211 176z"/>
<path style="fill:#9d9d9d; stroke:none;" d="M18 181L19 182L18 181z"/>
<path style="fill:#343434; stroke:none;" d="M24 181L25 182L24 181z"/>
<path style="fill:#9d9d9d; stroke:none;" d="M37 181L37 182L50 182L37 181M56 181L56 182L62 182L56 181z"/>
<path style="fill:#636363; stroke:none;" d="M62 181L62 182L68 182L68 188C70.0958 182.824 66.7365 181.156 62 181M74 181L75 182L74 181z"/>
<path style="fill:#9d9d9d; stroke:none;" d="M93 181L94 182L93 181M99 181L100 182L99 181z"/>
<path style="fill:#636363; stroke:none;" d="M106 181L106 182L112 182L106 181z"/>
<path style="fill:#9d9d9d; stroke:none;" d="M112 181L112 182L118 182L118 188C120.096 182.824 116.736 181.156 112 181z"/>
<path style="fill:#636363; stroke:none;" d="M131 181L131 182L143 182L131 181z"/>
<path style="fill:#343434; stroke:none;" d="M149 181L150 182L149 181z"/>
<path style="fill:#9d9d9d; stroke:none;" d="M162 181L162 182L174 182L162 181z"/>
<path style="fill:#343434; stroke:none;" d="M174 181L175 182L174 181z"/>
<path style="fill:#636363; stroke:none;" d="M205 181L206 182L205 181z"/>
<path style="fill:#9d9d9d; stroke:none;" d="M218 181L218 182L224 182L224 188C226.096 182.824 222.737 181.156 218 181z"/>
<path style="fill:#636363; stroke:none;" d="M231 181L231 182L236 182L231 181z"/>
<path style="fill:#9d9d9d; stroke:none;" d="M236 181L237 182L236 181M24 182L24 188L25 188L24 182z"/>
<path style="fill:#343434; stroke:none;" d="M37 182C37.557 189.149 43.1791 188 49 188L49 187L38 187L37 182z"/>
<path style="fill:#020202; stroke:none;" d="M38 182L38 187L49 187L49 182L38 182z"/>
<path style="fill:#636363; stroke:none;" d="M49 182L49 187L50 187L49 182z"/>
<path style="fill:#9d9d9d; stroke:none;" d="M55 182L55 200L56 200L55 182z"/>
<path style="fill:#fbfbfb; stroke:none;" d="M62 182C62.3401 186.365 63.6353 187.66 68 188L68 182L62 182z"/>
<path style="fill:#343434; stroke:none;" d="M112 182L112 188L118 188L118 187L113 187L112 182z"/>
<path style="fill:#020202; stroke:none;" d="M113 182L113 187L118 187L118 182L113 182z"/>
<path style="fill:#343434; stroke:none;" d="M143 182C143.34 186.365 144.635 187.66 149 188L149 187L144 187L143 182M218 182C218.34 186.365 219.635 187.66 224 188L224 187L219 187L218 182z"/>
<path style="fill:#020202; stroke:none;" d="M219 182L219 187L224 187L224 182L219 182z"/>
<path style="fill:#343434; stroke:none;" d="M6 187L6 188L12 188L6 187z"/>
<path style="fill:#636363; stroke:none;" d="M30 187L31 188L30 187M37 187L38 188L37 187z"/>
<path style="fill:#9d9d9d; stroke:none;" d="M49 187L50 188L49 187M62 187L63 188L62 187z"/>
<path style="fill:#636363; stroke:none;" d="M80 187L81 188L80 187M143 187L144 188L143 187z"/>
<path style="fill:#343434; stroke:none;" d="M155 187L156 188L155 187z"/>
<path style="fill:#9d9d9d; stroke:none;" d="M161 187L162 188L161 187z"/>
<path style="fill:#343434; stroke:none;" d="M168 187L168 188L174 188L168 187M186 206L187 206L187 188L205 188C201.392 186.486 188.708 185.041 186.603 189.318C184.507 193.577 186 201.315 186 206z"/>
<path style="fill:#636363; stroke:none;" d="M218 187L219 188L218 187M74 188L74 194L75 194L74 188z"/>
<path style="fill:#9d9d9d; stroke:none;" d="M80 188C80.1744 193.31 81.6899 194.826 87 195L87 194L81 194L80 188z"/>
<path style="fill:#020202; stroke:none;" d="M81 188L81 194L88 194C87.6268 198.892 85.8916 200.627 81 201L81 212L87 212L87 206L93 206L93 200L100 200L100 207L94 207L94 212C101.275 212 112.263 209.335 113 219L118 219L118 207L105 207L105 200L119 200L119 206L124 206L124 195C116.725 195 105.737 197.665 105 188L81 188z"/>
<path style="fill:#343434; stroke:none;" d="M105 188L105 194L106 194L105 188z"/>
<path style="fill:#9d9d9d; stroke:none;" d="M124 188L125 189L124 188z"/>
<path style="fill:#020202; stroke:none;" d="M125 188L125 194L143 194L143 188L125 188z"/>
<path style="fill:#9d9d9d; stroke:none;" d="M143 188L143 194C129.868 194 124 192.249 124 207L125 207L125 195C130.492 195 146.948 197.75 143 188z"/>
<path style="fill:#fbfbfb; stroke:none;" d="M144 188C143.263 197.665 132.275 195 125 195L125 207L119 207L119 219L124 219C124.335 214.606 125.556 212.709 130 212C130 208.887 129.179 204.028 131.603 201.603C136.083 197.124 143.155 200.704 144 206L149 206L149 200L156 200L156 206L180 206L180 195L175 195C173.874 202.059 167.84 201 162 201L162 195C155.568 195 149.601 195.878 149 188L144 188z"/>
<path style="fill:#636363; stroke:none;" d="M149 188L149 194L150 194L149 188z"/>
<path style="fill:#9d9d9d; stroke:none;" d="M168 188L168 194L169 194L168 188z"/>
<path style="fill:#fbfbfb; stroke:none;" d="M169 188L169 194L174 194L174 188L169 188z"/>
<path style="fill:#636363; stroke:none;" d="M174 188L174 194L175 194L174 188z"/>
<path style="fill:#fbfbfb; stroke:none;" d="M187 188L187 206L205 206L205 188L187 188z"/>
<path style="fill:#9d9d9d; stroke:none;" d="M205 188L205 206L187 206L187 207C191.685 207 199.422 208.493 203.682 206.397C207.959 204.292 206.514 191.608 205 188z"/>
<path style="fill:#636363; stroke:none;" d="M124 189L124 195L125 195L124 189z"/>
<path style="fill:#343434; stroke:none;" d="M6 194L6 195L49 195C37.7744 190.29 18.2189 194 6 194z"/>
<path style="fill:#9d9d9d; stroke:none;" d="M49 194L50 195L49 194M62 194L62 195L74 195L62 194z"/>
<path style="fill:#343434; stroke:none;" d="M87 194L87 200L88 200L87 194M106 194L106 195L124 195L106 194z"/>
<path style="fill:#9d9d9d; stroke:none;" d="M150 194L150 195L162 195L150 194z"/>
<path style="fill:#343434; stroke:none;" d="M168 194L168 195L174 195L168 194z"/>
<path style="fill:#9d9d9d; stroke:none;" d="M174 194L174 200L175 200L175 195L180 195L180 206L156 206C160.299 207.804 175.537 209.029 179.397 205.972C185.238 201.346 179.444 194.179 174 194z"/>
<path style="fill:#636363; stroke:none;" d="M180 194L181 195L180 194M193 194L194 195L193 194z"/>
<path style="fill:#343434; stroke:none;" d="M193 200L194 200L194 195L199 195C194.733 193.379 193.31 196.021 193 200z"/>
<path style="fill:#9d9d9d; stroke:none;" d="M199 194L199 200L193 200L193 201C197.737 200.844 201.096 199.176 199 194z"/>
<path style="fill:#343434; stroke:none;" d="M212 194L212 195L218 195L212 194z"/>
<path style="fill:#636363; stroke:none;" d="M224 194L224 206L225 206L224 194z"/>
<path style="fill:#343434; stroke:none;" d="M225 194L225 195L236 195L236 200C238.701 192.891 229.512 194 225 194z"/>
<path style="fill:#636363; stroke:none;" d="M236 194L237 195L236 194z"/>
<path style="fill:#020202; stroke:none;" d="M6 195L6 237L49 237L49 195L6 195z"/>
<path style="fill:#636363; stroke:none;" d="M49 195L49 237L50 237C50 225.043 53.6107 205.988 49 195z"/>
<path style="fill:#020202; stroke:none;" d="M194 195L194 200L199 200L199 195L194 195z"/>
<path style="fill:#636363; stroke:none;" d="M12 200L13 201L12 200z"/>
<path style="fill:#9d9d9d; stroke:none;" d="M43 232L43 231L13 231L13 201L43 201C38.0525 198.924 17.984 197.558 13.6034 201.028C10.2525 203.682 10.2525 228.318 13.6034 230.972C18.864 235.139 36.3639 232 43 232z"/>
<path style="fill:#343434; stroke:none;" d="M43 200L44 201L43 200z"/>
<path style="fill:#9d9d9d; stroke:none;" d="M56 200L56 201L62 201L56 200z"/>
<path style="fill:#636363; stroke:none;" d="M62 200L62 201L68 201L62 200z"/>
<path style="fill:#9d9d9d; stroke:none;" d="M68 200C68.1744 205.31 69.6899 206.826 75 207L75 206L69 206L68 200z"/>
<path style="fill:#636363; stroke:none;" d="M81 200L81 201L87 201L81 200M93 200L94 201L93 200z"/>
<path style="fill:#9d9d9d; stroke:none;" d="M93 207C105.803 206.58 93.4204 194.197 93 207z"/>
<path style="fill:#636363; stroke:none;" d="M99 200L100 201L99 200z"/>
<path style="fill:#343434; stroke:none;" d="M105 200L105 207L106 207L105 200z"/>
<path style="fill:#9d9d9d; stroke:none;" d="M106 200L106 201L118 201L106 200z"/>
<path style="fill:#343434; stroke:none;" d="M118 200L119 201L118 200z"/>
<path style="fill:#636363; stroke:none;" d="M131 200L131 201L143 201L131 200z"/>
<path style="fill:#9d9d9d; stroke:none;" d="M149 200L150 201L149 200z"/>
<path style="fill:#636363; stroke:none;" d="M150 200L150 201L155 201L155 206C156.621 201.733 153.979 200.31 150 200z"/>
<path style="fill:#9d9d9d; stroke:none;" d="M155 200L156 201L155 200M162 200L162 201L174 201L162 200z"/>
<path style="fill:#343434; stroke:none;" d="M211 200L211 207L212 207L211 200z"/>
<path style="fill:#9d9d9d; stroke:none;" d="M212 200L212 201L218 201L212 200z"/>
<path style="fill:#343434; stroke:none;" d="M230 200L231 201L230 200z"/>
<path style="fill:#9d9d9d; stroke:none;" d="M231 200L231 201L237 201L231 200z"/>
<path style="fill:#fbfbfb; stroke:none;" d="M13 201L13 231L43 231L43 201L13 201z"/>
<path style="fill:#636363; stroke:none;" d="M43 201L43 231L44 231L43 201z"/>
<path style="fill:#343434; stroke:none;" d="M62 201L62 206L63 206L62 201z"/>
<path style="fill:#020202; stroke:none;" d="M63 201C62.2912 205.444 60.3943 206.665 56 207L56 237L68 237L68 231L75 231L75 237L80 237L80 225L87 225L87 220C76.0184 220 74 217.982 74 207L68 207L68 201L63 201z"/>
<path style="fill:#9d9d9d; stroke:none;" d="M80 201L80 212L81 212L80 201z"/>
<path style="fill:#fbfbfb; stroke:none;" d="M94 201L94 206L99 206L99 201L94 201M106 201L106 206L118 206L118 201L106 201z"/>
<path style="fill:#636363; stroke:none;" d="M118 201L118 207L124 207L124 206L119 206L118 201z"/>
<path style="fill:#9d9d9d; stroke:none;" d="M130 201L130 212L125 212L125 213L131 213L130 201z"/>
<path style="fill:#020202; stroke:none;" d="M131 201L131 213L125 213L125 219L137 219L137 226L131 226L131 237L136 237C136.785 232.077 139.275 231.154 144 231L144 237L149 237L149 226L143 226L143 213C135.584 212.434 135.584 206.566 143 206L143 201L131 201z"/>
<path style="fill:#9d9d9d; stroke:none;" d="M143 201L143 207L149 207L149 206L144 206L143 201z"/>
<path style="fill:#636363; stroke:none;" d="M149 201L149 206L150 206L149 201M230 201L230 213L231 213L230 201z"/>
<path style="fill:#9d9d9d; stroke:none;" d="M18 206L18 207L37 207L37 225L18 225C21.74 226.569 32.9905 227.67 36.3966 224.972C39.2538 222.709 39.2538 209.291 36.3966 207.028C32.6917 204.093 22.557 206 18 206M56 206L56 207L62 207L56 206z"/>
<path style="fill:#636363; stroke:none;" d="M68 206L69 207L68 206M87 206L87 207L93 207L87 206M99 206L100 207L99 206z"/>
<path style="fill:#9d9d9d; stroke:none;" d="M106 206L106 207L118 207L106 206z"/>
<path style="fill:#636363; stroke:none;" d="M137 206L137 207L143 207L137 206z"/>
<path style="fill:#343434; stroke:none;" d="M149 206L150 207L149 206M155 206L156 207L155 206z"/>
<path style="fill:#636363; stroke:none;" d="M180 206L181 207L180 206M205 206L206 207L205 206z"/>
<path style="fill:#9d9d9d; stroke:none;" d="M212 206L212 207L224 207L212 206z"/>
<path style="fill:#343434; stroke:none;" d="M224 206L225 207L224 206z"/>
<path style="fill:#636363; stroke:none;" d="M18 207L18 225L19 225L18 207z"/>
<path style="fill:#020202; stroke:none;" d="M19 207L19 225L37 225L37 207L19 207z"/>
<path style="fill:#9d9d9d; stroke:none;" d="M55 207L55 237L56 237L55 207z"/>
<path style="fill:#636363; stroke:none;" d="M74 207L74 219L75 219L74 207M93 207L93 213L94 213L93 207z"/>
<path style="fill:#9d9d9d; stroke:none;" d="M118 207L118 219L119 219L118 207z"/>
<path style="fill:#343434; stroke:none;" d="M136 207L136 212L137 212L136 207z"/>
<path style="fill:#fbfbfb; stroke:none;" d="M137 207L137 212L143 212L143 207L137 207z"/>
<path style="fill:#343434; stroke:none;" d="M143 207C143.34 211.365 144.635 212.66 149 213L149 212L144 212L143 207M81 212L81 213L87 213L81 212M94 212L94 213L112 213L94 212z"/>
<path style="fill:#9d9d9d; stroke:none;" d="M137 212L137 213L143 213L143 225C145.661 218.658 144.457 212.245 137 212z"/>
<path style="fill:#636363; stroke:none;" d="M143 212L144 213L143 212z"/>
<path style="fill:#343434; stroke:none;" d="M162 212L162 213L174 213L162 212M199 212L199 213L206 213L199 212M212 212L212 213L230 213L212 212z"/>
<path style="fill:#9d9d9d; stroke:none;" d="M230 219L231 219L231 213L236 213C231.177 211.168 230.137 214.836 230 219z"/>
<path style="fill:#343434; stroke:none;" d="M112 213L112 219L100 219L100 220C105.211 220 115.321 221.203 112 213z"/>
<path style="fill:#636363; stroke:none;" d="M124 213L124 220L125 220L124 213M149 213L149 219L150 219L149 213z"/>
<path style="fill:#343434; stroke:none;" d="M161 213L161 225L162 225L161 213z"/>
<path style="fill:#636363; stroke:none;" d="M174 213L174 219L175 219L174 213z"/>
<path style="fill:#9d9d9d; stroke:none;" d="M199 213L199 219L200 219L199 213z"/>
<path style="fill:#fbfbfb; stroke:none;" d="M200 213L200 219L205 219L205 213L200 213z"/>
<path style="fill:#9d9d9d; stroke:none;" d="M205 213L205 219L206 219L205 213z"/>
<path style="fill:#343434; stroke:none;" d="M211 213L211 219L212 219L211 213z"/>
<path style="fill:#020202; stroke:none;" d="M231 213C230.665 217.394 229.444 219.291 225 220L225 225L231 225L231 232L219 232L219 237L236 237L236 213L231 213z"/>
<path style="fill:#343434; stroke:none;" d="M236 213L236 237L219 237L219 232L218 232C218.524 238.725 230.278 241.026 235.397 236.972C239.206 233.955 237.705 217.062 236 213z"/>
<path style="fill:#9d9d9d; stroke:none;" d="M62 219L63 220L62 219z"/>
<path style="fill:#fbfbfb; stroke:none;" d="M62 225L68 225L68 219C63.6353 219.34 62.3401 220.635 62 225z"/>
<path style="fill:#636363; stroke:none;" d="M68 219L68 225L62 225L62 226C66.7365 225.844 70.0958 224.176 68 219z"/>
<path style="fill:#343434; stroke:none;" d="M75 219L75 220L87 220L75 219z"/>
<path style="fill:#9d9d9d; stroke:none;" d="M99 219L99 225L100 225L99 219M112 219L113 220L112 219z"/>
<path style="fill:#636363; stroke:none;" d="M118 219L118 225L119 225L118 219z"/>
<path style="fill:#343434; stroke:none;" d="M119 219L119 220L124 220L119 219z"/>
<path style="fill:#9d9d9d; stroke:none;" d="M136 219L137 220L136 219M155 219L155 225L156 225L155 219z"/>
<path style="fill:#636363; stroke:none;" d="M168 219L169 220L168 219z"/>
<path style="fill:#343434; stroke:none;" d="M169 219L169 220L174 220L169 219z"/>
<path style="fill:#9d9d9d; stroke:none;" d="M174 219L174 225L175 225L174 219z"/>
<path style="fill:#fbfbfb; stroke:none;" d="M175 219L175 225L180 225L180 219L175 219z"/>
<path style="fill:#9d9d9d; stroke:none;" d="M180 219L180 225L181 225L180 219M193 219L193 225L194 225L193 219z"/>
<path style="fill:#fbfbfb; stroke:none;" d="M194 219L194 225L199 225L199 219L194 219z"/>
<path style="fill:#636363; stroke:none;" d="M199 219L199 225L194 225L194 226C198.5 225.649 200.848 223.564 199 219z"/>
<path style="fill:#343434; stroke:none;" d="M200 219L200 220L205 220L200 219z"/>
<path style="fill:#636363; stroke:none;" d="M205 219C205.155 223.724 206.11 225.619 211 226L211 225L206 225L205 219M224 219L224 225L225 225L224 219z"/>
<path style="fill:#343434; stroke:none;" d="M225 219L225 220L230 220L225 219z"/>
<path style="fill:#020202; stroke:none;" d="M100 220L100 226L94 226L94 231L112 231L112 220L100 220M119 220L119 225L124 225L124 220L119 220z"/>
<path style="fill:#9d9d9d; stroke:none;" d="M124 220L124 225L125 225L124 220z"/>
<path style="fill:#343434; stroke:none;" d="M168 220L168 232L169 232L168 220z"/>
<path style="fill:#020202; stroke:none;" d="M200 220L200 225L205 225L205 220L200 220z"/>
<path style="fill:#343434; stroke:none;" d="M68 225L69 226L68 225M80 225L80 237L75 237L75 238C81.8678 237.465 82.3335 230.561 80 225z"/>
<path style="fill:#9d9d9d; stroke:none;" d="M81 225L81 226L87 226L81 225M93 225L94 226L93 225z"/>
<path style="fill:#636363; stroke:none;" d="M94 225L94 226L99 226L94 225z"/>
<path style="fill:#343434; stroke:none;" d="M99 225L100 226L99 225z"/>
<path style="fill:#9d9d9d; stroke:none;" d="M118 225L118 226L124 226L118 225z"/>
<path style="fill:#636363; stroke:none;" d="M131 225L131 226L137 226L131 225z"/>
<path style="fill:#343434; stroke:none;" d="M143 225L144 226L143 225z"/>
<path style="fill:#636363; stroke:none;" d="M144 225L144 226L149 226L144 225z"/>
<path style="fill:#9d9d9d; stroke:none;" d="M149 225L149 238L150 238L149 225M156 225L156 226L162 226L156 225z"/>
<path style="fill:#343434; stroke:none;" d="M174 225L175 226L174 225z"/>
<path style="fill:#636363; stroke:none;" d="M175 225L175 226L180 226L175 225z"/>
<path style="fill:#343434; stroke:none;" d="M180 225L181 226L180 225M193 225L194 226L193 225z"/>
<path style="fill:#9d9d9d; stroke:none;" d="M199 225L199 238L200 238L200 226L205 226L205 232L206 232L206 225L199 225M211 225L212 226L211 225M224 225L224 226L230 226L230 231L218 231C227.085 234.812 236.094 225.397 224 225z"/>
<path style="fill:#636363; stroke:none;" d="M230 225L231 226L230 225M93 226C93.6918 234.879 105.31 232 112 232L112 231L94 231L93 226z"/>
<path style="fill:#9d9d9d; stroke:none;" d="M130 226L130 238L131 238L130 226z"/>
<path style="fill:#020202; stroke:none;" d="M206 226L206 231L211 231L211 226L206 226z"/>
<path style="fill:#343434; stroke:none;" d="M211 226L211 231L212 231L211 226z"/>
<path style="fill:#636363; stroke:none;" d="M12 231L13 232L12 231z"/>
<path style="fill:#343434; stroke:none;" d="M43 231L44 232L43 231M68 231L69 232L68 231z"/>
<path style="fill:#636363; stroke:none;" d="M69 231L69 232L74 232L69 231z"/>
<path style="fill:#343434; stroke:none;" d="M74 231L75 232L74 231z"/>
<path style="fill:#9d9d9d; stroke:none;" d="M93 231L94 232L93 231M112 231L112 232L124 232L124 238L125 238L125 231L112 231z"/>
<path style="fill:#636363; stroke:none;" d="M137 231L137 232L143 232L137 231z"/>
<path style="fill:#343434; stroke:none;" d="M143 231C143.155 235.724 144.11 237.619 149 238L149 237L144 237L143 231z"/>
<path style="fill:#9d9d9d; stroke:none;" d="M162 231L162 232L168 232L162 231z"/>
<path style="fill:#343434; stroke:none;" d="M180 231L181 232L180 231z"/>
<path style="fill:#636363; stroke:none;" d="M181 231L181 232L193 232L181 231M206 231L206 232L211 232L206 231z"/>
<path style="fill:#9d9d9d; stroke:none;" d="M211 231L212 232L211 231z"/>
<path style="fill:#636363; stroke:none;" d="M230 231L231 232L230 231z"/>
<path style="fill:#9d9d9d; stroke:none;" d="M68 232L68 238L69 238L68 232M74 232L74 238L75 238L74 232z"/>
<path style="fill:#343434; stroke:none;" d="M112 232C112.557 239.149 118.179 238 124 238L124 237L113 237L112 232z"/>
<path style="fill:#020202; stroke:none;" d="M113 232L113 237L124 237L124 232L113 232z"/>
<path style="fill:#343434; stroke:none;" d="M136 232L136 237L131 237L131 238C134.979 237.69 137.621 236.267 136 232z"/>
<path style="fill:#636363; stroke:none;" d="M180 232L180 237L181 237L180 232z"/>
<path style="fill:#343434; stroke:none;" d="M193 232C193.34 236.365 194.635 237.66 199 238L199 237L194 237L193 232M6 237L6 238L49 238C37.7744 233.29 18.2189 237 6 237z"/>
<path style="fill:#9d9d9d; stroke:none;" d="M49 237L50 238L49 237z"/>
<path style="fill:#343434; stroke:none;" d="M56 237L56 238L68 238L56 237z"/>
<path style="fill:#636363; stroke:none;" d="M80 237L81 238L80 237M112 237L113 238L112 237M136 237L137 238L136 237M143 237L144 238L143 237z"/>
<path style="fill:#343434; stroke:none;" d="M162 237L162 238L180 238L162 237z"/>
<path style="fill:#9d9d9d; stroke:none;" d="M180 237L181 238L180 237z"/>
<path style="fill:#636363; stroke:none;" d="M193 237L194 238L193 237M218 237L219 238L218 237M236 237L237 238L236 237z"/>
</svg>
