<svg id="Settings" xmlns="http://www.w3.org/2000/svg" width="26" height="26" viewBox="0 0 26 26">
  <rect id="Rectangle_193" data-name="Rectangle 193" width="26" height="26" fill="none"/>
  <path id="Path_104" data-name="Path 104" d="M272.188,16.25a3.25,3.25,0,1,0-3.25-3.25A3.26,3.26,0,0,0,272.188,16.25Zm-6.663-10.4a9.164,9.164,0,0,1,3.9-2.112L270.725,0h3.25l1.3,3.737a11.347,11.347,0,0,1,3.9,2.112l3.9-.812L284.7,7.962l-2.6,2.925A9.265,9.265,0,0,1,282.262,13c0,.65-.163,1.462-.163,2.113l2.6,2.925-1.625,2.925-3.9-.812a9.164,9.164,0,0,1-3.9,2.112L273.975,26h-3.25l-1.3-3.738a11.348,11.348,0,0,1-3.9-2.112l-3.9.813L260,18.037l2.6-2.925A9.265,9.265,0,0,1,262.438,13c0-.65.163-1.462.163-2.113L260,7.963l1.625-2.925Z" transform="translate(-260)" fill="#b3cb2c"/>
</svg>
