<?xml version="1.0" encoding="UTF-8"?>
<!DOCTYPE svg PUBLIC "-//W3C//DTD SVG 1.1//EN" "http://www.w3.org/Graphics/SVG/1.1/DTD/svg11.dtd">
<svg xmlns="http://www.w3.org/2000/svg" version="1.1" width="185px" height="188px" style="shape-rendering:geometricPrecision; text-rendering:geometricPrecision; image-rendering:optimizeQuality; fill-rule:evenodd; clip-rule:evenodd" xmlns:xlink="http://www.w3.org/1999/xlink">
<g><path style="opacity:1" fill="#fefffe" d="M -0.5,-0.5 C 61.1667,-0.5 122.833,-0.5 184.5,-0.5C 184.5,62.1667 184.5,124.833 184.5,187.5C 122.833,187.5 61.1667,187.5 -0.5,187.5C -0.5,124.833 -0.5,62.1667 -0.5,-0.5 Z"/></g>
<g><path style="opacity:1" fill="#000000" d="M 7.5,7.5 C 26.1667,7.5 44.8333,7.5 63.5,7.5C 63.5,26.1667 63.5,44.8333 63.5,63.5C 44.8333,63.5 26.1667,63.5 7.5,63.5C 7.5,44.8333 7.5,26.1667 7.5,7.5 Z"/></g>
<g><path style="opacity:1" fill="#000000" d="M 79.5,39.5 C 79.5,36.8333 79.5,34.1667 79.5,31.5C 76.8333,31.5 74.1667,31.5 71.5,31.5C 71.5,26.1667 71.5,20.8333 71.5,15.5C 74.1667,15.5 76.8333,15.5 79.5,15.5C 79.5,12.8333 79.5,10.1667 79.5,7.5C 82.1667,7.5 84.8333,7.5 87.5,7.5C 87.5,18.1667 87.5,28.8333 87.5,39.5C 84.8333,39.5 82.1667,39.5 79.5,39.5 Z"/></g>
<g><path style="opacity:1" fill="#000000" d="M 103.5,23.5 C 100.833,23.5 98.1667,23.5 95.5,23.5C 95.5,18.1667 95.5,12.8333 95.5,7.5C 100.833,7.5 106.167,7.5 111.5,7.5C 111.5,10.1667 111.5,12.8333 111.5,15.5C 108.833,15.5 106.167,15.5 103.5,15.5C 103.5,18.1667 103.5,20.8333 103.5,23.5 Z"/></g>
<g><path style="opacity:1" fill="#000000" d="M 119.5,7.5 C 138.167,7.5 156.833,7.5 175.5,7.5C 175.5,26.1667 175.5,44.8333 175.5,63.5C 156.833,63.5 138.167,63.5 119.5,63.5C 119.5,44.8333 119.5,26.1667 119.5,7.5 Z"/></g>
<g><path style="opacity:1" fill="#fefffe" d="M 15.5,15.5 C 28.8333,15.5 42.1667,15.5 55.5,15.5C 55.5,28.8333 55.5,42.1667 55.5,55.5C 42.1667,55.5 28.8333,55.5 15.5,55.5C 15.5,42.1667 15.5,28.8333 15.5,15.5 Z"/></g>
<g><path style="opacity:1" fill="#fefffe" d="M 127.5,15.5 C 140.833,15.5 154.167,15.5 167.5,15.5C 167.5,28.8333 167.5,42.1667 167.5,55.5C 154.167,55.5 140.833,55.5 127.5,55.5C 127.5,42.1667 127.5,28.8333 127.5,15.5 Z"/></g>
<g><path style="opacity:1" fill="#000000" d="M 23.5,23.5 C 31.5,23.5 39.5,23.5 47.5,23.5C 47.5,31.5 47.5,39.5 47.5,47.5C 39.5,47.5 31.5,47.5 23.5,47.5C 23.5,39.5 23.5,31.5 23.5,23.5 Z"/></g>
<g><path style="opacity:1" fill="#000000" d="M 103.5,23.5 C 106.167,23.5 108.833,23.5 111.5,23.5C 111.5,26.1667 111.5,28.8333 111.5,31.5C 108.833,31.5 106.167,31.5 103.5,31.5C 103.5,28.8333 103.5,26.1667 103.5,23.5 Z"/></g>
<g><path style="opacity:1" fill="#000000" d="M 135.5,23.5 C 143.5,23.5 151.5,23.5 159.5,23.5C 159.5,31.5 159.5,39.5 159.5,47.5C 151.5,47.5 143.5,47.5 135.5,47.5C 135.5,39.5 135.5,31.5 135.5,23.5 Z"/></g>
<g><path style="opacity:1" fill="#000000" d="M 103.5,31.5 C 103.5,34.1667 103.5,36.8333 103.5,39.5C 100.833,39.5 98.1667,39.5 95.5,39.5C 95.5,36.8333 95.5,34.1667 95.5,31.5C 98.1667,31.5 100.833,31.5 103.5,31.5 Z"/></g>
<g><path style="opacity:1" fill="#000000" d="M 79.5,39.5 C 79.5,47.5 79.5,55.5 79.5,63.5C 82.1667,63.5 84.8333,63.5 87.5,63.5C 87.5,60.8333 87.5,58.1667 87.5,55.5C 90.1667,55.5 92.8333,55.5 95.5,55.5C 95.5,52.8333 95.5,50.1667 95.5,47.5C 98.1667,47.5 100.833,47.5 103.5,47.5C 103.5,44.8333 103.5,42.1667 103.5,39.5C 106.167,39.5 108.833,39.5 111.5,39.5C 111.5,50.1667 111.5,60.8333 111.5,71.5C 106.167,71.5 100.833,71.5 95.5,71.5C 95.5,76.8333 95.5,82.1667 95.5,87.5C 92.8333,87.5 90.1667,87.5 87.5,87.5C 87.5,84.8333 87.5,82.1667 87.5,79.5C 84.8333,79.5 82.1667,79.5 79.5,79.5C 79.5,76.8333 79.5,74.1667 79.5,71.5C 76.8333,71.5 74.1667,71.5 71.5,71.5C 71.5,60.8333 71.5,50.1667 71.5,39.5C 74.1667,39.5 76.8333,39.5 79.5,39.5 Z"/></g>
<g><path style="opacity:1" fill="#fefffe" d="M 95.5,55.5 C 98.1667,55.5 100.833,55.5 103.5,55.5C 103.5,58.1667 103.5,60.8333 103.5,63.5C 100.833,63.5 98.1667,63.5 95.5,63.5C 95.5,60.8333 95.5,58.1667 95.5,55.5 Z"/></g>
<g><path style="opacity:1" fill="#000000" d="M 23.5,79.5 C 18.1667,79.5 12.8333,79.5 7.5,79.5C 7.5,76.8333 7.5,74.1667 7.5,71.5C 12.8333,71.5 18.1667,71.5 23.5,71.5C 23.5,74.1667 23.5,76.8333 23.5,79.5 Z"/></g>
<g><path style="opacity:1" fill="#000000" d="M 39.5,79.5 C 36.8333,79.5 34.1667,79.5 31.5,79.5C 31.5,76.8333 31.5,74.1667 31.5,71.5C 34.1667,71.5 36.8333,71.5 39.5,71.5C 39.5,74.1667 39.5,76.8333 39.5,79.5 Z"/></g>
<g><path style="opacity:1" fill="#000000" d="M 71.5,71.5 C 71.5,74.1667 71.5,76.8333 71.5,79.5C 66.1667,79.5 60.8333,79.5 55.5,79.5C 55.5,76.8333 55.5,74.1667 55.5,71.5C 60.8333,71.5 66.1667,71.5 71.5,71.5 Z"/></g>
<g><path style="opacity:1" fill="#fefffe" d="M 71.5,71.5 C 74.1667,71.5 76.8333,71.5 79.5,71.5C 79.5,74.1667 79.5,76.8333 79.5,79.5C 82.1667,79.5 84.8333,79.5 87.5,79.5C 87.5,82.1667 87.5,84.8333 87.5,87.5C 84.8333,87.5 82.1667,87.5 79.5,87.5C 79.5,92.8333 79.5,98.1667 79.5,103.5C 71.5,103.5 63.5,103.5 55.5,103.5C 55.5,100.833 55.5,98.1667 55.5,95.5C 58.1667,95.5 60.8333,95.5 63.5,95.5C 63.5,92.8333 63.5,90.1667 63.5,87.5C 60.8333,87.5 58.1667,87.5 55.5,87.5C 55.5,84.8333 55.5,82.1667 55.5,79.5C 60.8333,79.5 66.1667,79.5 71.5,79.5C 71.5,76.8333 71.5,74.1667 71.5,71.5 Z"/></g>
<g><path style="opacity:1" fill="#000000" d="M 143.5,79.5 C 140.833,79.5 138.167,79.5 135.5,79.5C 135.5,82.1667 135.5,84.8333 135.5,87.5C 130.167,87.5 124.833,87.5 119.5,87.5C 119.5,82.1667 119.5,76.8333 119.5,71.5C 127.5,71.5 135.5,71.5 143.5,71.5C 143.5,74.1667 143.5,76.8333 143.5,79.5 Z"/></g>
<g><path style="opacity:1" fill="#000000" d="M 159.5,119.5 C 159.5,116.833 159.5,114.167 159.5,111.5C 156.833,111.5 154.167,111.5 151.5,111.5C 151.5,106.167 151.5,100.833 151.5,95.5C 148.833,95.5 146.167,95.5 143.5,95.5C 143.5,90.1667 143.5,84.8333 143.5,79.5C 146.167,79.5 148.833,79.5 151.5,79.5C 151.5,76.8333 151.5,74.1667 151.5,71.5C 156.833,71.5 162.167,71.5 167.5,71.5C 167.5,76.8333 167.5,82.1667 167.5,87.5C 170.167,87.5 172.833,87.5 175.5,87.5C 175.5,98.1667 175.5,108.833 175.5,119.5C 170.167,119.5 164.833,119.5 159.5,119.5 Z"/></g>
<g><path style="opacity:1" fill="#000000" d="M 23.5,79.5 C 26.1667,79.5 28.8333,79.5 31.5,79.5C 31.5,84.8333 31.5,90.1667 31.5,95.5C 34.1667,95.5 36.8333,95.5 39.5,95.5C 39.5,98.1667 39.5,100.833 39.5,103.5C 34.1667,103.5 28.8333,103.5 23.5,103.5C 23.5,100.833 23.5,98.1667 23.5,95.5C 20.8333,95.5 18.1667,95.5 15.5,95.5C 15.5,92.8333 15.5,90.1667 15.5,87.5C 18.1667,87.5 20.8333,87.5 23.5,87.5C 23.5,84.8333 23.5,82.1667 23.5,79.5 Z"/></g>
<g><path style="opacity:1" fill="#fefffe" d="M 31.5,79.5 C 34.1667,79.5 36.8333,79.5 39.5,79.5C 39.5,84.8333 39.5,90.1667 39.5,95.5C 36.8333,95.5 34.1667,95.5 31.5,95.5C 31.5,90.1667 31.5,84.8333 31.5,79.5 Z"/></g>
<g><path style="opacity:1" fill="#000000" d="M 39.5,79.5 C 44.8333,79.5 50.1667,79.5 55.5,79.5C 55.5,82.1667 55.5,84.8333 55.5,87.5C 52.8333,87.5 50.1667,87.5 47.5,87.5C 47.5,90.1667 47.5,92.8333 47.5,95.5C 44.8333,95.5 42.1667,95.5 39.5,95.5C 39.5,90.1667 39.5,84.8333 39.5,79.5 Z"/></g>
<g><path style="opacity:1" fill="#fefffe" d="M 55.5,87.5 C 55.5,90.1667 55.5,92.8333 55.5,95.5C 52.8333,95.5 50.1667,95.5 47.5,95.5C 47.5,92.8333 47.5,90.1667 47.5,87.5C 50.1667,87.5 52.8333,87.5 55.5,87.5 Z"/></g>
<g><path style="opacity:1" fill="#000000" d="M 55.5,87.5 C 58.1667,87.5 60.8333,87.5 63.5,87.5C 63.5,90.1667 63.5,92.8333 63.5,95.5C 60.8333,95.5 58.1667,95.5 55.5,95.5C 55.5,92.8333 55.5,90.1667 55.5,87.5 Z"/></g>
<g><path style="opacity:1" fill="#000000" d="M 87.5,87.5 C 87.5,90.1667 87.5,92.8333 87.5,95.5C 92.8333,95.5 98.1667,95.5 103.5,95.5C 103.5,98.1667 103.5,100.833 103.5,103.5C 100.833,103.5 98.1667,103.5 95.5,103.5C 95.5,106.167 95.5,108.833 95.5,111.5C 98.1667,111.5 100.833,111.5 103.5,111.5C 103.5,114.167 103.5,116.833 103.5,119.5C 98.1667,119.5 92.8333,119.5 87.5,119.5C 87.5,122.167 87.5,124.833 87.5,127.5C 82.1667,127.5 76.8333,127.5 71.5,127.5C 71.5,122.167 71.5,116.833 71.5,111.5C 66.1667,111.5 60.8333,111.5 55.5,111.5C 55.5,108.833 55.5,106.167 55.5,103.5C 63.5,103.5 71.5,103.5 79.5,103.5C 79.5,98.1667 79.5,92.8333 79.5,87.5C 82.1667,87.5 84.8333,87.5 87.5,87.5 Z"/></g>
<g><path style="opacity:1" fill="#000000" d="M 119.5,87.5 C 119.5,90.1667 119.5,92.8333 119.5,95.5C 114.167,95.5 108.833,95.5 103.5,95.5C 103.5,92.8333 103.5,90.1667 103.5,87.5C 108.833,87.5 114.167,87.5 119.5,87.5 Z"/></g>
<g><path style="opacity:1" fill="#fefffe" d="M 39.5,95.5 C 42.1667,95.5 44.8333,95.5 47.5,95.5C 47.5,98.1667 47.5,100.833 47.5,103.5C 44.8333,103.5 42.1667,103.5 39.5,103.5C 39.5,100.833 39.5,98.1667 39.5,95.5 Z"/></g>
<g><path style="opacity:1" fill="#000000" d="M 47.5,95.5 C 50.1667,95.5 52.8333,95.5 55.5,95.5C 55.5,98.1667 55.5,100.833 55.5,103.5C 52.8333,103.5 50.1667,103.5 47.5,103.5C 47.5,100.833 47.5,98.1667 47.5,95.5 Z"/></g>
<g><path style="opacity:1" fill="#000000" d="M 143.5,111.5 C 135.5,111.5 127.5,111.5 119.5,111.5C 119.5,108.833 119.5,106.167 119.5,103.5C 122.167,103.5 124.833,103.5 127.5,103.5C 127.5,100.833 127.5,98.1667 127.5,95.5C 130.167,95.5 132.833,95.5 135.5,95.5C 135.5,98.1667 135.5,100.833 135.5,103.5C 138.167,103.5 140.833,103.5 143.5,103.5C 143.5,106.167 143.5,108.833 143.5,111.5 Z"/></g>
<g><path style="opacity:1" fill="#000000" d="M 39.5,103.5 C 42.1667,103.5 44.8333,103.5 47.5,103.5C 47.5,106.167 47.5,108.833 47.5,111.5C 44.8333,111.5 42.1667,111.5 39.5,111.5C 39.5,108.833 39.5,106.167 39.5,103.5 Z"/></g>
<g><path style="opacity:1" fill="#fefffe" d="M 103.5,103.5 C 103.5,106.167 103.5,108.833 103.5,111.5C 100.833,111.5 98.1667,111.5 95.5,111.5C 95.5,108.833 95.5,106.167 95.5,103.5C 98.1667,103.5 100.833,103.5 103.5,103.5 Z"/></g>
<g><path style="opacity:1" fill="#000000" d="M 103.5,103.5 C 106.167,103.5 108.833,103.5 111.5,103.5C 111.5,106.167 111.5,108.833 111.5,111.5C 108.833,111.5 106.167,111.5 103.5,111.5C 103.5,108.833 103.5,106.167 103.5,103.5 Z"/></g>
<g><path style="opacity:1" fill="#000000" d="M 143.5,111.5 C 146.167,111.5 148.833,111.5 151.5,111.5C 154.167,111.5 156.833,111.5 159.5,111.5C 159.5,114.167 159.5,116.833 159.5,119.5C 159.5,122.167 159.5,124.833 159.5,127.5C 148.833,127.5 138.167,127.5 127.5,127.5C 127.5,124.833 127.5,122.167 127.5,119.5C 132.833,119.5 138.167,119.5 143.5,119.5C 143.5,116.833 143.5,114.167 143.5,111.5 Z"/></g>
<g><path style="opacity:1" fill="#fefffe" d="M 151.5,111.5 C 154.167,111.5 156.833,111.5 159.5,111.5C 159.5,114.167 159.5,116.833 159.5,119.5C 156.833,119.5 154.167,119.5 151.5,119.5C 151.5,116.833 151.5,114.167 151.5,111.5 Z"/></g>
<g><path style="opacity:1" fill="#000000" d="M 7.5,119.5 C 26.1667,119.5 44.8333,119.5 63.5,119.5C 63.5,138.167 63.5,156.833 63.5,175.5C 44.8333,175.5 26.1667,175.5 7.5,175.5C 7.5,156.833 7.5,138.167 7.5,119.5 Z"/></g>
<g><path style="opacity:1" fill="#000000" d="M 119.5,135.5 C 114.167,135.5 108.833,135.5 103.5,135.5C 103.5,140.833 103.5,146.167 103.5,151.5C 100.833,151.5 98.1667,151.5 95.5,151.5C 95.5,156.833 95.5,162.167 95.5,167.5C 100.833,167.5 106.167,167.5 111.5,167.5C 111.5,170.167 111.5,172.833 111.5,175.5C 98.1667,175.5 84.8333,175.5 71.5,175.5C 71.5,170.167 71.5,164.833 71.5,159.5C 74.1667,159.5 76.8333,159.5 79.5,159.5C 79.5,156.833 79.5,154.167 79.5,151.5C 76.8333,151.5 74.1667,151.5 71.5,151.5C 71.5,148.833 71.5,146.167 71.5,143.5C 74.1667,143.5 76.8333,143.5 79.5,143.5C 79.5,140.833 79.5,138.167 79.5,135.5C 82.1667,135.5 84.8333,135.5 87.5,135.5C 87.5,132.833 87.5,130.167 87.5,127.5C 95.5,127.5 103.5,127.5 111.5,127.5C 111.5,124.833 111.5,122.167 111.5,119.5C 114.167,119.5 116.833,119.5 119.5,119.5C 119.5,124.833 119.5,130.167 119.5,135.5 Z"/></g>
<g><path style="opacity:1" fill="#fefffe" d="M 15.5,127.5 C 28.8333,127.5 42.1667,127.5 55.5,127.5C 55.5,140.833 55.5,154.167 55.5,167.5C 42.1667,167.5 28.8333,167.5 15.5,167.5C 15.5,154.167 15.5,140.833 15.5,127.5 Z"/></g>
<g><path style="opacity:1" fill="#000000" d="M 23.5,135.5 C 31.5,135.5 39.5,135.5 47.5,135.5C 47.5,143.5 47.5,151.5 47.5,159.5C 39.5,159.5 31.5,159.5 23.5,159.5C 23.5,151.5 23.5,143.5 23.5,135.5 Z"/></g>
<g><path style="opacity:1" fill="#fefffe" d="M 119.5,135.5 C 119.5,138.167 119.5,140.833 119.5,143.5C 122.167,143.5 124.833,143.5 127.5,143.5C 127.5,146.167 127.5,148.833 127.5,151.5C 130.167,151.5 132.833,151.5 135.5,151.5C 135.5,154.167 135.5,156.833 135.5,159.5C 138.167,159.5 140.833,159.5 143.5,159.5C 143.5,162.167 143.5,164.833 143.5,167.5C 138.167,167.5 132.833,167.5 127.5,167.5C 127.5,164.833 127.5,162.167 127.5,159.5C 122.167,159.5 116.833,159.5 111.5,159.5C 111.5,156.833 111.5,154.167 111.5,151.5C 108.833,151.5 106.167,151.5 103.5,151.5C 103.5,146.167 103.5,140.833 103.5,135.5C 108.833,135.5 114.167,135.5 119.5,135.5 Z"/></g>
<g><path style="opacity:1" fill="#000000" d="M 119.5,135.5 C 132.833,135.5 146.167,135.5 159.5,135.5C 159.5,138.167 159.5,140.833 159.5,143.5C 162.167,143.5 164.833,143.5 167.5,143.5C 167.5,140.833 167.5,138.167 167.5,135.5C 170.167,135.5 172.833,135.5 175.5,135.5C 175.5,146.167 175.5,156.833 175.5,167.5C 172.833,167.5 170.167,167.5 167.5,167.5C 167.5,162.167 167.5,156.833 167.5,151.5C 162.167,151.5 156.833,151.5 151.5,151.5C 151.5,148.833 151.5,146.167 151.5,143.5C 146.167,143.5 140.833,143.5 135.5,143.5C 135.5,146.167 135.5,148.833 135.5,151.5C 132.833,151.5 130.167,151.5 127.5,151.5C 127.5,148.833 127.5,146.167 127.5,143.5C 124.833,143.5 122.167,143.5 119.5,143.5C 119.5,140.833 119.5,138.167 119.5,135.5 Z"/></g>
<g><path style="opacity:1" fill="#fefffe" d="M 95.5,151.5 C 92.8333,151.5 90.1667,151.5 87.5,151.5C 87.5,148.833 87.5,146.167 87.5,143.5C 90.1667,143.5 92.8333,143.5 95.5,143.5C 95.5,146.167 95.5,148.833 95.5,151.5 Z"/></g>
<g><path style="opacity:1" fill="#fefffe" d="M 151.5,151.5 C 146.167,151.5 140.833,151.5 135.5,151.5C 135.5,148.833 135.5,146.167 135.5,143.5C 140.833,143.5 146.167,143.5 151.5,143.5C 151.5,146.167 151.5,148.833 151.5,151.5 Z"/></g>
<g><path style="opacity:1" fill="#fefffe" d="M 95.5,151.5 C 98.1667,151.5 100.833,151.5 103.5,151.5C 106.167,151.5 108.833,151.5 111.5,151.5C 111.5,154.167 111.5,156.833 111.5,159.5C 111.5,162.167 111.5,164.833 111.5,167.5C 106.167,167.5 100.833,167.5 95.5,167.5C 95.5,162.167 95.5,156.833 95.5,151.5 Z"/></g>
<g><path style="opacity:1" fill="#000000" d="M 103.5,151.5 C 106.167,151.5 108.833,151.5 111.5,151.5C 111.5,154.167 111.5,156.833 111.5,159.5C 108.833,159.5 106.167,159.5 103.5,159.5C 103.5,156.833 103.5,154.167 103.5,151.5 Z"/></g>
<g><path style="opacity:1" fill="#000000" d="M 135.5,151.5 C 140.833,151.5 146.167,151.5 151.5,151.5C 151.5,154.167 151.5,156.833 151.5,159.5C 154.167,159.5 156.833,159.5 159.5,159.5C 159.5,164.833 159.5,170.167 159.5,175.5C 148.833,175.5 138.167,175.5 127.5,175.5C 127.5,172.833 127.5,170.167 127.5,167.5C 132.833,167.5 138.167,167.5 143.5,167.5C 143.5,164.833 143.5,162.167 143.5,159.5C 140.833,159.5 138.167,159.5 135.5,159.5C 135.5,156.833 135.5,154.167 135.5,151.5 Z"/></g>
<g><path style="opacity:1" fill="#fefffe" d="M 79.5,159.5 C 82.1667,159.5 84.8333,159.5 87.5,159.5C 87.5,162.167 87.5,164.833 87.5,167.5C 84.8333,167.5 82.1667,167.5 79.5,167.5C 79.5,164.833 79.5,162.167 79.5,159.5 Z"/></g>
<g><path style="opacity:1" fill="#000000" d="M 111.5,159.5 C 116.833,159.5 122.167,159.5 127.5,159.5C 127.5,162.167 127.5,164.833 127.5,167.5C 122.167,167.5 116.833,167.5 111.5,167.5C 111.5,164.833 111.5,162.167 111.5,159.5 Z"/></g>
</svg>
