<svg id="LOGO" xmlns="http://www.w3.org/2000/svg" width="231.78" height="246.209" viewBox="0 0 231.78 246.209">
  <path id="Pfad_43" data-name="Pfad 43" d="M177.121,1495v-26.556a4.369,4.369,0,0,0-6.851-3.578l-105.3,72.7a18.174,18.174,0,0,1-28.5-14.959V1487.64a36.348,36.348,0,0,1,15.694-29.907l31.307-21.624a17.991,17.991,0,0,0,7.768-14.807v-24.994l.085-23.827a4.373,4.373,0,0,0-6.855-3.577l-21.963,15.164a17.993,17.993,0,0,0-7.768,14.8l-.045,12.777-26.832,18.537A64.5,64.5,0,0,0,0,1483.249v39.327a54.685,54.685,0,0,0,85.747,45l83.579-57.69A18.035,18.035,0,0,0,177.121,1495Z" transform="translate(0 -1368.13)" fill="#ffa600"/>
  <path id="Pfad_44" data-name="Pfad 44" d="M107.141,1388.592l-83.583,57.69a18.038,18.038,0,0,0-7.79,14.844v26.55a4.374,4.374,0,0,0,6.86,3.6l105.295-72.694a18.174,18.174,0,0,1,28.5,14.954v34.972a36.345,36.345,0,0,1-15.7,29.909l-27.991,19.329-3.2,2.209h-.022a17.987,17.987,0,0,0-7.732,14.838v6.744l-.148,41.935a4.369,4.369,0,0,0,6.851,3.578l21.967-15.165a17.981,17.981,0,0,0,7.768-14.8l.045-12.588,26.806-18.51A64.507,64.507,0,0,0,192.92,1472.9v-39.333a54.68,54.68,0,0,0-85.779-44.98Z" transform="translate(38.859 -1341.613)" fill="#b3cb2d"/>
</svg>
