<?xml version="1.0" encoding="UTF-8"?>
<!DOCTYPE svg PUBLIC "-//W3C//DTD SVG 1.1//EN" "http://www.w3.org/Graphics/SVG/1.1/DTD/svg11.dtd">
<svg xmlns="http://www.w3.org/2000/svg" version="1.1" width="189px" height="189px" style="shape-rendering:geometricPrecision; text-rendering:geometricPrecision; image-rendering:optimizeQuality; fill-rule:evenodd; clip-rule:evenodd" xmlns:xlink="http://www.w3.org/1999/xlink">
<g><path style="opacity:1" fill="#fefffe" d="M -0.5,-0.5 C 62.5,-0.5 125.5,-0.5 188.5,-0.5C 188.5,62.5 188.5,125.5 188.5,188.5C 125.5,188.5 62.5,188.5 -0.5,188.5C -0.5,125.5 -0.5,62.5 -0.5,-0.5 Z"/></g>
<g><path style="opacity:1" fill="#000000" d="M 5.5,5.5 C 21.8333,5.5 38.1667,5.5 54.5,5.5C 54.5,21.8333 54.5,38.1667 54.5,54.5C 38.1667,54.5 21.8333,54.5 5.5,54.5C 5.5,38.1667 5.5,21.8333 5.5,5.5 Z"/></g>
<g><path style="opacity:1" fill="#000000" d="M 89.5,54.5 C 89.5,56.8333 89.5,59.1667 89.5,61.5C 87.1667,61.5 84.8333,61.5 82.5,61.5C 82.5,63.8333 82.5,66.1667 82.5,68.5C 80.1667,68.5 77.8333,68.5 75.5,68.5C 75.5,61.5 75.5,54.5 75.5,47.5C 73.1667,47.5 70.8333,47.5 68.5,47.5C 68.5,49.8333 68.5,52.1667 68.5,54.5C 66.1667,54.5 63.8333,54.5 61.5,54.5C 61.5,49.8333 61.5,45.1667 61.5,40.5C 63.8333,40.5 66.1667,40.5 68.5,40.5C 68.5,38.1667 68.5,35.8333 68.5,33.5C 66.1667,33.5 63.8333,33.5 61.5,33.5C 61.5,24.1667 61.5,14.8333 61.5,5.5C 63.8333,5.5 66.1667,5.5 68.5,5.5C 68.5,10.1667 68.5,14.8333 68.5,19.5C 70.8333,19.5 73.1667,19.5 75.5,19.5C 75.5,21.8333 75.5,24.1667 75.5,26.5C 77.8333,26.5 80.1667,26.5 82.5,26.5C 82.5,35.8333 82.5,45.1667 82.5,54.5C 84.8333,54.5 87.1667,54.5 89.5,54.5 Z"/></g>
<g><path style="opacity:1" fill="#000000" d="M 103.5,5.5 C 108.167,5.5 112.833,5.5 117.5,5.5C 117.5,7.83333 117.5,10.1667 117.5,12.5C 112.833,12.5 108.167,12.5 103.5,12.5C 103.5,10.1667 103.5,7.83333 103.5,5.5 Z"/></g>
<g><path style="opacity:1" fill="#000000" d="M 131.5,5.5 C 147.833,5.5 164.167,5.5 180.5,5.5C 180.5,21.8333 180.5,38.1667 180.5,54.5C 164.167,54.5 147.833,54.5 131.5,54.5C 131.5,38.1667 131.5,21.8333 131.5,5.5 Z"/></g>
<g><path style="opacity:1" fill="#fefffe" d="M 12.5,12.5 C 24.1667,12.5 35.8333,12.5 47.5,12.5C 47.5,24.1667 47.5,35.8333 47.5,47.5C 35.8333,47.5 24.1667,47.5 12.5,47.5C 12.5,35.8333 12.5,24.1667 12.5,12.5 Z"/></g>
<g><path style="opacity:1" fill="#000000" d="M 117.5,33.5 C 117.5,38.1667 117.5,42.8333 117.5,47.5C 115.167,47.5 112.833,47.5 110.5,47.5C 110.5,49.8333 110.5,52.1667 110.5,54.5C 112.833,54.5 115.167,54.5 117.5,54.5C 117.5,59.1667 117.5,63.8333 117.5,68.5C 115.167,68.5 112.833,68.5 110.5,68.5C 110.5,66.1667 110.5,63.8333 110.5,61.5C 108.167,61.5 105.833,61.5 103.5,61.5C 103.5,56.8333 103.5,52.1667 103.5,47.5C 101.167,47.5 98.8333,47.5 96.5,47.5C 96.5,45.1667 96.5,42.8333 96.5,40.5C 94.1667,40.5 91.8333,40.5 89.5,40.5C 89.5,33.5 89.5,26.5 89.5,19.5C 87.1667,19.5 84.8333,19.5 82.5,19.5C 82.5,17.1667 82.5,14.8333 82.5,12.5C 87.1667,12.5 91.8333,12.5 96.5,12.5C 96.5,19.5 96.5,26.5 96.5,33.5C 98.8333,33.5 101.167,33.5 103.5,33.5C 103.5,35.8333 103.5,38.1667 103.5,40.5C 105.833,40.5 108.167,40.5 110.5,40.5C 110.5,38.1667 110.5,35.8333 110.5,33.5C 112.833,33.5 115.167,33.5 117.5,33.5 Z"/></g>
<g><path style="opacity:1" fill="#fefffe" d="M 138.5,12.5 C 150.167,12.5 161.833,12.5 173.5,12.5C 173.5,24.1667 173.5,35.8333 173.5,47.5C 161.833,47.5 150.167,47.5 138.5,47.5C 138.5,35.8333 138.5,24.1667 138.5,12.5 Z"/></g>
<g><path style="opacity:1" fill="#000000" d="M 19.5,19.5 C 26.5,19.5 33.5,19.5 40.5,19.5C 40.5,26.5 40.5,33.5 40.5,40.5C 33.5,40.5 26.5,40.5 19.5,40.5C 19.5,33.5 19.5,26.5 19.5,19.5 Z"/></g>
<g><path style="opacity:1" fill="#000000" d="M 117.5,33.5 C 117.5,31.1667 117.5,28.8333 117.5,26.5C 112.833,26.5 108.167,26.5 103.5,26.5C 103.5,24.1667 103.5,21.8333 103.5,19.5C 110.5,19.5 117.5,19.5 124.5,19.5C 124.5,24.1667 124.5,28.8333 124.5,33.5C 122.167,33.5 119.833,33.5 117.5,33.5 Z"/></g>
<g><path style="opacity:1" fill="#000000" d="M 145.5,19.5 C 152.5,19.5 159.5,19.5 166.5,19.5C 166.5,26.5 166.5,33.5 166.5,40.5C 159.5,40.5 152.5,40.5 145.5,40.5C 145.5,33.5 145.5,26.5 145.5,19.5 Z"/></g>
<g><path style="opacity:1" fill="#000000" d="M 96.5,47.5 C 96.5,49.8333 96.5,52.1667 96.5,54.5C 94.1667,54.5 91.8333,54.5 89.5,54.5C 89.5,52.1667 89.5,49.8333 89.5,47.5C 91.8333,47.5 94.1667,47.5 96.5,47.5 Z"/></g>
<g><path style="opacity:1" fill="#fefffe" d="M 96.5,47.5 C 98.8333,47.5 101.167,47.5 103.5,47.5C 103.5,52.1667 103.5,56.8333 103.5,61.5C 105.833,61.5 108.167,61.5 110.5,61.5C 110.5,63.8333 110.5,66.1667 110.5,68.5C 105.833,68.5 101.167,68.5 96.5,68.5C 96.5,66.1667 96.5,63.8333 96.5,61.5C 94.1667,61.5 91.8333,61.5 89.5,61.5C 89.5,59.1667 89.5,56.8333 89.5,54.5C 91.8333,54.5 94.1667,54.5 96.5,54.5C 96.5,52.1667 96.5,49.8333 96.5,47.5 Z"/></g>
<g><path style="opacity:1" fill="#fefffe" d="M 117.5,47.5 C 117.5,49.8333 117.5,52.1667 117.5,54.5C 115.167,54.5 112.833,54.5 110.5,54.5C 110.5,52.1667 110.5,49.8333 110.5,47.5C 112.833,47.5 115.167,47.5 117.5,47.5 Z"/></g>
<g><path style="opacity:1" fill="#000000" d="M 117.5,47.5 C 119.833,47.5 122.167,47.5 124.5,47.5C 124.5,49.8333 124.5,52.1667 124.5,54.5C 122.167,54.5 119.833,54.5 117.5,54.5C 117.5,52.1667 117.5,49.8333 117.5,47.5 Z"/></g>
<g><path style="opacity:1" fill="#000000" d="M 19.5,82.5 C 17.1667,82.5 14.8333,82.5 12.5,82.5C 12.5,89.5 12.5,96.5 12.5,103.5C 10.1667,103.5 7.83333,103.5 5.5,103.5C 5.5,89.5 5.5,75.5 5.5,61.5C 10.1667,61.5 14.8333,61.5 19.5,61.5C 19.5,68.5 19.5,75.5 19.5,82.5 Z"/></g>
<g><path style="opacity:1" fill="#000000" d="M 47.5,75.5 C 45.1667,75.5 42.8333,75.5 40.5,75.5C 40.5,77.8333 40.5,80.1667 40.5,82.5C 42.8333,82.5 45.1667,82.5 47.5,82.5C 47.5,84.8333 47.5,87.1667 47.5,89.5C 49.8333,89.5 52.1667,89.5 54.5,89.5C 54.5,91.8333 54.5,94.1667 54.5,96.5C 49.8333,96.5 45.1667,96.5 40.5,96.5C 40.5,94.1667 40.5,91.8333 40.5,89.5C 38.1667,89.5 35.8333,89.5 33.5,89.5C 33.5,87.1667 33.5,84.8333 33.5,82.5C 31.1667,82.5 28.8333,82.5 26.5,82.5C 26.5,80.1667 26.5,77.8333 26.5,75.5C 28.8333,75.5 31.1667,75.5 33.5,75.5C 33.5,70.8333 33.5,66.1667 33.5,61.5C 40.5,61.5 47.5,61.5 54.5,61.5C 54.5,63.8333 54.5,66.1667 54.5,68.5C 52.1667,68.5 49.8333,68.5 47.5,68.5C 47.5,70.8333 47.5,73.1667 47.5,75.5 Z"/></g>
<g><path style="opacity:1" fill="#000000" d="M 89.5,61.5 C 91.8333,61.5 94.1667,61.5 96.5,61.5C 96.5,63.8333 96.5,66.1667 96.5,68.5C 94.1667,68.5 91.8333,68.5 89.5,68.5C 89.5,66.1667 89.5,63.8333 89.5,61.5 Z"/></g>
<g><path style="opacity:1" fill="#000000" d="M 138.5,61.5 C 140.833,61.5 143.167,61.5 145.5,61.5C 145.5,63.8333 145.5,66.1667 145.5,68.5C 143.167,68.5 140.833,68.5 138.5,68.5C 138.5,66.1667 138.5,63.8333 138.5,61.5 Z"/></g>
<g><path style="opacity:1" fill="#000000" d="M 173.5,89.5 C 171.167,89.5 168.833,89.5 166.5,89.5C 166.5,94.1667 166.5,98.8333 166.5,103.5C 164.167,103.5 161.833,103.5 159.5,103.5C 159.5,105.833 159.5,108.167 159.5,110.5C 157.167,110.5 154.833,110.5 152.5,110.5C 152.5,108.167 152.5,105.833 152.5,103.5C 143.167,103.5 133.833,103.5 124.5,103.5C 124.5,105.833 124.5,108.167 124.5,110.5C 117.5,110.5 110.5,110.5 103.5,110.5C 103.5,108.167 103.5,105.833 103.5,103.5C 108.167,103.5 112.833,103.5 117.5,103.5C 117.5,98.8333 117.5,94.1667 117.5,89.5C 115.167,89.5 112.833,89.5 110.5,89.5C 110.5,91.8333 110.5,94.1667 110.5,96.5C 105.833,96.5 101.167,96.5 96.5,96.5C 96.5,94.1667 96.5,91.8333 96.5,89.5C 94.1667,89.5 91.8333,89.5 89.5,89.5C 89.5,87.1667 89.5,84.8333 89.5,82.5C 91.8333,82.5 94.1667,82.5 96.5,82.5C 96.5,77.8333 96.5,73.1667 96.5,68.5C 101.167,68.5 105.833,68.5 110.5,68.5C 110.5,70.8333 110.5,73.1667 110.5,75.5C 108.167,75.5 105.833,75.5 103.5,75.5C 103.5,77.8333 103.5,80.1667 103.5,82.5C 108.167,82.5 112.833,82.5 117.5,82.5C 117.5,77.8333 117.5,73.1667 117.5,68.5C 119.833,68.5 122.167,68.5 124.5,68.5C 124.5,73.1667 124.5,77.8333 124.5,82.5C 126.833,82.5 129.167,82.5 131.5,82.5C 131.5,84.8333 131.5,87.1667 131.5,89.5C 136.167,89.5 140.833,89.5 145.5,89.5C 145.5,91.8333 145.5,94.1667 145.5,96.5C 150.167,96.5 154.833,96.5 159.5,96.5C 159.5,94.1667 159.5,91.8333 159.5,89.5C 157.167,89.5 154.833,89.5 152.5,89.5C 152.5,84.8333 152.5,80.1667 152.5,75.5C 154.833,75.5 157.167,75.5 159.5,75.5C 159.5,73.1667 159.5,70.8333 159.5,68.5C 157.167,68.5 154.833,68.5 152.5,68.5C 152.5,66.1667 152.5,63.8333 152.5,61.5C 161.833,61.5 171.167,61.5 180.5,61.5C 180.5,63.8333 180.5,66.1667 180.5,68.5C 178.167,68.5 175.833,68.5 173.5,68.5C 173.5,70.8333 173.5,73.1667 173.5,75.5C 175.833,75.5 178.167,75.5 180.5,75.5C 180.5,77.8333 180.5,80.1667 180.5,82.5C 178.167,82.5 175.833,82.5 173.5,82.5C 173.5,84.8333 173.5,87.1667 173.5,89.5 Z"/></g>
<g><path style="opacity:1" fill="#000000" d="M 68.5,75.5 C 66.1667,75.5 63.8333,75.5 61.5,75.5C 61.5,73.1667 61.5,70.8333 61.5,68.5C 63.8333,68.5 66.1667,68.5 68.5,68.5C 68.5,70.8333 68.5,73.1667 68.5,75.5 Z"/></g>
<g><path style="opacity:1" fill="#fefffe" d="M 110.5,68.5 C 112.833,68.5 115.167,68.5 117.5,68.5C 117.5,73.1667 117.5,77.8333 117.5,82.5C 112.833,82.5 108.167,82.5 103.5,82.5C 103.5,80.1667 103.5,77.8333 103.5,75.5C 105.833,75.5 108.167,75.5 110.5,75.5C 110.5,73.1667 110.5,70.8333 110.5,68.5 Z"/></g>
<g><path style="opacity:1" fill="#fefffe" d="M 47.5,75.5 C 47.5,77.8333 47.5,80.1667 47.5,82.5C 45.1667,82.5 42.8333,82.5 40.5,82.5C 40.5,80.1667 40.5,77.8333 40.5,75.5C 42.8333,75.5 45.1667,75.5 47.5,75.5 Z"/></g>
<g><path style="opacity:1" fill="#000000" d="M 47.5,75.5 C 49.8333,75.5 52.1667,75.5 54.5,75.5C 54.5,77.8333 54.5,80.1667 54.5,82.5C 52.1667,82.5 49.8333,82.5 47.5,82.5C 47.5,80.1667 47.5,77.8333 47.5,75.5 Z"/></g>
<g><path style="opacity:1" fill="#000000" d="M 68.5,75.5 C 73.1667,75.5 77.8333,75.5 82.5,75.5C 82.5,77.8333 82.5,80.1667 82.5,82.5C 80.1667,82.5 77.8333,82.5 75.5,82.5C 75.5,84.8333 75.5,87.1667 75.5,89.5C 73.1667,89.5 70.8333,89.5 68.5,89.5C 68.5,84.8333 68.5,80.1667 68.5,75.5 Z"/></g>
<g><path style="opacity:1" fill="#000000" d="M 131.5,82.5 C 131.5,80.1667 131.5,77.8333 131.5,75.5C 136.167,75.5 140.833,75.5 145.5,75.5C 145.5,77.8333 145.5,80.1667 145.5,82.5C 140.833,82.5 136.167,82.5 131.5,82.5 Z"/></g>
<g><path style="opacity:1" fill="#fefffe" d="M 159.5,75.5 C 161.833,75.5 164.167,75.5 166.5,75.5C 166.5,77.8333 166.5,80.1667 166.5,82.5C 164.167,82.5 161.833,82.5 159.5,82.5C 159.5,80.1667 159.5,77.8333 159.5,75.5 Z"/></g>
<g><path style="opacity:1" fill="#000000" d="M 19.5,82.5 C 21.8333,82.5 24.1667,82.5 26.5,82.5C 26.5,89.5 26.5,96.5 26.5,103.5C 28.8333,103.5 31.1667,103.5 33.5,103.5C 33.5,101.167 33.5,98.8333 33.5,96.5C 35.8333,96.5 38.1667,96.5 40.5,96.5C 40.5,98.8333 40.5,101.167 40.5,103.5C 45.1667,103.5 49.8333,103.5 54.5,103.5C 54.5,105.833 54.5,108.167 54.5,110.5C 49.8333,110.5 45.1667,110.5 40.5,110.5C 40.5,112.833 40.5,115.167 40.5,117.5C 38.1667,117.5 35.8333,117.5 33.5,117.5C 33.5,119.833 33.5,122.167 33.5,124.5C 31.1667,124.5 28.8333,124.5 26.5,124.5C 26.5,119.833 26.5,115.167 26.5,110.5C 24.1667,110.5 21.8333,110.5 19.5,110.5C 19.5,101.167 19.5,91.8333 19.5,82.5 Z"/></g>
<g><path style="opacity:1" fill="#fefffe" d="M 26.5,82.5 C 28.8333,82.5 31.1667,82.5 33.5,82.5C 33.5,84.8333 33.5,87.1667 33.5,89.5C 35.8333,89.5 38.1667,89.5 40.5,89.5C 40.5,91.8333 40.5,94.1667 40.5,96.5C 38.1667,96.5 35.8333,96.5 33.5,96.5C 33.5,98.8333 33.5,101.167 33.5,103.5C 31.1667,103.5 28.8333,103.5 26.5,103.5C 26.5,96.5 26.5,89.5 26.5,82.5 Z"/></g>
<g><path style="opacity:1" fill="#fefffe" d="M 47.5,82.5 C 49.8333,82.5 52.1667,82.5 54.5,82.5C 54.5,84.8333 54.5,87.1667 54.5,89.5C 52.1667,89.5 49.8333,89.5 47.5,89.5C 47.5,87.1667 47.5,84.8333 47.5,82.5 Z"/></g>
<g><path style="opacity:1" fill="#000000" d="M 54.5,82.5 C 56.8333,82.5 59.1667,82.5 61.5,82.5C 61.5,84.8333 61.5,87.1667 61.5,89.5C 59.1667,89.5 56.8333,89.5 54.5,89.5C 54.5,87.1667 54.5,84.8333 54.5,82.5 Z"/></g>
<g><path style="opacity:1" fill="#000000" d="M 61.5,89.5 C 63.8333,89.5 66.1667,89.5 68.5,89.5C 68.5,91.8333 68.5,94.1667 68.5,96.5C 73.1667,96.5 77.8333,96.5 82.5,96.5C 82.5,98.8333 82.5,101.167 82.5,103.5C 80.1667,103.5 77.8333,103.5 75.5,103.5C 75.5,105.833 75.5,108.167 75.5,110.5C 73.1667,110.5 70.8333,110.5 68.5,110.5C 68.5,115.167 68.5,119.833 68.5,124.5C 70.8333,124.5 73.1667,124.5 75.5,124.5C 75.5,122.167 75.5,119.833 75.5,117.5C 77.8333,117.5 80.1667,117.5 82.5,117.5C 82.5,126.833 82.5,136.167 82.5,145.5C 80.1667,145.5 77.8333,145.5 75.5,145.5C 75.5,143.167 75.5,140.833 75.5,138.5C 73.1667,138.5 70.8333,138.5 68.5,138.5C 68.5,136.167 68.5,133.833 68.5,131.5C 66.1667,131.5 63.8333,131.5 61.5,131.5C 61.5,117.5 61.5,103.5 61.5,89.5 Z"/></g>
<g><path style="opacity:1" fill="#000000" d="M 89.5,89.5 C 89.5,91.8333 89.5,94.1667 89.5,96.5C 87.1667,96.5 84.8333,96.5 82.5,96.5C 82.5,94.1667 82.5,91.8333 82.5,89.5C 84.8333,89.5 87.1667,89.5 89.5,89.5 Z"/></g>
<g><path style="opacity:1" fill="#fefffe" d="M 89.5,89.5 C 91.8333,89.5 94.1667,89.5 96.5,89.5C 96.5,91.8333 96.5,94.1667 96.5,96.5C 94.1667,96.5 91.8333,96.5 89.5,96.5C 89.5,94.1667 89.5,91.8333 89.5,89.5 Z"/></g>
<g><path style="opacity:1" fill="#fefffe" d="M 159.5,110.5 C 159.5,112.833 159.5,115.167 159.5,117.5C 161.833,117.5 164.167,117.5 166.5,117.5C 166.5,119.833 166.5,122.167 166.5,124.5C 164.167,124.5 161.833,124.5 159.5,124.5C 159.5,126.833 159.5,129.167 159.5,131.5C 157.167,131.5 154.833,131.5 152.5,131.5C 152.5,126.833 152.5,122.167 152.5,117.5C 147.833,117.5 143.167,117.5 138.5,117.5C 138.5,115.167 138.5,112.833 138.5,110.5C 136.167,110.5 133.833,110.5 131.5,110.5C 131.5,112.833 131.5,115.167 131.5,117.5C 124.5,117.5 117.5,117.5 110.5,117.5C 110.5,119.833 110.5,122.167 110.5,124.5C 105.833,124.5 101.167,124.5 96.5,124.5C 96.5,122.167 96.5,119.833 96.5,117.5C 94.1667,117.5 91.8333,117.5 89.5,117.5C 89.5,115.167 89.5,112.833 89.5,110.5C 91.8333,110.5 94.1667,110.5 96.5,110.5C 96.5,105.833 96.5,101.167 96.5,96.5C 101.167,96.5 105.833,96.5 110.5,96.5C 110.5,94.1667 110.5,91.8333 110.5,89.5C 112.833,89.5 115.167,89.5 117.5,89.5C 117.5,94.1667 117.5,98.8333 117.5,103.5C 112.833,103.5 108.167,103.5 103.5,103.5C 103.5,105.833 103.5,108.167 103.5,110.5C 110.5,110.5 117.5,110.5 124.5,110.5C 124.5,108.167 124.5,105.833 124.5,103.5C 133.833,103.5 143.167,103.5 152.5,103.5C 152.5,105.833 152.5,108.167 152.5,110.5C 154.833,110.5 157.167,110.5 159.5,110.5 Z"/></g>
<g><path style="opacity:1" fill="#fefffe" d="M 131.5,89.5 C 131.5,91.8333 131.5,94.1667 131.5,96.5C 129.167,96.5 126.833,96.5 124.5,96.5C 124.5,94.1667 124.5,91.8333 124.5,89.5C 126.833,89.5 129.167,89.5 131.5,89.5 Z"/></g>
<g><path style="opacity:1" fill="#000000" d="M 173.5,89.5 C 175.833,89.5 178.167,89.5 180.5,89.5C 180.5,91.8333 180.5,94.1667 180.5,96.5C 178.167,96.5 175.833,96.5 173.5,96.5C 173.5,94.1667 173.5,91.8333 173.5,89.5 Z"/></g>
<g><path style="opacity:1" fill="#fefffe" d="M 82.5,96.5 C 84.8333,96.5 87.1667,96.5 89.5,96.5C 89.5,98.8333 89.5,101.167 89.5,103.5C 87.1667,103.5 84.8333,103.5 82.5,103.5C 82.5,101.167 82.5,98.8333 82.5,96.5 Z"/></g>
<g><path style="opacity:1" fill="#000000" d="M 89.5,96.5 C 91.8333,96.5 94.1667,96.5 96.5,96.5C 96.5,101.167 96.5,105.833 96.5,110.5C 94.1667,110.5 91.8333,110.5 89.5,110.5C 89.5,112.833 89.5,115.167 89.5,117.5C 87.1667,117.5 84.8333,117.5 82.5,117.5C 82.5,112.833 82.5,108.167 82.5,103.5C 84.8333,103.5 87.1667,103.5 89.5,103.5C 89.5,101.167 89.5,98.8333 89.5,96.5 Z"/></g>
<g><path style="opacity:1" fill="#fefffe" d="M 82.5,103.5 C 82.5,108.167 82.5,112.833 82.5,117.5C 80.1667,117.5 77.8333,117.5 75.5,117.5C 75.5,119.833 75.5,122.167 75.5,124.5C 73.1667,124.5 70.8333,124.5 68.5,124.5C 68.5,119.833 68.5,115.167 68.5,110.5C 70.8333,110.5 73.1667,110.5 75.5,110.5C 75.5,108.167 75.5,105.833 75.5,103.5C 77.8333,103.5 80.1667,103.5 82.5,103.5 Z"/></g>
<g><path style="opacity:1" fill="#000000" d="M 173.5,110.5 C 173.5,108.167 173.5,105.833 173.5,103.5C 175.833,103.5 178.167,103.5 180.5,103.5C 180.5,105.833 180.5,108.167 180.5,110.5C 178.167,110.5 175.833,110.5 173.5,110.5 Z"/></g>
<g><path style="opacity:1" fill="#000000" d="M 159.5,110.5 C 164.167,110.5 168.833,110.5 173.5,110.5C 173.5,115.167 173.5,119.833 173.5,124.5C 175.833,124.5 178.167,124.5 180.5,124.5C 180.5,131.5 180.5,138.5 180.5,145.5C 178.167,145.5 175.833,145.5 173.5,145.5C 173.5,147.833 173.5,150.167 173.5,152.5C 171.167,152.5 168.833,152.5 166.5,152.5C 166.5,154.833 166.5,157.167 166.5,159.5C 168.833,159.5 171.167,159.5 173.5,159.5C 173.5,161.833 173.5,164.167 173.5,166.5C 175.833,166.5 178.167,166.5 180.5,166.5C 180.5,171.167 180.5,175.833 180.5,180.5C 178.167,180.5 175.833,180.5 173.5,180.5C 173.5,178.167 173.5,175.833 173.5,173.5C 171.167,173.5 168.833,173.5 166.5,173.5C 166.5,175.833 166.5,178.167 166.5,180.5C 154.833,180.5 143.167,180.5 131.5,180.5C 131.5,178.167 131.5,175.833 131.5,173.5C 129.167,173.5 126.833,173.5 124.5,173.5C 124.5,171.167 124.5,168.833 124.5,166.5C 117.5,166.5 110.5,166.5 103.5,166.5C 103.5,171.167 103.5,175.833 103.5,180.5C 98.8333,180.5 94.1667,180.5 89.5,180.5C 89.5,178.167 89.5,175.833 89.5,173.5C 87.1667,173.5 84.8333,173.5 82.5,173.5C 82.5,168.833 82.5,164.167 82.5,159.5C 84.8333,159.5 87.1667,159.5 89.5,159.5C 89.5,157.167 89.5,154.833 89.5,152.5C 91.8333,152.5 94.1667,152.5 96.5,152.5C 96.5,150.167 96.5,147.833 96.5,145.5C 103.5,145.5 110.5,145.5 117.5,145.5C 117.5,143.167 117.5,140.833 117.5,138.5C 115.167,138.5 112.833,138.5 110.5,138.5C 110.5,136.167 110.5,133.833 110.5,131.5C 112.833,131.5 115.167,131.5 117.5,131.5C 117.5,129.167 117.5,126.833 117.5,124.5C 115.167,124.5 112.833,124.5 110.5,124.5C 110.5,122.167 110.5,119.833 110.5,117.5C 117.5,117.5 124.5,117.5 131.5,117.5C 131.5,115.167 131.5,112.833 131.5,110.5C 133.833,110.5 136.167,110.5 138.5,110.5C 138.5,112.833 138.5,115.167 138.5,117.5C 143.167,117.5 147.833,117.5 152.5,117.5C 152.5,122.167 152.5,126.833 152.5,131.5C 154.833,131.5 157.167,131.5 159.5,131.5C 159.5,129.167 159.5,126.833 159.5,124.5C 161.833,124.5 164.167,124.5 166.5,124.5C 166.5,122.167 166.5,119.833 166.5,117.5C 164.167,117.5 161.833,117.5 159.5,117.5C 159.5,115.167 159.5,112.833 159.5,110.5 Z"/></g>
<g><path style="opacity:1" fill="#000000" d="M 5.5,117.5 C 10.1667,117.5 14.8333,117.5 19.5,117.5C 19.5,119.833 19.5,122.167 19.5,124.5C 14.8333,124.5 10.1667,124.5 5.5,124.5C 5.5,122.167 5.5,119.833 5.5,117.5 Z"/></g>
<g><path style="opacity:1" fill="#000000" d="M 40.5,117.5 C 45.1667,117.5 49.8333,117.5 54.5,117.5C 54.5,119.833 54.5,122.167 54.5,124.5C 49.8333,124.5 45.1667,124.5 40.5,124.5C 40.5,122.167 40.5,119.833 40.5,117.5 Z"/></g>
<g><path style="opacity:1" fill="#fefffe" d="M 82.5,117.5 C 84.8333,117.5 87.1667,117.5 89.5,117.5C 91.8333,117.5 94.1667,117.5 96.5,117.5C 96.5,119.833 96.5,122.167 96.5,124.5C 96.5,126.833 96.5,129.167 96.5,131.5C 101.167,131.5 105.833,131.5 110.5,131.5C 110.5,133.833 110.5,136.167 110.5,138.5C 112.833,138.5 115.167,138.5 117.5,138.5C 117.5,140.833 117.5,143.167 117.5,145.5C 110.5,145.5 103.5,145.5 96.5,145.5C 96.5,143.167 96.5,140.833 96.5,138.5C 94.1667,138.5 91.8333,138.5 89.5,138.5C 89.5,140.833 89.5,143.167 89.5,145.5C 87.1667,145.5 84.8333,145.5 82.5,145.5C 82.5,136.167 82.5,126.833 82.5,117.5 Z"/></g>
<g><path style="opacity:1" fill="#000000" d="M 89.5,117.5 C 91.8333,117.5 94.1667,117.5 96.5,117.5C 96.5,119.833 96.5,122.167 96.5,124.5C 94.1667,124.5 91.8333,124.5 89.5,124.5C 89.5,122.167 89.5,119.833 89.5,117.5 Z"/></g>
<g><path style="opacity:1" fill="#000000" d="M 96.5,124.5 C 101.167,124.5 105.833,124.5 110.5,124.5C 110.5,126.833 110.5,129.167 110.5,131.5C 105.833,131.5 101.167,131.5 96.5,131.5C 96.5,129.167 96.5,126.833 96.5,124.5 Z"/></g>
<g><path style="opacity:1" fill="#fefffe" d="M 110.5,124.5 C 112.833,124.5 115.167,124.5 117.5,124.5C 117.5,126.833 117.5,129.167 117.5,131.5C 115.167,131.5 112.833,131.5 110.5,131.5C 110.5,129.167 110.5,126.833 110.5,124.5 Z"/></g>
<g><path style="opacity:1" fill="#fefffe" d="M 124.5,124.5 C 131.5,124.5 138.5,124.5 145.5,124.5C 145.5,131.5 145.5,138.5 145.5,145.5C 138.5,145.5 131.5,145.5 124.5,145.5C 124.5,138.5 124.5,131.5 124.5,124.5 Z"/></g>
<g><path style="opacity:1" fill="#000000" d="M 5.5,131.5 C 21.8333,131.5 38.1667,131.5 54.5,131.5C 54.5,147.833 54.5,164.167 54.5,180.5C 38.1667,180.5 21.8333,180.5 5.5,180.5C 5.5,164.167 5.5,147.833 5.5,131.5 Z"/></g>
<g><path style="opacity:1" fill="#000000" d="M 131.5,131.5 C 133.833,131.5 136.167,131.5 138.5,131.5C 138.5,133.833 138.5,136.167 138.5,138.5C 136.167,138.5 133.833,138.5 131.5,138.5C 131.5,136.167 131.5,133.833 131.5,131.5 Z"/></g>
<g><path style="opacity:1" fill="#fefffe" d="M 173.5,145.5 C 168.833,145.5 164.167,145.5 159.5,145.5C 159.5,143.167 159.5,140.833 159.5,138.5C 161.833,138.5 164.167,138.5 166.5,138.5C 166.5,136.167 166.5,133.833 166.5,131.5C 168.833,131.5 171.167,131.5 173.5,131.5C 173.5,136.167 173.5,140.833 173.5,145.5 Z"/></g>
<g><path style="opacity:1" fill="#fefffe" d="M 12.5,138.5 C 24.1667,138.5 35.8333,138.5 47.5,138.5C 47.5,150.167 47.5,161.833 47.5,173.5C 35.8333,173.5 24.1667,173.5 12.5,173.5C 12.5,161.833 12.5,150.167 12.5,138.5 Z"/></g>
<g><path style="opacity:1" fill="#000000" d="M 68.5,138.5 C 68.5,143.167 68.5,147.833 68.5,152.5C 66.1667,152.5 63.8333,152.5 61.5,152.5C 61.5,147.833 61.5,143.167 61.5,138.5C 63.8333,138.5 66.1667,138.5 68.5,138.5 Z"/></g>
<g><path style="opacity:1" fill="#fefffe" d="M 68.5,138.5 C 70.8333,138.5 73.1667,138.5 75.5,138.5C 75.5,140.833 75.5,143.167 75.5,145.5C 77.8333,145.5 80.1667,145.5 82.5,145.5C 82.5,147.833 82.5,150.167 82.5,152.5C 77.8333,152.5 73.1667,152.5 68.5,152.5C 68.5,147.833 68.5,143.167 68.5,138.5 Z"/></g>
<g><path style="opacity:1" fill="#000000" d="M 96.5,145.5 C 94.1667,145.5 91.8333,145.5 89.5,145.5C 89.5,143.167 89.5,140.833 89.5,138.5C 91.8333,138.5 94.1667,138.5 96.5,138.5C 96.5,140.833 96.5,143.167 96.5,145.5 Z"/></g>
<g><path style="opacity:1" fill="#000000" d="M 19.5,145.5 C 26.5,145.5 33.5,145.5 40.5,145.5C 40.5,152.5 40.5,159.5 40.5,166.5C 33.5,166.5 26.5,166.5 19.5,166.5C 19.5,159.5 19.5,152.5 19.5,145.5 Z"/></g>
<g><path style="opacity:1" fill="#000000" d="M 82.5,145.5 C 84.8333,145.5 87.1667,145.5 89.5,145.5C 89.5,147.833 89.5,150.167 89.5,152.5C 87.1667,152.5 84.8333,152.5 82.5,152.5C 82.5,150.167 82.5,147.833 82.5,145.5 Z"/></g>
<g><path style="opacity:1" fill="#fefffe" d="M 89.5,145.5 C 91.8333,145.5 94.1667,145.5 96.5,145.5C 96.5,147.833 96.5,150.167 96.5,152.5C 94.1667,152.5 91.8333,152.5 89.5,152.5C 89.5,150.167 89.5,147.833 89.5,145.5 Z"/></g>
<g><path style="opacity:1" fill="#fefffe" d="M 159.5,145.5 C 159.5,154.833 159.5,164.167 159.5,173.5C 154.833,173.5 150.167,173.5 145.5,173.5C 145.5,171.167 145.5,168.833 145.5,166.5C 140.833,166.5 136.167,166.5 131.5,166.5C 131.5,164.167 131.5,161.833 131.5,159.5C 126.833,159.5 122.167,159.5 117.5,159.5C 117.5,157.167 117.5,154.833 117.5,152.5C 124.5,152.5 131.5,152.5 138.5,152.5C 138.5,154.833 138.5,157.167 138.5,159.5C 143.167,159.5 147.833,159.5 152.5,159.5C 152.5,154.833 152.5,150.167 152.5,145.5C 154.833,145.5 157.167,145.5 159.5,145.5 Z"/></g>
<g><path style="opacity:1" fill="#000000" d="M 68.5,152.5 C 73.1667,152.5 77.8333,152.5 82.5,152.5C 82.5,154.833 82.5,157.167 82.5,159.5C 80.1667,159.5 77.8333,159.5 75.5,159.5C 75.5,164.167 75.5,168.833 75.5,173.5C 77.8333,173.5 80.1667,173.5 82.5,173.5C 82.5,175.833 82.5,178.167 82.5,180.5C 75.5,180.5 68.5,180.5 61.5,180.5C 61.5,175.833 61.5,171.167 61.5,166.5C 63.8333,166.5 66.1667,166.5 68.5,166.5C 68.5,161.833 68.5,157.167 68.5,152.5 Z"/></g>
<g><path style="opacity:1" fill="#fefffe" d="M 82.5,152.5 C 84.8333,152.5 87.1667,152.5 89.5,152.5C 89.5,154.833 89.5,157.167 89.5,159.5C 87.1667,159.5 84.8333,159.5 82.5,159.5C 82.5,157.167 82.5,154.833 82.5,152.5 Z"/></g>
<g><path style="opacity:1" fill="#fefffe" d="M 96.5,152.5 C 98.8333,152.5 101.167,152.5 103.5,152.5C 103.5,154.833 103.5,157.167 103.5,159.5C 101.167,159.5 98.8333,159.5 96.5,159.5C 96.5,157.167 96.5,154.833 96.5,152.5 Z"/></g>
<g><path style="opacity:1" fill="#fefffe" d="M 173.5,152.5 C 173.5,154.833 173.5,157.167 173.5,159.5C 171.167,159.5 168.833,159.5 166.5,159.5C 166.5,157.167 166.5,154.833 166.5,152.5C 168.833,152.5 171.167,152.5 173.5,152.5 Z"/></g>
<g><path style="opacity:1" fill="#000000" d="M 173.5,152.5 C 175.833,152.5 178.167,152.5 180.5,152.5C 180.5,154.833 180.5,157.167 180.5,159.5C 178.167,159.5 175.833,159.5 173.5,159.5C 173.5,157.167 173.5,154.833 173.5,152.5 Z"/></g>
<g><path style="opacity:1" fill="#fefffe" d="M 82.5,159.5 C 82.5,164.167 82.5,168.833 82.5,173.5C 80.1667,173.5 77.8333,173.5 75.5,173.5C 75.5,168.833 75.5,164.167 75.5,159.5C 77.8333,159.5 80.1667,159.5 82.5,159.5 Z"/></g>
<g><path style="opacity:1" fill="#fefffe" d="M 89.5,173.5 C 89.5,171.167 89.5,168.833 89.5,166.5C 91.8333,166.5 94.1667,166.5 96.5,166.5C 96.5,168.833 96.5,171.167 96.5,173.5C 94.1667,173.5 91.8333,173.5 89.5,173.5 Z"/></g>
<g><path style="opacity:1" fill="#000000" d="M 124.5,173.5 C 124.5,175.833 124.5,178.167 124.5,180.5C 122.167,180.5 119.833,180.5 117.5,180.5C 117.5,178.167 117.5,175.833 117.5,173.5C 119.833,173.5 122.167,173.5 124.5,173.5 Z"/></g>
</svg>
