<svg id="Group_68" data-name="Group 68" xmlns="http://www.w3.org/2000/svg" xmlns:xlink="http://www.w3.org/1999/xlink" width="133.215" height="116" viewBox="0 0 133.215 116">
  <defs>
    <clipPath id="clip-path">
      <rect id="Rectangle_190" data-name="Rectangle 190" width="133.215" height="116" fill="none"/>
    </clipPath>
    <clipPath id="clip-path-2">
      <rect id="Rectangle_184" data-name="Rectangle 184" width="33.369" height="42.846" fill="none"/>
    </clipPath>
  </defs>
  <g id="Group_67" data-name="Group 67" clip-path="url(#clip-path)">
    <g id="Group_66" data-name="Group 66">
      <path id="Path_136" data-name="Path 136" d="M110.038,76.59l9.882-6.176v5.293l-14.442,9.027a23.082,23.082,0,0,1,4.56-8.144" transform="translate(-67.604 -45.13)" fill="#fff"/>
      <path id="Path_137" data-name="Path 137" d="M238.716,17.007a8.2,8.2,0,0,0-4.855.7l-5.677-9.081a8.792,8.792,0,0,0-12.122-2.8L193.7,19.8V15.381l0-.869L213.685,2.023c.266-.169.539-.323.815-.47.09-.05.183-.1.276-.14.251-.129.5-.248.761-.355Q215.667,1,215.8.95c.162-.068.326-.129.5-.19.126-.043.255-.086.381-.126.148-.047.295-.093.445-.133a12.89,12.89,0,0,1,1.788-.377c.3-.043.6-.075.9-.093a13.254,13.254,0,0,1,1.731,0l.413.032c.136.014.273.029.41.047s.276.036.413.057c.312.047.625.108.934.18.384.09.765.194,1.135.316.111.036.219.072.33.111.245.086.485.18.726.28a.268.268,0,0,1,.046.022,12.41,12.41,0,0,1,1.121.539h0c.122.068.241.136.359.2s.241.144.356.215c.237.144.47.3.7.467.115.079.226.162.337.251s.212.165.316.251c.233.187.46.388.679.592.075.075.154.147.229.226.151.144.294.294.431.445.122.126.237.259.349.391.14.165.28.334.413.506.266.348.517.707.754,1.084v0Z" transform="translate(-124.147 0)" fill="#fff"/>
      <path id="Path_138" data-name="Path 138" d="M41.3,189.7,67.667,173.22l-.018,5.3L43.677,193.5c-.136.086-.269.165-.409.248-.2.115-.406.226-.614.33-.176.093-.355.18-.535.259-.1.047-.194.09-.294.129s-.173.075-.259.108c-.162.068-.327.133-.5.19-.323.115-.646.215-.973.3s-.65.162-.977.226c-.219.043-.442.079-.664.108-.122.018-.244.032-.37.043s-.23.025-.345.032c-.158.014-.316.022-.478.029-.1.007-.194.007-.291.011a.393.393,0,0,0-.065,0q-.549.011-1.088-.022l-.413-.032c-.136-.014-.273-.029-.409-.047s-.276-.036-.413-.057-.294-.047-.441-.075l-.273-.054c-.071-.018-.147-.032-.219-.05a13.451,13.451,0,0,1-1.465-.427c-.244-.086-.485-.18-.725-.28a.185.185,0,0,1-.047-.022c-.129-.054-.255-.111-.381-.169-.251-.115-.5-.241-.74-.37-.122-.065-.244-.133-.363-.2-.359-.212-.711-.438-1.052-.682-.115-.079-.226-.162-.337-.251s-.212-.165-.316-.251c-.233-.187-.463-.388-.679-.592-.075-.075-.154-.147-.23-.226-.15-.144-.294-.294-.431-.445-.122-.126-.237-.259-.348-.391-.14-.165-.28-.334-.413-.506-.265-.348-.517-.707-.754-1.084v0L2.018,151.916A13.188,13.188,0,0,1,.944,149.8q-.172-.431-.313-.873A11.747,11.747,0,0,1,.28,147.6c-.05-.244-.093-.485-.129-.729-.029-.183-.05-.366-.072-.546,0-.047-.011-.093-.014-.136A13.262,13.262,0,0,1,.3,142.074v0c.046-.2.093-.406.147-.607v0c.054-.2.115-.4.176-.6.093-.3.2-.6.316-.891v0c.1-.262.215-.517.334-.772s.248-.5.384-.75a13.526,13.526,0,0,1,.837-1.325,13.226,13.226,0,0,1,3.745-3.508l15.235-9.523a23.147,23.147,0,0,0-1.749,6.388L8.621,137.413a8.8,8.8,0,0,0-2.8,12.122L29.178,186.9A8.793,8.793,0,0,0,41.3,189.7" transform="translate(0 -79.529)" fill="#fff"/>
      <path id="Path_139" data-name="Path 139" d="M246.849,205.694a23.084,23.084,0,0,1-4.244,7.946l-12.546,7.842.011-3.26v-2.04Z" transform="translate(-147.451 -131.835)" fill="#fff"/>
      <path id="Path_140" data-name="Path 140" d="M335.958,106.659v0c-.043.2-.09.406-.147.607v0c-.054.2-.111.406-.176.6-.093.3-.2.6-.316.891v0c-.1.262-.212.517-.334.772s-.248.5-.384.75a13.462,13.462,0,0,1-.837,1.325,13.226,13.226,0,0,1-3.745,3.508L316.8,123.388a23.028,23.028,0,0,0,1.487-6.223l9.354-5.846a8.8,8.8,0,0,0,2.8-12.122l-7.58-12.129a8.2,8.2,0,0,0,2.758-4.054l8.629,13.806c.086.136.169.273.248.413.162.276.309.557.445.84.068.14.133.284.2.427.129.287.244.575.348.865.05.147.1.291.147.438a11.755,11.755,0,0,1,.352,1.332c.05.244.093.485.129.729.029.183.05.366.072.546,0,.047.011.093.014.136a13.263,13.263,0,0,1-.237,4.111" transform="translate(-203.044 -53.206)" fill="#fff"/>
      <path id="Path_141" data-name="Path 141" d="M133.155,49.342c0-.043-.011-.09-.014-.136-.022-.18-.043-.363-.072-.546-.036-.244-.079-.485-.129-.729a13.752,13.752,0,0,0-.352-1.332c-.047-.147-.1-.291-.147-.438-.107-.291-.223-.578-.348-.865-.065-.144-.129-.287-.2-.427-.137-.284-.288-.564-.446-.84-.079-.14-.162-.276-.248-.413l-8.629-13.806a8.2,8.2,0,0,1-2.758,4.054,7.805,7.805,0,0,1-.768.546L116.34,36.1l-.3.187,7.551,12.083a4.3,4.3,0,0,1-1.372,5.935L115.352,58.6v3.142q0,1.12-.108,2.219a23.028,23.028,0,0,1-1.487,6.223l13.221-8.262a13.226,13.226,0,0,0,3.745-3.508,13.459,13.459,0,0,0,.837-1.325c.136-.248.262-.5.384-.75s.23-.51.334-.772v0c.115-.294.223-.592.316-.89.061-.2.122-.4.176-.6v0c.053-.2.1-.4.147-.607v0a13.485,13.485,0,0,0,.237-4.111M98.921,68.868s0,0-.007.007A12.985,12.985,0,0,1,96.609,70.9l-10.05,6.941-1.149.794H85.4a6.45,6.45,0,0,0-2.779,5.329v2.42l-.011,3.26,12.546-7.842a23.191,23.191,0,0,0,5.232-13.857Zm-63.247,38.04a4.282,4.282,0,0,1-2.686-1.914L9.634,67.629A4.314,4.314,0,0,1,11,61.69l8.556-5.347V53.78a22.99,22.99,0,0,1,1.921-9.225L6.245,54.078A13.222,13.222,0,0,0,2.5,57.586a13.592,13.592,0,0,0-.837,1.325c-.136.248-.262.5-.384.75s-.229.51-.334.772v0c-.115.294-.222.592-.316.891-.061.2-.122.4-.176.6v0c-.054.2-.1.4-.147.607v0a13.5,13.5,0,0,0-.237,4.111c0,.043.011.09.015.136.022.18.043.363.071.546.036.244.079.485.13.729A13.13,13.13,0,0,0,.636,69.4q.139.442.312.873a13.13,13.13,0,0,0,1.073,2.115l23.354,37.362v0c.237.377.488.736.754,1.084.133.172.273.341.413.506.111.133.226.266.348.391.136.151.28.3.431.445.075.079.154.151.23.226.215.2.445.406.679.592.1.086.208.169.316.251s.223.172.338.251a11.163,11.163,0,0,0,1.052.682c.118.072.241.14.362.2.245.129.489.255.74.37.126.057.251.115.381.169a.192.192,0,0,0,.047.022c.241.1.481.194.726.28a13.455,13.455,0,0,0,1.465.427c.072.018.147.032.219.05l.273.054q.221.043.441.075c.137.022.273.043.413.057s.273.032.409.047l.413.032c.28.022.56.029.84.029.083,0,.166,0,.248-.007a.394.394,0,0,1,.065,0c.1,0,.194,0,.291-.011.162-.007.32-.014.478-.029.115-.007.23-.018.344-.032s.248-.025.37-.043c.223-.029.446-.065.665-.108.327-.061.653-.136.977-.226s.65-.187.973-.3c.169-.057.334-.122.5-.19.087-.032.172-.068.259-.108s.2-.083.294-.129c.18-.079.359-.165.535-.259.208-.1.413-.215.614-.33.14-.083.273-.162.409-.248L67.653,98.994l.018-5.3.007-1.917v-2.42a6.27,6.27,0,0,1,.079-1.009L38.924,106.363a4.275,4.275,0,0,1-3.25.546M42.439,31.46a23.123,23.123,0,0,0-5.619,14.1l1.26-.786c.069-.054.137-.1.208-.151l11.243-7.767a6.463,6.463,0,0,0,2.79-5.314V25.284ZM107.848,6.249v0c-.237-.377-.489-.736-.754-1.084-.133-.172-.273-.341-.413-.506-.112-.133-.227-.266-.349-.391-.136-.151-.28-.3-.431-.445-.075-.079-.154-.151-.23-.226-.219-.2-.445-.406-.679-.592-.1-.086-.208-.169-.316-.251s-.223-.172-.338-.251c-.226-.165-.46-.323-.7-.467-.115-.072-.237-.144-.355-.215s-.237-.136-.359-.2h0a12.359,12.359,0,0,0-1.12-.539.271.271,0,0,0-.047-.022c-.241-.1-.481-.194-.725-.28-.111-.039-.219-.075-.33-.111-.37-.122-.75-.226-1.135-.316-.309-.072-.621-.133-.934-.18C98.5.142,98.361.12,98.221.106s-.273-.032-.409-.047L97.4.027a13.254,13.254,0,0,0-1.731,0c-.3.018-.6.05-.9.093A11.729,11.729,0,0,0,92.975.5c-.151.039-.3.086-.445.133-.126.039-.255.083-.381.126-.169.061-.334.122-.5.19q-.129.048-.259.108c-.259.108-.51.226-.761.355-.093.043-.187.09-.276.14-.276.147-.549.3-.815.47L69.56,14.512l0,.869v8.977a6.047,6.047,0,0,1-.047.768L94.3,9.635a4.3,4.3,0,0,1,5.935,1.372l5.645,9.034.251-.158,2.761-1.724a8.067,8.067,0,0,1,.826-.452,8.2,8.2,0,0,1,4.855-.7Z" transform="translate(-0.004 0)" fill="#3d3d3d"/>
      <g id="Group_52" data-name="Group 52" transform="translate(33.513 46.707)" opacity="0.4" style="isolation: isolate">
        <g id="Group_51" data-name="Group 51">
          <g id="Group_50" data-name="Group 50" clip-path="url(#clip-path-2)">
            <path id="Path_142" data-name="Path 142" d="M95.02,134.619l6.394-4a3.591,3.591,0,0,1,4.948,1.142l19.792,31.667a3.591,3.591,0,0,1-1.142,4.948l-6.394,4a3.591,3.591,0,0,1-4.948-1.142L93.878,139.568a3.591,3.591,0,0,1,1.142-4.948" transform="translate(-93.332 -130.077)" fill="#141211"/>
          </g>
        </g>
      </g>
      <g id="Group_55" data-name="Group 55" transform="translate(16.079 57.601)" opacity="0.502" style="isolation: isolate">
        <g id="Group_54" data-name="Group 54">
          <g id="Group_53" data-name="Group 53" clip-path="url(#clip-path-2)">
            <path id="Path_143" data-name="Path 143" d="M46.467,164.959l6.394-4a3.591,3.591,0,0,1,4.948,1.142L77.6,193.772a3.591,3.591,0,0,1-1.142,4.948l-6.394,4a3.591,3.591,0,0,1-4.948-1.142L45.325,169.908a3.591,3.591,0,0,1,1.142-4.948" transform="translate(-44.779 -160.417)" fill="#141211"/>
          </g>
        </g>
      </g>
      <g id="Group_58" data-name="Group 58" transform="translate(50.947 35.814)" opacity="0.302" style="isolation: isolate">
        <g id="Group_57" data-name="Group 57">
          <g id="Group_56" data-name="Group 56" clip-path="url(#clip-path-2)">
            <path id="Path_144" data-name="Path 144" d="M143.573,104.281l6.394-4a3.591,3.591,0,0,1,4.948,1.142l19.792,31.667a3.591,3.591,0,0,1-1.142,4.948l-6.394,4a3.591,3.591,0,0,1-4.948-1.142L142.431,109.23a3.591,3.591,0,0,1,1.142-4.948" transform="translate(-141.885 -99.739)" fill="#141211"/>
          </g>
        </g>
      </g>
      <g id="Group_61" data-name="Group 61" transform="translate(68.38 24.919)" opacity="0.195" style="isolation: isolate">
        <g id="Group_60" data-name="Group 60">
          <g id="Group_59" data-name="Group 59" clip-path="url(#clip-path-2)">
            <path id="Path_145" data-name="Path 145" d="M192.125,73.942l6.394-4a3.59,3.59,0,0,1,4.948,1.141l19.792,31.667a3.591,3.591,0,0,1-1.142,4.948l-6.394,4a3.591,3.591,0,0,1-4.948-1.142L190.983,78.89a3.591,3.591,0,0,1,1.142-4.948" transform="translate(-190.437 -69.399)" fill="#141211"/>
          </g>
        </g>
      </g>
      <g id="Group_64" data-name="Group 64" transform="translate(85.814 14.026)" opacity="0.103" style="isolation: isolate">
        <g id="Group_63" data-name="Group 63">
          <g id="Group_62" data-name="Group 62" clip-path="url(#clip-path-2)">
            <path id="Path_146" data-name="Path 146" d="M240.677,43.6l6.394-4a3.591,3.591,0,0,1,4.948,1.142l19.792,31.667a3.591,3.591,0,0,1-1.142,4.948l-6.394,4a3.591,3.591,0,0,1-4.948-1.142L239.535,48.553a3.591,3.591,0,0,1,1.142-4.948" transform="translate(-238.988 -39.062)" fill="#141211"/>
          </g>
        </g>
      </g>
      <path id="Path_147" data-name="Path 147" d="M136.054,82.215V72.68a1.569,1.569,0,0,0-2.46-1.285L95.784,97.5A6.526,6.526,0,0,1,85.55,92.128V79.572a13.051,13.051,0,0,1,5.635-10.739l11.241-7.765a6.46,6.46,0,0,0,2.789-5.317V46.778l.031-8.556a1.57,1.57,0,0,0-2.461-1.284L94.9,42.383A6.46,6.46,0,0,0,92.11,47.7l-.016,4.588-9.635,6.656A23.16,23.16,0,0,0,72.455,78V92.117a19.636,19.636,0,0,0,30.789,16.158L133.255,87.56a6.476,6.476,0,0,0,2.8-5.345" transform="translate(-46.438 -23.496)" fill="#f89000"/>
      <path id="Path_148" data-name="Path 148" d="M159.892,77.415,129.879,98.13a6.477,6.477,0,0,0-2.8,5.33v9.533a1.571,1.571,0,0,0,2.463,1.293l37.809-26.1a6.526,6.526,0,0,1,10.234,5.37V106.11a13.05,13.05,0,0,1-5.637,10.74L161.9,123.79l-1.149.793h-.008a6.458,6.458,0,0,0-2.776,5.328v2.422l-.053,15.058a1.569,1.569,0,0,0,2.46,1.285l7.888-5.445a6.457,6.457,0,0,0,2.789-5.314l.016-4.52,9.625-6.646a23.163,23.163,0,0,0,10-19.062V93.564a19.634,19.634,0,0,0-30.8-16.151Z" transform="translate(-81.45 -47.382)" fill="#b1c017"/>
      <path id="Path_149" data-name="Path 149" d="M316.979,49.366a10.036,10.036,0,0,1-12.04-1.056l2.707-1.695a8.259,8.259,0,0,0,2.628-11.379l-1.4-2.244a8.255,8.255,0,0,0-11.379-2.625l-2.761,1.724a10.033,10.033,0,0,1,18.079-8.327l7.361,11.778a10.03,10.03,0,0,1-3.192,13.824" transform="translate(-188.604 -12.208)" fill="#3d3d3d"/>
      <rect id="Rectangle_189" data-name="Rectangle 189" width="133.215" height="116" fill="none"/>
    </g>
  </g>
</svg>
