<svg id="Group_68" data-name="Group 68" xmlns="http://www.w3.org/2000/svg" xmlns:xlink="http://www.w3.org/1999/xlink" width="370.997" height="323.054" viewBox="0 0 370.997 323.054">
  <defs>
    <clipPath id="clip-path">
      <rect id="Rectangle_190" data-name="Rectangle 190" width="370.997" height="323.054" fill="none"/>
    </clipPath>
    <clipPath id="clip-path-3">
      <rect id="Rectangle_184" data-name="Rectangle 184" width="92.93" height="119.325" transform="translate(93.331 130.077)" fill="none"/>
    </clipPath>
    <clipPath id="clip-path-4">
      <rect id="Rectangle_185" data-name="Rectangle 185" width="92.931" height="119.325" transform="translate(44.778 160.417)" fill="none"/>
    </clipPath>
    <clipPath id="clip-path-5">
      <rect id="Rectangle_186" data-name="Rectangle 186" width="92.931" height="119.325" transform="translate(141.884 99.739)" fill="none"/>
    </clipPath>
    <clipPath id="clip-path-6">
      <rect id="Rectangle_187" data-name="Rectangle 187" width="92.931" height="119.325" transform="translate(190.436 69.399)" fill="none"/>
    </clipPath>
    <clipPath id="clip-path-7">
      <rect id="Rectangle_188" data-name="Rectangle 188" width="92.931" height="119.325" transform="translate(238.988 39.062)" fill="none"/>
    </clipPath>
  </defs>
  <g id="Group_67" data-name="Group 67" clip-path="url(#clip-path)">
    <g id="Group_66" data-name="Group 66">
      <g id="Group_65" data-name="Group 65" clip-path="url(#clip-path)">
        <path id="Path_136" data-name="Path 136" d="M118.178,87.614l27.52-17.2v14.74l-40.22,25.14a64.281,64.281,0,0,1,12.7-22.68" fill="#fff"/>
        <path id="Path_137" data-name="Path 137" d="M319.069,47.364a22.849,22.849,0,0,0-13.521,1.95l-15.81-25.29a24.485,24.485,0,0,0-33.759-7.79L193.7,55.154V42.834l.01-2.42,55.65-34.78c.74-.47,1.5-.9,2.27-1.31.25-.14.51-.27.77-.39.7-.36,1.4-.69,2.12-.99q.36-.165.72-.3c.45-.19.909-.36,1.379-.53.351-.12.71-.24,1.06-.35.411-.13.821-.26,1.24-.37A35.9,35.9,0,0,1,263.9.344c.84-.12,1.68-.21,2.52-.26a36.913,36.913,0,0,1,4.82-.01l1.15.09c.38.04.76.08,1.141.13s.769.1,1.149.16c.87.13,1.74.3,2.6.5,1.07.25,2.13.54,3.16.88.31.1.609.2.919.31.681.24,1.35.5,2.021.78a.745.745,0,0,1,.129.06,34.567,34.567,0,0,1,3.121,1.5h.009c.34.19.671.38,1,.57s.671.4.991.6c.659.4,1.31.84,1.94,1.3.319.22.629.45.939.7.3.23.591.46.88.7.65.52,1.28,1.08,1.891,1.65.209.21.429.41.639.63.421.4.82.82,1.2,1.24.34.35.661.72.971,1.09.389.46.779.93,1.149,1.41.74.97,1.44,1.97,2.1,3.02v.01Z" fill="#fff"/>
        <path id="Path_138" data-name="Path 138" d="M115.019,306.814l73.43-45.89-.051,14.77-66.76,41.72c-.38.24-.75.46-1.14.69-.56.32-1.13.63-1.71.92-.489.26-.989.5-1.489.72-.271.13-.541.25-.82.36q-.361.165-.721.3c-.45.19-.91.37-1.38.53-.9.32-1.8.6-2.71.84s-1.81.45-2.72.63c-.609.12-1.23.22-1.85.3-.34.05-.68.09-1.03.12q-.48.06-.96.09c-.44.04-.879.06-1.33.08-.27.02-.54.02-.81.03a1.092,1.092,0,0,0-.18.01q-1.529.03-3.03-.06l-1.15-.09c-.379-.04-.76-.08-1.14-.13s-.769-.1-1.15-.16c-.409-.06-.82-.13-1.229-.21l-.761-.15c-.2-.05-.41-.09-.61-.14a37.474,37.474,0,0,1-4.08-1.19c-.68-.24-1.35-.5-2.02-.78a.517.517,0,0,1-.13-.06c-.359-.15-.71-.31-1.06-.47-.7-.32-1.379-.67-2.06-1.03-.34-.18-.68-.37-1.01-.57-1-.59-1.979-1.22-2.93-1.9-.32-.22-.629-.45-.939-.7-.3-.23-.591-.46-.881-.7-.65-.52-1.29-1.08-1.89-1.65-.21-.21-.43-.41-.64-.63-.419-.4-.82-.82-1.2-1.24-.341-.35-.661-.72-.97-1.09-.39-.46-.78-.93-1.151-1.41-.739-.97-1.44-1.97-2.1-3.02v-.01L5.618,201.594a36.731,36.731,0,0,1-2.989-5.89q-.48-1.2-.871-2.43a32.714,32.714,0,0,1-.979-3.71c-.14-.68-.26-1.35-.36-2.03-.08-.51-.14-1.02-.2-1.52-.009-.13-.03-.26-.039-.38a36.935,36.935,0,0,1,.66-11.45v-.01c.129-.57.26-1.13.41-1.69v-.01c.149-.56.32-1.12.49-1.68.26-.83.56-1.66.879-2.48v-.01c.291-.73.6-1.44.931-2.15s.69-1.4,1.069-2.09a37.674,37.674,0,0,1,2.331-3.69,36.832,36.832,0,0,1,10.43-9.77l42.43-26.52a64.464,64.464,0,0,0-4.871,17.79L24.008,161.2a24.505,24.505,0,0,0-7.79,33.76l65.04,104.06a24.488,24.488,0,0,0,33.761,7.79" fill="#fff"/>
        <path id="Path_139" data-name="Path 139" d="M276.819,205.694A64.289,64.289,0,0,1,265,227.824l-34.94,21.84.03-9.08V234.9Z" fill="#fff"/>
        <path id="Path_140" data-name="Path 140" d="M370.158,148.864v.01c-.12.57-.25,1.13-.41,1.69v.01c-.15.57-.31,1.13-.49,1.68-.26.83-.56,1.66-.88,2.48v.01c-.28.73-.59,1.44-.93,2.15s-.69,1.4-1.07,2.09a37.47,37.47,0,0,1-2.33,3.69,36.833,36.833,0,0,1-10.43,9.77l-36.82,23.01a64.134,64.134,0,0,0,4.14-17.33l26.05-16.28a24.5,24.5,0,0,0,7.79-33.76L333.668,94.3a22.831,22.831,0,0,0,7.68-11.29l24.03,38.45c.24.38.47.76.69,1.15.45.77.86,1.55,1.24,2.34.19.39.37.79.55,1.19.36.8.68,1.6.97,2.41.14.41.28.81.41,1.22a32.721,32.721,0,0,1,.98,3.71c.14.68.26,1.35.36,2.03.08.51.14,1.02.2,1.52.01.13.03.26.04.38a36.935,36.935,0,0,1-.66,11.45" fill="#fff"/>
        <path id="Path_141" data-name="Path 141" d="M370.818,137.414c-.009-.12-.03-.25-.039-.38-.061-.5-.121-1.01-.2-1.52-.1-.68-.22-1.35-.36-2.03a38.294,38.294,0,0,0-.98-3.71c-.13-.41-.27-.81-.41-1.22-.3-.81-.62-1.61-.97-2.41-.18-.4-.359-.8-.549-1.19-.381-.79-.8-1.57-1.241-2.34-.22-.39-.45-.77-.69-1.15l-24.03-38.45a22.831,22.831,0,0,1-7.68,11.29,21.736,21.736,0,0,1-2.14,1.52l-7.54,4.72-.84.52,21.03,33.65a11.985,11.985,0,0,1-3.82,16.53l-19.12,11.95v8.75q0,3.12-.3,6.18a64.134,64.134,0,0,1-4.14,17.33l36.82-23.01a36.833,36.833,0,0,0,10.43-9.77,37.47,37.47,0,0,0,2.33-3.69c.38-.69.73-1.39,1.07-2.09s.641-1.42.93-2.15v-.01c.32-.82.621-1.65.88-2.48.17-.56.34-1.12.491-1.68v-.01c.149-.56.28-1.12.409-1.69v-.01a37.555,37.555,0,0,0,.66-11.45m-95.34,54.38c-.01,0-.01.01-.02.02a36.162,36.162,0,0,1-6.42,5.65l-27.99,19.33-3.2,2.21h-.02a17.962,17.962,0,0,0-7.739,14.84v6.74l-.03,9.08L265,227.824a64.586,64.586,0,0,0,14.57-38.59ZM99.339,297.734a11.924,11.924,0,0,1-7.48-5.33l-65.04-104.06a12.015,12.015,0,0,1,3.81-16.54l23.829-14.89v-7.14a64.025,64.025,0,0,1,5.351-25.69L17.379,150.6a36.823,36.823,0,0,0-10.431,9.77,37.854,37.854,0,0,0-2.33,3.69c-.38.69-.73,1.39-1.07,2.09s-.639,1.42-.93,2.15v.01c-.32.82-.619,1.65-.88,2.48-.169.56-.34,1.12-.489,1.68v.01c-.15.56-.28,1.12-.41,1.69v.01a37.587,37.587,0,0,0-.661,11.45c.011.12.03.25.041.38.06.5.12,1.01.2,1.52.1.68.22,1.35.361,2.03a36.567,36.567,0,0,0,.98,3.71q.388,1.23.87,2.43a36.568,36.568,0,0,0,2.989,5.89l65.041,104.05v.01c.659,1.05,1.359,2.05,2.1,3.02.37.48.76.95,1.151,1.41.31.37.629.74.969,1.09.38.42.781.84,1.2,1.24.209.22.429.42.64.63.6.57,1.239,1.13,1.89,1.65.289.24.58.47.879.7.311.25.621.48.94.7a31.084,31.084,0,0,0,2.931,1.9c.33.2.67.39,1.009.57.681.36,1.361.71,2.06,1.03.351.16.7.32,1.06.47a.534.534,0,0,0,.13.06c.67.28,1.34.54,2.021.78a37.474,37.474,0,0,0,4.08,1.19c.2.05.409.09.61.14l.76.15q.615.12,1.229.21c.381.06.761.12,1.151.16s.76.09,1.14.13l1.149.09c.78.06,1.56.08,2.34.08.231,0,.461-.01.69-.02a1.1,1.1,0,0,1,.181-.01c.269-.01.539-.01.81-.03.45-.02.89-.04,1.33-.08.319-.02.64-.05.959-.09.351-.03.69-.07,1.03-.12.621-.08,1.241-.18,1.851-.3.91-.17,1.819-.38,2.72-.63s1.81-.52,2.709-.84c.47-.16.931-.34,1.38-.53.241-.09.48-.19.721-.3.279-.11.55-.23.82-.36.5-.22,1-.46,1.489-.72.58-.29,1.151-.6,1.711-.92.39-.23.759-.45,1.14-.69l66.759-41.72.051-14.77.019-5.34v-6.74a17.462,17.462,0,0,1,.22-2.81l-80.3,50.18a11.9,11.9,0,0,1-9.05,1.52m18.839-210.12a64.4,64.4,0,0,0-15.649,39.26l3.509-2.19c.191-.15.381-.28.58-.42l31.31-21.63a18,18,0,0,0,7.771-14.8V70.414ZM300.339,17.4v-.01c-.661-1.05-1.361-2.05-2.1-3.02-.37-.48-.76-.95-1.149-1.41-.311-.37-.631-.74-.971-1.09-.38-.42-.779-.84-1.2-1.24-.21-.22-.43-.42-.64-.63-.61-.57-1.24-1.13-1.89-1.65-.29-.24-.58-.47-.88-.7-.31-.25-.62-.48-.94-.7-.63-.46-1.28-.9-1.94-1.3-.32-.2-.66-.4-.99-.6s-.66-.38-1-.57h-.01a34.419,34.419,0,0,0-3.12-1.5.754.754,0,0,0-.13-.06c-.67-.28-1.34-.54-2.02-.78-.31-.11-.61-.21-.92-.31-1.03-.34-2.09-.63-3.16-.88-.86-.2-1.73-.37-2.6-.5-.38-.06-.76-.12-1.15-.16s-.76-.09-1.14-.13l-1.15-.09a36.913,36.913,0,0,0-4.82.01c-.84.05-1.68.14-2.52.26a32.666,32.666,0,0,0-4.98,1.05c-.42.11-.829.24-1.24.37-.35.11-.71.23-1.06.35-.47.17-.93.34-1.38.53q-.36.135-.72.3c-.72.3-1.42.63-2.12.99-.26.12-.52.25-.77.39-.77.41-1.53.84-2.27,1.31l-55.65,34.78-.009,2.42v25a16.842,16.842,0,0,1-.131,2.14l69.04-43.14a11.985,11.985,0,0,1,16.53,3.82l15.72,25.16.7-.44,7.69-4.8a22.469,22.469,0,0,1,2.3-1.26,22.846,22.846,0,0,1,13.52-1.95Z" fill="#2e2e2e"/>
        <g id="Group_52" data-name="Group 52" opacity="0.4" style="isolation: isolate">
          <g id="Group_51" data-name="Group 51">
            <g id="Group_50" data-name="Group 50" clip-path="url(#clip-path-3)">
              <path id="Path_142" data-name="Path 142" d="M98.033,142.728l17.808-11.13a10,10,0,0,1,13.78,3.18l55.12,88.192a10,10,0,0,1-3.18,13.78l-17.808,11.13a10,10,0,0,1-13.78-3.18l-55.12-88.192a10,10,0,0,1,3.18-13.78" fill="#141211"/>
            </g>
          </g>
        </g>
        <g id="Group_55" data-name="Group 55" opacity="0.502" style="isolation: isolate">
          <g id="Group_54" data-name="Group 54">
            <g id="Group_53" data-name="Group 53" clip-path="url(#clip-path-4)">
              <path id="Path_143" data-name="Path 143" d="M49.48,173.068l17.808-11.13a10,10,0,0,1,13.78,3.18l55.12,88.192a10,10,0,0,1-3.18,13.78L115.2,278.22a10,10,0,0,1-13.78-3.18L46.3,186.848a10,10,0,0,1,3.18-13.78" fill="#141211"/>
            </g>
          </g>
        </g>
        <g id="Group_58" data-name="Group 58" opacity="0.302" style="isolation: isolate">
          <g id="Group_57" data-name="Group 57">
            <g id="Group_56" data-name="Group 56" clip-path="url(#clip-path-5)">
              <path id="Path_144" data-name="Path 144" d="M146.586,112.39l17.808-11.13a10,10,0,0,1,13.78,3.18l55.12,88.192a10,10,0,0,1-3.18,13.78l-17.808,11.13a10,10,0,0,1-13.78-3.18l-55.12-88.191a10,10,0,0,1,3.18-13.781" fill="#141211"/>
            </g>
          </g>
        </g>
        <g id="Group_61" data-name="Group 61" opacity="0.195" style="isolation: isolate">
          <g id="Group_60" data-name="Group 60">
            <g id="Group_59" data-name="Group 59" clip-path="url(#clip-path-6)">
              <path id="Path_145" data-name="Path 145" d="M195.138,82.05l17.808-11.129a10,10,0,0,1,13.78,3.179l55.12,88.192a10,10,0,0,1-3.18,13.78L260.858,187.2a10,10,0,0,1-13.78-3.18l-55.12-88.191a10,10,0,0,1,3.18-13.781" fill="#141211"/>
            </g>
          </g>
        </g>
        <g id="Group_64" data-name="Group 64" opacity="0.103" style="isolation: isolate">
          <g id="Group_63" data-name="Group 63">
            <g id="Group_62" data-name="Group 62" clip-path="url(#clip-path-7)">
              <path id="Path_146" data-name="Path 146" d="M243.69,51.713,261.5,40.583a10,10,0,0,1,13.78,3.18l55.12,88.192a10,10,0,0,1-3.18,13.78l-17.808,11.13a10,10,0,0,1-13.78-3.18L240.51,65.493a10,10,0,0,1,3.18-13.78" fill="#141211"/>
            </g>
          </g>
        </g>
        <path id="Path_147" data-name="Path 147" d="M249.576,163.529V136.973a4.37,4.37,0,0,0-6.851-3.578l-105.3,72.7a18.174,18.174,0,0,1-28.5-14.959V156.169a36.347,36.347,0,0,1,15.694-29.907l31.307-21.624a17.99,17.99,0,0,0,7.768-14.807V64.837l.085-23.827a4.371,4.371,0,0,0-6.855-3.576L134.961,52.6a17.99,17.99,0,0,0-7.768,14.8l-.045,12.777L100.316,98.711a64.5,64.5,0,0,0-27.861,53.067V191.1a54.685,54.685,0,0,0,85.747,45l83.579-57.69a18.036,18.036,0,0,0,7.795-14.886" fill="#f89000"/>
        <path id="Path_148" data-name="Path 148" d="M218.455,83.638l-83.583,57.69a18.037,18.037,0,0,0-7.79,14.844v26.55a4.374,4.374,0,0,0,6.86,3.6l105.295-72.694a18.174,18.174,0,0,1,28.5,14.954v34.972a36.343,36.343,0,0,1-15.7,29.909l-27.991,19.329-3.2,2.209h-.022a17.986,17.986,0,0,0-7.732,14.838v6.744l-.148,41.935a4.368,4.368,0,0,0,6.851,3.578l21.967-15.165a17.983,17.983,0,0,0,7.768-14.8l.045-12.588,26.806-18.51a64.507,64.507,0,0,0,27.853-53.087V128.613a54.68,54.68,0,0,0-85.779-44.98Z" fill="#b1c017"/>
        <path id="Path_149" data-name="Path 149" d="M357.518,103.484a27.95,27.95,0,0,1-33.53-2.94l7.54-4.72a23,23,0,0,0,7.32-31.69l-3.91-6.25a22.989,22.989,0,0,0-31.69-7.31l-7.69,4.8a27.941,27.941,0,0,1,50.35-23.19l20.5,32.8a27.932,27.932,0,0,1-8.89,38.5" fill="#2e2e2e"/>
      </g>
    </g>
  </g>
</svg>
