<?xml version="1.0" encoding="UTF-8"?>
<!DOCTYPE svg PUBLIC "-//W3C//DTD SVG 1.1//EN" "http://www.w3.org/Graphics/SVG/1.1/DTD/svg11.dtd">
<svg xmlns="http://www.w3.org/2000/svg" version="1.1" width="189px" height="186px" style="shape-rendering:geometricPrecision; text-rendering:geometricPrecision; image-rendering:optimizeQuality; fill-rule:evenodd; clip-rule:evenodd" xmlns:xlink="http://www.w3.org/1999/xlink">
<g><path style="opacity:1" fill="#fefffe" d="M -0.5,-0.5 C 62.5,-0.5 125.5,-0.5 188.5,-0.5C 188.5,61.5 188.5,123.5 188.5,185.5C 125.5,185.5 62.5,185.5 -0.5,185.5C -0.5,123.5 -0.5,61.5 -0.5,-0.5 Z"/></g>
<g><path style="opacity:1" fill="#000000" d="M 9.5,6.5 C 28.1667,6.5 46.8333,6.5 65.5,6.5C 65.5,25.1667 65.5,43.8333 65.5,62.5C 46.8333,62.5 28.1667,62.5 9.5,62.5C 9.5,43.8333 9.5,25.1667 9.5,6.5 Z"/></g>
<g><path style="opacity:1" fill="#000000" d="M 81.5,38.5 C 81.5,35.8333 81.5,33.1667 81.5,30.5C 78.8333,30.5 76.1667,30.5 73.5,30.5C 73.5,25.1667 73.5,19.8333 73.5,14.5C 76.1667,14.5 78.8333,14.5 81.5,14.5C 81.5,11.8333 81.5,9.16667 81.5,6.5C 84.1667,6.5 86.8333,6.5 89.5,6.5C 89.5,17.1667 89.5,27.8333 89.5,38.5C 86.8333,38.5 84.1667,38.5 81.5,38.5 Z"/></g>
<g><path style="opacity:1" fill="#000000" d="M 105.5,22.5 C 102.833,22.5 100.167,22.5 97.5,22.5C 97.5,17.1667 97.5,11.8333 97.5,6.5C 102.833,6.5 108.167,6.5 113.5,6.5C 113.5,9.16667 113.5,11.8333 113.5,14.5C 110.833,14.5 108.167,14.5 105.5,14.5C 105.5,17.1667 105.5,19.8333 105.5,22.5 Z"/></g>
<g><path style="opacity:1" fill="#000000" d="M 121.5,6.5 C 140.167,6.5 158.833,6.5 177.5,6.5C 177.5,25.1667 177.5,43.8333 177.5,62.5C 158.833,62.5 140.167,62.5 121.5,62.5C 121.5,43.8333 121.5,25.1667 121.5,6.5 Z"/></g>
<g><path style="opacity:1" fill="#fefffe" d="M 17.5,14.5 C 30.8333,14.5 44.1667,14.5 57.5,14.5C 57.5,27.8333 57.5,41.1667 57.5,54.5C 44.1667,54.5 30.8333,54.5 17.5,54.5C 17.5,41.1667 17.5,27.8333 17.5,14.5 Z"/></g>
<g><path style="opacity:1" fill="#fefffe" d="M 129.5,14.5 C 142.833,14.5 156.167,14.5 169.5,14.5C 169.5,27.8333 169.5,41.1667 169.5,54.5C 156.167,54.5 142.833,54.5 129.5,54.5C 129.5,41.1667 129.5,27.8333 129.5,14.5 Z"/></g>
<g><path style="opacity:1" fill="#000000" d="M 25.5,22.5 C 33.5,22.5 41.5,22.5 49.5,22.5C 49.5,30.5 49.5,38.5 49.5,46.5C 41.5,46.5 33.5,46.5 25.5,46.5C 25.5,38.5 25.5,30.5 25.5,22.5 Z"/></g>
<g><path style="opacity:1" fill="#000000" d="M 105.5,22.5 C 108.167,22.5 110.833,22.5 113.5,22.5C 113.5,25.1667 113.5,27.8333 113.5,30.5C 110.833,30.5 108.167,30.5 105.5,30.5C 105.5,27.8333 105.5,25.1667 105.5,22.5 Z"/></g>
<g><path style="opacity:1" fill="#000000" d="M 137.5,22.5 C 145.5,22.5 153.5,22.5 161.5,22.5C 161.5,30.5 161.5,38.5 161.5,46.5C 153.5,46.5 145.5,46.5 137.5,46.5C 137.5,38.5 137.5,30.5 137.5,22.5 Z"/></g>
<g><path style="opacity:1" fill="#000000" d="M 105.5,30.5 C 105.5,33.1667 105.5,35.8333 105.5,38.5C 102.833,38.5 100.167,38.5 97.5,38.5C 97.5,35.8333 97.5,33.1667 97.5,30.5C 100.167,30.5 102.833,30.5 105.5,30.5 Z"/></g>
<g><path style="opacity:1" fill="#000000" d="M 81.5,38.5 C 81.5,46.5 81.5,54.5 81.5,62.5C 84.1667,62.5 86.8333,62.5 89.5,62.5C 89.5,59.8333 89.5,57.1667 89.5,54.5C 92.1667,54.5 94.8333,54.5 97.5,54.5C 97.5,51.8333 97.5,49.1667 97.5,46.5C 100.167,46.5 102.833,46.5 105.5,46.5C 105.5,43.8333 105.5,41.1667 105.5,38.5C 108.167,38.5 110.833,38.5 113.5,38.5C 113.5,49.1667 113.5,59.8333 113.5,70.5C 108.167,70.5 102.833,70.5 97.5,70.5C 97.5,78.5 97.5,86.5 97.5,94.5C 100.167,94.5 102.833,94.5 105.5,94.5C 105.5,97.1667 105.5,99.8333 105.5,102.5C 100.167,102.5 94.8333,102.5 89.5,102.5C 89.5,94.5 89.5,86.5 89.5,78.5C 86.8333,78.5 84.1667,78.5 81.5,78.5C 81.5,75.8333 81.5,73.1667 81.5,70.5C 78.8333,70.5 76.1667,70.5 73.5,70.5C 73.5,59.8333 73.5,49.1667 73.5,38.5C 76.1667,38.5 78.8333,38.5 81.5,38.5 Z"/></g>
<g><path style="opacity:1" fill="#fefffe" d="M 97.5,54.5 C 100.167,54.5 102.833,54.5 105.5,54.5C 105.5,57.1667 105.5,59.8333 105.5,62.5C 102.833,62.5 100.167,62.5 97.5,62.5C 97.5,59.8333 97.5,57.1667 97.5,54.5 Z"/></g>
<g><path style="opacity:1" fill="#000000" d="M 57.5,78.5 C 57.5,75.8333 57.5,73.1667 57.5,70.5C 62.8333,70.5 68.1667,70.5 73.5,70.5C 73.5,75.8333 73.5,81.1667 73.5,86.5C 76.1667,86.5 78.8333,86.5 81.5,86.5C 81.5,97.1667 81.5,107.833 81.5,118.5C 84.1667,118.5 86.8333,118.5 89.5,118.5C 89.5,126.5 89.5,134.5 89.5,142.5C 86.8333,142.5 84.1667,142.5 81.5,142.5C 81.5,137.167 81.5,131.833 81.5,126.5C 78.8333,126.5 76.1667,126.5 73.5,126.5C 73.5,121.167 73.5,115.833 73.5,110.5C 65.5,110.5 57.5,110.5 49.5,110.5C 49.5,107.833 49.5,105.167 49.5,102.5C 41.5,102.5 33.5,102.5 25.5,102.5C 25.5,105.167 25.5,107.833 25.5,110.5C 22.8333,110.5 20.1667,110.5 17.5,110.5C 17.5,99.8333 17.5,89.1667 17.5,78.5C 14.8333,78.5 12.1667,78.5 9.5,78.5C 9.5,75.8333 9.5,73.1667 9.5,70.5C 14.8333,70.5 20.1667,70.5 25.5,70.5C 25.5,78.5 25.5,86.5 25.5,94.5C 30.8333,94.5 36.1667,94.5 41.5,94.5C 41.5,91.8333 41.5,89.1667 41.5,86.5C 38.8333,86.5 36.1667,86.5 33.5,86.5C 33.5,81.1667 33.5,75.8333 33.5,70.5C 36.1667,70.5 38.8333,70.5 41.5,70.5C 41.5,73.1667 41.5,75.8333 41.5,78.5C 46.8333,78.5 52.1667,78.5 57.5,78.5 Z"/></g>
<g><path style="opacity:1" fill="#fefffe" d="M 73.5,70.5 C 76.1667,70.5 78.8333,70.5 81.5,70.5C 81.5,73.1667 81.5,75.8333 81.5,78.5C 84.1667,78.5 86.8333,78.5 89.5,78.5C 89.5,86.5 89.5,94.5 89.5,102.5C 94.8333,102.5 100.167,102.5 105.5,102.5C 105.5,105.167 105.5,107.833 105.5,110.5C 100.167,110.5 94.8333,110.5 89.5,110.5C 89.5,113.167 89.5,115.833 89.5,118.5C 86.8333,118.5 84.1667,118.5 81.5,118.5C 81.5,107.833 81.5,97.1667 81.5,86.5C 78.8333,86.5 76.1667,86.5 73.5,86.5C 73.5,81.1667 73.5,75.8333 73.5,70.5 Z"/></g>
<g><path style="opacity:1" fill="#000000" d="M 145.5,78.5 C 142.833,78.5 140.167,78.5 137.5,78.5C 137.5,81.1667 137.5,83.8333 137.5,86.5C 132.167,86.5 126.833,86.5 121.5,86.5C 121.5,81.1667 121.5,75.8333 121.5,70.5C 129.5,70.5 137.5,70.5 145.5,70.5C 145.5,73.1667 145.5,75.8333 145.5,78.5 Z"/></g>
<g><path style="opacity:1" fill="#000000" d="M 169.5,78.5 C 166.833,78.5 164.167,78.5 161.5,78.5C 161.5,89.1667 161.5,99.8333 161.5,110.5C 158.833,110.5 156.167,110.5 153.5,110.5C 153.5,105.167 153.5,99.8333 153.5,94.5C 150.833,94.5 148.167,94.5 145.5,94.5C 145.5,89.1667 145.5,83.8333 145.5,78.5C 148.167,78.5 150.833,78.5 153.5,78.5C 153.5,75.8333 153.5,73.1667 153.5,70.5C 158.833,70.5 164.167,70.5 169.5,70.5C 169.5,73.1667 169.5,75.8333 169.5,78.5 Z"/></g>
<g><path style="opacity:1" fill="#fefffe" d="M 57.5,78.5 C 60.1667,78.5 62.8333,78.5 65.5,78.5C 65.5,81.1667 65.5,83.8333 65.5,86.5C 62.8333,86.5 60.1667,86.5 57.5,86.5C 57.5,83.8333 57.5,81.1667 57.5,78.5 Z"/></g>
<g><path style="opacity:1" fill="#fefffe" d="M 145.5,78.5 C 145.5,83.8333 145.5,89.1667 145.5,94.5C 148.167,94.5 150.833,94.5 153.5,94.5C 153.5,99.8333 153.5,105.167 153.5,110.5C 145.5,110.5 137.5,110.5 129.5,110.5C 129.5,113.167 129.5,115.833 129.5,118.5C 132.167,118.5 134.833,118.5 137.5,118.5C 137.5,121.167 137.5,123.833 137.5,126.5C 134.833,126.5 132.167,126.5 129.5,126.5C 129.5,129.167 129.5,131.833 129.5,134.5C 126.833,134.5 124.167,134.5 121.5,134.5C 121.5,129.167 121.5,123.833 121.5,118.5C 118.833,118.5 116.167,118.5 113.5,118.5C 113.5,121.167 113.5,123.833 113.5,126.5C 108.167,126.5 102.833,126.5 97.5,126.5C 97.5,131.833 97.5,137.167 97.5,142.5C 94.8333,142.5 92.1667,142.5 89.5,142.5C 89.5,134.5 89.5,126.5 89.5,118.5C 94.8333,118.5 100.167,118.5 105.5,118.5C 105.5,115.833 105.5,113.167 105.5,110.5C 108.167,110.5 110.833,110.5 113.5,110.5C 113.5,107.833 113.5,105.167 113.5,102.5C 110.833,102.5 108.167,102.5 105.5,102.5C 105.5,99.8333 105.5,97.1667 105.5,94.5C 110.833,94.5 116.167,94.5 121.5,94.5C 121.5,91.8333 121.5,89.1667 121.5,86.5C 126.833,86.5 132.167,86.5 137.5,86.5C 137.5,83.8333 137.5,81.1667 137.5,78.5C 140.167,78.5 142.833,78.5 145.5,78.5 Z"/></g>
<g><path style="opacity:1" fill="#000000" d="M 169.5,78.5 C 172.167,78.5 174.833,78.5 177.5,78.5C 177.5,89.1667 177.5,99.8333 177.5,110.5C 174.833,110.5 172.167,110.5 169.5,110.5C 169.5,99.8333 169.5,89.1667 169.5,78.5 Z"/></g>
<g><path style="opacity:1" fill="#000000" d="M 121.5,86.5 C 121.5,89.1667 121.5,91.8333 121.5,94.5C 116.167,94.5 110.833,94.5 105.5,94.5C 105.5,91.8333 105.5,89.1667 105.5,86.5C 110.833,86.5 116.167,86.5 121.5,86.5 Z"/></g>
<g><path style="opacity:1" fill="#fefffe" d="M 49.5,102.5 C 49.5,99.8333 49.5,97.1667 49.5,94.5C 54.8333,94.5 60.1667,94.5 65.5,94.5C 65.5,97.1667 65.5,99.8333 65.5,102.5C 60.1667,102.5 54.8333,102.5 49.5,102.5 Z"/></g>
<g><path style="opacity:1" fill="#000000" d="M 145.5,94.5 C 145.5,97.1667 145.5,99.8333 145.5,102.5C 142.833,102.5 140.167,102.5 137.5,102.5C 137.5,99.8333 137.5,97.1667 137.5,94.5C 140.167,94.5 142.833,94.5 145.5,94.5 Z"/></g>
<g><path style="opacity:1" fill="#000000" d="M 105.5,102.5 C 108.167,102.5 110.833,102.5 113.5,102.5C 113.5,105.167 113.5,107.833 113.5,110.5C 110.833,110.5 108.167,110.5 105.5,110.5C 105.5,107.833 105.5,105.167 105.5,102.5 Z"/></g>
<g><path style="opacity:1" fill="#000000" d="M 129.5,110.5 C 126.833,110.5 124.167,110.5 121.5,110.5C 121.5,107.833 121.5,105.167 121.5,102.5C 124.167,102.5 126.833,102.5 129.5,102.5C 129.5,105.167 129.5,107.833 129.5,110.5 Z"/></g>
<g><path style="opacity:1" fill="#000000" d="M 105.5,110.5 C 105.5,113.167 105.5,115.833 105.5,118.5C 100.167,118.5 94.8333,118.5 89.5,118.5C 89.5,115.833 89.5,113.167 89.5,110.5C 94.8333,110.5 100.167,110.5 105.5,110.5 Z"/></g>
<g><path style="opacity:1" fill="#000000" d="M 129.5,110.5 C 137.5,110.5 145.5,110.5 153.5,110.5C 153.5,113.167 153.5,115.833 153.5,118.5C 158.833,118.5 164.167,118.5 169.5,118.5C 169.5,121.167 169.5,123.833 169.5,126.5C 158.833,126.5 148.167,126.5 137.5,126.5C 137.5,123.833 137.5,121.167 137.5,118.5C 134.833,118.5 132.167,118.5 129.5,118.5C 129.5,115.833 129.5,113.167 129.5,110.5 Z"/></g>
<g><path style="opacity:1" fill="#000000" d="M 9.5,118.5 C 28.1667,118.5 46.8333,118.5 65.5,118.5C 65.5,137.167 65.5,155.833 65.5,174.5C 46.8333,174.5 28.1667,174.5 9.5,174.5C 9.5,155.833 9.5,137.167 9.5,118.5 Z"/></g>
<g><path style="opacity:1" fill="#000000" d="M 121.5,134.5 C 116.167,134.5 110.833,134.5 105.5,134.5C 105.5,139.833 105.5,145.167 105.5,150.5C 102.833,150.5 100.167,150.5 97.5,150.5C 97.5,155.833 97.5,161.167 97.5,166.5C 92.1667,166.5 86.8333,166.5 81.5,166.5C 81.5,169.167 81.5,171.833 81.5,174.5C 78.8333,174.5 76.1667,174.5 73.5,174.5C 73.5,169.167 73.5,163.833 73.5,158.5C 78.8333,158.5 84.1667,158.5 89.5,158.5C 89.5,153.167 89.5,147.833 89.5,142.5C 92.1667,142.5 94.8333,142.5 97.5,142.5C 97.5,137.167 97.5,131.833 97.5,126.5C 102.833,126.5 108.167,126.5 113.5,126.5C 113.5,123.833 113.5,121.167 113.5,118.5C 116.167,118.5 118.833,118.5 121.5,118.5C 121.5,123.833 121.5,129.167 121.5,134.5 Z"/></g>
<g><path style="opacity:1" fill="#fefffe" d="M 17.5,126.5 C 30.8333,126.5 44.1667,126.5 57.5,126.5C 57.5,139.833 57.5,153.167 57.5,166.5C 44.1667,166.5 30.8333,166.5 17.5,166.5C 17.5,153.167 17.5,139.833 17.5,126.5 Z"/></g>
<g><path style="opacity:1" fill="#000000" d="M 137.5,126.5 C 137.5,129.167 137.5,131.833 137.5,134.5C 134.833,134.5 132.167,134.5 129.5,134.5C 129.5,131.833 129.5,129.167 129.5,126.5C 132.167,126.5 134.833,126.5 137.5,126.5 Z"/></g>
<g><path style="opacity:1" fill="#000000" d="M 25.5,134.5 C 33.5,134.5 41.5,134.5 49.5,134.5C 49.5,142.5 49.5,150.5 49.5,158.5C 41.5,158.5 33.5,158.5 25.5,158.5C 25.5,150.5 25.5,142.5 25.5,134.5 Z"/></g>
<g><path style="opacity:1" fill="#fefffe" d="M 121.5,134.5 C 121.5,137.167 121.5,139.833 121.5,142.5C 124.167,142.5 126.833,142.5 129.5,142.5C 129.5,147.833 129.5,153.167 129.5,158.5C 124.167,158.5 118.833,158.5 113.5,158.5C 113.5,155.833 113.5,153.167 113.5,150.5C 110.833,150.5 108.167,150.5 105.5,150.5C 105.5,145.167 105.5,139.833 105.5,134.5C 110.833,134.5 116.167,134.5 121.5,134.5 Z"/></g>
<g><path style="opacity:1" fill="#000000" d="M 121.5,134.5 C 124.167,134.5 126.833,134.5 129.5,134.5C 129.5,137.167 129.5,139.833 129.5,142.5C 126.833,142.5 124.167,142.5 121.5,142.5C 121.5,139.833 121.5,137.167 121.5,134.5 Z"/></g>
<g><path style="opacity:1" fill="#fefffe" d="M 129.5,134.5 C 132.167,134.5 134.833,134.5 137.5,134.5C 137.5,137.167 137.5,139.833 137.5,142.5C 134.833,142.5 132.167,142.5 129.5,142.5C 129.5,139.833 129.5,137.167 129.5,134.5 Z"/></g>
<g><path style="opacity:1" fill="#000000" d="M 137.5,134.5 C 145.5,134.5 153.5,134.5 161.5,134.5C 161.5,137.167 161.5,139.833 161.5,142.5C 164.167,142.5 166.833,142.5 169.5,142.5C 169.5,139.833 169.5,137.167 169.5,134.5C 172.167,134.5 174.833,134.5 177.5,134.5C 177.5,145.167 177.5,155.833 177.5,166.5C 174.833,166.5 172.167,166.5 169.5,166.5C 169.5,161.167 169.5,155.833 169.5,150.5C 164.167,150.5 158.833,150.5 153.5,150.5C 153.5,153.167 153.5,155.833 153.5,158.5C 156.167,158.5 158.833,158.5 161.5,158.5C 161.5,163.833 161.5,169.167 161.5,174.5C 156.167,174.5 150.833,174.5 145.5,174.5C 145.5,169.167 145.5,163.833 145.5,158.5C 140.167,158.5 134.833,158.5 129.5,158.5C 129.5,153.167 129.5,147.833 129.5,142.5C 132.167,142.5 134.833,142.5 137.5,142.5C 137.5,139.833 137.5,137.167 137.5,134.5 Z"/></g>
<g><path style="opacity:1" fill="#000000" d="M 81.5,142.5 C 81.5,145.167 81.5,147.833 81.5,150.5C 78.8333,150.5 76.1667,150.5 73.5,150.5C 73.5,147.833 73.5,145.167 73.5,142.5C 76.1667,142.5 78.8333,142.5 81.5,142.5 Z"/></g>
<g><path style="opacity:1" fill="#fefffe" d="M 153.5,150.5 C 150.833,150.5 148.167,150.5 145.5,150.5C 145.5,147.833 145.5,145.167 145.5,142.5C 148.167,142.5 150.833,142.5 153.5,142.5C 153.5,145.167 153.5,147.833 153.5,150.5 Z"/></g>
<g><path style="opacity:1" fill="#fefffe" d="M 105.5,150.5 C 108.167,150.5 110.833,150.5 113.5,150.5C 113.5,153.167 113.5,155.833 113.5,158.5C 113.5,161.167 113.5,163.833 113.5,166.5C 108.167,166.5 102.833,166.5 97.5,166.5C 97.5,161.167 97.5,155.833 97.5,150.5C 100.167,150.5 102.833,150.5 105.5,150.5 Z"/></g>
<g><path style="opacity:1" fill="#000000" d="M 105.5,150.5 C 108.167,150.5 110.833,150.5 113.5,150.5C 113.5,153.167 113.5,155.833 113.5,158.5C 110.833,158.5 108.167,158.5 105.5,158.5C 105.5,155.833 105.5,153.167 105.5,150.5 Z"/></g>
<g><path style="opacity:1" fill="#000000" d="M 113.5,158.5 C 118.833,158.5 124.167,158.5 129.5,158.5C 129.5,161.167 129.5,163.833 129.5,166.5C 124.167,166.5 118.833,166.5 113.5,166.5C 113.5,163.833 113.5,161.167 113.5,158.5 Z"/></g>
<g><path style="opacity:1" fill="#000000" d="M 97.5,166.5 C 102.833,166.5 108.167,166.5 113.5,166.5C 113.5,169.167 113.5,171.833 113.5,174.5C 108.167,174.5 102.833,174.5 97.5,174.5C 97.5,171.833 97.5,169.167 97.5,166.5 Z"/></g>
</svg>
