<svg xmlns="http://www.w3.org/2000/svg" width="40" height="40" viewBox="0 0 40 40">
  <g id="Group_46" data-name="Group 46" transform="translate(-1360 -40)">
    <rect id="Rectangle_129" data-name="Rectangle 129" width="40" height="40" rx="20" transform="translate(1360 40)" fill="#0d55af"/>
    <path id="Path_98" data-name="Path 98" d="M1380,54a2,2,0,1,1-2,2A2.006,2.006,0,0,1,1380,54Zm0,9c2.7,0,5.8,1.29,6,2v1h-12v-.99C1374.2,64.29,1377.3,63,1380,63Zm0-11a4,4,0,1,0,4,4A4,4,0,0,0,1380,52Zm0,9c-2.67,0-8,1.34-8,4v3h16V65C1388,62.34,1382.67,61,1380,61Z" fill="#fff"/>
  </g>
</svg>
