<svg xmlns="http://www.w3.org/2000/svg" width="52" height="48" viewBox="0 0 52 48">
  <g id="Search" transform="translate(6 5)">
    <path id="Path_99" data-name="Path 99" d="M15.9,14.5l-3.3-3.3A6.847,6.847,0,0,0,14,7,6.957,6.957,0,0,0,7,0,6.957,6.957,0,0,0,0,7a6.957,6.957,0,0,0,7,7,6.847,6.847,0,0,0,4.2-1.4l3.3,3.3ZM2,7A4.951,4.951,0,0,1,7,2a4.951,4.951,0,0,1,5,5,4.951,4.951,0,0,1-5,5A4.951,4.951,0,0,1,2,7Z" transform="translate(11 12)" fill="#ffa602"/>
    <rect id="Rectangle_125" data-name="Rectangle 125" width="52" height="48" transform="translate(-6 -5)" fill="none"/>
  </g>
</svg>
